M48
METRIC,LZ,000.000
;FILE_FORMAT=3:3
;TYPE=PLATED
;Layer: PTH_Through
;EasyEDA v6.5.5, 2022-05-15 16:03:05
;b3a66e96751545e5b315a235ba618c9c,f3b4bba6f80a42898d6f7a4ba36534e0,10
;Gerber Generator version 0.2
;Holesize 1 = 0.305 mm
T01C0.305
;Holesize 2 = 0.306 mm
T02C0.306
;Holesize 3 = 0.701 mm
T03C0.701
;Holesize 4 = 0.762 mm
T04C0.762
;Holesize 5 = 0.889 mm
T05C0.889
;Holesize 6 = 0.900 mm
T06C0.900
;Holesize 7 = 0.901 mm
T07C0.901
;Holesize 8 = 1.000 mm
T08C1.000
;Holesize 9 = 1.101 mm
T09C1.101
;Holesize 10 = 1.200 mm
T10C1.200
;Holesize 11 = 1.524 mm
T11C1.524
;Holesize 12 = 1.800 mm
T12C1.800
;Holesize 13 = 2.751 mm
T13C2.751
%
G05
G90
T01
X241300Y093091
X242062Y093091
X242824Y093091
X245745Y093091
X244983Y093091
X244221Y093091
X248666Y093091
X247904Y093091
X247142Y093091
X309245Y087757
X308483Y087757
X307721Y087757
X309245Y086995
X308483Y086995
X307721Y086995
X309372Y104013
X309372Y103251
X309372Y102489
X308483Y104013
X308483Y103251
X308483Y102489
X290830Y132334
X290068Y132334
X289306Y132334
X293497Y132334
X292735Y132334
X291973Y132334
X293497Y131445
X292735Y131445
X291973Y131445
X290830Y131445
X290068Y131445
X289306Y131445
X295529Y131445
X296291Y131445
X297053Y131445
X298196Y131445
X298958Y131445
X299720Y131445
X298196Y132334
X298958Y132334
X299720Y132334
X295529Y132334
X296291Y132334
X297053Y132334
X235204Y131699
X235966Y131699
X236728Y131699
X237871Y131699
X238633Y131699
X239395Y131699
X237871Y132588
X238633Y132588
X239395Y132588
X235204Y132588
X235966Y132588
X236728Y132588
X235204Y129413
X235966Y129413
X236728Y129413
X237871Y129413
X238633Y129413
X239395Y129413
X237871Y130302
X238633Y130302
X239395Y130302
X235204Y130302
X235966Y130302
X236728Y130302
X239776Y106426
X239776Y107188
X239776Y107950
X239776Y109093
X239776Y109855
X239776Y110617
X238887Y109093
X238887Y109855
X238887Y110617
X238887Y106426
X238887Y107188
X238887Y107950
X239776Y102235
X239776Y102997
X239776Y103759
X239776Y104902
X239776Y105664
X238887Y104902
X238887Y105664
X238887Y102235
X238887Y102997
X238887Y103759
X249555Y105029
X250317Y105029
X251079Y105029
X252222Y105029
X252984Y105029
X253746Y105029
X252222Y105918
X252984Y105918
X253746Y105918
X249555Y105918
X250317Y105918
X251079Y105918
X287782Y106680
X287782Y107442
X287782Y108204
X287782Y109347
X287782Y110109
X287782Y110871
X286893Y109347
X286893Y110109
X286893Y110871
X286893Y106680
X286893Y107442
X286893Y108204
X283464Y096774
X284353Y096774
X284353Y097536
X283464Y097536
X283464Y098298
X284353Y098298
X284353Y099441
X283464Y099441
X283464Y100203
X284353Y100203
X284353Y100965
X283464Y100965
X305435Y087884
X305943Y088392
X304927Y087376
X304419Y086868
X303911Y086233
X285242Y087249
X287147Y087630
X288036Y087630
X287147Y088519
X288036Y088519
X289052Y085725
X289814Y085725
T02
X287587Y083803
X290352Y084134
X237602Y088619
X282688Y089320
X277536Y088029
X285035Y083765
X292221Y097179
X279385Y096187
X293817Y089324
X256959Y082318
X253331Y084606
X248600Y089337
X252450Y079109
X293277Y088739
X280077Y089215
X259995Y090842
X242847Y086467
X244020Y084793
X280577Y097322
X239294Y086436
X258956Y092122
X263724Y092122
X250348Y085382
T03
X297561Y099822
X296291Y099822
X295021Y099822
T04
X258191Y102362
X255651Y102362
X253111Y102362
X260731Y102362
X263271Y102362
X265811Y102362
X268351Y102362
X270891Y102362
X270891Y089662
X268351Y089662
X265811Y089662
X263271Y089662
X260731Y089662
X258191Y089662
X255651Y089662
X253111Y089662
X258318Y120904
X255778Y120904
X253238Y120904
X260858Y120904
X263398Y120904
X265938Y120904
X268478Y120904
X271018Y120904
X271018Y108204
X268478Y108204
X265938Y108204
X263398Y108204
X260858Y108204
X258318Y108204
X255778Y108204
X253238Y108204
T05
X308864Y125984
X308864Y123444
X308864Y120904
X226441Y080772
X226441Y083312
X228981Y080772
X228981Y083312
X231521Y080772
X231521Y083312
X234061Y080772
X234061Y083312
X236601Y080772
X236601Y083312
X239141Y080772
X239141Y083312
X241681Y080772
X241681Y083312
X244221Y080772
X244221Y083312
X276352Y090297
X276352Y092837
X278892Y090297
X278892Y092837
X281432Y090297
X281432Y092837
X276352Y098425
X276352Y100965
X278892Y098425
X278892Y100965
X281432Y098425
X281432Y100965
X308991Y113157
X308991Y110617
X308991Y108077
X276352Y109093
X276352Y111633
X278892Y109093
X278892Y111633
X281432Y109093
X281432Y111633
X276352Y117094
X276352Y119634
X278892Y117094
X278892Y119634
X281432Y117094
X281432Y119634
X308737Y090932
X308737Y093472
X308737Y096012
X308737Y098552
T06
X295910Y088265
X295910Y095885
X302133Y088265
X302133Y095885
X289814Y088011
X289814Y095631
T07
X290322Y101062
X290322Y103602
T08
X242824Y114300
X247904Y114300
X242570Y096139
X247650Y096139
T09
X295783Y103378
X303403Y103378
T10
X301498Y083058
X301498Y080518
X298958Y083058
X298958Y080518
X296418Y083058
X296418Y080518
X293878Y083058
X293878Y080518
X291338Y083058
X291338Y080518
X288798Y083058
X288798Y080518
X286258Y083058
X286258Y080518
X283718Y083058
X283718Y080518
X281178Y083058
X281178Y080518
X278638Y083058
X278638Y080518
X276098Y083058
X276098Y080518
X273558Y083058
X273558Y080518
X271018Y083058
X271018Y080518
X268478Y083058
X268478Y080518
X265938Y083058
X265938Y080518
X263398Y083058
X263398Y080518
X260858Y083058
X260858Y080518
X258318Y083058
X258318Y080518
X255778Y083058
X255778Y080518
X253238Y083058
X253238Y080518
T11
X302417Y121262
X296418Y107061
X290419Y109060
X302417Y109060
X290419Y121262
T12
X230632Y089916
X230632Y094996
X230632Y100076
X230632Y105156
X230632Y112014
X230632Y117094
X230632Y122174
X230632Y127254
X243459Y128524
X248539Y128524
X255397Y128524
X260477Y128524
X267335Y128524
X272415Y128524
X279273Y128524
X284353Y128524
T13
X248368Y081788
X306368Y081788
M30
