G04 Layer: BottomLayer*
G04 EasyEDA v6.5.5, 2022-05-15 16:03:05*
G04 b3a66e96751545e5b315a235ba618c9c,f3b4bba6f80a42898d6f7a4ba36534e0,10*
G04 Gerber Generator version 0.2*
G04 Scale: 100 percent, Rotated: No, Reflected: No *
G04 Dimensions in millimeters *
G04 leading zeros omitted , absolute positions ,4 integer and 5 decimal *
%FSLAX45Y45*%
%MOMM*%

%ADD10C,0.2540*%
%ADD11C,1.0000*%
%ADD12C,0.6096*%
%ADD13C,0.6050*%
%ADD14C,1.5748*%
%ADD15R,1.5748X1.5748*%
%ADD16C,1.6000*%
%ADD17C,1.5240*%
%ADD18C,2.8000*%
%ADD19C,1.9050*%
%ADD20C,1.6510*%
%ADD21C,1.8796*%
%ADD22C,2.7940*%
%ADD23C,1.8000*%
%ADD25C,6.0000*%

%LPD*%
G36*
X28191968Y9388348D02*
G01*
X28188056Y9389110D01*
X28184754Y9391345D01*
X28182570Y9394596D01*
X28181808Y9398508D01*
X28181808Y9646208D01*
X28180995Y9654235D01*
X28178810Y9661448D01*
X28175254Y9668103D01*
X28170124Y9674352D01*
X28116530Y9727946D01*
X28114548Y9730841D01*
X28113634Y9734245D01*
X28112923Y9741966D01*
X28110383Y9751415D01*
X28106268Y9760305D01*
X28098242Y9771786D01*
X28097480Y9775698D01*
X28097480Y9796780D01*
X28048102Y9796780D01*
X28044241Y9797542D01*
X28040939Y9799777D01*
X28038755Y9803028D01*
X28037942Y9806940D01*
X28037942Y9878060D01*
X28038755Y9881971D01*
X28040939Y9885222D01*
X28044241Y9887458D01*
X28048102Y9888220D01*
X28097480Y9888220D01*
X28097480Y9936378D01*
X28090876Y9933127D01*
X28079496Y9925507D01*
X28069235Y9916464D01*
X28060192Y9906203D01*
X28056586Y9900767D01*
X28053487Y9897770D01*
X28049423Y9896348D01*
X28045156Y9896703D01*
X28041396Y9898786D01*
X28038856Y9902190D01*
X28037942Y9906406D01*
X28037942Y9985705D01*
X28038856Y9989820D01*
X28041346Y9993274D01*
X28045003Y9995357D01*
X28049220Y9995814D01*
X28058719Y9992563D01*
X28065018Y9991852D01*
X28205785Y9991852D01*
X28209646Y9991090D01*
X28212948Y9988854D01*
X28215183Y9985603D01*
X28215945Y9981692D01*
X28215945Y9938461D01*
X28214980Y9934194D01*
X28212389Y9930739D01*
X28208528Y9928707D01*
X28204210Y9928453D01*
X28200146Y9930028D01*
X28195524Y9933127D01*
X28188920Y9936378D01*
X28188920Y9888220D01*
X28205785Y9888220D01*
X28209646Y9887458D01*
X28212948Y9885222D01*
X28215183Y9881971D01*
X28215945Y9878060D01*
X28215945Y9806940D01*
X28215183Y9803028D01*
X28212948Y9799777D01*
X28209646Y9797542D01*
X28205785Y9796780D01*
X28188920Y9796780D01*
X28188920Y9748621D01*
X28195524Y9751872D01*
X28200146Y9754971D01*
X28204210Y9756546D01*
X28208528Y9756292D01*
X28212389Y9754260D01*
X28214980Y9750806D01*
X28215945Y9746538D01*
X28215945Y9398508D01*
X28215183Y9394596D01*
X28212948Y9391345D01*
X28209646Y9389110D01*
X28205785Y9388348D01*
G37*

%LPD*%
G36*
X28218790Y9105595D02*
G01*
X28215234Y9106255D01*
X28212084Y9108135D01*
X28206903Y9112707D01*
X28205125Y9113875D01*
X28202127Y9116974D01*
X28200705Y9121038D01*
X28201010Y9125305D01*
X28203093Y9129064D01*
X28206547Y9131604D01*
X28210764Y9132519D01*
X28242107Y9132519D01*
X28250134Y9133281D01*
X28257398Y9135465D01*
X28264053Y9139072D01*
X28270301Y9144152D01*
X28281477Y9155379D01*
X28286608Y9161627D01*
X28290164Y9168282D01*
X28292348Y9175496D01*
X28293161Y9183522D01*
X28293161Y10195458D01*
X28292348Y10203484D01*
X28290164Y10210698D01*
X28286608Y10217353D01*
X28281477Y10223601D01*
X27793797Y10711332D01*
X27787549Y10716412D01*
X27780894Y10719968D01*
X27773630Y10722203D01*
X27765603Y10722965D01*
X27172056Y10722965D01*
X27167992Y10723829D01*
X27164588Y10726216D01*
X27162455Y10729823D01*
X27161896Y10733938D01*
X27163064Y10737900D01*
X27165757Y10741101D01*
X27169567Y10744149D01*
X27172513Y10745774D01*
X27175866Y10746333D01*
X27929992Y10746333D01*
X27938018Y10747095D01*
X27945283Y10749280D01*
X27951938Y10752886D01*
X27958186Y10757966D01*
X28043124Y10842955D01*
X28044902Y10845088D01*
X28048356Y10847832D01*
X28052623Y10848848D01*
X28056890Y10847933D01*
X28060396Y10845342D01*
X28064764Y10840415D01*
X28066644Y10837265D01*
X28067304Y10833709D01*
X28067355Y10664088D01*
X28068168Y10655198D01*
X28068574Y10652810D01*
X28070708Y10644174D01*
X28071470Y10641838D01*
X28074874Y10633608D01*
X28075991Y10631424D01*
X28080563Y10623804D01*
X28081986Y10621772D01*
X28087675Y10614964D01*
X28902507Y9800031D01*
X28904692Y9796729D01*
X28905504Y9792868D01*
X28905504Y9660432D01*
X28904488Y9656064D01*
X28901694Y9652508D01*
X28900627Y9651695D01*
X28890366Y9641078D01*
X28881476Y9629292D01*
X28874110Y9616541D01*
X28868370Y9602927D01*
X28864306Y9588754D01*
X28862020Y9574174D01*
X28861613Y9559391D01*
X28861867Y9556140D01*
X28861308Y9551771D01*
X28858972Y9548012D01*
X28419501Y9108592D01*
X28416250Y9106408D01*
X28412338Y9105595D01*
G37*

%LPD*%
G36*
X29199179Y8893860D02*
G01*
X29195268Y8894622D01*
X29191965Y8896807D01*
X29189781Y8900109D01*
X29189019Y8904020D01*
X29189019Y9655657D01*
X29189680Y9659315D01*
X29191610Y9662464D01*
X29194556Y9664700D01*
X29198112Y9665766D01*
X29201821Y9665462D01*
X29212336Y9662617D01*
X29222090Y9661753D01*
X29231844Y9662617D01*
X29241292Y9665157D01*
X29250132Y9669272D01*
X29258158Y9674860D01*
X29265067Y9681819D01*
X29270706Y9689795D01*
X29274820Y9698685D01*
X29277360Y9708134D01*
X29278224Y9717887D01*
X29277360Y9727641D01*
X29274820Y9737090D01*
X29270706Y9745929D01*
X29265067Y9753955D01*
X29263644Y9755378D01*
X29261460Y9758629D01*
X29260698Y9762540D01*
X29260698Y10153599D01*
X29261460Y10157510D01*
X29263644Y10160762D01*
X29440022Y10337190D01*
X29443883Y10339578D01*
X29448353Y10340086D01*
X29452570Y10338612D01*
X29455770Y10335463D01*
X29457294Y10331196D01*
X29459224Y10315549D01*
X29462882Y10301071D01*
X29468267Y10287203D01*
X29468927Y10282885D01*
X29467708Y10278719D01*
X29466489Y10276382D01*
X29464253Y10269118D01*
X29463492Y10261092D01*
X29463492Y10102799D01*
X29462933Y10099598D01*
X29461409Y10096703D01*
X29459021Y10094417D01*
X29454805Y10091521D01*
X29446474Y10083800D01*
X29439412Y10074960D01*
X29433723Y10065105D01*
X29429608Y10054590D01*
X29427068Y10043515D01*
X29426204Y10031831D01*
X29426204Y9932568D01*
X29427068Y9920884D01*
X29429608Y9909810D01*
X29433723Y9899294D01*
X29439412Y9889439D01*
X29446474Y9880600D01*
X29454805Y9872878D01*
X29464152Y9866477D01*
X29474363Y9861550D01*
X29485234Y9858248D01*
X29496410Y9856520D01*
X29507789Y9856520D01*
X29518965Y9858248D01*
X29529836Y9861550D01*
X29540047Y9866477D01*
X29549394Y9872878D01*
X29558640Y9881565D01*
X29561840Y9883597D01*
X29565600Y9884308D01*
X29569359Y9883597D01*
X29572559Y9881565D01*
X29581805Y9872878D01*
X29586021Y9869982D01*
X29588409Y9867696D01*
X29589933Y9864801D01*
X29590492Y9861600D01*
X29590492Y9717887D01*
X29589780Y9714128D01*
X29587748Y9710928D01*
X29584650Y9708692D01*
X29580941Y9707727D01*
X29576268Y9707473D01*
X29561739Y9704730D01*
X29547718Y9700260D01*
X29534307Y9694113D01*
X29521759Y9686340D01*
X29510227Y9677095D01*
X29499966Y9666478D01*
X29491076Y9654692D01*
X29483710Y9641941D01*
X29477970Y9628327D01*
X29473906Y9614154D01*
X29471620Y9599574D01*
X29471213Y9584791D01*
X29472534Y9570110D01*
X29475684Y9555683D01*
X29480611Y9541764D01*
X29487215Y9528556D01*
X29495343Y9516262D01*
X29504944Y9505035D01*
X29515866Y9495129D01*
X29527906Y9486595D01*
X29540911Y9479584D01*
X29554677Y9474250D01*
X29568952Y9470694D01*
X29583634Y9468866D01*
X29598365Y9468866D01*
X29613047Y9470694D01*
X29627322Y9474250D01*
X29641088Y9479584D01*
X29654093Y9486595D01*
X29666133Y9495129D01*
X29677055Y9505035D01*
X29686656Y9516262D01*
X29694784Y9528556D01*
X29701388Y9541764D01*
X29706315Y9555683D01*
X29709465Y9570110D01*
X29710837Y9584791D01*
X29710380Y9599574D01*
X29708094Y9614154D01*
X29704030Y9628327D01*
X29698289Y9641941D01*
X29690923Y9654692D01*
X29682033Y9666478D01*
X29671467Y9677298D01*
X29668673Y9680803D01*
X29667708Y9685223D01*
X29667708Y9861550D01*
X29668215Y9864801D01*
X29669739Y9867696D01*
X29672127Y9869982D01*
X29676394Y9872878D01*
X29685640Y9881565D01*
X29688840Y9883597D01*
X29692600Y9884308D01*
X29696359Y9883597D01*
X29699559Y9881565D01*
X29708805Y9872878D01*
X29718152Y9866477D01*
X29724756Y9863328D01*
X29724756Y9925862D01*
X29715155Y9925862D01*
X29711294Y9926624D01*
X29707992Y9928809D01*
X29705757Y9932111D01*
X29704995Y9936022D01*
X29704995Y10028377D01*
X29705757Y10032288D01*
X29707992Y10035590D01*
X29711294Y10037775D01*
X29715155Y10038537D01*
X29724756Y10038537D01*
X29724756Y10101072D01*
X29718152Y10097922D01*
X29708805Y10091521D01*
X29699559Y10082834D01*
X29696359Y10080802D01*
X29692600Y10080091D01*
X29688840Y10080802D01*
X29685640Y10082834D01*
X29676394Y10091521D01*
X29667047Y10097922D01*
X29656836Y10102850D01*
X29645965Y10106152D01*
X29634789Y10107879D01*
X29623410Y10107879D01*
X29612234Y10106152D01*
X29601363Y10102850D01*
X29591152Y10097922D01*
X29581805Y10091521D01*
X29572559Y10082834D01*
X29569359Y10080802D01*
X29565600Y10080091D01*
X29561840Y10080802D01*
X29558640Y10082834D01*
X29549394Y10091521D01*
X29545127Y10094417D01*
X29542739Y10096703D01*
X29541215Y10099598D01*
X29540708Y10102850D01*
X29540708Y10209631D01*
X29541673Y10214000D01*
X29544467Y10217556D01*
X29548531Y10219537D01*
X29553052Y10219537D01*
X29559707Y10218115D01*
X29574591Y10216743D01*
X29589476Y10217200D01*
X29604208Y10219486D01*
X29618584Y10223550D01*
X29632300Y10229342D01*
X29645203Y10236809D01*
X29657090Y10245801D01*
X29667809Y10256164D01*
X29677156Y10267797D01*
X29685030Y10280497D01*
X29691279Y10294061D01*
X29695800Y10308234D01*
X29698543Y10322915D01*
X29699458Y10337800D01*
X29698543Y10352684D01*
X29695800Y10367365D01*
X29691279Y10381538D01*
X29685030Y10395102D01*
X29677156Y10407802D01*
X29667809Y10419435D01*
X29657090Y10429798D01*
X29645203Y10438790D01*
X29635754Y10444226D01*
X29632503Y10447223D01*
X29630827Y10451287D01*
X29631030Y10455656D01*
X29633011Y10459567D01*
X29636516Y10462260D01*
X29640834Y10463225D01*
X29690364Y10463225D01*
X29698391Y10463987D01*
X29705604Y10466171D01*
X29712259Y10469778D01*
X29718508Y10474858D01*
X29868774Y10625124D01*
X29873854Y10631373D01*
X29877461Y10638028D01*
X29879645Y10645241D01*
X29880407Y10653268D01*
X29880407Y11279632D01*
X29881220Y11283543D01*
X29883404Y11286794D01*
X30764429Y12167819D01*
X30767680Y12170054D01*
X30771592Y12170816D01*
X30775503Y12170054D01*
X30778754Y12167819D01*
X30780989Y12164517D01*
X30781752Y12160656D01*
X30781752Y12012218D01*
X30782463Y12005919D01*
X30784393Y12000433D01*
X30787441Y11995556D01*
X30791556Y11991441D01*
X30796433Y11988393D01*
X30799328Y11987377D01*
X30802834Y11985244D01*
X30805272Y11981992D01*
X30806136Y11977979D01*
X30805424Y11973966D01*
X30803189Y11970562D01*
X30284775Y11452098D01*
X30279086Y11445240D01*
X30277663Y11443258D01*
X30273091Y11435638D01*
X30271974Y11433454D01*
X30268570Y11425224D01*
X30267808Y11422888D01*
X30265674Y11414252D01*
X30265268Y11411864D01*
X30264455Y11402974D01*
X30264404Y11081207D01*
X30263490Y11077041D01*
X30261001Y11073638D01*
X30257343Y11071504D01*
X30253127Y11071098D01*
X30250536Y11071352D01*
X30232959Y11071352D01*
X30215433Y11069472D01*
X30198161Y11065764D01*
X30181448Y11060226D01*
X30165395Y11052962D01*
X30150206Y11043970D01*
X30136084Y11033455D01*
X30123130Y11021517D01*
X30111496Y11008258D01*
X30101387Y10993831D01*
X30092853Y10978388D01*
X30085995Y10962182D01*
X30080864Y10945317D01*
X30077613Y10927994D01*
X30076190Y10910417D01*
X30076698Y10892790D01*
X30079035Y10875314D01*
X30083201Y10858195D01*
X30089195Y10841634D01*
X30096917Y10825734D01*
X30106264Y10810798D01*
X30117135Y10796930D01*
X30129429Y10784332D01*
X30142992Y10773054D01*
X30157674Y10763351D01*
X30173320Y10755223D01*
X30189728Y10748772D01*
X30206746Y10744149D01*
X30224171Y10741355D01*
X30241748Y10740390D01*
X30253686Y10741050D01*
X30257750Y10740440D01*
X30261204Y10738256D01*
X30263541Y10734903D01*
X30264404Y10730890D01*
X30264404Y10436656D01*
X30263439Y10432389D01*
X30260848Y10428935D01*
X30255972Y10424769D01*
X30245913Y10413746D01*
X30237328Y10401554D01*
X30230267Y10388447D01*
X30224882Y10374528D01*
X30221224Y10360050D01*
X30219396Y10345267D01*
X30219396Y10330332D01*
X30221224Y10315549D01*
X30224882Y10301071D01*
X30230267Y10287152D01*
X30237328Y10274046D01*
X30245913Y10261854D01*
X30255972Y10250830D01*
X30267300Y10241127D01*
X30279746Y10232898D01*
X30293106Y10226243D01*
X30307127Y10221264D01*
X30321707Y10218115D01*
X30336591Y10216743D01*
X30351476Y10217200D01*
X30366208Y10219486D01*
X30380584Y10223550D01*
X30394300Y10229342D01*
X30407203Y10236809D01*
X30419090Y10245801D01*
X30429809Y10256164D01*
X30439156Y10267797D01*
X30447030Y10280497D01*
X30453279Y10294061D01*
X30457800Y10308234D01*
X30460543Y10322915D01*
X30461458Y10337800D01*
X30460543Y10352684D01*
X30457800Y10367365D01*
X30453279Y10381538D01*
X30447030Y10395102D01*
X30439156Y10407802D01*
X30429809Y10419435D01*
X30419294Y10429646D01*
X30417008Y10432948D01*
X30416195Y10436910D01*
X30416195Y11364671D01*
X30416957Y11368582D01*
X30419192Y11371884D01*
X30941924Y11894667D01*
X30948985Y11903506D01*
X30953608Y11911126D01*
X30958078Y11921540D01*
X30958840Y11923877D01*
X30961025Y11932513D01*
X30961431Y11934952D01*
X30962244Y11943791D01*
X30962295Y11976404D01*
X30963158Y11980519D01*
X30965648Y11983923D01*
X30969254Y11986056D01*
X30976417Y11988444D01*
X30984545Y11993626D01*
X30988457Y11994388D01*
X30992318Y11993575D01*
X30995569Y11991340D01*
X30997753Y11988088D01*
X30998515Y11984228D01*
X30998515Y11387632D01*
X30997702Y11383670D01*
X30995416Y11380317D01*
X30991962Y11378133D01*
X30987949Y11377523D01*
X30983986Y11378488D01*
X30980735Y11380978D01*
X30973064Y11389664D01*
X30962803Y11398707D01*
X30951424Y11406327D01*
X30944820Y11409578D01*
X30944820Y11361420D01*
X30988355Y11361420D01*
X30992267Y11360658D01*
X30995569Y11358422D01*
X30997753Y11355171D01*
X30998515Y11351260D01*
X30998515Y11280140D01*
X30997753Y11276228D01*
X30995569Y11272977D01*
X30992267Y11270742D01*
X30988355Y11269980D01*
X30944820Y11269980D01*
X30944820Y11221821D01*
X30951424Y11225072D01*
X30962803Y11232692D01*
X30973064Y11241735D01*
X30980735Y11250422D01*
X30983986Y11252911D01*
X30987949Y11253876D01*
X30991962Y11253266D01*
X30995416Y11251082D01*
X30997702Y11247729D01*
X30998515Y11243767D01*
X30998515Y11133632D01*
X30997702Y11129670D01*
X30995416Y11126317D01*
X30991962Y11124133D01*
X30987949Y11123523D01*
X30983986Y11124488D01*
X30980735Y11126978D01*
X30973064Y11135664D01*
X30962803Y11144707D01*
X30951424Y11152327D01*
X30939130Y11158372D01*
X30926176Y11162741D01*
X30912765Y11165433D01*
X30899100Y11166348D01*
X30885434Y11165433D01*
X30872023Y11162741D01*
X30859069Y11158372D01*
X30846776Y11152327D01*
X30835396Y11144707D01*
X30825135Y11135664D01*
X30816092Y11125403D01*
X30808472Y11114024D01*
X30802427Y11101730D01*
X30798058Y11088776D01*
X30795366Y11075365D01*
X30794452Y11061700D01*
X30795366Y11048034D01*
X30798058Y11034623D01*
X30800903Y11026140D01*
X30801462Y11022431D01*
X30800598Y11018774D01*
X30798465Y11015675D01*
X30724957Y10942218D01*
X30719877Y10935970D01*
X30716321Y10929315D01*
X30714086Y10922050D01*
X30713324Y10914024D01*
X30713324Y10408005D01*
X30712562Y10404094D01*
X30710327Y10400792D01*
X29206342Y8896807D01*
X29203040Y8894622D01*
G37*

%LPC*%
G36*
X29787443Y9863328D02*
G01*
X29794047Y9866477D01*
X29803394Y9872878D01*
X29811726Y9880600D01*
X29818787Y9889439D01*
X29824476Y9899294D01*
X29828591Y9909810D01*
X29831131Y9920884D01*
X29831487Y9925862D01*
X29787443Y9925862D01*
G37*
G36*
X29787443Y10038537D02*
G01*
X29831487Y10038537D01*
X29831131Y10043515D01*
X29828591Y10054590D01*
X29824476Y10065105D01*
X29818787Y10074960D01*
X29811726Y10083800D01*
X29803394Y10091521D01*
X29794047Y10097922D01*
X29787443Y10101072D01*
G37*
G36*
X30853380Y11221821D02*
G01*
X30853380Y11269980D01*
X30805221Y11269980D01*
X30808472Y11263376D01*
X30816092Y11251996D01*
X30825135Y11241735D01*
X30835396Y11232692D01*
X30846776Y11225072D01*
G37*
G36*
X30805221Y11361420D02*
G01*
X30853380Y11361420D01*
X30853380Y11409578D01*
X30846776Y11406327D01*
X30835396Y11398707D01*
X30825135Y11389664D01*
X30816092Y11379403D01*
X30808472Y11368024D01*
G37*

%LPD*%
G36*
X28982314Y8441639D02*
G01*
X28977945Y8442198D01*
X28974237Y8444585D01*
X28475076Y8943695D01*
X28472942Y8946946D01*
X28472130Y8950756D01*
X28472790Y8954566D01*
X28474873Y8957868D01*
X28478073Y8960154D01*
X28483458Y8962593D01*
X28490926Y8967114D01*
X28499765Y8974175D01*
X28966109Y9440468D01*
X28969411Y9442704D01*
X28973322Y9443466D01*
X28988765Y9443466D01*
X29003447Y9445294D01*
X29017722Y9448850D01*
X29031488Y9454184D01*
X29044493Y9461195D01*
X29053383Y9467494D01*
X29057447Y9469170D01*
X29061867Y9469018D01*
X29065778Y9466986D01*
X29068471Y9463481D01*
X29069436Y9459163D01*
X29069436Y8947962D01*
X29068674Y8944051D01*
X29066439Y8940749D01*
X29039210Y8913520D01*
X29035756Y8911285D01*
X29031742Y8910523D01*
X29027780Y8911488D01*
X29024681Y8912860D01*
X29010660Y8917330D01*
X28996132Y8920073D01*
X28981400Y8920988D01*
X28966668Y8920073D01*
X28952139Y8917330D01*
X28938118Y8912860D01*
X28924707Y8906713D01*
X28912159Y8898940D01*
X28900627Y8889695D01*
X28890366Y8879078D01*
X28881476Y8867292D01*
X28874110Y8854541D01*
X28868370Y8840927D01*
X28864306Y8826754D01*
X28862020Y8812174D01*
X28861613Y8797391D01*
X28862934Y8782710D01*
X28866084Y8768283D01*
X28871011Y8754364D01*
X28877615Y8741156D01*
X28885743Y8728862D01*
X28895344Y8717635D01*
X28906266Y8707729D01*
X28918306Y8699195D01*
X28931311Y8692184D01*
X28945077Y8686850D01*
X28959352Y8683294D01*
X28974034Y8681466D01*
X28988765Y8681466D01*
X29003447Y8683294D01*
X29017722Y8686850D01*
X29031488Y8692184D01*
X29044493Y8699195D01*
X29048811Y8702243D01*
X29052875Y8703919D01*
X29057244Y8703767D01*
X29061206Y8701735D01*
X29063848Y8698230D01*
X29064813Y8693912D01*
X29064813Y8501837D01*
X29064051Y8497925D01*
X29061867Y8494623D01*
X29039464Y8472271D01*
X29036568Y8470239D01*
X29033165Y8469325D01*
X29025443Y8468664D01*
X29015994Y8466124D01*
X29007104Y8461959D01*
X28999129Y8456371D01*
X28992220Y8449462D01*
X28989731Y8445957D01*
X28986480Y8442960D01*
G37*

%LPD*%
G36*
X30245507Y8376564D02*
G01*
X30241544Y8377681D01*
X30238344Y8380222D01*
X30234280Y8385149D01*
X30223663Y8395106D01*
X30211877Y8403640D01*
X30199126Y8410651D01*
X30194808Y8412378D01*
X30191456Y8414562D01*
X30189170Y8417864D01*
X30188408Y8421827D01*
X30188408Y8442655D01*
X30187595Y8450681D01*
X30185410Y8457946D01*
X30181854Y8464600D01*
X30176724Y8470849D01*
X29672026Y8975547D01*
X29665777Y8980627D01*
X29659122Y8984183D01*
X29651909Y8986418D01*
X29643882Y8987180D01*
X29430421Y8987180D01*
X29426560Y8987942D01*
X29423258Y8990177D01*
X29421074Y8993479D01*
X29420261Y8997340D01*
X29421074Y9001252D01*
X29423258Y9004554D01*
X30778856Y10360152D01*
X30783987Y10366400D01*
X30787543Y10373055D01*
X30789727Y10380268D01*
X30790540Y10388295D01*
X30790540Y10698988D01*
X30791454Y10703204D01*
X30793994Y10706658D01*
X30797753Y10708741D01*
X30802072Y10709046D01*
X30806085Y10707573D01*
X30809133Y10705693D01*
X30814619Y10703763D01*
X30820918Y10703052D01*
X30977281Y10703052D01*
X30983580Y10703763D01*
X30988812Y10704830D01*
X30992572Y10703915D01*
X30995721Y10701680D01*
X30997804Y10698480D01*
X30998515Y10694670D01*
X30998515Y9603282D01*
X30998058Y9601200D01*
X30998515Y9599117D01*
X30998515Y9349282D01*
X30998058Y9347200D01*
X30998515Y9345117D01*
X30998515Y9173159D01*
X30997601Y9168892D01*
X30994959Y9165437D01*
X30991098Y9163354D01*
X30986730Y9163151D01*
X30982716Y9164726D01*
X30979668Y9167876D01*
X30978297Y9172041D01*
X30977636Y9177680D01*
X30975706Y9183166D01*
X30972658Y9188043D01*
X30968543Y9192158D01*
X30963666Y9195206D01*
X30958180Y9197136D01*
X30951881Y9197848D01*
X30795518Y9197848D01*
X30789219Y9197136D01*
X30783733Y9195206D01*
X30778856Y9192158D01*
X30774792Y9188094D01*
X30770982Y9181795D01*
X30767934Y9178645D01*
X30763870Y9177070D01*
X30759552Y9177274D01*
X30755691Y9179356D01*
X30753050Y9182811D01*
X30752135Y9187078D01*
X30752135Y9320072D01*
X30752999Y9324238D01*
X30755539Y9327692D01*
X30759196Y9329775D01*
X30763413Y9330182D01*
X30767426Y9328861D01*
X30770576Y9325965D01*
X30772252Y9322054D01*
X30772658Y9320123D01*
X30777027Y9307169D01*
X30783072Y9294876D01*
X30790692Y9283496D01*
X30799735Y9273235D01*
X30809996Y9264192D01*
X30821376Y9256572D01*
X30833669Y9250527D01*
X30846623Y9246158D01*
X30860034Y9243466D01*
X30873700Y9242552D01*
X30887365Y9243466D01*
X30900776Y9246158D01*
X30913730Y9250527D01*
X30926024Y9256572D01*
X30937403Y9264192D01*
X30947664Y9273235D01*
X30956707Y9283496D01*
X30964327Y9294876D01*
X30970372Y9307169D01*
X30974741Y9320123D01*
X30977433Y9333534D01*
X30978246Y9345777D01*
X30978246Y9348622D01*
X30977433Y9360865D01*
X30974741Y9374276D01*
X30970372Y9387230D01*
X30964327Y9399524D01*
X30956707Y9410903D01*
X30947664Y9421164D01*
X30937403Y9430207D01*
X30926024Y9437827D01*
X30913730Y9443872D01*
X30900776Y9448241D01*
X30887365Y9450933D01*
X30873700Y9451848D01*
X30860034Y9450933D01*
X30846623Y9448241D01*
X30833669Y9443872D01*
X30821376Y9437827D01*
X30809996Y9430207D01*
X30799735Y9421164D01*
X30790692Y9410903D01*
X30783072Y9399524D01*
X30777027Y9387230D01*
X30772658Y9374276D01*
X30772252Y9372346D01*
X30770576Y9368434D01*
X30767426Y9365538D01*
X30763413Y9364218D01*
X30759196Y9364624D01*
X30755539Y9366707D01*
X30752999Y9370161D01*
X30752135Y9374327D01*
X30752135Y9420809D01*
X30752897Y9424720D01*
X30755082Y9427972D01*
X30827675Y9500565D01*
X30830774Y9502698D01*
X30834431Y9503562D01*
X30838139Y9503003D01*
X30846623Y9500158D01*
X30860034Y9497466D01*
X30873700Y9496552D01*
X30887365Y9497466D01*
X30900776Y9500158D01*
X30913730Y9504527D01*
X30926024Y9510572D01*
X30937403Y9518192D01*
X30947664Y9527235D01*
X30956707Y9537496D01*
X30964327Y9548876D01*
X30970372Y9561169D01*
X30974741Y9574123D01*
X30977433Y9587534D01*
X30978246Y9599777D01*
X30978246Y9602622D01*
X30977433Y9614865D01*
X30974741Y9628276D01*
X30970372Y9641230D01*
X30964327Y9653524D01*
X30956707Y9664903D01*
X30947664Y9675164D01*
X30937403Y9684207D01*
X30926024Y9691827D01*
X30913730Y9697872D01*
X30900776Y9702241D01*
X30887365Y9704933D01*
X30873700Y9705848D01*
X30860034Y9704933D01*
X30846623Y9702241D01*
X30833669Y9697872D01*
X30821376Y9691827D01*
X30809996Y9684207D01*
X30799735Y9675164D01*
X30790692Y9664903D01*
X30783072Y9653524D01*
X30777027Y9641230D01*
X30772658Y9628276D01*
X30769966Y9614865D01*
X30769052Y9601200D01*
X30769966Y9587534D01*
X30772658Y9574123D01*
X30775503Y9565640D01*
X30776062Y9561931D01*
X30775198Y9558274D01*
X30773065Y9555175D01*
X30686552Y9468662D01*
X30681472Y9462414D01*
X30677916Y9455759D01*
X30675681Y9448546D01*
X30674919Y9440519D01*
X30674919Y9129471D01*
X30674157Y9125559D01*
X30671922Y9122257D01*
X30325771Y8776157D01*
X30322469Y8773922D01*
X30318608Y8773160D01*
X30266639Y8773160D01*
X30266639Y8720328D01*
X30266030Y8716924D01*
X30264353Y8713876D01*
X30262880Y8712098D01*
X30259324Y8705443D01*
X30257089Y8698179D01*
X30256327Y8690152D01*
X30256327Y8386724D01*
X30255464Y8382660D01*
X30253127Y8379307D01*
X30249622Y8377174D01*
G37*

%LPC*%
G36*
X30159960Y8719362D02*
G01*
X30159960Y8773160D01*
X30106213Y8773160D01*
X30109515Y8766556D01*
X30117643Y8754262D01*
X30127244Y8743035D01*
X30138166Y8733129D01*
X30150206Y8724595D01*
G37*
G36*
X30266639Y8879840D02*
G01*
X30320640Y8879840D01*
X30313223Y8892692D01*
X30304333Y8904478D01*
X30294072Y8915095D01*
X30282540Y8924340D01*
X30269992Y8932113D01*
X30266639Y8933637D01*
G37*
G36*
X30105959Y8879840D02*
G01*
X30159960Y8879840D01*
X30159960Y8933637D01*
X30156607Y8932113D01*
X30144059Y8924340D01*
X30132527Y8915095D01*
X30122266Y8904478D01*
X30113376Y8892692D01*
G37*
G36*
X30205934Y9468866D02*
G01*
X30220665Y9468866D01*
X30235347Y9470694D01*
X30249622Y9474250D01*
X30263388Y9479584D01*
X30276393Y9486595D01*
X30288433Y9495129D01*
X30299355Y9505035D01*
X30308956Y9516262D01*
X30317084Y9528556D01*
X30323688Y9541764D01*
X30328615Y9555683D01*
X30331765Y9570110D01*
X30333137Y9584791D01*
X30332680Y9599574D01*
X30330394Y9614154D01*
X30326330Y9628327D01*
X30320589Y9641941D01*
X30313223Y9654692D01*
X30304333Y9666478D01*
X30294072Y9677095D01*
X30282540Y9686340D01*
X30269992Y9694113D01*
X30256581Y9700260D01*
X30242560Y9704730D01*
X30228032Y9707473D01*
X30213300Y9708388D01*
X30198568Y9707473D01*
X30184039Y9704730D01*
X30170018Y9700260D01*
X30156607Y9694113D01*
X30144059Y9686340D01*
X30132527Y9677095D01*
X30122266Y9666478D01*
X30113376Y9654692D01*
X30106010Y9641941D01*
X30100270Y9628327D01*
X30096206Y9614154D01*
X30093920Y9599574D01*
X30093513Y9584791D01*
X30094834Y9570110D01*
X30097984Y9555683D01*
X30102911Y9541764D01*
X30109515Y9528556D01*
X30117643Y9516262D01*
X30127244Y9505035D01*
X30138166Y9495129D01*
X30150206Y9486595D01*
X30163211Y9479584D01*
X30176977Y9474250D01*
X30191252Y9470694D01*
G37*
G36*
X30919420Y9761321D02*
G01*
X30926024Y9764572D01*
X30937403Y9772192D01*
X30947664Y9781235D01*
X30956707Y9791496D01*
X30964327Y9802876D01*
X30967578Y9809480D01*
X30919420Y9809480D01*
G37*
G36*
X30827980Y9761321D02*
G01*
X30827980Y9809480D01*
X30779821Y9809480D01*
X30783072Y9802876D01*
X30790692Y9791496D01*
X30799735Y9781235D01*
X30809996Y9772192D01*
X30821376Y9764572D01*
G37*
G36*
X30779821Y9900920D02*
G01*
X30827980Y9900920D01*
X30827980Y9949078D01*
X30821376Y9945827D01*
X30809996Y9938207D01*
X30799735Y9929164D01*
X30790692Y9918903D01*
X30783072Y9907524D01*
G37*
G36*
X30919420Y9900920D02*
G01*
X30967578Y9900920D01*
X30964327Y9907524D01*
X30956707Y9918903D01*
X30947664Y9929164D01*
X30937403Y9938207D01*
X30926024Y9945827D01*
X30919420Y9949078D01*
G37*

%LPD*%
G36*
X25434798Y8161578D02*
G01*
X25431394Y8161781D01*
X25428244Y8163052D01*
X25424993Y8165084D01*
X25419558Y8167014D01*
X25413208Y8167725D01*
X25254508Y8167725D01*
X25250597Y8168487D01*
X25247295Y8170672D01*
X25245110Y8173974D01*
X25244348Y8177885D01*
X25244348Y8200644D01*
X25245314Y8204962D01*
X25248006Y8208467D01*
X25251968Y8210499D01*
X25256388Y8210600D01*
X25260452Y8208873D01*
X25261722Y8207959D01*
X25274473Y8200948D01*
X25287986Y8195614D01*
X25302057Y8191957D01*
X25316535Y8190128D01*
X25331064Y8190128D01*
X25345491Y8191957D01*
X25359614Y8195614D01*
X25373126Y8200948D01*
X25385877Y8207959D01*
X25397663Y8216493D01*
X25408280Y8226501D01*
X25417576Y8237677D01*
X25425349Y8249970D01*
X25431546Y8263128D01*
X25436068Y8276996D01*
X25438760Y8291271D01*
X25439674Y8305800D01*
X25438760Y8320328D01*
X25436068Y8334603D01*
X25431546Y8348472D01*
X25425349Y8361629D01*
X25417576Y8373922D01*
X25408280Y8385149D01*
X25397663Y8395106D01*
X25385877Y8403640D01*
X25377902Y8408060D01*
X25375006Y8410397D01*
X25373177Y8413699D01*
X25372669Y8417407D01*
X25373533Y8421014D01*
X25381712Y8432596D01*
X25385826Y8441436D01*
X25388366Y8450884D01*
X25389230Y8460638D01*
X25388366Y8470392D01*
X25385826Y8479840D01*
X25381712Y8488730D01*
X25376073Y8496706D01*
X25369164Y8503615D01*
X25361138Y8509254D01*
X25352298Y8513368D01*
X25342850Y8515908D01*
X25335128Y8516569D01*
X25331674Y8517483D01*
X25328829Y8519515D01*
X24918924Y8929420D01*
X24916892Y8932316D01*
X24915977Y8935720D01*
X24915317Y8943441D01*
X24912777Y8952890D01*
X24908662Y8961780D01*
X24903023Y8969756D01*
X24896114Y8976664D01*
X24888088Y8982303D01*
X24879249Y8986418D01*
X24869800Y8988958D01*
X24860046Y8989822D01*
X24850293Y8988958D01*
X24840844Y8986418D01*
X24831954Y8982303D01*
X24823978Y8976664D01*
X24817070Y8969756D01*
X24811431Y8961780D01*
X24807316Y8952890D01*
X24804776Y8943441D01*
X24803912Y8933688D01*
X24804776Y8923934D01*
X24807316Y8914485D01*
X24811431Y8905646D01*
X24817070Y8897620D01*
X24823978Y8890711D01*
X24831954Y8885072D01*
X24840844Y8880957D01*
X24850293Y8878417D01*
X24858014Y8877757D01*
X24861418Y8876842D01*
X24864314Y8874810D01*
X25081687Y8657488D01*
X25083922Y8654034D01*
X25084633Y8649970D01*
X25083668Y8645956D01*
X25081179Y8642654D01*
X25077572Y8640622D01*
X25072390Y8640267D01*
X24357380Y8640267D01*
X24353469Y8641029D01*
X24350218Y8643264D01*
X24347982Y8646566D01*
X24347220Y8650427D01*
X24347982Y8654338D01*
X24350218Y8657640D01*
X24735231Y9042654D01*
X24738533Y9044838D01*
X24742394Y9045651D01*
X25222962Y9045651D01*
X25226721Y9044940D01*
X25229972Y9042857D01*
X25232207Y9039758D01*
X25233122Y9036050D01*
X25232614Y9032240D01*
X25230734Y9028938D01*
X25228905Y9026753D01*
X25221590Y9015272D01*
X25219456Y9010650D01*
X25266650Y9010650D01*
X25266650Y9035491D01*
X25267412Y9039352D01*
X25269647Y9042654D01*
X25272898Y9044838D01*
X25276810Y9045651D01*
X25345390Y9045651D01*
X25349301Y9044838D01*
X25352552Y9042654D01*
X25354788Y9039352D01*
X25355550Y9035491D01*
X25355550Y9010650D01*
X25402743Y9010650D01*
X25400609Y9015272D01*
X25393294Y9026753D01*
X25391465Y9028938D01*
X25389586Y9032240D01*
X25389078Y9036050D01*
X25389992Y9039758D01*
X25392227Y9042857D01*
X25395478Y9044940D01*
X25399238Y9045651D01*
X25476962Y9045651D01*
X25480721Y9044940D01*
X25483972Y9042857D01*
X25486207Y9039758D01*
X25487122Y9036050D01*
X25486614Y9032240D01*
X25484734Y9028938D01*
X25482905Y9026753D01*
X25475590Y9015272D01*
X25469850Y9002877D01*
X25465786Y8989872D01*
X25463550Y8976410D01*
X25463093Y8962796D01*
X25464414Y8949232D01*
X25467614Y8935974D01*
X25472491Y8923223D01*
X25479044Y8911285D01*
X25487122Y8900312D01*
X25496621Y8890508D01*
X25507340Y8882024D01*
X25519075Y8875064D01*
X25531622Y8869781D01*
X25544780Y8866174D01*
X25558292Y8864346D01*
X25571907Y8864346D01*
X25585420Y8866174D01*
X25598577Y8869781D01*
X25611124Y8875064D01*
X25622859Y8882024D01*
X25633578Y8890508D01*
X25643078Y8900312D01*
X25651155Y8911285D01*
X25657708Y8923223D01*
X25662585Y8935974D01*
X25665785Y8949232D01*
X25667106Y8962796D01*
X25666649Y8976410D01*
X25664414Y8989872D01*
X25660350Y9002877D01*
X25654609Y9015272D01*
X25647294Y9026753D01*
X25645465Y9028938D01*
X25643586Y9032240D01*
X25643078Y9036050D01*
X25643992Y9039758D01*
X25646227Y9042857D01*
X25649478Y9044940D01*
X25653238Y9045651D01*
X25730962Y9045651D01*
X25734721Y9044940D01*
X25737972Y9042857D01*
X25740207Y9039758D01*
X25741122Y9036050D01*
X25740614Y9032240D01*
X25738734Y9028938D01*
X25736905Y9026753D01*
X25729590Y9015272D01*
X25723850Y9002877D01*
X25719786Y8989872D01*
X25717550Y8976410D01*
X25717093Y8962796D01*
X25718414Y8949232D01*
X25721614Y8935974D01*
X25726491Y8923223D01*
X25733044Y8911285D01*
X25741122Y8900312D01*
X25750621Y8890508D01*
X25761340Y8882024D01*
X25773075Y8875064D01*
X25785622Y8869781D01*
X25798780Y8866174D01*
X25812292Y8864346D01*
X25825907Y8864346D01*
X25839420Y8866174D01*
X25852577Y8869781D01*
X25865124Y8875064D01*
X25876859Y8882024D01*
X25887578Y8890508D01*
X25897078Y8900312D01*
X25905155Y8911285D01*
X25911708Y8923223D01*
X25916585Y8935974D01*
X25919785Y8949232D01*
X25921106Y8962796D01*
X25920649Y8976410D01*
X25918414Y8989872D01*
X25914350Y9002877D01*
X25908609Y9015272D01*
X25901294Y9026753D01*
X25899465Y9028938D01*
X25897586Y9032240D01*
X25897078Y9036050D01*
X25897992Y9039758D01*
X25900227Y9042857D01*
X25903478Y9044940D01*
X25907238Y9045651D01*
X25954888Y9045651D01*
X25958749Y9044838D01*
X25962051Y9042654D01*
X25963473Y9041231D01*
X25971449Y9035643D01*
X25980339Y9031528D01*
X25983742Y9028938D01*
X25985774Y9025128D01*
X25986079Y9020860D01*
X25984606Y9016847D01*
X25983590Y9015272D01*
X25977850Y9002877D01*
X25973786Y8989872D01*
X25971550Y8976410D01*
X25971093Y8962796D01*
X25972414Y8949232D01*
X25975614Y8935974D01*
X25980491Y8923223D01*
X25987044Y8911285D01*
X25995122Y8900312D01*
X26004621Y8890508D01*
X26015340Y8882024D01*
X26027075Y8875064D01*
X26039622Y8869781D01*
X26052780Y8866174D01*
X26066292Y8864346D01*
X26079907Y8864346D01*
X26093978Y8866225D01*
X26098144Y8865920D01*
X26101852Y8863939D01*
X26104443Y8860688D01*
X26105459Y8856624D01*
X26104799Y8852509D01*
X26102513Y8848953D01*
X26096925Y8843416D01*
X26093623Y8841181D01*
X26089762Y8840419D01*
X26033831Y8840368D01*
X26024992Y8839555D01*
X26013918Y8836964D01*
X26011581Y8836202D01*
X26003402Y8832799D01*
X26001167Y8831681D01*
X25993598Y8827109D01*
X25991566Y8825687D01*
X25984708Y8819997D01*
X25589077Y8424418D01*
X25585775Y8422233D01*
X25581864Y8421471D01*
X25570535Y8421471D01*
X25556057Y8419642D01*
X25541986Y8416036D01*
X25528473Y8410651D01*
X25515722Y8403640D01*
X25503936Y8395106D01*
X25493319Y8385149D01*
X25484023Y8373922D01*
X25476250Y8361629D01*
X25470053Y8348472D01*
X25465532Y8334603D01*
X25462839Y8320328D01*
X25461925Y8305800D01*
X25462839Y8291271D01*
X25465532Y8276996D01*
X25470053Y8263128D01*
X25476250Y8249970D01*
X25484023Y8237677D01*
X25491744Y8228380D01*
X25493522Y8225129D01*
X25494030Y8221472D01*
X25493167Y8217814D01*
X25491084Y8214766D01*
X25440843Y8164474D01*
X25438049Y8162493D01*
G37*

%LPC*%
G36*
X25355550Y8874404D02*
G01*
X25357124Y8875064D01*
X25368859Y8882024D01*
X25379578Y8890508D01*
X25389078Y8900312D01*
X25397155Y8911285D01*
X25402895Y8921750D01*
X25355550Y8921750D01*
G37*
G36*
X25266650Y8874404D02*
G01*
X25266650Y8921750D01*
X25219304Y8921750D01*
X25225044Y8911285D01*
X25233122Y8900312D01*
X25242621Y8890508D01*
X25253340Y8882024D01*
X25265075Y8875064D01*
G37*

%LPD*%
G36*
X29739691Y7962595D02*
G01*
X29735983Y7963306D01*
X29732732Y7965338D01*
X29730496Y7968437D01*
X29729582Y7972145D01*
X29730039Y7975904D01*
X29731868Y7979257D01*
X29735576Y7983677D01*
X29743349Y7995970D01*
X29749546Y8009128D01*
X29754068Y8022996D01*
X29756760Y8037271D01*
X29757674Y8051800D01*
X29756760Y8066328D01*
X29754068Y8080603D01*
X29749546Y8094472D01*
X29743349Y8107629D01*
X29735576Y8119922D01*
X29726280Y8131149D01*
X29715663Y8141106D01*
X29703877Y8149640D01*
X29691126Y8156651D01*
X29677614Y8162036D01*
X29663491Y8165642D01*
X29649064Y8167471D01*
X29634535Y8167471D01*
X29620057Y8165642D01*
X29605986Y8162036D01*
X29592473Y8156651D01*
X29579722Y8149640D01*
X29567936Y8141106D01*
X29557319Y8131149D01*
X29552087Y8124850D01*
X29548836Y8122208D01*
X29544772Y8121142D01*
X29540606Y8121853D01*
X29537101Y8124139D01*
X29460240Y8200948D01*
X29457903Y8204606D01*
X29457294Y8208924D01*
X29458564Y8213090D01*
X29461663Y8216493D01*
X29472280Y8226501D01*
X29481576Y8237677D01*
X29489349Y8249970D01*
X29491482Y8254441D01*
X29439158Y8254441D01*
X29439158Y8227517D01*
X29438295Y8223402D01*
X29435806Y8219998D01*
X29432199Y8217865D01*
X29427220Y8217458D01*
X29346601Y8217458D01*
X29342740Y8218220D01*
X29339438Y8220456D01*
X29337203Y8223758D01*
X29336441Y8227618D01*
X29336441Y8254441D01*
X29284117Y8254441D01*
X29286250Y8249970D01*
X29294023Y8237677D01*
X29297020Y8234121D01*
X29298849Y8230768D01*
X29299306Y8227009D01*
X29298392Y8223300D01*
X29296156Y8220202D01*
X29292905Y8218170D01*
X29289197Y8217458D01*
X29232402Y8217458D01*
X29228694Y8218170D01*
X29225443Y8220202D01*
X29223208Y8223300D01*
X29222293Y8227009D01*
X29222750Y8230768D01*
X29224579Y8234121D01*
X29227576Y8237677D01*
X29235349Y8249970D01*
X29241546Y8263128D01*
X29246068Y8276996D01*
X29248760Y8291271D01*
X29249674Y8305800D01*
X29248760Y8320328D01*
X29246068Y8334603D01*
X29241546Y8348472D01*
X29235349Y8361629D01*
X29227576Y8373922D01*
X29218280Y8385149D01*
X29207663Y8395106D01*
X29195877Y8403640D01*
X29188105Y8407958D01*
X29185311Y8410194D01*
X29183482Y8413292D01*
X29182822Y8416848D01*
X29182822Y8759901D01*
X29183634Y8763812D01*
X29185819Y8767064D01*
X29264559Y8845804D01*
X29268267Y8848191D01*
X29272636Y8848750D01*
X29276802Y8847429D01*
X29280053Y8844483D01*
X29284676Y8837879D01*
X29291584Y8830919D01*
X29299611Y8825331D01*
X29308450Y8821216D01*
X29317899Y8818676D01*
X29325671Y8817965D01*
X29329075Y8817051D01*
X29331970Y8815070D01*
X29786376Y8360664D01*
X29788612Y8357209D01*
X29789323Y8353145D01*
X29788053Y8348472D01*
X29783532Y8334603D01*
X29780839Y8320328D01*
X29779925Y8305800D01*
X29780839Y8291271D01*
X29783532Y8276996D01*
X29788053Y8263128D01*
X29794250Y8249970D01*
X29802023Y8237677D01*
X29811319Y8226501D01*
X29821936Y8216493D01*
X29833722Y8207959D01*
X29846473Y8200948D01*
X29859986Y8195614D01*
X29874057Y8191957D01*
X29888535Y8190128D01*
X29903064Y8190128D01*
X29917491Y8191957D01*
X29931614Y8195614D01*
X29945126Y8200948D01*
X29957877Y8207959D01*
X29969663Y8216493D01*
X29980280Y8226501D01*
X29989576Y8237677D01*
X29997349Y8249970D01*
X30003546Y8263128D01*
X30008068Y8276996D01*
X30010760Y8291271D01*
X30011674Y8305800D01*
X30010760Y8320328D01*
X30008068Y8334603D01*
X30003546Y8348472D01*
X29997349Y8361629D01*
X29989576Y8373922D01*
X29980280Y8385149D01*
X29969663Y8395106D01*
X29957877Y8403640D01*
X29945126Y8410651D01*
X29931614Y8416036D01*
X29917491Y8419642D01*
X29903064Y8421471D01*
X29888535Y8421471D01*
X29874057Y8419642D01*
X29859986Y8416036D01*
X29852010Y8412886D01*
X29848149Y8412124D01*
X29844339Y8412937D01*
X29841088Y8415121D01*
X29565396Y8690813D01*
X29563110Y8694318D01*
X29562450Y8698382D01*
X29563466Y8702446D01*
X29566006Y8705748D01*
X29569664Y8707729D01*
X29573829Y8708085D01*
X29583634Y8706866D01*
X29598365Y8706866D01*
X29613047Y8708694D01*
X29627322Y8712250D01*
X29641088Y8717584D01*
X29654093Y8724595D01*
X29666133Y8733129D01*
X29677055Y8743035D01*
X29686656Y8754262D01*
X29694784Y8766556D01*
X29701388Y8779764D01*
X29706315Y8793683D01*
X29709211Y8807043D01*
X29710989Y8810955D01*
X29714291Y8813800D01*
X29718406Y8814968D01*
X29722673Y8814358D01*
X29726331Y8812022D01*
X30108194Y8430158D01*
X30110430Y8426856D01*
X30111192Y8421827D01*
X30110379Y8417864D01*
X30108144Y8414562D01*
X30104740Y8412378D01*
X30100473Y8410651D01*
X30087722Y8403640D01*
X30075936Y8395106D01*
X30065319Y8385149D01*
X30056023Y8373922D01*
X30048250Y8361629D01*
X30042053Y8348472D01*
X30037532Y8334603D01*
X30034839Y8320328D01*
X30033925Y8305800D01*
X30034839Y8291271D01*
X30037532Y8276996D01*
X30042053Y8263128D01*
X30048250Y8249970D01*
X30056023Y8237677D01*
X30065319Y8226501D01*
X30075936Y8216493D01*
X30087722Y8207959D01*
X30100473Y8200948D01*
X30113986Y8195614D01*
X30128057Y8191957D01*
X30142535Y8190128D01*
X30157064Y8190128D01*
X30171491Y8191957D01*
X30185614Y8195614D01*
X30199126Y8200948D01*
X30211877Y8207959D01*
X30223663Y8216493D01*
X30234280Y8226501D01*
X30238344Y8231378D01*
X30241544Y8233968D01*
X30245507Y8235035D01*
X30249622Y8234476D01*
X30253127Y8232292D01*
X30255464Y8228939D01*
X30256327Y8224875D01*
X30256327Y8132724D01*
X30255464Y8128660D01*
X30253127Y8125307D01*
X30249622Y8123174D01*
X30245507Y8122564D01*
X30241544Y8123681D01*
X30238344Y8126222D01*
X30234280Y8131149D01*
X30223663Y8141106D01*
X30211877Y8149640D01*
X30201158Y8155584D01*
X30201158Y8103158D01*
X30246167Y8103158D01*
X30250028Y8102396D01*
X30253330Y8100161D01*
X30255565Y8096910D01*
X30256327Y8092998D01*
X30256327Y8047126D01*
X30255565Y8043265D01*
X30253330Y8039963D01*
X30216805Y8003438D01*
X30213503Y8001253D01*
X30209642Y8000441D01*
X30201158Y8000441D01*
X30201158Y7991957D01*
X30200396Y7988096D01*
X30198161Y7984794D01*
X30178959Y7965592D01*
X30175657Y7963357D01*
X30171796Y7962595D01*
X30108601Y7962595D01*
X30104740Y7963357D01*
X30101438Y7965592D01*
X30099203Y7968894D01*
X30098441Y7972755D01*
X30098441Y8000441D01*
X30046117Y8000441D01*
X30048250Y7995970D01*
X30056023Y7983677D01*
X30059731Y7979257D01*
X30061560Y7975904D01*
X30062017Y7972145D01*
X30061103Y7968437D01*
X30058868Y7965338D01*
X30055616Y7963306D01*
X30051908Y7962595D01*
X29993691Y7962595D01*
X29989983Y7963306D01*
X29986732Y7965338D01*
X29984496Y7968437D01*
X29983582Y7972145D01*
X29984039Y7975904D01*
X29985868Y7979257D01*
X29989576Y7983677D01*
X29997349Y7995970D01*
X30003546Y8009128D01*
X30008068Y8022996D01*
X30010760Y8037271D01*
X30011674Y8051800D01*
X30010760Y8066328D01*
X30008068Y8080603D01*
X30003546Y8094472D01*
X29997349Y8107629D01*
X29989576Y8119922D01*
X29980280Y8131149D01*
X29969663Y8141106D01*
X29957877Y8149640D01*
X29945126Y8156651D01*
X29931614Y8162036D01*
X29917491Y8165642D01*
X29903064Y8167471D01*
X29888535Y8167471D01*
X29874057Y8165642D01*
X29859986Y8162036D01*
X29846473Y8156651D01*
X29833722Y8149640D01*
X29821936Y8141106D01*
X29811319Y8131149D01*
X29802023Y8119922D01*
X29794250Y8107629D01*
X29788053Y8094472D01*
X29783532Y8080603D01*
X29780839Y8066328D01*
X29779925Y8051800D01*
X29780839Y8037271D01*
X29783532Y8022996D01*
X29788053Y8009128D01*
X29794250Y7995970D01*
X29802023Y7983677D01*
X29805731Y7979257D01*
X29807560Y7975904D01*
X29808017Y7972145D01*
X29807103Y7968437D01*
X29804868Y7965338D01*
X29801616Y7963306D01*
X29797908Y7962595D01*
G37*

%LPC*%
G36*
X30046117Y8103158D02*
G01*
X30098441Y8103158D01*
X30098441Y8155584D01*
X30087722Y8149640D01*
X30075936Y8141106D01*
X30065319Y8131149D01*
X30056023Y8119922D01*
X30048250Y8107629D01*
G37*
G36*
X29634535Y8190128D02*
G01*
X29649064Y8190128D01*
X29663491Y8191957D01*
X29677614Y8195614D01*
X29691126Y8200948D01*
X29703877Y8207959D01*
X29715663Y8216493D01*
X29726280Y8226501D01*
X29735576Y8237677D01*
X29743349Y8249970D01*
X29749546Y8263128D01*
X29754068Y8276996D01*
X29756760Y8291271D01*
X29757674Y8305800D01*
X29756760Y8320328D01*
X29754068Y8334603D01*
X29749546Y8348472D01*
X29743349Y8361629D01*
X29735576Y8373922D01*
X29726280Y8385149D01*
X29715663Y8395106D01*
X29703877Y8403640D01*
X29691126Y8410651D01*
X29677614Y8416036D01*
X29663491Y8419642D01*
X29649064Y8421471D01*
X29634535Y8421471D01*
X29620057Y8419642D01*
X29605986Y8416036D01*
X29592473Y8410651D01*
X29579722Y8403640D01*
X29567936Y8395106D01*
X29557319Y8385149D01*
X29548023Y8373922D01*
X29540250Y8361629D01*
X29534053Y8348472D01*
X29529532Y8334603D01*
X29526839Y8320328D01*
X29525925Y8305800D01*
X29526839Y8291271D01*
X29529532Y8276996D01*
X29534053Y8263128D01*
X29540250Y8249970D01*
X29548023Y8237677D01*
X29557319Y8226501D01*
X29567936Y8216493D01*
X29579722Y8207959D01*
X29592473Y8200948D01*
X29605986Y8195614D01*
X29620057Y8191957D01*
G37*
G36*
X29439158Y8357158D02*
G01*
X29491482Y8357158D01*
X29489349Y8361629D01*
X29481576Y8373922D01*
X29472280Y8385149D01*
X29461663Y8395106D01*
X29449877Y8403640D01*
X29439158Y8409584D01*
G37*
G36*
X29284117Y8357158D02*
G01*
X29336441Y8357158D01*
X29336441Y8409584D01*
X29325722Y8403640D01*
X29313936Y8395106D01*
X29303319Y8385149D01*
X29294023Y8373922D01*
X29286250Y8361629D01*
G37*

%LPD*%
G36*
X22725329Y7835696D02*
G01*
X22706888Y7836611D01*
X22690023Y7839202D01*
X22673462Y7843367D01*
X22657409Y7849209D01*
X22641966Y7856524D01*
X22627336Y7865364D01*
X22613670Y7875574D01*
X22601021Y7887055D01*
X22589591Y7899755D01*
X22579482Y7913522D01*
X22570744Y7928203D01*
X22563480Y7943646D01*
X22557790Y7959750D01*
X22553676Y7976311D01*
X22551186Y7993227D01*
X22550983Y7997545D01*
X22551644Y8001660D01*
X22553879Y8005165D01*
X22557333Y8007451D01*
X22561397Y8008213D01*
X22565461Y8007248D01*
X22568763Y8004759D01*
X22570135Y8003235D01*
X22580396Y7994192D01*
X22591776Y7986572D01*
X22598380Y7983321D01*
X22598380Y8031480D01*
X22560534Y8031480D01*
X22556622Y8032242D01*
X22553320Y8034477D01*
X22551136Y8037728D01*
X22550374Y8041640D01*
X22550374Y8112759D01*
X22551136Y8116671D01*
X22553320Y8119922D01*
X22556622Y8122158D01*
X22560534Y8122920D01*
X22598380Y8122920D01*
X22598380Y8171078D01*
X22591776Y8167827D01*
X22580396Y8160207D01*
X22570135Y8151164D01*
X22568154Y8148929D01*
X22564902Y8146491D01*
X22560991Y8145475D01*
X22556927Y8146135D01*
X22553472Y8148320D01*
X22551186Y8151672D01*
X22550374Y8155635D01*
X22550374Y8252764D01*
X22551186Y8256727D01*
X22553472Y8260080D01*
X22556927Y8262264D01*
X22560991Y8262874D01*
X22564902Y8261908D01*
X22568154Y8259470D01*
X22570135Y8257235D01*
X22580396Y8248192D01*
X22591776Y8240572D01*
X22604069Y8234527D01*
X22617023Y8230158D01*
X22630434Y8227466D01*
X22644100Y8226552D01*
X22657765Y8227466D01*
X22671176Y8230158D01*
X22684130Y8234527D01*
X22696424Y8240572D01*
X22707803Y8248192D01*
X22718064Y8257235D01*
X22727107Y8267496D01*
X22734727Y8278875D01*
X22740772Y8291169D01*
X22745141Y8304123D01*
X22747833Y8317534D01*
X22748748Y8331200D01*
X22747833Y8344865D01*
X22745141Y8358276D01*
X22740772Y8371230D01*
X22734727Y8383524D01*
X22727107Y8394903D01*
X22718064Y8405164D01*
X22707803Y8414207D01*
X22696424Y8421827D01*
X22684130Y8427872D01*
X22671176Y8432241D01*
X22657765Y8434933D01*
X22644100Y8435848D01*
X22630434Y8434933D01*
X22617023Y8432241D01*
X22604069Y8427872D01*
X22591776Y8421827D01*
X22580396Y8414207D01*
X22570135Y8405164D01*
X22568154Y8402929D01*
X22564902Y8400491D01*
X22560991Y8399475D01*
X22556927Y8400135D01*
X22553472Y8402320D01*
X22551186Y8405672D01*
X22550374Y8409635D01*
X22550374Y13209625D01*
X22551288Y13228015D01*
X22553879Y13244931D01*
X22558044Y13261492D01*
X22563836Y13277545D01*
X22571202Y13292937D01*
X22580041Y13307568D01*
X22590252Y13321284D01*
X22601732Y13333882D01*
X22614432Y13345312D01*
X22628199Y13355472D01*
X22642830Y13364210D01*
X22658324Y13371474D01*
X22674427Y13377163D01*
X22690988Y13381278D01*
X22707904Y13383717D01*
X22725329Y13384580D01*
X30823560Y13384580D01*
X30842000Y13383615D01*
X30858866Y13381075D01*
X30875427Y13376859D01*
X30891480Y13371068D01*
X30906923Y13363701D01*
X30921553Y13354913D01*
X30935218Y13344702D01*
X30947868Y13333171D01*
X30959298Y13320471D01*
X30969407Y13306755D01*
X30978144Y13292074D01*
X30985409Y13276630D01*
X30991149Y13260527D01*
X30995213Y13243915D01*
X30997702Y13227050D01*
X30998515Y13209625D01*
X30998515Y12650622D01*
X30997550Y12646253D01*
X30994705Y12642697D01*
X30993842Y12642291D01*
X30995569Y12641122D01*
X30997753Y12637871D01*
X30998515Y12633960D01*
X30998515Y12562840D01*
X30997753Y12558928D01*
X30995569Y12555677D01*
X30993842Y12554508D01*
X30994705Y12554102D01*
X30997550Y12550546D01*
X30998515Y12546177D01*
X30998515Y12396622D01*
X30997550Y12392253D01*
X30994705Y12388697D01*
X30990692Y12386767D01*
X30986171Y12386716D01*
X30982107Y12388646D01*
X30979262Y12392152D01*
X30977027Y12396724D01*
X30969407Y12408103D01*
X30960364Y12418364D01*
X30950103Y12427407D01*
X30938724Y12435027D01*
X30926430Y12441072D01*
X30913476Y12445441D01*
X30900065Y12448133D01*
X30886400Y12449048D01*
X30872734Y12448133D01*
X30859323Y12445441D01*
X30846369Y12441072D01*
X30834076Y12435027D01*
X30822696Y12427407D01*
X30812435Y12418364D01*
X30803392Y12408103D01*
X30795772Y12396724D01*
X30789727Y12384430D01*
X30785358Y12371476D01*
X30782666Y12358065D01*
X30781752Y12344400D01*
X30782666Y12330734D01*
X30785358Y12317323D01*
X30788203Y12308840D01*
X30788762Y12305131D01*
X30787898Y12301474D01*
X30785765Y12298375D01*
X29814875Y11327485D01*
X29809744Y11321237D01*
X29806188Y11314582D01*
X29804004Y11307368D01*
X29803191Y11299342D01*
X29803191Y10795304D01*
X29802226Y10790986D01*
X29799534Y10787481D01*
X29795571Y10785449D01*
X29791152Y10785297D01*
X29787088Y10787024D01*
X29784141Y10790377D01*
X29782160Y10793933D01*
X29772051Y10808360D01*
X29760418Y10821619D01*
X29747464Y10833557D01*
X29733341Y10844072D01*
X29718152Y10853064D01*
X29702099Y10860328D01*
X29685386Y10865866D01*
X29668165Y10869574D01*
X29650588Y10871454D01*
X29633011Y10871454D01*
X29615485Y10869574D01*
X29598213Y10865866D01*
X29581500Y10860328D01*
X29565447Y10853064D01*
X29562145Y10851083D01*
X29557929Y10849762D01*
X29553560Y10850321D01*
X29549801Y10852658D01*
X28476854Y11925655D01*
X28474670Y11928957D01*
X28473857Y11932818D01*
X28473857Y12683337D01*
X28474873Y12687706D01*
X28477616Y12691211D01*
X28481629Y12693192D01*
X28483204Y12693599D01*
X28499815Y12699593D01*
X28515665Y12707315D01*
X28530651Y12716662D01*
X28544520Y12727584D01*
X28557169Y12739878D01*
X28568446Y12753492D01*
X28578251Y12768173D01*
X28586379Y12783870D01*
X28592780Y12800330D01*
X28597453Y12817348D01*
X28600247Y12834772D01*
X28601212Y12852400D01*
X28600247Y12870027D01*
X28597453Y12887452D01*
X28592780Y12904520D01*
X28586379Y12920980D01*
X28578251Y12936626D01*
X28568446Y12951358D01*
X28557169Y12964922D01*
X28544520Y12977266D01*
X28530651Y12988137D01*
X28515665Y12997535D01*
X28499815Y13005257D01*
X28483204Y13011251D01*
X28466034Y13015417D01*
X28448558Y13017754D01*
X28430880Y13018262D01*
X28413303Y13016839D01*
X28395930Y13013588D01*
X28379013Y13008457D01*
X28362757Y13001599D01*
X28347314Y12993065D01*
X28332836Y12982905D01*
X28319577Y12971272D01*
X28307588Y12958267D01*
X28297073Y12944094D01*
X28288081Y12928904D01*
X28280817Y12912801D01*
X28275229Y12896037D01*
X28271520Y12878816D01*
X28269641Y12861239D01*
X28269641Y12843560D01*
X28271520Y12826034D01*
X28275229Y12808762D01*
X28280817Y12791998D01*
X28288081Y12775895D01*
X28297073Y12760706D01*
X28307588Y12746532D01*
X28319577Y12733578D01*
X28332836Y12721945D01*
X28347314Y12711785D01*
X28362757Y12703200D01*
X28379013Y12696342D01*
X28389427Y12693192D01*
X28393186Y12691110D01*
X28395726Y12687706D01*
X28396641Y12683490D01*
X28396641Y11913158D01*
X28397453Y11905132D01*
X28399638Y11897868D01*
X28403194Y11891213D01*
X28408325Y11884964D01*
X29495292Y10798048D01*
X29497629Y10794390D01*
X29498239Y10790072D01*
X29496969Y10785906D01*
X29492905Y10778490D01*
X29486047Y10762284D01*
X29480916Y10745419D01*
X29477665Y10728096D01*
X29476242Y10710519D01*
X29476750Y10692892D01*
X29479087Y10675416D01*
X29483253Y10658297D01*
X29489247Y10641736D01*
X29496969Y10625836D01*
X29506316Y10610900D01*
X29517187Y10597032D01*
X29529481Y10584434D01*
X29543044Y10573156D01*
X29557726Y10563453D01*
X29565092Y10559592D01*
X29568546Y10556697D01*
X29570375Y10552633D01*
X29570273Y10548162D01*
X29568292Y10544149D01*
X29564787Y10541406D01*
X29560418Y10540441D01*
X29550614Y10540441D01*
X29542587Y10539628D01*
X29535323Y10537444D01*
X29528668Y10533888D01*
X29522420Y10528757D01*
X29195115Y10201452D01*
X29190035Y10195204D01*
X29186835Y10190734D01*
X29183533Y10188854D01*
X29179824Y10188295D01*
X29176167Y10189159D01*
X29173017Y10191242D01*
X29104183Y10260126D01*
X29102100Y10261803D01*
X29099408Y10265257D01*
X29098392Y10269524D01*
X29099256Y10273792D01*
X29101846Y10277297D01*
X29108857Y10283494D01*
X29118204Y10294162D01*
X29126129Y10305948D01*
X29132377Y10318648D01*
X29136949Y10332110D01*
X29139692Y10345978D01*
X29140658Y10360152D01*
X29139692Y10374325D01*
X29136949Y10388193D01*
X29132377Y10401655D01*
X29126129Y10414355D01*
X29118204Y10426141D01*
X29108857Y10436809D01*
X29098189Y10446156D01*
X29086098Y10454233D01*
X29083101Y10456468D01*
X29081120Y10459618D01*
X29080460Y10463326D01*
X29080460Y10737342D01*
X29081374Y10741660D01*
X29084066Y10745114D01*
X29087927Y10747146D01*
X29093871Y10748772D01*
X29110279Y10755223D01*
X29125926Y10763351D01*
X29140607Y10773054D01*
X29154170Y10784332D01*
X29166464Y10796930D01*
X29177335Y10810798D01*
X29186682Y10825734D01*
X29194404Y10841634D01*
X29200398Y10858195D01*
X29204564Y10875314D01*
X29206901Y10892790D01*
X29207409Y10910417D01*
X29205986Y10927994D01*
X29202735Y10945317D01*
X29197604Y10962182D01*
X29190797Y10978388D01*
X29182212Y10993831D01*
X29172103Y11008258D01*
X29160470Y11021517D01*
X29147515Y11033455D01*
X29133393Y11043970D01*
X29118204Y11052962D01*
X29102151Y11060226D01*
X29085438Y11065764D01*
X29068217Y11069472D01*
X29050640Y11071352D01*
X29033063Y11071352D01*
X29015537Y11069472D01*
X28998265Y11065764D01*
X28981552Y11060226D01*
X28965499Y11052962D01*
X28950310Y11043970D01*
X28936188Y11033455D01*
X28923234Y11021517D01*
X28911600Y11008258D01*
X28901491Y10993831D01*
X28892957Y10978388D01*
X28886099Y10962182D01*
X28880968Y10945317D01*
X28877717Y10927994D01*
X28876294Y10910417D01*
X28876802Y10892790D01*
X28879139Y10875314D01*
X28883305Y10858195D01*
X28889299Y10841634D01*
X28897021Y10825734D01*
X28906368Y10810798D01*
X28917239Y10796930D01*
X28929533Y10784332D01*
X28943096Y10773054D01*
X28957777Y10763351D01*
X28973424Y10755223D01*
X28989832Y10748772D01*
X28995725Y10747197D01*
X28999637Y10745114D01*
X29002278Y10741660D01*
X29003244Y10737392D01*
X29003244Y10471861D01*
X29002380Y10467797D01*
X28999942Y10464393D01*
X28996335Y10462260D01*
X28990696Y10460329D01*
X28977996Y10454081D01*
X28966210Y10446156D01*
X28955542Y10436809D01*
X28946195Y10426141D01*
X28938270Y10414355D01*
X28932022Y10401655D01*
X28927450Y10388193D01*
X28926027Y10381081D01*
X28924300Y10377068D01*
X28921049Y10374172D01*
X28916884Y10372902D01*
X28912565Y10373512D01*
X28908908Y10375849D01*
X28236214Y11048542D01*
X28234132Y11051489D01*
X28233268Y11055045D01*
X28233674Y11058652D01*
X28235300Y11061852D01*
X28242158Y11068456D01*
X28245206Y11073333D01*
X28247136Y11078819D01*
X28247848Y11085118D01*
X28247848Y11241481D01*
X28247136Y11247780D01*
X28245206Y11253266D01*
X28242158Y11258143D01*
X28238043Y11262258D01*
X28233166Y11265306D01*
X28227680Y11267236D01*
X28221381Y11267948D01*
X28191155Y11267948D01*
X28187497Y11268608D01*
X28184348Y11270589D01*
X28182062Y11273536D01*
X28178810Y11284712D01*
X28175254Y11291366D01*
X28170124Y11297615D01*
X28073654Y11394084D01*
X28071470Y11397386D01*
X28070657Y11401298D01*
X28070657Y11613286D01*
X28071622Y11617553D01*
X28074213Y11621008D01*
X28078074Y11623090D01*
X28082443Y11623344D01*
X28086456Y11621719D01*
X28090876Y11618772D01*
X28097480Y11615521D01*
X28097480Y11663680D01*
X28080817Y11663680D01*
X28076956Y11664442D01*
X28073654Y11666677D01*
X28071470Y11669928D01*
X28070657Y11673840D01*
X28070657Y11744960D01*
X28071470Y11748871D01*
X28073654Y11752122D01*
X28076956Y11754358D01*
X28080817Y11755120D01*
X28097480Y11755120D01*
X28097480Y11778894D01*
X28098242Y11782806D01*
X28100477Y11786108D01*
X28129534Y11815165D01*
X28132836Y11817350D01*
X28136697Y11818162D01*
X28142692Y11818162D01*
X28150718Y11818924D01*
X28157932Y11821109D01*
X28164586Y11824716D01*
X28170479Y11829491D01*
X28175254Y11835333D01*
X28178810Y11841988D01*
X28182062Y11853164D01*
X28184348Y11856110D01*
X28187497Y11858091D01*
X28191155Y11858752D01*
X28221381Y11858752D01*
X28227680Y11859463D01*
X28233166Y11861393D01*
X28238043Y11864441D01*
X28242158Y11868556D01*
X28245206Y11873433D01*
X28247136Y11878919D01*
X28247848Y11885218D01*
X28247848Y12041581D01*
X28247136Y12047880D01*
X28245206Y12053366D01*
X28242158Y12058243D01*
X28238043Y12062358D01*
X28233166Y12065406D01*
X28227680Y12067336D01*
X28221381Y12068048D01*
X28065018Y12068048D01*
X28058719Y12067336D01*
X28053233Y12065406D01*
X28048356Y12062358D01*
X28044241Y12058243D01*
X28041193Y12053366D01*
X28039263Y12047880D01*
X28038552Y12041581D01*
X28038552Y11885218D01*
X28039263Y11878919D01*
X28041193Y11873433D01*
X28044241Y11868556D01*
X28048356Y11864441D01*
X28050642Y11863019D01*
X28053284Y11860580D01*
X28054960Y11857329D01*
X28055366Y11853722D01*
X28054452Y11850217D01*
X28052420Y11847220D01*
X28005125Y11799976D01*
X27999994Y11793728D01*
X27996438Y11787073D01*
X27994254Y11779808D01*
X27993644Y11773458D01*
X27992374Y11769547D01*
X27989682Y11766397D01*
X27985974Y11764619D01*
X27981859Y11764416D01*
X27977998Y11765940D01*
X27975052Y11768836D01*
X27972207Y11773103D01*
X27963164Y11783364D01*
X27952903Y11792407D01*
X27941524Y11800027D01*
X27934920Y11803278D01*
X27934920Y11755120D01*
X27983281Y11755120D01*
X27987193Y11754358D01*
X27990495Y11752122D01*
X27992679Y11748871D01*
X27993441Y11744960D01*
X27993441Y11673840D01*
X27992679Y11669928D01*
X27990495Y11666677D01*
X27987193Y11664442D01*
X27983281Y11663680D01*
X27934920Y11663680D01*
X27934920Y11615521D01*
X27941524Y11618772D01*
X27952903Y11626392D01*
X27963164Y11635435D01*
X27972207Y11645696D01*
X27974848Y11649659D01*
X27977947Y11652656D01*
X27981960Y11654078D01*
X27986227Y11653723D01*
X27989987Y11651640D01*
X27992527Y11648236D01*
X27993441Y11644020D01*
X27993441Y11381587D01*
X27994254Y11373561D01*
X27996438Y11366347D01*
X27999994Y11359692D01*
X28005125Y11353444D01*
X28073248Y11285270D01*
X28075483Y11282019D01*
X28076245Y11278108D01*
X28075483Y11274196D01*
X28073248Y11270945D01*
X28069946Y11268710D01*
X28058719Y11267236D01*
X28053233Y11265306D01*
X28048356Y11262258D01*
X28044241Y11258143D01*
X28041193Y11253266D01*
X28039263Y11247780D01*
X28038552Y11241481D01*
X28038552Y11085118D01*
X28039263Y11078819D01*
X28041193Y11073333D01*
X28044241Y11068456D01*
X28048356Y11064341D01*
X28053233Y11061293D01*
X28062478Y11058245D01*
X28065425Y11055858D01*
X28067304Y11052606D01*
X28067863Y11048847D01*
X28067050Y11045190D01*
X28064917Y11042091D01*
X27990444Y10967567D01*
X27986685Y10965180D01*
X27982265Y10964672D01*
X27977998Y10966043D01*
X27974798Y10969142D01*
X27972207Y10973003D01*
X27963164Y10983264D01*
X27952903Y10992307D01*
X27941524Y10999927D01*
X27929230Y11005972D01*
X27916276Y11010341D01*
X27902865Y11013033D01*
X27889200Y11013948D01*
X27875534Y11013033D01*
X27862123Y11010341D01*
X27849169Y11005972D01*
X27836876Y10999927D01*
X27825496Y10992307D01*
X27820315Y10987735D01*
X27817165Y10985855D01*
X27813609Y10985195D01*
X27710790Y10985195D01*
X27707234Y10985855D01*
X27704084Y10987735D01*
X27698903Y10992307D01*
X27687524Y10999927D01*
X27675230Y11005972D01*
X27662276Y11010341D01*
X27648865Y11013033D01*
X27641905Y11013490D01*
X27638400Y11014354D01*
X27635403Y11016437D01*
X27608682Y11043158D01*
X27606396Y11046764D01*
X27605736Y11050981D01*
X27606904Y11055146D01*
X27609698Y11058398D01*
X27613559Y11060226D01*
X27617877Y11060277D01*
X27621534Y11059566D01*
X27635200Y11058652D01*
X27648865Y11059566D01*
X27662276Y11062258D01*
X27675230Y11066627D01*
X27687524Y11072672D01*
X27698903Y11080292D01*
X27709164Y11089335D01*
X27718207Y11099596D01*
X27725827Y11110976D01*
X27731872Y11123269D01*
X27736241Y11136223D01*
X27738933Y11149634D01*
X27739848Y11163300D01*
X27738933Y11176965D01*
X27736241Y11190376D01*
X27731872Y11203330D01*
X27725827Y11215624D01*
X27718207Y11227003D01*
X27709164Y11237264D01*
X27698903Y11246307D01*
X27687524Y11253927D01*
X27675230Y11259972D01*
X27662276Y11264341D01*
X27648865Y11267033D01*
X27635200Y11267948D01*
X27621534Y11267033D01*
X27608123Y11264341D01*
X27599639Y11261496D01*
X27595931Y11260937D01*
X27592274Y11261801D01*
X27589175Y11263934D01*
X27561184Y11291874D01*
X27559000Y11295176D01*
X27558238Y11299088D01*
X27558238Y11616283D01*
X27559152Y11620500D01*
X27561794Y11624005D01*
X27565654Y11626037D01*
X27569972Y11626291D01*
X27574036Y11624716D01*
X27582876Y11618772D01*
X27589480Y11615521D01*
X27589480Y11663680D01*
X27568398Y11663680D01*
X27564486Y11664442D01*
X27561184Y11666677D01*
X27559000Y11669928D01*
X27558238Y11673840D01*
X27558238Y11744960D01*
X27559000Y11748871D01*
X27561184Y11752122D01*
X27564486Y11754358D01*
X27568398Y11755120D01*
X27589480Y11755120D01*
X27589480Y11803278D01*
X27582876Y11800027D01*
X27574036Y11794083D01*
X27569972Y11792508D01*
X27565654Y11792762D01*
X27561794Y11794794D01*
X27559152Y11798300D01*
X27558238Y11802516D01*
X27558238Y11827662D01*
X27559000Y11831523D01*
X27561184Y11834825D01*
X27589175Y11862765D01*
X27592274Y11864898D01*
X27595931Y11865762D01*
X27599639Y11865203D01*
X27608123Y11862358D01*
X27621534Y11859666D01*
X27635200Y11858752D01*
X27648865Y11859666D01*
X27662276Y11862358D01*
X27675230Y11866727D01*
X27687524Y11872772D01*
X27698903Y11880392D01*
X27709164Y11889435D01*
X27718207Y11899696D01*
X27725827Y11911076D01*
X27731872Y11923369D01*
X27736241Y11936323D01*
X27738933Y11949734D01*
X27739848Y11963400D01*
X27738933Y11977065D01*
X27736241Y11990476D01*
X27731872Y12003430D01*
X27725827Y12015724D01*
X27718207Y12027103D01*
X27709164Y12037364D01*
X27698903Y12046407D01*
X27687524Y12054027D01*
X27675230Y12060072D01*
X27662276Y12064441D01*
X27648865Y12067133D01*
X27635200Y12068048D01*
X27621534Y12067133D01*
X27608123Y12064441D01*
X27595169Y12060072D01*
X27582876Y12054027D01*
X27571496Y12046407D01*
X27561235Y12037364D01*
X27552192Y12027103D01*
X27544572Y12015724D01*
X27538527Y12003430D01*
X27534158Y11990476D01*
X27531466Y11977065D01*
X27530552Y11963400D01*
X27531466Y11949734D01*
X27534158Y11936323D01*
X27537003Y11927840D01*
X27537562Y11924131D01*
X27536698Y11920474D01*
X27534565Y11917375D01*
X27492655Y11875516D01*
X27487575Y11869267D01*
X27484019Y11862612D01*
X27481784Y11855348D01*
X27481022Y11847322D01*
X27481022Y11279378D01*
X27481784Y11271351D01*
X27484019Y11264138D01*
X27487575Y11257483D01*
X27492655Y11251234D01*
X27534565Y11209324D01*
X27536698Y11206226D01*
X27537562Y11202568D01*
X27537003Y11198860D01*
X27534158Y11190376D01*
X27531466Y11176965D01*
X27530552Y11163300D01*
X27531466Y11149634D01*
X27532177Y11145977D01*
X27532126Y11141659D01*
X27530298Y11137798D01*
X27527046Y11135004D01*
X27522881Y11133836D01*
X27518664Y11134496D01*
X27515058Y11136782D01*
X27322272Y11329568D01*
X27320087Y11332870D01*
X27319325Y11336731D01*
X27319325Y12700050D01*
X27319884Y12703403D01*
X27321510Y12706400D01*
X27324050Y12708686D01*
X27336851Y12716662D01*
X27350720Y12727584D01*
X27363369Y12739878D01*
X27374646Y12753492D01*
X27384451Y12768173D01*
X27392579Y12783870D01*
X27398980Y12800330D01*
X27403653Y12817348D01*
X27406447Y12834772D01*
X27407412Y12852400D01*
X27406447Y12870027D01*
X27403653Y12887452D01*
X27398980Y12904520D01*
X27392579Y12920980D01*
X27384451Y12936626D01*
X27374646Y12951358D01*
X27363369Y12964922D01*
X27350720Y12977266D01*
X27336851Y12988137D01*
X27321865Y12997535D01*
X27306015Y13005257D01*
X27289404Y13011251D01*
X27272234Y13015417D01*
X27254758Y13017754D01*
X27237080Y13018262D01*
X27219503Y13016839D01*
X27202130Y13013588D01*
X27185213Y13008457D01*
X27168957Y13001599D01*
X27153514Y12993065D01*
X27139036Y12982905D01*
X27125777Y12971272D01*
X27113788Y12958267D01*
X27103273Y12944094D01*
X27094281Y12928904D01*
X27087017Y12912801D01*
X27081429Y12896037D01*
X27077720Y12878816D01*
X27075841Y12861239D01*
X27075841Y12843560D01*
X27077720Y12826034D01*
X27081429Y12808762D01*
X27087017Y12791998D01*
X27094281Y12775895D01*
X27103273Y12760706D01*
X27113788Y12746532D01*
X27125777Y12733578D01*
X27139036Y12721945D01*
X27153514Y12711785D01*
X27162252Y12706908D01*
X27165046Y12704673D01*
X27166874Y12701574D01*
X27167484Y12698069D01*
X27167484Y12187834D01*
X27166671Y12183821D01*
X27164284Y12180468D01*
X27160778Y12178284D01*
X27156714Y12177725D01*
X27152752Y12178792D01*
X27146250Y12182043D01*
X27146250Y12134850D01*
X27157324Y12134850D01*
X27161236Y12134088D01*
X27164487Y12131852D01*
X27166722Y12128601D01*
X27167484Y12124690D01*
X27167484Y12056110D01*
X27166722Y12052198D01*
X27164487Y12048947D01*
X27161236Y12046712D01*
X27157324Y12045950D01*
X27146250Y12045950D01*
X27146250Y11998604D01*
X27152142Y12001855D01*
X27156156Y12003176D01*
X27160423Y12002770D01*
X27164080Y12000687D01*
X27166620Y11997232D01*
X27167484Y11993118D01*
X27167535Y11298478D01*
X27168348Y11289588D01*
X27170938Y11278565D01*
X27171700Y11276228D01*
X27175104Y11267998D01*
X27176222Y11265814D01*
X27180794Y11258194D01*
X27182216Y11256162D01*
X27187906Y11249355D01*
X27528062Y10909096D01*
X27530145Y10906099D01*
X27531009Y10902594D01*
X27531466Y10895634D01*
X27534158Y10882223D01*
X27538527Y10869269D01*
X27544572Y10856976D01*
X27552192Y10845596D01*
X27556764Y10840415D01*
X27558695Y10837062D01*
X27559253Y10833252D01*
X27558390Y10829493D01*
X27556155Y10826343D01*
X27552903Y10824260D01*
X27549144Y10823549D01*
X27213153Y10823549D01*
X27209648Y10824159D01*
X27206600Y10825937D01*
X27204314Y10828680D01*
X27203146Y10831982D01*
X27201114Y10844072D01*
X27197050Y10857077D01*
X27191309Y10869472D01*
X27183994Y10880953D01*
X27175206Y10891367D01*
X27165046Y10900511D01*
X27153819Y10908233D01*
X27141677Y10914380D01*
X27128774Y10918850D01*
X27115414Y10921593D01*
X27101800Y10922508D01*
X27088185Y10921593D01*
X27074825Y10918850D01*
X27061922Y10914380D01*
X27049780Y10908233D01*
X27038553Y10900511D01*
X27028394Y10891367D01*
X27019605Y10880953D01*
X27012290Y10869472D01*
X27006550Y10857077D01*
X27002486Y10844072D01*
X27000250Y10830610D01*
X26999793Y10816996D01*
X27001114Y10803432D01*
X27004314Y10790174D01*
X27009191Y10777423D01*
X27015744Y10765485D01*
X27023822Y10754512D01*
X27033321Y10744708D01*
X27037842Y10741101D01*
X27040535Y10737900D01*
X27041703Y10733938D01*
X27041144Y10729823D01*
X27039011Y10726216D01*
X27035607Y10723829D01*
X27031543Y10722965D01*
X27004010Y10722965D01*
X27000149Y10723727D01*
X26996847Y10725962D01*
X26946453Y10776356D01*
X26944269Y10779556D01*
X26943456Y10783366D01*
X26944167Y10787176D01*
X26945285Y10790174D01*
X26948485Y10803432D01*
X26949806Y10816996D01*
X26949349Y10830610D01*
X26947114Y10844072D01*
X26943050Y10857077D01*
X26937309Y10869472D01*
X26929994Y10880953D01*
X26921206Y10891367D01*
X26911046Y10900511D01*
X26899819Y10908233D01*
X26887677Y10914380D01*
X26874774Y10918850D01*
X26861414Y10921593D01*
X26847800Y10922508D01*
X26834185Y10921593D01*
X26820825Y10918850D01*
X26807922Y10914380D01*
X26795780Y10908233D01*
X26784553Y10900511D01*
X26774394Y10891367D01*
X26765605Y10880953D01*
X26758290Y10869472D01*
X26752550Y10857077D01*
X26748486Y10844072D01*
X26746250Y10830610D01*
X26745793Y10816996D01*
X26747114Y10803432D01*
X26750314Y10790174D01*
X26755191Y10777423D01*
X26761744Y10765485D01*
X26769822Y10754512D01*
X26779321Y10744708D01*
X26790040Y10736224D01*
X26801775Y10729264D01*
X26814322Y10723981D01*
X26827480Y10720374D01*
X26840992Y10718546D01*
X26854607Y10718546D01*
X26868120Y10720374D01*
X26882089Y10724235D01*
X26885646Y10724540D01*
X26889100Y10723626D01*
X26891996Y10721594D01*
X26956156Y10657433D01*
X26962404Y10652302D01*
X26969059Y10648746D01*
X26976324Y10646562D01*
X26984350Y10645749D01*
X27745944Y10645749D01*
X27749804Y10644987D01*
X27753106Y10642803D01*
X28177388Y10218470D01*
X28179623Y10215219D01*
X28180385Y10211308D01*
X28179623Y10207396D01*
X28177388Y10204145D01*
X28174086Y10201910D01*
X28170225Y10201148D01*
X28065018Y10201148D01*
X28058719Y10200436D01*
X28053233Y10198506D01*
X28048356Y10195458D01*
X28044241Y10191343D01*
X28041193Y10186466D01*
X28039263Y10180980D01*
X28038552Y10174681D01*
X28038552Y10026294D01*
X28037789Y10022382D01*
X28035554Y10019080D01*
X28032303Y10016896D01*
X28028392Y10016134D01*
X28024480Y10016896D01*
X28021229Y10019080D01*
X27989834Y10050475D01*
X27987701Y10053574D01*
X27986837Y10057231D01*
X27987396Y10060940D01*
X27990241Y10069423D01*
X27992933Y10082834D01*
X27993848Y10096500D01*
X27992933Y10110165D01*
X27990241Y10123576D01*
X27985872Y10136530D01*
X27979827Y10148824D01*
X27972207Y10160203D01*
X27963164Y10170464D01*
X27952903Y10179507D01*
X27941524Y10187127D01*
X27929230Y10193172D01*
X27916276Y10197541D01*
X27902865Y10200233D01*
X27889200Y10201148D01*
X27875534Y10200233D01*
X27862123Y10197541D01*
X27849169Y10193172D01*
X27836876Y10187127D01*
X27825496Y10179507D01*
X27815235Y10170464D01*
X27806192Y10160203D01*
X27798572Y10148824D01*
X27792527Y10136530D01*
X27788158Y10123576D01*
X27785466Y10110165D01*
X27784552Y10096500D01*
X27785466Y10082834D01*
X27788158Y10069423D01*
X27792527Y10056469D01*
X27798572Y10044176D01*
X27806192Y10032796D01*
X27815235Y10022535D01*
X27825496Y10013492D01*
X27836876Y10005872D01*
X27849169Y9999827D01*
X27862123Y9995458D01*
X27875534Y9992766D01*
X27889200Y9991852D01*
X27902865Y9992766D01*
X27916276Y9995458D01*
X27924760Y9998303D01*
X27928468Y9998862D01*
X27932126Y9997998D01*
X27935224Y9995865D01*
X27957780Y9973310D01*
X27959964Y9970058D01*
X27960726Y9966147D01*
X27960726Y9939274D01*
X27959812Y9935006D01*
X27957170Y9931552D01*
X27953360Y9929469D01*
X27948991Y9929215D01*
X27944927Y9930841D01*
X27941524Y9933127D01*
X27934920Y9936378D01*
X27934920Y9888220D01*
X27950566Y9888220D01*
X27954477Y9887458D01*
X27957780Y9885222D01*
X27959964Y9881971D01*
X27960726Y9878060D01*
X27960726Y9806940D01*
X27959964Y9803028D01*
X27957780Y9799777D01*
X27954477Y9797542D01*
X27950566Y9796780D01*
X27934920Y9796780D01*
X27934920Y9748621D01*
X27941524Y9751872D01*
X27944927Y9754158D01*
X27948991Y9755784D01*
X27953360Y9755530D01*
X27957170Y9753447D01*
X27959812Y9749993D01*
X27960726Y9745726D01*
X27960726Y9683902D01*
X27960065Y9680295D01*
X27958186Y9677146D01*
X27955341Y9674910D01*
X27951836Y9673793D01*
X27938425Y9674860D01*
X27928671Y9673996D01*
X27919222Y9671456D01*
X27910383Y9667341D01*
X27902357Y9661702D01*
X27895448Y9654794D01*
X27889860Y9646818D01*
X27885694Y9637928D01*
X27883154Y9628479D01*
X27882494Y9620758D01*
X27881580Y9617354D01*
X27879548Y9614458D01*
X27720848Y9455759D01*
X27715768Y9449511D01*
X27712212Y9442856D01*
X27709977Y9435642D01*
X27709215Y9427616D01*
X27709215Y9378797D01*
X27708250Y9374581D01*
X27705659Y9371076D01*
X27701798Y9369044D01*
X27697480Y9368790D01*
X27693416Y9370364D01*
X27687524Y9374327D01*
X27679446Y9378289D01*
X27676449Y9380524D01*
X27674468Y9383725D01*
X27673808Y9387382D01*
X27673808Y9632492D01*
X27674570Y9636353D01*
X27676754Y9639655D01*
X27773274Y9736124D01*
X27778354Y9742373D01*
X27781961Y9749028D01*
X27784145Y9756292D01*
X27784907Y9764318D01*
X27784907Y9777171D01*
X27785822Y9781336D01*
X27788362Y9784791D01*
X27792121Y9786874D01*
X27796388Y9787229D01*
X27800452Y9785756D01*
X27803551Y9782810D01*
X27806192Y9778796D01*
X27815235Y9768535D01*
X27825496Y9759492D01*
X27836876Y9751872D01*
X27843480Y9748621D01*
X27843480Y9796780D01*
X27795067Y9796780D01*
X27791206Y9797542D01*
X27787904Y9799777D01*
X27785720Y9803028D01*
X27784907Y9806940D01*
X27784907Y9878060D01*
X27785720Y9881971D01*
X27787904Y9885222D01*
X27791206Y9887458D01*
X27795067Y9888220D01*
X27843480Y9888220D01*
X27843480Y9936378D01*
X27836876Y9933127D01*
X27825496Y9925507D01*
X27815235Y9916464D01*
X27806192Y9906203D01*
X27803551Y9902190D01*
X27800452Y9899243D01*
X27796388Y9897770D01*
X27792121Y9898126D01*
X27788362Y9900208D01*
X27785822Y9903663D01*
X27784907Y9907828D01*
X27784907Y9984892D01*
X27784145Y9992918D01*
X27781961Y10000132D01*
X27778354Y10006787D01*
X27773274Y10013035D01*
X27735834Y10050475D01*
X27733701Y10053574D01*
X27732837Y10057231D01*
X27733396Y10060940D01*
X27736241Y10069423D01*
X27738933Y10082834D01*
X27739848Y10096500D01*
X27738933Y10110165D01*
X27736241Y10123576D01*
X27731872Y10136530D01*
X27725827Y10148824D01*
X27718207Y10160203D01*
X27709164Y10170464D01*
X27698903Y10179507D01*
X27687524Y10187127D01*
X27675230Y10193172D01*
X27662276Y10197541D01*
X27648865Y10200233D01*
X27635200Y10201148D01*
X27621534Y10200233D01*
X27608123Y10197541D01*
X27595169Y10193172D01*
X27582876Y10187127D01*
X27571496Y10179507D01*
X27561235Y10170464D01*
X27552192Y10160203D01*
X27544572Y10148824D01*
X27538527Y10136530D01*
X27534158Y10123576D01*
X27531466Y10110165D01*
X27530552Y10096500D01*
X27531466Y10082834D01*
X27534158Y10069423D01*
X27538527Y10056469D01*
X27544572Y10044176D01*
X27552192Y10032796D01*
X27561235Y10022535D01*
X27571496Y10013492D01*
X27582876Y10005872D01*
X27595169Y9999827D01*
X27608123Y9995458D01*
X27621534Y9992766D01*
X27635200Y9991852D01*
X27648865Y9992766D01*
X27662276Y9995458D01*
X27670760Y9998303D01*
X27674468Y9998862D01*
X27678126Y9997998D01*
X27681224Y9995865D01*
X27704745Y9972344D01*
X27706929Y9969093D01*
X27707691Y9965182D01*
X27707691Y9938613D01*
X27706777Y9934346D01*
X27704135Y9930892D01*
X27700325Y9928860D01*
X27695956Y9928606D01*
X27691892Y9930180D01*
X27687524Y9933127D01*
X27680920Y9936378D01*
X27680920Y9888220D01*
X27697531Y9888220D01*
X27701443Y9887458D01*
X27704745Y9885222D01*
X27706929Y9881971D01*
X27707691Y9878060D01*
X27707691Y9806940D01*
X27706929Y9803028D01*
X27704745Y9799777D01*
X27701443Y9797542D01*
X27697531Y9796780D01*
X27680920Y9796780D01*
X27680920Y9757206D01*
X27680158Y9753346D01*
X27677922Y9750044D01*
X27608225Y9680346D01*
X27603145Y9674098D01*
X27599589Y9667443D01*
X27597353Y9660178D01*
X27596592Y9652152D01*
X27596592Y9387382D01*
X27595880Y9383674D01*
X27593899Y9380524D01*
X27590902Y9378289D01*
X27582876Y9374327D01*
X27571496Y9366707D01*
X27561235Y9357664D01*
X27552192Y9347403D01*
X27544572Y9336024D01*
X27540610Y9327997D01*
X27538375Y9325000D01*
X27535225Y9323019D01*
X27531517Y9322308D01*
X26361898Y9322308D01*
X26353871Y9321546D01*
X26346658Y9319310D01*
X26340003Y9315754D01*
X26333754Y9310674D01*
X26093470Y9070390D01*
X26089864Y9068054D01*
X26085647Y9067444D01*
X26073100Y9068308D01*
X26065988Y9067800D01*
X26061670Y9068460D01*
X26058063Y9070848D01*
X26055726Y9074505D01*
X26055167Y9078823D01*
X26055675Y9084259D01*
X26054812Y9094012D01*
X26052272Y9103461D01*
X26048157Y9112300D01*
X26042518Y9120327D01*
X26035609Y9127236D01*
X26027583Y9132824D01*
X26018743Y9136989D01*
X26009295Y9139529D01*
X25999541Y9140342D01*
X25989788Y9139529D01*
X25980339Y9136989D01*
X25971449Y9132824D01*
X25963473Y9127236D01*
X25962051Y9125813D01*
X25958749Y9123629D01*
X25954888Y9122867D01*
X24722734Y9122867D01*
X24714708Y9122054D01*
X24707443Y9119870D01*
X24700788Y9116314D01*
X24694540Y9111183D01*
X24289004Y8705596D01*
X24286108Y8703564D01*
X24282704Y8702649D01*
X24274932Y8701989D01*
X24265483Y8699449D01*
X24256644Y8695334D01*
X24248618Y8689695D01*
X24241709Y8682786D01*
X24236121Y8674811D01*
X24231955Y8665921D01*
X24229415Y8656472D01*
X24228602Y8646718D01*
X24229415Y8636965D01*
X24230482Y8633104D01*
X24230787Y8629396D01*
X24229720Y8625840D01*
X24227434Y8622944D01*
X24224284Y8620963D01*
X24220678Y8620302D01*
X23994313Y8620302D01*
X23990655Y8620963D01*
X23987506Y8622944D01*
X23985270Y8625840D01*
X23984204Y8629396D01*
X23985372Y8641537D01*
X23986286Y8644991D01*
X23988318Y8647836D01*
X24511101Y9170619D01*
X24514352Y9172803D01*
X24518264Y9173616D01*
X25850951Y9173616D01*
X25854812Y9172803D01*
X25858114Y9170619D01*
X25859536Y9169196D01*
X25867512Y9163608D01*
X25876402Y9159494D01*
X25885851Y9156954D01*
X25895604Y9156090D01*
X25905358Y9156954D01*
X25914807Y9159494D01*
X25923646Y9163608D01*
X25931672Y9169196D01*
X25938581Y9176156D01*
X25944220Y9184132D01*
X25948335Y9193022D01*
X25950875Y9202470D01*
X25951738Y9212224D01*
X25950875Y9221978D01*
X25948335Y9231426D01*
X25944220Y9240266D01*
X25938581Y9248292D01*
X25931672Y9255201D01*
X25923646Y9260789D01*
X25914807Y9264954D01*
X25905358Y9267494D01*
X25895604Y9268307D01*
X25885851Y9267494D01*
X25876402Y9264954D01*
X25867512Y9260789D01*
X25859536Y9255201D01*
X25858114Y9253778D01*
X25854812Y9251594D01*
X25850951Y9250832D01*
X24498554Y9250832D01*
X24490527Y9250019D01*
X24483314Y9247835D01*
X24476659Y9244279D01*
X24470410Y9239148D01*
X23933708Y8702446D01*
X23930813Y8700414D01*
X23927409Y8699500D01*
X23919688Y8698839D01*
X23910239Y8696299D01*
X23901349Y8692184D01*
X23893373Y8686546D01*
X23886464Y8679637D01*
X23880826Y8671661D01*
X23876711Y8662771D01*
X23874171Y8653322D01*
X23873307Y8643569D01*
X23874628Y8629396D01*
X23873612Y8625840D01*
X23871326Y8622944D01*
X23868176Y8620963D01*
X23864570Y8620302D01*
X23657102Y8620302D01*
X23649076Y8619540D01*
X23641812Y8617305D01*
X23635157Y8613749D01*
X23628908Y8608669D01*
X23452124Y8431834D01*
X23449026Y8429701D01*
X23445368Y8428837D01*
X23441660Y8429396D01*
X23433176Y8432241D01*
X23419765Y8434933D01*
X23412145Y8435441D01*
X23408436Y8436406D01*
X23405338Y8438692D01*
X23403306Y8441994D01*
X23402645Y8445804D01*
X23403458Y8449564D01*
X23405642Y8452764D01*
X23755908Y8803030D01*
X23758804Y8805062D01*
X23762208Y8805976D01*
X23769929Y8806637D01*
X23779378Y8809177D01*
X23788268Y8813292D01*
X23796244Y8818930D01*
X23803203Y8825839D01*
X23808791Y8833866D01*
X23812906Y8842705D01*
X23815446Y8852154D01*
X23816310Y8861907D01*
X23815446Y8871661D01*
X23812906Y8881110D01*
X23808791Y8890000D01*
X23803203Y8897975D01*
X23796244Y8904884D01*
X23788268Y8910523D01*
X23779378Y8914638D01*
X23769929Y8917178D01*
X23760176Y8918041D01*
X23750422Y8917178D01*
X23740973Y8914638D01*
X23732134Y8910523D01*
X23724108Y8904884D01*
X23717199Y8897975D01*
X23711611Y8890000D01*
X23707445Y8881110D01*
X23704905Y8871661D01*
X23704245Y8863939D01*
X23703330Y8860536D01*
X23701298Y8857640D01*
X23258018Y8414359D01*
X23252938Y8408162D01*
X23248772Y8400237D01*
X23246334Y8397189D01*
X23242930Y8395309D01*
X23239018Y8394852D01*
X23235259Y8395868D01*
X23232160Y8398256D01*
X23226064Y8405164D01*
X23215803Y8414207D01*
X23204424Y8421827D01*
X23192130Y8427872D01*
X23179176Y8432241D01*
X23165765Y8434933D01*
X23152100Y8435848D01*
X23138434Y8434933D01*
X23125023Y8432241D01*
X23112069Y8427872D01*
X23099776Y8421827D01*
X23088396Y8414207D01*
X23078135Y8405164D01*
X23069092Y8394903D01*
X23061472Y8383524D01*
X23055427Y8371230D01*
X23051058Y8358276D01*
X23048366Y8344865D01*
X23047452Y8331200D01*
X23048366Y8317534D01*
X23051058Y8304123D01*
X23055427Y8291169D01*
X23061472Y8278875D01*
X23069092Y8267496D01*
X23078135Y8257235D01*
X23088396Y8248192D01*
X23099776Y8240572D01*
X23112069Y8234527D01*
X23125023Y8230158D01*
X23138434Y8227466D01*
X23152100Y8226552D01*
X23165765Y8227466D01*
X23179176Y8230158D01*
X23192130Y8234527D01*
X23204424Y8240572D01*
X23215803Y8248192D01*
X23226064Y8257235D01*
X23228554Y8260029D01*
X23231805Y8262518D01*
X23235767Y8263483D01*
X23239780Y8262823D01*
X23243235Y8260689D01*
X23245521Y8257336D01*
X23246334Y8253323D01*
X23246334Y8230260D01*
X23245572Y8226399D01*
X23243387Y8223097D01*
X23198124Y8177834D01*
X23195026Y8175701D01*
X23191368Y8174837D01*
X23187660Y8175396D01*
X23179176Y8178241D01*
X23165765Y8180933D01*
X23152100Y8181848D01*
X23138434Y8180933D01*
X23125023Y8178241D01*
X23112069Y8173872D01*
X23099776Y8167827D01*
X23088396Y8160207D01*
X23078135Y8151164D01*
X23069092Y8140903D01*
X23061472Y8129524D01*
X23055427Y8117230D01*
X23051058Y8104276D01*
X23048366Y8090865D01*
X23047452Y8077200D01*
X23048366Y8063534D01*
X23051058Y8050123D01*
X23055427Y8037169D01*
X23061472Y8024875D01*
X23069092Y8013496D01*
X23078135Y8003235D01*
X23088396Y7994192D01*
X23099776Y7986572D01*
X23112069Y7980527D01*
X23125023Y7976158D01*
X23138434Y7973466D01*
X23152100Y7972552D01*
X23165765Y7973466D01*
X23179176Y7976158D01*
X23192130Y7980527D01*
X23204424Y7986572D01*
X23215803Y7994192D01*
X23226064Y8003235D01*
X23235107Y8013496D01*
X23242727Y8024875D01*
X23248772Y8037169D01*
X23253141Y8050123D01*
X23255833Y8063534D01*
X23256748Y8077200D01*
X23255833Y8090865D01*
X23253141Y8104276D01*
X23250296Y8112759D01*
X23249737Y8116468D01*
X23250601Y8120125D01*
X23252734Y8123224D01*
X23311916Y8182406D01*
X23316996Y8188655D01*
X23320603Y8195309D01*
X23322788Y8202574D01*
X23323550Y8210600D01*
X23323550Y8242300D01*
X23324312Y8246059D01*
X23326394Y8249310D01*
X23329544Y8251545D01*
X23333303Y8252459D01*
X23337113Y8251901D01*
X23340415Y8249920D01*
X23342396Y8248192D01*
X23353776Y8240572D01*
X23366069Y8234527D01*
X23379023Y8230158D01*
X23392434Y8227466D01*
X23406100Y8226552D01*
X23419765Y8227466D01*
X23433176Y8230158D01*
X23446130Y8234527D01*
X23458424Y8240572D01*
X23469803Y8248192D01*
X23480064Y8257235D01*
X23489107Y8267496D01*
X23496727Y8278875D01*
X23502772Y8291169D01*
X23507141Y8304123D01*
X23509833Y8317534D01*
X23510748Y8331200D01*
X23509833Y8344865D01*
X23507141Y8358276D01*
X23504296Y8366759D01*
X23503737Y8370468D01*
X23504601Y8374125D01*
X23506734Y8377224D01*
X23669599Y8540140D01*
X23672901Y8542324D01*
X23676762Y8543086D01*
X24129136Y8543086D01*
X24132997Y8542324D01*
X24136299Y8540140D01*
X24138483Y8536838D01*
X24139296Y8532926D01*
X24138483Y8529066D01*
X24136299Y8525764D01*
X24014125Y8403590D01*
X24009807Y8398306D01*
X24006403Y8395614D01*
X24002136Y8394598D01*
X23997869Y8395462D01*
X23994313Y8398052D01*
X23988064Y8405164D01*
X23977803Y8414207D01*
X23966424Y8421827D01*
X23954130Y8427872D01*
X23941176Y8432241D01*
X23927765Y8434933D01*
X23914100Y8435848D01*
X23900434Y8434933D01*
X23887023Y8432241D01*
X23874069Y8427872D01*
X23861776Y8421827D01*
X23850396Y8414207D01*
X23840135Y8405164D01*
X23831092Y8394903D01*
X23823472Y8383524D01*
X23817427Y8371230D01*
X23813058Y8358276D01*
X23810366Y8344865D01*
X23809452Y8331200D01*
X23810366Y8317534D01*
X23813058Y8304123D01*
X23817427Y8291169D01*
X23823472Y8278875D01*
X23831092Y8267496D01*
X23840135Y8257235D01*
X23850396Y8248192D01*
X23861776Y8240572D01*
X23874069Y8234527D01*
X23887023Y8230158D01*
X23900434Y8227466D01*
X23914100Y8226552D01*
X23927765Y8227466D01*
X23941176Y8230158D01*
X23954130Y8234527D01*
X23966424Y8240572D01*
X23977803Y8248192D01*
X23985626Y8255050D01*
X23988928Y8257031D01*
X23992789Y8257590D01*
X23996497Y8256676D01*
X23999647Y8254441D01*
X24001730Y8251190D01*
X24002492Y8247430D01*
X24002492Y8224418D01*
X24001730Y8220506D01*
X23999494Y8217204D01*
X23960124Y8177834D01*
X23957026Y8175701D01*
X23953368Y8174837D01*
X23949660Y8175396D01*
X23941176Y8178241D01*
X23927765Y8180933D01*
X23914100Y8181848D01*
X23900434Y8180933D01*
X23887023Y8178241D01*
X23874069Y8173872D01*
X23861776Y8167827D01*
X23850396Y8160207D01*
X23840135Y8151164D01*
X23831092Y8140903D01*
X23823472Y8129524D01*
X23817427Y8117230D01*
X23813058Y8104276D01*
X23810366Y8090865D01*
X23809452Y8077200D01*
X23810366Y8063534D01*
X23813058Y8050123D01*
X23817427Y8037169D01*
X23823472Y8024875D01*
X23831092Y8013496D01*
X23840135Y8003235D01*
X23850396Y7994192D01*
X23861776Y7986572D01*
X23874069Y7980527D01*
X23887023Y7976158D01*
X23900434Y7973466D01*
X23914100Y7972552D01*
X23927765Y7973466D01*
X23941176Y7976158D01*
X23954130Y7980527D01*
X23966424Y7986572D01*
X23977803Y7994192D01*
X23988064Y8003235D01*
X23997107Y8013496D01*
X24004727Y8024875D01*
X24010772Y8037169D01*
X24015141Y8050123D01*
X24017833Y8063534D01*
X24018748Y8077200D01*
X24017833Y8090865D01*
X24015141Y8104276D01*
X24012296Y8112759D01*
X24011737Y8116468D01*
X24012601Y8120125D01*
X24014734Y8123224D01*
X24068024Y8176564D01*
X24073154Y8182813D01*
X24076710Y8189468D01*
X24078895Y8196681D01*
X24079708Y8204708D01*
X24079708Y8247430D01*
X24080419Y8251240D01*
X24082502Y8254441D01*
X24085651Y8256676D01*
X24089410Y8257590D01*
X24093220Y8257031D01*
X24096573Y8255101D01*
X24104396Y8248192D01*
X24115776Y8240572D01*
X24128069Y8234527D01*
X24141023Y8230158D01*
X24154434Y8227466D01*
X24168100Y8226552D01*
X24181765Y8227466D01*
X24195176Y8230158D01*
X24208130Y8234527D01*
X24220424Y8240572D01*
X24231803Y8248192D01*
X24242064Y8257235D01*
X24251107Y8267496D01*
X24252275Y8269274D01*
X24255374Y8272221D01*
X24259387Y8273694D01*
X24263654Y8273338D01*
X24267414Y8271256D01*
X24269954Y8267801D01*
X24270868Y8263636D01*
X24270868Y8238794D01*
X24270106Y8234934D01*
X24267922Y8231631D01*
X24214124Y8177834D01*
X24211026Y8175701D01*
X24207368Y8174837D01*
X24203660Y8175396D01*
X24195176Y8178241D01*
X24181765Y8180933D01*
X24168100Y8181848D01*
X24154434Y8180933D01*
X24141023Y8178241D01*
X24128069Y8173872D01*
X24115776Y8167827D01*
X24104396Y8160207D01*
X24094135Y8151164D01*
X24085092Y8140903D01*
X24077472Y8129524D01*
X24071427Y8117230D01*
X24067058Y8104276D01*
X24064366Y8090865D01*
X24063452Y8077200D01*
X24064366Y8063534D01*
X24067058Y8050123D01*
X24071427Y8037169D01*
X24077472Y8024875D01*
X24085092Y8013496D01*
X24094135Y8003235D01*
X24104396Y7994192D01*
X24115776Y7986572D01*
X24128069Y7980527D01*
X24141023Y7976158D01*
X24154434Y7973466D01*
X24168100Y7972552D01*
X24181765Y7973466D01*
X24195176Y7976158D01*
X24208130Y7980527D01*
X24220424Y7986572D01*
X24231803Y7994192D01*
X24242064Y8003235D01*
X24251107Y8013496D01*
X24258727Y8024875D01*
X24264772Y8037169D01*
X24269141Y8050123D01*
X24271833Y8063534D01*
X24272748Y8077200D01*
X24271833Y8090865D01*
X24269141Y8104276D01*
X24266296Y8112759D01*
X24265737Y8116468D01*
X24266601Y8120125D01*
X24268734Y8123224D01*
X24336451Y8190941D01*
X24341531Y8197189D01*
X24345138Y8203844D01*
X24347322Y8211108D01*
X24347932Y8217408D01*
X24348948Y8220964D01*
X24351234Y8223910D01*
X24354383Y8225891D01*
X24358041Y8226552D01*
X24505564Y8226501D01*
X24508917Y8224926D01*
X24511457Y8222284D01*
X24512930Y8218931D01*
X24513082Y8215274D01*
X24512422Y8210346D01*
X24510949Y8185150D01*
X24511457Y8160308D01*
X24510746Y8156498D01*
X24508714Y8153196D01*
X24505564Y8150910D01*
X24501805Y8149996D01*
X24497944Y8150555D01*
X24494591Y8152485D01*
X24485803Y8160207D01*
X24474424Y8167827D01*
X24462130Y8173872D01*
X24449176Y8178241D01*
X24435765Y8180933D01*
X24422100Y8181848D01*
X24408434Y8180933D01*
X24395023Y8178241D01*
X24382069Y8173872D01*
X24369776Y8167827D01*
X24358396Y8160207D01*
X24348135Y8151164D01*
X24339092Y8140903D01*
X24331472Y8129524D01*
X24325427Y8117230D01*
X24321058Y8104276D01*
X24318366Y8090865D01*
X24317452Y8077200D01*
X24318366Y8063534D01*
X24321058Y8050123D01*
X24325427Y8037169D01*
X24331472Y8024875D01*
X24339092Y8013496D01*
X24348135Y8003235D01*
X24358396Y7994192D01*
X24369776Y7986572D01*
X24382069Y7980527D01*
X24395023Y7976158D01*
X24408434Y7973466D01*
X24422100Y7972552D01*
X24435765Y7973466D01*
X24449176Y7976158D01*
X24457660Y7979003D01*
X24461368Y7979562D01*
X24465026Y7978698D01*
X24468124Y7976565D01*
X24591670Y7853019D01*
X24593854Y7849717D01*
X24594616Y7845856D01*
X24593854Y7841945D01*
X24591670Y7838643D01*
X24588368Y7836458D01*
X24584456Y7835696D01*
G37*

%LPC*%
G36*
X23406100Y7972552D02*
G01*
X23419765Y7973466D01*
X23433176Y7976158D01*
X23446130Y7980527D01*
X23458424Y7986572D01*
X23469803Y7994192D01*
X23480064Y8003235D01*
X23489107Y8013496D01*
X23496727Y8024875D01*
X23502772Y8037169D01*
X23507141Y8050123D01*
X23509833Y8063534D01*
X23510748Y8077200D01*
X23509833Y8090865D01*
X23507141Y8104276D01*
X23502772Y8117230D01*
X23496727Y8129524D01*
X23489107Y8140903D01*
X23480064Y8151164D01*
X23469803Y8160207D01*
X23458424Y8167827D01*
X23446130Y8173872D01*
X23433176Y8178241D01*
X23419765Y8180933D01*
X23406100Y8181848D01*
X23392434Y8180933D01*
X23379023Y8178241D01*
X23366069Y8173872D01*
X23353776Y8167827D01*
X23342396Y8160207D01*
X23332135Y8151164D01*
X23323092Y8140903D01*
X23315472Y8129524D01*
X23309427Y8117230D01*
X23305058Y8104276D01*
X23302366Y8090865D01*
X23301452Y8077200D01*
X23302366Y8063534D01*
X23305058Y8050123D01*
X23309427Y8037169D01*
X23315472Y8024875D01*
X23323092Y8013496D01*
X23332135Y8003235D01*
X23342396Y7994192D01*
X23353776Y7986572D01*
X23366069Y7980527D01*
X23379023Y7976158D01*
X23392434Y7973466D01*
G37*
G36*
X23660100Y7972552D02*
G01*
X23673765Y7973466D01*
X23687176Y7976158D01*
X23700130Y7980527D01*
X23712424Y7986572D01*
X23723803Y7994192D01*
X23734064Y8003235D01*
X23743107Y8013496D01*
X23750727Y8024875D01*
X23756772Y8037169D01*
X23761141Y8050123D01*
X23763833Y8063534D01*
X23764748Y8077200D01*
X23763833Y8090865D01*
X23761141Y8104276D01*
X23756772Y8117230D01*
X23750727Y8129524D01*
X23743107Y8140903D01*
X23734064Y8151164D01*
X23723803Y8160207D01*
X23712424Y8167827D01*
X23700130Y8173872D01*
X23687176Y8178241D01*
X23673765Y8180933D01*
X23660100Y8181848D01*
X23646434Y8180933D01*
X23633023Y8178241D01*
X23620069Y8173872D01*
X23607776Y8167827D01*
X23596396Y8160207D01*
X23586135Y8151164D01*
X23577092Y8140903D01*
X23569472Y8129524D01*
X23563427Y8117230D01*
X23559058Y8104276D01*
X23556366Y8090865D01*
X23555452Y8077200D01*
X23556366Y8063534D01*
X23559058Y8050123D01*
X23563427Y8037169D01*
X23569472Y8024875D01*
X23577092Y8013496D01*
X23586135Y8003235D01*
X23596396Y7994192D01*
X23607776Y7986572D01*
X23620069Y7980527D01*
X23633023Y7976158D01*
X23646434Y7973466D01*
G37*
G36*
X22943820Y7983321D02*
G01*
X22950424Y7986572D01*
X22961803Y7994192D01*
X22972064Y8003235D01*
X22981107Y8013496D01*
X22988727Y8024875D01*
X22991978Y8031480D01*
X22943820Y8031480D01*
G37*
G36*
X22689820Y7983321D02*
G01*
X22696424Y7986572D01*
X22707803Y7994192D01*
X22718064Y8003235D01*
X22727107Y8013496D01*
X22734727Y8024875D01*
X22737978Y8031480D01*
X22689820Y8031480D01*
G37*
G36*
X22852380Y7983321D02*
G01*
X22852380Y8031480D01*
X22804221Y8031480D01*
X22807472Y8024875D01*
X22815092Y8013496D01*
X22824135Y8003235D01*
X22834396Y7994192D01*
X22845776Y7986572D01*
G37*
G36*
X22804221Y8122920D02*
G01*
X22852380Y8122920D01*
X22852380Y8171078D01*
X22845776Y8167827D01*
X22834396Y8160207D01*
X22824135Y8151164D01*
X22815092Y8140903D01*
X22807472Y8129524D01*
G37*
G36*
X22943820Y8122920D02*
G01*
X22991978Y8122920D01*
X22988727Y8129524D01*
X22981107Y8140903D01*
X22972064Y8151164D01*
X22961803Y8160207D01*
X22950424Y8167827D01*
X22943820Y8171078D01*
G37*
G36*
X22689820Y8122920D02*
G01*
X22737978Y8122920D01*
X22734727Y8129524D01*
X22727107Y8140903D01*
X22718064Y8151164D01*
X22707803Y8160207D01*
X22696424Y8167827D01*
X22689820Y8171078D01*
G37*
G36*
X23660100Y8226552D02*
G01*
X23673765Y8227466D01*
X23687176Y8230158D01*
X23700130Y8234527D01*
X23712424Y8240572D01*
X23723803Y8248192D01*
X23734064Y8257235D01*
X23743107Y8267496D01*
X23750727Y8278875D01*
X23756772Y8291169D01*
X23761141Y8304123D01*
X23763833Y8317534D01*
X23764748Y8331200D01*
X23763833Y8344865D01*
X23761141Y8358276D01*
X23756772Y8371230D01*
X23750727Y8383524D01*
X23743107Y8394903D01*
X23734064Y8405164D01*
X23723803Y8414207D01*
X23712424Y8421827D01*
X23700130Y8427872D01*
X23687176Y8432241D01*
X23673765Y8434933D01*
X23660100Y8435848D01*
X23646434Y8434933D01*
X23633023Y8432241D01*
X23620069Y8427872D01*
X23607776Y8421827D01*
X23596396Y8414207D01*
X23586135Y8405164D01*
X23577092Y8394903D01*
X23569472Y8383524D01*
X23563427Y8371230D01*
X23559058Y8358276D01*
X23556366Y8344865D01*
X23555452Y8331200D01*
X23556366Y8317534D01*
X23559058Y8304123D01*
X23563427Y8291169D01*
X23569472Y8278875D01*
X23577092Y8267496D01*
X23586135Y8257235D01*
X23596396Y8248192D01*
X23607776Y8240572D01*
X23620069Y8234527D01*
X23633023Y8230158D01*
X23646434Y8227466D01*
G37*
G36*
X22898100Y8226552D02*
G01*
X22911765Y8227466D01*
X22925176Y8230158D01*
X22938130Y8234527D01*
X22950424Y8240572D01*
X22961803Y8248192D01*
X22972064Y8257235D01*
X22981107Y8267496D01*
X22988727Y8278875D01*
X22994772Y8291169D01*
X22999141Y8304123D01*
X23001833Y8317534D01*
X23002748Y8331200D01*
X23001833Y8344865D01*
X22999141Y8358276D01*
X22994772Y8371230D01*
X22988727Y8383524D01*
X22981107Y8394903D01*
X22972064Y8405164D01*
X22961803Y8414207D01*
X22950424Y8421827D01*
X22938130Y8427872D01*
X22925176Y8432241D01*
X22911765Y8434933D01*
X22898100Y8435848D01*
X22884434Y8434933D01*
X22871023Y8432241D01*
X22858069Y8427872D01*
X22845776Y8421827D01*
X22834396Y8414207D01*
X22824135Y8405164D01*
X22815092Y8394903D01*
X22807472Y8383524D01*
X22801427Y8371230D01*
X22797058Y8358276D01*
X22794366Y8344865D01*
X22793452Y8331200D01*
X22794366Y8317534D01*
X22797058Y8304123D01*
X22801427Y8291169D01*
X22807472Y8278875D01*
X22815092Y8267496D01*
X22824135Y8257235D01*
X22834396Y8248192D01*
X22845776Y8240572D01*
X22858069Y8234527D01*
X22871023Y8230158D01*
X22884434Y8227466D01*
G37*
G36*
X23054360Y8825941D02*
G01*
X23072039Y8825941D01*
X23089565Y8827820D01*
X23106837Y8831529D01*
X23123601Y8837117D01*
X23139704Y8844381D01*
X23154894Y8853373D01*
X23169067Y8863888D01*
X23182021Y8875877D01*
X23193654Y8889136D01*
X23203814Y8903614D01*
X23212399Y8919057D01*
X23219257Y8935313D01*
X23224337Y8952230D01*
X23227639Y8969603D01*
X23229011Y8987180D01*
X23228554Y9004858D01*
X23226217Y9022334D01*
X23222000Y9039504D01*
X23216006Y9056116D01*
X23208284Y9071965D01*
X23198937Y9086951D01*
X23188015Y9100820D01*
X23175722Y9113469D01*
X23162107Y9124746D01*
X23147426Y9134551D01*
X23131729Y9142679D01*
X23115270Y9149080D01*
X23098252Y9153753D01*
X23080827Y9156547D01*
X23063200Y9157512D01*
X23045572Y9156547D01*
X23028148Y9153753D01*
X23011079Y9149080D01*
X22994620Y9142679D01*
X22978973Y9134551D01*
X22964241Y9124746D01*
X22950678Y9113469D01*
X22938333Y9100820D01*
X22927462Y9086951D01*
X22918064Y9071965D01*
X22910342Y9056116D01*
X22904348Y9039504D01*
X22900182Y9022334D01*
X22897846Y9004858D01*
X22897338Y8987180D01*
X22898760Y8969603D01*
X22902011Y8952230D01*
X22907142Y8935313D01*
X22914000Y8919057D01*
X22922534Y8903614D01*
X22932694Y8889136D01*
X22944328Y8875877D01*
X22957332Y8863888D01*
X22971506Y8853373D01*
X22986695Y8844381D01*
X23002798Y8837117D01*
X23019562Y8831529D01*
X23036784Y8827820D01*
G37*
G36*
X23054360Y9333941D02*
G01*
X23072039Y9333941D01*
X23089565Y9335820D01*
X23106837Y9339529D01*
X23123601Y9345117D01*
X23139704Y9352381D01*
X23154894Y9361373D01*
X23169067Y9371888D01*
X23182021Y9383877D01*
X23193654Y9397136D01*
X23203814Y9411614D01*
X23212399Y9427057D01*
X23219257Y9443313D01*
X23224337Y9460230D01*
X23227639Y9477603D01*
X23229011Y9495180D01*
X23228554Y9512858D01*
X23226217Y9530334D01*
X23222000Y9547504D01*
X23216006Y9564116D01*
X23208284Y9579965D01*
X23198937Y9594951D01*
X23188015Y9608820D01*
X23175722Y9621469D01*
X23162107Y9632746D01*
X23147426Y9642551D01*
X23131729Y9650679D01*
X23115270Y9657080D01*
X23098252Y9661753D01*
X23080827Y9664547D01*
X23063200Y9665512D01*
X23045572Y9664547D01*
X23028148Y9661753D01*
X23011079Y9657080D01*
X22994620Y9650679D01*
X22978973Y9642551D01*
X22964241Y9632746D01*
X22950678Y9621469D01*
X22938333Y9608820D01*
X22927462Y9594951D01*
X22918064Y9579965D01*
X22910342Y9564116D01*
X22904348Y9547504D01*
X22900182Y9530334D01*
X22897846Y9512858D01*
X22897338Y9495180D01*
X22898760Y9477603D01*
X22902011Y9460230D01*
X22907142Y9443313D01*
X22914000Y9427057D01*
X22922534Y9411614D01*
X22932694Y9397136D01*
X22944328Y9383877D01*
X22957332Y9371888D01*
X22971506Y9361373D01*
X22986695Y9352381D01*
X23002798Y9345117D01*
X23019562Y9339529D01*
X23036784Y9335820D01*
G37*
G36*
X24257000Y9508032D02*
G01*
X24270817Y9508896D01*
X24284381Y9511639D01*
X24297538Y9516059D01*
X24309933Y9522206D01*
X24321465Y9529876D01*
X24331879Y9539020D01*
X24341023Y9549434D01*
X24348694Y9560966D01*
X24354840Y9573361D01*
X24359260Y9586518D01*
X24362003Y9600082D01*
X24362511Y9608515D01*
X24363426Y9612071D01*
X24365508Y9615017D01*
X24406402Y9656013D01*
X24412092Y9662871D01*
X24413514Y9664903D01*
X24418086Y9672523D01*
X24419204Y9674707D01*
X24422608Y9682937D01*
X24423370Y9685274D01*
X24425503Y9693859D01*
X24425910Y9696297D01*
X24426773Y9705136D01*
X24426824Y10198404D01*
X24427586Y10202265D01*
X24429770Y10205567D01*
X24457202Y10232999D01*
X24460504Y10235234D01*
X24464416Y10235996D01*
X25199543Y10235996D01*
X25203200Y10235336D01*
X25206350Y10233355D01*
X25208636Y10230408D01*
X25209652Y10226852D01*
X25210414Y10219232D01*
X25213614Y10205974D01*
X25218491Y10193223D01*
X25225044Y10181285D01*
X25233122Y10170312D01*
X25242621Y10160508D01*
X25253340Y10152024D01*
X25265075Y10145064D01*
X25277622Y10139781D01*
X25290780Y10136174D01*
X25304292Y10134346D01*
X25317907Y10134346D01*
X25331420Y10136174D01*
X25344577Y10139781D01*
X25357124Y10145064D01*
X25368859Y10152024D01*
X25379578Y10160508D01*
X25389078Y10170312D01*
X25397155Y10181285D01*
X25403708Y10193223D01*
X25408585Y10205974D01*
X25411785Y10219232D01*
X25413106Y10232796D01*
X25412649Y10246410D01*
X25410414Y10259872D01*
X25406350Y10272877D01*
X25400609Y10285272D01*
X25393294Y10296753D01*
X25384506Y10307167D01*
X25374346Y10316311D01*
X25363119Y10324033D01*
X25350978Y10330180D01*
X25338074Y10334650D01*
X25324714Y10337393D01*
X25320548Y10337647D01*
X25317043Y10338562D01*
X25314046Y10340594D01*
X25287173Y10367416D01*
X25280315Y10373106D01*
X25278334Y10374528D01*
X25270714Y10379100D01*
X25268478Y10380218D01*
X25260300Y10383621D01*
X25257963Y10384383D01*
X25249327Y10386517D01*
X25246888Y10386923D01*
X25238049Y10387736D01*
X24436984Y10387787D01*
X24433072Y10388600D01*
X24429770Y10390784D01*
X24427586Y10394086D01*
X24426824Y10397947D01*
X24426824Y12313767D01*
X24427586Y12317628D01*
X24429770Y12320930D01*
X24799137Y12690297D01*
X24802134Y12692380D01*
X24805640Y12693243D01*
X24809246Y12692837D01*
X24814530Y12691262D01*
X24831903Y12687960D01*
X24849480Y12686588D01*
X24867158Y12687046D01*
X24884634Y12689382D01*
X24899112Y12692938D01*
X24902566Y12693142D01*
X24905868Y12692227D01*
X24908713Y12690246D01*
X25244907Y12354052D01*
X25247092Y12350750D01*
X25247904Y12346838D01*
X25247904Y12162078D01*
X25247244Y12158573D01*
X25245466Y12155525D01*
X25241605Y12150953D01*
X25234290Y12139472D01*
X25228550Y12127077D01*
X25224486Y12114072D01*
X25222250Y12100610D01*
X25221793Y12086996D01*
X25223114Y12073432D01*
X25226314Y12060174D01*
X25231191Y12047423D01*
X25237744Y12035485D01*
X25245822Y12024512D01*
X25255321Y12014708D01*
X25266040Y12006224D01*
X25277775Y11999264D01*
X25290322Y11993981D01*
X25303480Y11990374D01*
X25316992Y11988546D01*
X25330607Y11988546D01*
X25344120Y11990374D01*
X25357277Y11993981D01*
X25369824Y11999264D01*
X25381559Y12006224D01*
X25392278Y12014708D01*
X25401778Y12024512D01*
X25409855Y12035485D01*
X25416408Y12047423D01*
X25421285Y12060174D01*
X25424485Y12073432D01*
X25425806Y12086996D01*
X25425349Y12100610D01*
X25423114Y12114072D01*
X25419050Y12127077D01*
X25413309Y12139472D01*
X25405994Y12150953D01*
X25402082Y12155576D01*
X25400304Y12158624D01*
X25399695Y12162129D01*
X25399644Y12385141D01*
X25398831Y12394031D01*
X25398425Y12396419D01*
X25396240Y12405055D01*
X25395478Y12407392D01*
X25391008Y12417806D01*
X25386385Y12425426D01*
X25379324Y12434265D01*
X25016002Y12797637D01*
X25013970Y12800584D01*
X25013056Y12803987D01*
X25013361Y12807543D01*
X25016053Y12817348D01*
X25018847Y12834772D01*
X25019812Y12852400D01*
X25018847Y12870027D01*
X25016053Y12887452D01*
X25011380Y12904520D01*
X25004979Y12920980D01*
X24996851Y12936626D01*
X24987046Y12951358D01*
X24975820Y12964922D01*
X24963120Y12977266D01*
X24949251Y12988137D01*
X24934265Y12997535D01*
X24918416Y13005257D01*
X24901804Y13011251D01*
X24884634Y13015417D01*
X24867158Y13017754D01*
X24849480Y13018262D01*
X24831903Y13016839D01*
X24814530Y13013537D01*
X24797613Y13008457D01*
X24781357Y13001599D01*
X24765914Y12993065D01*
X24751436Y12982905D01*
X24738177Y12971272D01*
X24726188Y12958267D01*
X24715673Y12944094D01*
X24706681Y12928904D01*
X24699417Y12912801D01*
X24693829Y12896037D01*
X24690120Y12878816D01*
X24688241Y12861239D01*
X24688241Y12843560D01*
X24690120Y12826034D01*
X24693829Y12808762D01*
X24694642Y12804190D01*
X24693778Y12800584D01*
X24691695Y12797536D01*
X24295404Y12401194D01*
X24289715Y12394336D01*
X24288292Y12392304D01*
X24283720Y12384684D01*
X24282603Y12382500D01*
X24279199Y12374270D01*
X24278437Y12371933D01*
X24276304Y12363348D01*
X24275897Y12360910D01*
X24275034Y12352070D01*
X24274983Y11544604D01*
X24274424Y11541150D01*
X24272697Y11538153D01*
X24270055Y11535867D01*
X24266804Y11534648D01*
X24255018Y11532260D01*
X24241861Y11527840D01*
X24229466Y11521694D01*
X24217934Y11514023D01*
X24207520Y11504879D01*
X24198376Y11494465D01*
X24190706Y11482933D01*
X24184559Y11470538D01*
X24180139Y11457381D01*
X24177396Y11443817D01*
X24176532Y11430000D01*
X24177396Y11416182D01*
X24181104Y11398097D01*
X24181104Y9691420D01*
X24180444Y9687814D01*
X24178564Y9684715D01*
X24172976Y9678365D01*
X24165306Y9666833D01*
X24159159Y9654438D01*
X24154739Y9641281D01*
X24151996Y9627717D01*
X24151132Y9613900D01*
X24151996Y9600082D01*
X24154739Y9586518D01*
X24159159Y9573361D01*
X24165306Y9560966D01*
X24172976Y9549434D01*
X24182120Y9539020D01*
X24192534Y9529876D01*
X24204066Y9522206D01*
X24216461Y9516059D01*
X24229618Y9511639D01*
X24243182Y9508896D01*
G37*
G36*
X24718670Y9518954D02*
G01*
X24718670Y9567570D01*
X24670054Y9567570D01*
X24673306Y9560966D01*
X24680976Y9549434D01*
X24690120Y9539020D01*
X24700534Y9529876D01*
X24712066Y9522206D01*
G37*
G36*
X24811329Y9518954D02*
G01*
X24817933Y9522206D01*
X24829465Y9529876D01*
X24839879Y9539020D01*
X24849023Y9549434D01*
X24856694Y9560966D01*
X24859945Y9567570D01*
X24811329Y9567570D01*
G37*
G36*
X24811329Y9660229D02*
G01*
X24859945Y9660229D01*
X24856694Y9666833D01*
X24849023Y9678365D01*
X24839879Y9688779D01*
X24829465Y9697923D01*
X24817933Y9705594D01*
X24811329Y9708845D01*
G37*
G36*
X24670054Y9660229D02*
G01*
X24718670Y9660229D01*
X24718670Y9708845D01*
X24712066Y9705594D01*
X24700534Y9697923D01*
X24690120Y9688779D01*
X24680976Y9678365D01*
X24673306Y9666833D01*
G37*
G36*
X27589480Y9748621D02*
G01*
X27589480Y9796780D01*
X27541321Y9796780D01*
X27544572Y9790176D01*
X27552192Y9778796D01*
X27561235Y9768535D01*
X27571496Y9759492D01*
X27582876Y9751872D01*
G37*
G36*
X23054360Y9841941D02*
G01*
X23072039Y9841941D01*
X23089565Y9843820D01*
X23106837Y9847529D01*
X23123601Y9853117D01*
X23139704Y9860381D01*
X23154894Y9869373D01*
X23169067Y9879888D01*
X23182021Y9891877D01*
X23193654Y9905136D01*
X23203814Y9919614D01*
X23212399Y9935057D01*
X23219257Y9951313D01*
X23224337Y9968230D01*
X23227639Y9985603D01*
X23229011Y10003180D01*
X23228554Y10020858D01*
X23226217Y10038334D01*
X23222000Y10055504D01*
X23216006Y10072116D01*
X23208284Y10087965D01*
X23198937Y10102951D01*
X23188015Y10116820D01*
X23175722Y10129520D01*
X23162107Y10140746D01*
X23147426Y10150551D01*
X23131729Y10158679D01*
X23115270Y10165080D01*
X23098252Y10169753D01*
X23080827Y10172547D01*
X23063200Y10173512D01*
X23045572Y10172547D01*
X23028148Y10169753D01*
X23011079Y10165080D01*
X22994620Y10158679D01*
X22978973Y10150551D01*
X22964241Y10140746D01*
X22950678Y10129520D01*
X22938333Y10116820D01*
X22927462Y10102951D01*
X22918064Y10087965D01*
X22910342Y10072116D01*
X22904348Y10055504D01*
X22900182Y10038334D01*
X22897846Y10020858D01*
X22897338Y10003180D01*
X22898760Y9985603D01*
X22902011Y9968230D01*
X22907142Y9951313D01*
X22914000Y9935057D01*
X22922534Y9919614D01*
X22932694Y9905136D01*
X22944328Y9891877D01*
X22957332Y9879888D01*
X22971506Y9869373D01*
X22986695Y9860381D01*
X23002798Y9853117D01*
X23019562Y9847529D01*
X23036784Y9843820D01*
G37*
G36*
X27541321Y9888220D02*
G01*
X27589480Y9888220D01*
X27589480Y9936378D01*
X27582876Y9933127D01*
X27571496Y9925507D01*
X27561235Y9916464D01*
X27552192Y9906203D01*
X27544572Y9894824D01*
G37*
G36*
X25812292Y10134346D02*
G01*
X25825907Y10134346D01*
X25839420Y10136174D01*
X25852577Y10139781D01*
X25865124Y10145064D01*
X25876859Y10152024D01*
X25887578Y10160508D01*
X25897078Y10170312D01*
X25905155Y10181285D01*
X25911708Y10193223D01*
X25916585Y10205974D01*
X25919785Y10219232D01*
X25921106Y10232796D01*
X25920649Y10246410D01*
X25918414Y10259872D01*
X25914350Y10272877D01*
X25908609Y10285272D01*
X25901294Y10296753D01*
X25892506Y10307167D01*
X25882346Y10316311D01*
X25871119Y10324033D01*
X25858978Y10330180D01*
X25846074Y10334650D01*
X25832714Y10337393D01*
X25819100Y10338308D01*
X25805485Y10337393D01*
X25792125Y10334650D01*
X25779222Y10330180D01*
X25767080Y10324033D01*
X25755854Y10316311D01*
X25745694Y10307167D01*
X25736905Y10296753D01*
X25729590Y10285272D01*
X25723850Y10272877D01*
X25719786Y10259872D01*
X25717550Y10246410D01*
X25717093Y10232796D01*
X25718414Y10219232D01*
X25721614Y10205974D01*
X25726491Y10193223D01*
X25733044Y10181285D01*
X25741122Y10170312D01*
X25750621Y10160508D01*
X25761340Y10152024D01*
X25773075Y10145064D01*
X25785622Y10139781D01*
X25798780Y10136174D01*
G37*
G36*
X26066292Y10134346D02*
G01*
X26079907Y10134346D01*
X26093420Y10136174D01*
X26106577Y10139781D01*
X26119124Y10145064D01*
X26130859Y10152024D01*
X26141578Y10160508D01*
X26151077Y10170312D01*
X26159155Y10181285D01*
X26165708Y10193223D01*
X26170585Y10205974D01*
X26173785Y10219232D01*
X26175106Y10232796D01*
X26174649Y10246410D01*
X26172414Y10259872D01*
X26168350Y10272877D01*
X26162609Y10285272D01*
X26155294Y10296753D01*
X26146506Y10307167D01*
X26136346Y10316311D01*
X26125119Y10324033D01*
X26112977Y10330180D01*
X26100074Y10334650D01*
X26086714Y10337393D01*
X26073100Y10338308D01*
X26059485Y10337393D01*
X26046125Y10334650D01*
X26033222Y10330180D01*
X26021080Y10324033D01*
X26009854Y10316311D01*
X25999694Y10307167D01*
X25990905Y10296753D01*
X25983590Y10285272D01*
X25977850Y10272877D01*
X25973786Y10259872D01*
X25971550Y10246410D01*
X25971093Y10232796D01*
X25972414Y10219232D01*
X25975614Y10205974D01*
X25980491Y10193223D01*
X25987044Y10181285D01*
X25995122Y10170312D01*
X26004621Y10160508D01*
X26015340Y10152024D01*
X26027075Y10145064D01*
X26039622Y10139781D01*
X26052780Y10136174D01*
G37*
G36*
X26320292Y10134346D02*
G01*
X26333907Y10134346D01*
X26347420Y10136174D01*
X26360577Y10139781D01*
X26373124Y10145064D01*
X26384859Y10152024D01*
X26395578Y10160508D01*
X26405077Y10170312D01*
X26413155Y10181285D01*
X26419708Y10193223D01*
X26424585Y10205974D01*
X26427785Y10219232D01*
X26429106Y10232796D01*
X26428649Y10246410D01*
X26426414Y10259872D01*
X26422350Y10272877D01*
X26416609Y10285272D01*
X26409294Y10296753D01*
X26400506Y10307167D01*
X26390346Y10316311D01*
X26379119Y10324033D01*
X26366977Y10330180D01*
X26354074Y10334650D01*
X26340714Y10337393D01*
X26327100Y10338308D01*
X26313485Y10337393D01*
X26300125Y10334650D01*
X26287222Y10330180D01*
X26275080Y10324033D01*
X26263853Y10316311D01*
X26253694Y10307167D01*
X26244905Y10296753D01*
X26237590Y10285272D01*
X26231850Y10272877D01*
X26227786Y10259872D01*
X26225550Y10246410D01*
X26225093Y10232796D01*
X26226414Y10219232D01*
X26229614Y10205974D01*
X26234491Y10193223D01*
X26241044Y10181285D01*
X26249122Y10170312D01*
X26258621Y10160508D01*
X26269340Y10152024D01*
X26281075Y10145064D01*
X26293622Y10139781D01*
X26306780Y10136174D01*
G37*
G36*
X26574292Y10134346D02*
G01*
X26587907Y10134346D01*
X26601420Y10136174D01*
X26614577Y10139781D01*
X26627124Y10145064D01*
X26638859Y10152024D01*
X26649578Y10160508D01*
X26659077Y10170312D01*
X26667155Y10181285D01*
X26673708Y10193223D01*
X26678585Y10205974D01*
X26681785Y10219232D01*
X26683106Y10232796D01*
X26682649Y10246410D01*
X26680414Y10259872D01*
X26676350Y10272877D01*
X26670609Y10285272D01*
X26663294Y10296753D01*
X26654506Y10307167D01*
X26644346Y10316311D01*
X26633119Y10324033D01*
X26620977Y10330180D01*
X26608074Y10334650D01*
X26594714Y10337393D01*
X26581100Y10338308D01*
X26567485Y10337393D01*
X26554125Y10334650D01*
X26541222Y10330180D01*
X26529080Y10324033D01*
X26517853Y10316311D01*
X26507694Y10307167D01*
X26498905Y10296753D01*
X26491590Y10285272D01*
X26485850Y10272877D01*
X26481786Y10259872D01*
X26479550Y10246410D01*
X26479093Y10232796D01*
X26480414Y10219232D01*
X26483614Y10205974D01*
X26488491Y10193223D01*
X26495044Y10181285D01*
X26503122Y10170312D01*
X26512621Y10160508D01*
X26523340Y10152024D01*
X26535075Y10145064D01*
X26547622Y10139781D01*
X26560780Y10136174D01*
G37*
G36*
X26828292Y10134346D02*
G01*
X26841907Y10134346D01*
X26855420Y10136174D01*
X26868577Y10139781D01*
X26881124Y10145064D01*
X26892859Y10152024D01*
X26903578Y10160508D01*
X26913077Y10170312D01*
X26921155Y10181285D01*
X26927708Y10193223D01*
X26932585Y10205974D01*
X26935785Y10219232D01*
X26937106Y10232796D01*
X26936649Y10246410D01*
X26934414Y10259872D01*
X26930350Y10272877D01*
X26924609Y10285272D01*
X26917294Y10296753D01*
X26908506Y10307167D01*
X26898346Y10316311D01*
X26887119Y10324033D01*
X26874977Y10330180D01*
X26862074Y10334650D01*
X26848714Y10337393D01*
X26835100Y10338308D01*
X26821485Y10337393D01*
X26808125Y10334650D01*
X26795222Y10330180D01*
X26783080Y10324033D01*
X26771853Y10316311D01*
X26761694Y10307167D01*
X26752905Y10296753D01*
X26745590Y10285272D01*
X26739850Y10272877D01*
X26735786Y10259872D01*
X26733550Y10246410D01*
X26733093Y10232796D01*
X26734414Y10219232D01*
X26737614Y10205974D01*
X26742491Y10193223D01*
X26749044Y10181285D01*
X26757122Y10170312D01*
X26766621Y10160508D01*
X26777340Y10152024D01*
X26789075Y10145064D01*
X26801622Y10139781D01*
X26814780Y10136174D01*
G37*
G36*
X27044650Y10144404D02*
G01*
X27044650Y10191750D01*
X26997304Y10191750D01*
X27003044Y10181285D01*
X27011122Y10170312D01*
X27020621Y10160508D01*
X27031340Y10152024D01*
X27043075Y10145064D01*
G37*
G36*
X25609550Y10144404D02*
G01*
X25611124Y10145064D01*
X25622859Y10152024D01*
X25633578Y10160508D01*
X25643078Y10170312D01*
X25651155Y10181285D01*
X25656895Y10191750D01*
X25609550Y10191750D01*
G37*
G36*
X25520650Y10144404D02*
G01*
X25520650Y10191750D01*
X25473304Y10191750D01*
X25479044Y10181285D01*
X25487122Y10170312D01*
X25496621Y10160508D01*
X25507340Y10152024D01*
X25519075Y10145064D01*
G37*
G36*
X27133550Y10144404D02*
G01*
X27135124Y10145064D01*
X27146859Y10152024D01*
X27157578Y10160508D01*
X27167077Y10170312D01*
X27175155Y10181285D01*
X27180895Y10191750D01*
X27133550Y10191750D01*
G37*
G36*
X26997456Y10280650D02*
G01*
X27044650Y10280650D01*
X27044650Y10327843D01*
X27037080Y10324033D01*
X27025853Y10316311D01*
X27015694Y10307167D01*
X27006905Y10296753D01*
X26999590Y10285272D01*
G37*
G36*
X25609550Y10280650D02*
G01*
X25656743Y10280650D01*
X25654609Y10285272D01*
X25647294Y10296753D01*
X25638506Y10307167D01*
X25628346Y10316311D01*
X25617119Y10324033D01*
X25609550Y10327843D01*
G37*
G36*
X25473456Y10280650D02*
G01*
X25520650Y10280650D01*
X25520650Y10327843D01*
X25513080Y10324033D01*
X25501854Y10316311D01*
X25491694Y10307167D01*
X25482905Y10296753D01*
X25475590Y10285272D01*
G37*
G36*
X27133550Y10280650D02*
G01*
X27180743Y10280650D01*
X27178609Y10285272D01*
X27171294Y10296753D01*
X27162506Y10307167D01*
X27152346Y10316311D01*
X27141119Y10324033D01*
X27133550Y10327843D01*
G37*
G36*
X23054360Y10349941D02*
G01*
X23072039Y10349941D01*
X23089565Y10351820D01*
X23106837Y10355529D01*
X23123601Y10361117D01*
X23139704Y10368381D01*
X23154894Y10377373D01*
X23169067Y10387888D01*
X23182021Y10399877D01*
X23193654Y10413136D01*
X23203814Y10427614D01*
X23212399Y10443057D01*
X23219257Y10459313D01*
X23224337Y10476230D01*
X23227639Y10493603D01*
X23229011Y10511180D01*
X23228554Y10528858D01*
X23226217Y10546334D01*
X23222000Y10563504D01*
X23216006Y10580116D01*
X23208284Y10595965D01*
X23198937Y10610951D01*
X23188015Y10624820D01*
X23175722Y10637520D01*
X23162107Y10648746D01*
X23147426Y10658551D01*
X23131729Y10666679D01*
X23115270Y10673080D01*
X23098252Y10677753D01*
X23080827Y10680547D01*
X23063200Y10681512D01*
X23045572Y10680547D01*
X23028148Y10677753D01*
X23011079Y10673080D01*
X22994620Y10666679D01*
X22978973Y10658551D01*
X22964241Y10648746D01*
X22950678Y10637520D01*
X22938333Y10624820D01*
X22927462Y10610951D01*
X22918064Y10595965D01*
X22910342Y10580116D01*
X22904348Y10563504D01*
X22900182Y10546334D01*
X22897846Y10528858D01*
X22897338Y10511180D01*
X22898760Y10493603D01*
X22902011Y10476230D01*
X22907142Y10459313D01*
X22914000Y10443057D01*
X22922534Y10427614D01*
X22932694Y10413136D01*
X22944328Y10399877D01*
X22957332Y10387888D01*
X22971506Y10377373D01*
X22986695Y10368381D01*
X23002798Y10361117D01*
X23019562Y10355529D01*
X23036784Y10351820D01*
G37*
G36*
X25570992Y10718546D02*
G01*
X25584607Y10718546D01*
X25598120Y10720374D01*
X25611277Y10723981D01*
X25623824Y10729264D01*
X25635559Y10736224D01*
X25646278Y10744708D01*
X25655778Y10754512D01*
X25663855Y10765485D01*
X25670408Y10777423D01*
X25675285Y10790174D01*
X25678485Y10803432D01*
X25679806Y10816996D01*
X25679349Y10830610D01*
X25677114Y10844072D01*
X25673050Y10857077D01*
X25667309Y10869472D01*
X25659994Y10880953D01*
X25651206Y10891367D01*
X25641046Y10900511D01*
X25629819Y10908233D01*
X25617678Y10914380D01*
X25604774Y10918850D01*
X25591414Y10921593D01*
X25577800Y10922508D01*
X25564185Y10921593D01*
X25550825Y10918850D01*
X25537922Y10914380D01*
X25525780Y10908233D01*
X25514554Y10900511D01*
X25504394Y10891367D01*
X25495605Y10880953D01*
X25488290Y10869472D01*
X25482550Y10857077D01*
X25478486Y10844072D01*
X25476250Y10830610D01*
X25475793Y10816996D01*
X25477114Y10803432D01*
X25480314Y10790174D01*
X25485191Y10777423D01*
X25491744Y10765485D01*
X25499822Y10754512D01*
X25509321Y10744708D01*
X25520040Y10736224D01*
X25531775Y10729264D01*
X25544322Y10723981D01*
X25557480Y10720374D01*
G37*
G36*
X26332992Y10718546D02*
G01*
X26346607Y10718546D01*
X26360120Y10720374D01*
X26373277Y10723981D01*
X26385824Y10729264D01*
X26397559Y10736224D01*
X26408278Y10744708D01*
X26417777Y10754512D01*
X26425855Y10765485D01*
X26432408Y10777423D01*
X26437285Y10790174D01*
X26440485Y10803432D01*
X26441806Y10816996D01*
X26441349Y10830610D01*
X26439114Y10844072D01*
X26435050Y10857077D01*
X26429309Y10869472D01*
X26421994Y10880953D01*
X26413206Y10891367D01*
X26403046Y10900511D01*
X26391819Y10908233D01*
X26379677Y10914380D01*
X26366774Y10918850D01*
X26353414Y10921593D01*
X26339800Y10922508D01*
X26326185Y10921593D01*
X26312825Y10918850D01*
X26299922Y10914380D01*
X26287780Y10908233D01*
X26276553Y10900511D01*
X26266394Y10891367D01*
X26257605Y10880953D01*
X26250290Y10869472D01*
X26244550Y10857077D01*
X26240486Y10844072D01*
X26238250Y10830610D01*
X26237793Y10816996D01*
X26239114Y10803432D01*
X26242314Y10790174D01*
X26247191Y10777423D01*
X26253744Y10765485D01*
X26261822Y10754512D01*
X26271321Y10744708D01*
X26282040Y10736224D01*
X26293775Y10729264D01*
X26306322Y10723981D01*
X26319480Y10720374D01*
G37*
G36*
X25824992Y10718546D02*
G01*
X25838607Y10718546D01*
X25852120Y10720374D01*
X25865277Y10723981D01*
X25877824Y10729264D01*
X25889559Y10736224D01*
X25900278Y10744708D01*
X25909778Y10754512D01*
X25917855Y10765485D01*
X25924408Y10777423D01*
X25929285Y10790174D01*
X25932485Y10803432D01*
X25933806Y10816996D01*
X25933349Y10830610D01*
X25931114Y10844072D01*
X25927050Y10857077D01*
X25921309Y10869472D01*
X25913994Y10880953D01*
X25905206Y10891367D01*
X25895046Y10900511D01*
X25883819Y10908233D01*
X25871678Y10914380D01*
X25858774Y10918850D01*
X25845414Y10921593D01*
X25831800Y10922508D01*
X25818185Y10921593D01*
X25804825Y10918850D01*
X25791922Y10914380D01*
X25779780Y10908233D01*
X25768554Y10900511D01*
X25758394Y10891367D01*
X25749605Y10880953D01*
X25742290Y10869472D01*
X25736550Y10857077D01*
X25732486Y10844072D01*
X25730250Y10830610D01*
X25729793Y10816996D01*
X25731114Y10803432D01*
X25734314Y10790174D01*
X25739191Y10777423D01*
X25745744Y10765485D01*
X25753822Y10754512D01*
X25763321Y10744708D01*
X25774040Y10736224D01*
X25785775Y10729264D01*
X25798322Y10723981D01*
X25811480Y10720374D01*
G37*
G36*
X26078992Y10718546D02*
G01*
X26092607Y10718546D01*
X26106120Y10720374D01*
X26119277Y10723981D01*
X26131824Y10729264D01*
X26143559Y10736224D01*
X26154278Y10744708D01*
X26163777Y10754512D01*
X26171855Y10765485D01*
X26178408Y10777423D01*
X26183285Y10790174D01*
X26186485Y10803432D01*
X26187806Y10816996D01*
X26187349Y10830610D01*
X26185114Y10844072D01*
X26181050Y10857077D01*
X26175309Y10869472D01*
X26167994Y10880953D01*
X26159206Y10891367D01*
X26149046Y10900511D01*
X26137819Y10908233D01*
X26125677Y10914380D01*
X26112774Y10918850D01*
X26099414Y10921593D01*
X26085800Y10922508D01*
X26072185Y10921593D01*
X26058825Y10918850D01*
X26045922Y10914380D01*
X26033780Y10908233D01*
X26022554Y10900511D01*
X26012393Y10891367D01*
X26003605Y10880953D01*
X25996290Y10869472D01*
X25990550Y10857077D01*
X25986486Y10844072D01*
X25984250Y10830610D01*
X25983793Y10816996D01*
X25985114Y10803432D01*
X25988314Y10790174D01*
X25993191Y10777423D01*
X25999744Y10765485D01*
X26007822Y10754512D01*
X26017321Y10744708D01*
X26028040Y10736224D01*
X26039775Y10729264D01*
X26052322Y10723981D01*
X26065480Y10720374D01*
G37*
G36*
X26586992Y10718546D02*
G01*
X26600607Y10718546D01*
X26614120Y10720374D01*
X26627277Y10723981D01*
X26639824Y10729264D01*
X26651559Y10736224D01*
X26662278Y10744708D01*
X26671777Y10754512D01*
X26679855Y10765485D01*
X26686408Y10777423D01*
X26691285Y10790174D01*
X26694485Y10803432D01*
X26695806Y10816996D01*
X26695349Y10830610D01*
X26693114Y10844072D01*
X26689050Y10857077D01*
X26683309Y10869472D01*
X26675994Y10880953D01*
X26667206Y10891367D01*
X26657046Y10900511D01*
X26645819Y10908233D01*
X26633677Y10914380D01*
X26620774Y10918850D01*
X26607414Y10921593D01*
X26593800Y10922508D01*
X26580185Y10921593D01*
X26566825Y10918850D01*
X26553922Y10914380D01*
X26541780Y10908233D01*
X26530553Y10900511D01*
X26520394Y10891367D01*
X26511605Y10880953D01*
X26504290Y10869472D01*
X26498550Y10857077D01*
X26494486Y10844072D01*
X26492250Y10830610D01*
X26491793Y10816996D01*
X26493114Y10803432D01*
X26496314Y10790174D01*
X26501191Y10777423D01*
X26507744Y10765485D01*
X26515822Y10754512D01*
X26525321Y10744708D01*
X26536040Y10736224D01*
X26547775Y10729264D01*
X26560322Y10723981D01*
X26573480Y10720374D01*
G37*
G36*
X25368250Y10728604D02*
G01*
X25369824Y10729264D01*
X25381559Y10736224D01*
X25392278Y10744708D01*
X25401778Y10754512D01*
X25409855Y10765485D01*
X25415595Y10775950D01*
X25368250Y10775950D01*
G37*
G36*
X25279350Y10728604D02*
G01*
X25279350Y10775950D01*
X25232004Y10775950D01*
X25237744Y10765485D01*
X25245822Y10754512D01*
X25255321Y10744708D01*
X25266040Y10736224D01*
X25277775Y10729264D01*
G37*
G36*
X25232156Y10864850D02*
G01*
X25279350Y10864850D01*
X25279350Y10912043D01*
X25271780Y10908233D01*
X25260554Y10900511D01*
X25250394Y10891367D01*
X25241605Y10880953D01*
X25234290Y10869472D01*
G37*
G36*
X25368250Y10864850D02*
G01*
X25415443Y10864850D01*
X25413309Y10869472D01*
X25405994Y10880953D01*
X25397206Y10891367D01*
X25387046Y10900511D01*
X25375819Y10908233D01*
X25368250Y10912043D01*
G37*
G36*
X23054360Y11035741D02*
G01*
X23072039Y11035741D01*
X23089565Y11037620D01*
X23106837Y11041329D01*
X23123601Y11046917D01*
X23139704Y11054181D01*
X23154894Y11063173D01*
X23169067Y11073688D01*
X23182021Y11085677D01*
X23193654Y11098936D01*
X23203814Y11113414D01*
X23212399Y11128857D01*
X23219257Y11145113D01*
X23224337Y11162030D01*
X23227639Y11179403D01*
X23229011Y11196980D01*
X23228554Y11214658D01*
X23226217Y11232134D01*
X23222000Y11249304D01*
X23216006Y11265916D01*
X23208284Y11281765D01*
X23198937Y11296751D01*
X23188015Y11310620D01*
X23175722Y11323269D01*
X23162107Y11334546D01*
X23147426Y11344351D01*
X23131729Y11352479D01*
X23115270Y11358880D01*
X23098252Y11363553D01*
X23080827Y11366347D01*
X23063200Y11367312D01*
X23045572Y11366347D01*
X23028148Y11363553D01*
X23011079Y11358880D01*
X22994620Y11352479D01*
X22978973Y11344351D01*
X22964241Y11334546D01*
X22950678Y11323269D01*
X22938333Y11310620D01*
X22927462Y11296751D01*
X22918064Y11281765D01*
X22910342Y11265916D01*
X22904348Y11249304D01*
X22900182Y11232134D01*
X22897846Y11214658D01*
X22897338Y11196980D01*
X22898760Y11179403D01*
X22902011Y11162030D01*
X22907142Y11145113D01*
X22914000Y11128857D01*
X22922534Y11113414D01*
X22932694Y11098936D01*
X22944328Y11085677D01*
X22957332Y11073688D01*
X22971506Y11063173D01*
X22986695Y11054181D01*
X23002798Y11046917D01*
X23019562Y11041329D01*
X23036784Y11037620D01*
G37*
G36*
X27889200Y11058652D02*
G01*
X27902865Y11059566D01*
X27916276Y11062258D01*
X27929230Y11066627D01*
X27941524Y11072672D01*
X27952903Y11080292D01*
X27963164Y11089335D01*
X27972207Y11099596D01*
X27979827Y11110976D01*
X27985872Y11123269D01*
X27990241Y11136223D01*
X27992933Y11149634D01*
X27993848Y11163300D01*
X27992933Y11176965D01*
X27990241Y11190376D01*
X27985872Y11203330D01*
X27979827Y11215624D01*
X27972207Y11227003D01*
X27963164Y11237264D01*
X27952903Y11246307D01*
X27941524Y11253927D01*
X27929230Y11259972D01*
X27916276Y11264341D01*
X27902865Y11267033D01*
X27889200Y11267948D01*
X27875534Y11267033D01*
X27862123Y11264341D01*
X27853639Y11261496D01*
X27849931Y11260937D01*
X27846274Y11261801D01*
X27843175Y11263934D01*
X27820365Y11286693D01*
X27818181Y11289995D01*
X27817419Y11293906D01*
X27817419Y11612778D01*
X27818334Y11617045D01*
X27820975Y11620500D01*
X27824836Y11622582D01*
X27829154Y11622836D01*
X27833218Y11621262D01*
X27836876Y11618772D01*
X27843480Y11615521D01*
X27843480Y11663680D01*
X27827579Y11663680D01*
X27823668Y11664442D01*
X27820365Y11666677D01*
X27818181Y11669928D01*
X27817419Y11673840D01*
X27817419Y11744960D01*
X27818181Y11748871D01*
X27820365Y11752122D01*
X27823668Y11754358D01*
X27827579Y11755120D01*
X27843480Y11755120D01*
X27843480Y11803278D01*
X27836876Y11800027D01*
X27833218Y11797538D01*
X27829154Y11795963D01*
X27824836Y11796217D01*
X27820975Y11798300D01*
X27818334Y11801754D01*
X27817419Y11806021D01*
X27817419Y11832844D01*
X27818181Y11836704D01*
X27820365Y11840006D01*
X27843175Y11862765D01*
X27846274Y11864898D01*
X27849931Y11865762D01*
X27853639Y11865203D01*
X27862123Y11862358D01*
X27875534Y11859666D01*
X27889200Y11858752D01*
X27902865Y11859666D01*
X27916276Y11862358D01*
X27929230Y11866727D01*
X27941524Y11872772D01*
X27952903Y11880392D01*
X27963164Y11889435D01*
X27972207Y11899696D01*
X27979827Y11911076D01*
X27985872Y11923369D01*
X27990241Y11936323D01*
X27992933Y11949734D01*
X27993848Y11963400D01*
X27992933Y11977065D01*
X27990241Y11990476D01*
X27985872Y12003430D01*
X27979827Y12015724D01*
X27972207Y12027103D01*
X27963164Y12037364D01*
X27952903Y12046407D01*
X27941524Y12054027D01*
X27929230Y12060072D01*
X27916276Y12064441D01*
X27902865Y12067133D01*
X27889200Y12068048D01*
X27875534Y12067133D01*
X27862123Y12064441D01*
X27849169Y12060072D01*
X27836876Y12054027D01*
X27825496Y12046407D01*
X27815235Y12037364D01*
X27806192Y12027103D01*
X27798572Y12015724D01*
X27792527Y12003430D01*
X27788158Y11990476D01*
X27785466Y11977065D01*
X27784552Y11963400D01*
X27785466Y11949734D01*
X27788158Y11936323D01*
X27791003Y11927840D01*
X27791562Y11924131D01*
X27790698Y11920474D01*
X27788565Y11917375D01*
X27751836Y11880697D01*
X27746756Y11874449D01*
X27743200Y11867794D01*
X27740965Y11860530D01*
X27740203Y11852503D01*
X27740203Y11773662D01*
X27739289Y11769496D01*
X27736749Y11766042D01*
X27732989Y11763959D01*
X27728722Y11763603D01*
X27724658Y11765026D01*
X27721610Y11768023D01*
X27718207Y11773103D01*
X27709164Y11783364D01*
X27698903Y11792407D01*
X27687524Y11800027D01*
X27680920Y11803278D01*
X27680920Y11755120D01*
X27730043Y11755120D01*
X27733904Y11754358D01*
X27737206Y11752122D01*
X27739441Y11748871D01*
X27740203Y11744960D01*
X27740203Y11673840D01*
X27739441Y11669928D01*
X27737206Y11666677D01*
X27733904Y11664442D01*
X27730043Y11663680D01*
X27680920Y11663680D01*
X27680920Y11615521D01*
X27687524Y11618772D01*
X27698903Y11626392D01*
X27709164Y11635435D01*
X27718207Y11645696D01*
X27721610Y11650776D01*
X27724658Y11653774D01*
X27728722Y11655196D01*
X27732989Y11654840D01*
X27736749Y11652758D01*
X27739289Y11649303D01*
X27740203Y11645138D01*
X27740203Y11274196D01*
X27740965Y11266170D01*
X27743200Y11258956D01*
X27746756Y11252301D01*
X27751836Y11246053D01*
X27788565Y11209324D01*
X27790698Y11206226D01*
X27791562Y11202568D01*
X27791003Y11198860D01*
X27788158Y11190376D01*
X27785466Y11176965D01*
X27784552Y11163300D01*
X27785466Y11149634D01*
X27788158Y11136223D01*
X27792527Y11123269D01*
X27798572Y11110976D01*
X27806192Y11099596D01*
X27815235Y11089335D01*
X27825496Y11080292D01*
X27836876Y11072672D01*
X27849169Y11066627D01*
X27862123Y11062258D01*
X27875534Y11059566D01*
G37*
G36*
X24744070Y11335054D02*
G01*
X24744070Y11383670D01*
X24695454Y11383670D01*
X24698706Y11377066D01*
X24706376Y11365534D01*
X24715520Y11355120D01*
X24725934Y11345976D01*
X24737466Y11338306D01*
G37*
G36*
X24836729Y11335054D02*
G01*
X24843333Y11338306D01*
X24854865Y11345976D01*
X24865279Y11355120D01*
X24874423Y11365534D01*
X24882094Y11377066D01*
X24885345Y11383670D01*
X24836729Y11383670D01*
G37*
G36*
X24695454Y11476329D02*
G01*
X24744070Y11476329D01*
X24744070Y11524945D01*
X24737466Y11521694D01*
X24725934Y11514023D01*
X24715520Y11504879D01*
X24706376Y11494465D01*
X24698706Y11482933D01*
G37*
G36*
X24836729Y11476329D02*
G01*
X24885345Y11476329D01*
X24882094Y11482933D01*
X24874423Y11494465D01*
X24865279Y11504879D01*
X24854865Y11514023D01*
X24843333Y11521694D01*
X24836729Y11524945D01*
G37*
G36*
X23054360Y11543741D02*
G01*
X23072039Y11543741D01*
X23089565Y11545620D01*
X23106837Y11549329D01*
X23123601Y11554917D01*
X23139704Y11562181D01*
X23154894Y11571173D01*
X23169067Y11581688D01*
X23182021Y11593677D01*
X23193654Y11606936D01*
X23203814Y11621414D01*
X23212399Y11636857D01*
X23219257Y11653113D01*
X23224337Y11670030D01*
X23227639Y11687403D01*
X23229011Y11704980D01*
X23228554Y11722658D01*
X23226217Y11740134D01*
X23222000Y11757304D01*
X23216006Y11773916D01*
X23208284Y11789765D01*
X23198937Y11804751D01*
X23188015Y11818620D01*
X23175722Y11831269D01*
X23162107Y11842546D01*
X23147426Y11852351D01*
X23131729Y11860479D01*
X23115270Y11866880D01*
X23098252Y11871553D01*
X23080827Y11874347D01*
X23063200Y11875312D01*
X23045572Y11874347D01*
X23028148Y11871553D01*
X23011079Y11866880D01*
X22994620Y11860479D01*
X22978973Y11852351D01*
X22964241Y11842546D01*
X22950678Y11831269D01*
X22938333Y11818620D01*
X22927462Y11804751D01*
X22918064Y11789765D01*
X22910342Y11773916D01*
X22904348Y11757304D01*
X22900182Y11740134D01*
X22897846Y11722658D01*
X22897338Y11704980D01*
X22898760Y11687403D01*
X22902011Y11670030D01*
X22907142Y11653113D01*
X22914000Y11636857D01*
X22922534Y11621414D01*
X22932694Y11606936D01*
X22944328Y11593677D01*
X22957332Y11581688D01*
X22971506Y11571173D01*
X22986695Y11562181D01*
X23002798Y11554917D01*
X23019562Y11549329D01*
X23036784Y11545620D01*
G37*
G36*
X28188920Y11615521D02*
G01*
X28195524Y11618772D01*
X28206903Y11626392D01*
X28217164Y11635435D01*
X28226207Y11645696D01*
X28233827Y11657076D01*
X28237078Y11663680D01*
X28188920Y11663680D01*
G37*
G36*
X28188920Y11755120D02*
G01*
X28237078Y11755120D01*
X28233827Y11761724D01*
X28226207Y11773103D01*
X28217164Y11783364D01*
X28206903Y11792407D01*
X28195524Y11800027D01*
X28188920Y11803278D01*
G37*
G36*
X29041852Y11960606D02*
G01*
X29059428Y11961571D01*
X29076853Y11964365D01*
X29093871Y11968988D01*
X29110279Y11975439D01*
X29125926Y11983567D01*
X29140607Y11993270D01*
X29154170Y12004548D01*
X29166464Y12017146D01*
X29177335Y12031014D01*
X29186682Y12045950D01*
X29194404Y12061850D01*
X29200398Y12078411D01*
X29204564Y12095530D01*
X29206901Y12113006D01*
X29207409Y12130633D01*
X29205986Y12148210D01*
X29202735Y12165533D01*
X29197604Y12182398D01*
X29190797Y12198604D01*
X29182212Y12214047D01*
X29172103Y12228474D01*
X29160470Y12241733D01*
X29147515Y12253671D01*
X29133393Y12264186D01*
X29118204Y12273178D01*
X29102151Y12280442D01*
X29085438Y12285980D01*
X29068217Y12289688D01*
X29050640Y12291568D01*
X29033063Y12291568D01*
X29015537Y12289688D01*
X28998265Y12285980D01*
X28981552Y12280442D01*
X28965499Y12273178D01*
X28950310Y12264186D01*
X28936188Y12253671D01*
X28923234Y12241733D01*
X28911600Y12228474D01*
X28901491Y12214047D01*
X28892957Y12198604D01*
X28886099Y12182398D01*
X28880968Y12165533D01*
X28877717Y12148210D01*
X28876294Y12130633D01*
X28876802Y12113006D01*
X28879139Y12095530D01*
X28883305Y12078411D01*
X28889299Y12061850D01*
X28897021Y12045950D01*
X28906368Y12031014D01*
X28917239Y12017146D01*
X28929533Y12004548D01*
X28943096Y11993270D01*
X28957777Y11983567D01*
X28973424Y11975439D01*
X28989832Y11968988D01*
X29006850Y11964365D01*
X29024275Y11961571D01*
G37*
G36*
X30165548Y11979452D02*
G01*
X30165548Y12050014D01*
X30094936Y12050014D01*
X30096917Y12045950D01*
X30106264Y12031014D01*
X30117135Y12017146D01*
X30129429Y12004548D01*
X30142992Y11993270D01*
X30157674Y11983567D01*
G37*
G36*
X30317948Y11979452D02*
G01*
X30325822Y11983567D01*
X30340503Y11993270D01*
X30354066Y12004548D01*
X30366360Y12017146D01*
X30377231Y12031014D01*
X30386578Y12045950D01*
X30388560Y12050014D01*
X30317948Y12050014D01*
G37*
G36*
X26586992Y11988546D02*
G01*
X26600607Y11988546D01*
X26614120Y11990374D01*
X26627277Y11993981D01*
X26639824Y11999264D01*
X26651559Y12006224D01*
X26662278Y12014708D01*
X26671777Y12024512D01*
X26679855Y12035485D01*
X26686408Y12047423D01*
X26691285Y12060174D01*
X26694485Y12073432D01*
X26695806Y12086996D01*
X26695349Y12100610D01*
X26693114Y12114072D01*
X26689050Y12127077D01*
X26683309Y12139472D01*
X26675994Y12150953D01*
X26667206Y12161367D01*
X26657046Y12170511D01*
X26645819Y12178233D01*
X26633677Y12184380D01*
X26620774Y12188850D01*
X26607414Y12191593D01*
X26593800Y12192508D01*
X26580185Y12191593D01*
X26566825Y12188850D01*
X26553922Y12184380D01*
X26541780Y12178233D01*
X26530553Y12170511D01*
X26520394Y12161367D01*
X26511605Y12150953D01*
X26504290Y12139472D01*
X26498550Y12127077D01*
X26494486Y12114072D01*
X26492250Y12100610D01*
X26491793Y12086996D01*
X26493114Y12073432D01*
X26496314Y12060174D01*
X26501191Y12047423D01*
X26507744Y12035485D01*
X26515822Y12024512D01*
X26525321Y12014708D01*
X26536040Y12006224D01*
X26547775Y11999264D01*
X26560322Y11993981D01*
X26573480Y11990374D01*
G37*
G36*
X25824992Y11988546D02*
G01*
X25838607Y11988546D01*
X25852120Y11990374D01*
X25865277Y11993981D01*
X25877824Y11999264D01*
X25889559Y12006224D01*
X25900278Y12014708D01*
X25909778Y12024512D01*
X25917855Y12035485D01*
X25924408Y12047423D01*
X25929285Y12060174D01*
X25932485Y12073432D01*
X25933806Y12086996D01*
X25933349Y12100610D01*
X25931114Y12114072D01*
X25927050Y12127077D01*
X25921309Y12139472D01*
X25913994Y12150953D01*
X25905206Y12161367D01*
X25895046Y12170511D01*
X25883819Y12178233D01*
X25871678Y12184380D01*
X25858774Y12188850D01*
X25845414Y12191593D01*
X25831800Y12192508D01*
X25818185Y12191593D01*
X25804825Y12188850D01*
X25791922Y12184380D01*
X25779780Y12178233D01*
X25768554Y12170511D01*
X25758394Y12161367D01*
X25749605Y12150953D01*
X25742290Y12139472D01*
X25736550Y12127077D01*
X25732486Y12114072D01*
X25730250Y12100610D01*
X25729793Y12086996D01*
X25731114Y12073432D01*
X25734314Y12060174D01*
X25739191Y12047423D01*
X25745744Y12035485D01*
X25753822Y12024512D01*
X25763321Y12014708D01*
X25774040Y12006224D01*
X25785775Y11999264D01*
X25798322Y11993981D01*
X25811480Y11990374D01*
G37*
G36*
X26078992Y11988546D02*
G01*
X26092607Y11988546D01*
X26106120Y11990374D01*
X26119277Y11993981D01*
X26131824Y11999264D01*
X26143559Y12006224D01*
X26154278Y12014708D01*
X26163777Y12024512D01*
X26171855Y12035485D01*
X26178408Y12047423D01*
X26183285Y12060174D01*
X26186485Y12073432D01*
X26187806Y12086996D01*
X26187349Y12100610D01*
X26185114Y12114072D01*
X26181050Y12127077D01*
X26175309Y12139472D01*
X26167994Y12150953D01*
X26159206Y12161367D01*
X26149046Y12170511D01*
X26137819Y12178233D01*
X26125677Y12184380D01*
X26112774Y12188850D01*
X26099414Y12191593D01*
X26085800Y12192508D01*
X26072185Y12191593D01*
X26058825Y12188850D01*
X26045922Y12184380D01*
X26033780Y12178233D01*
X26022554Y12170511D01*
X26012393Y12161367D01*
X26003605Y12150953D01*
X25996290Y12139472D01*
X25990550Y12127077D01*
X25986486Y12114072D01*
X25984250Y12100610D01*
X25983793Y12086996D01*
X25985114Y12073432D01*
X25988314Y12060174D01*
X25993191Y12047423D01*
X25999744Y12035485D01*
X26007822Y12024512D01*
X26017321Y12014708D01*
X26028040Y12006224D01*
X26039775Y11999264D01*
X26052322Y11993981D01*
X26065480Y11990374D01*
G37*
G36*
X26840992Y11988546D02*
G01*
X26854607Y11988546D01*
X26868120Y11990374D01*
X26881277Y11993981D01*
X26893824Y11999264D01*
X26905559Y12006224D01*
X26916278Y12014708D01*
X26925777Y12024512D01*
X26933855Y12035485D01*
X26940408Y12047423D01*
X26945285Y12060174D01*
X26948485Y12073432D01*
X26949806Y12086996D01*
X26949349Y12100610D01*
X26947114Y12114072D01*
X26943050Y12127077D01*
X26937309Y12139472D01*
X26929994Y12150953D01*
X26921206Y12161367D01*
X26911046Y12170511D01*
X26899819Y12178233D01*
X26887677Y12184380D01*
X26874774Y12188850D01*
X26861414Y12191593D01*
X26847800Y12192508D01*
X26834185Y12191593D01*
X26820825Y12188850D01*
X26807922Y12184380D01*
X26795780Y12178233D01*
X26784553Y12170511D01*
X26774394Y12161367D01*
X26765605Y12150953D01*
X26758290Y12139472D01*
X26752550Y12127077D01*
X26748486Y12114072D01*
X26746250Y12100610D01*
X26745793Y12086996D01*
X26747114Y12073432D01*
X26750314Y12060174D01*
X26755191Y12047423D01*
X26761744Y12035485D01*
X26769822Y12024512D01*
X26779321Y12014708D01*
X26790040Y12006224D01*
X26801775Y11999264D01*
X26814322Y11993981D01*
X26827480Y11990374D01*
G37*
G36*
X26332992Y11988546D02*
G01*
X26346607Y11988546D01*
X26360120Y11990374D01*
X26373277Y11993981D01*
X26385824Y11999264D01*
X26397559Y12006224D01*
X26408278Y12014708D01*
X26417777Y12024512D01*
X26425855Y12035485D01*
X26432408Y12047423D01*
X26437285Y12060174D01*
X26440485Y12073432D01*
X26441806Y12086996D01*
X26441349Y12100610D01*
X26439114Y12114072D01*
X26435050Y12127077D01*
X26429309Y12139472D01*
X26421994Y12150953D01*
X26413206Y12161367D01*
X26403046Y12170511D01*
X26391819Y12178233D01*
X26379677Y12184380D01*
X26366774Y12188850D01*
X26353414Y12191593D01*
X26339800Y12192508D01*
X26326185Y12191593D01*
X26312825Y12188850D01*
X26299922Y12184380D01*
X26287780Y12178233D01*
X26276553Y12170511D01*
X26266394Y12161367D01*
X26257605Y12150953D01*
X26250290Y12139472D01*
X26244550Y12127077D01*
X26240486Y12114072D01*
X26238250Y12100610D01*
X26237793Y12086996D01*
X26239114Y12073432D01*
X26242314Y12060174D01*
X26247191Y12047423D01*
X26253744Y12035485D01*
X26261822Y12024512D01*
X26271321Y12014708D01*
X26282040Y12006224D01*
X26293775Y11999264D01*
X26306322Y11993981D01*
X26319480Y11990374D01*
G37*
G36*
X25622250Y11998604D02*
G01*
X25623824Y11999264D01*
X25635559Y12006224D01*
X25646278Y12014708D01*
X25655778Y12024512D01*
X25663855Y12035485D01*
X25669595Y12045950D01*
X25622250Y12045950D01*
G37*
G36*
X25533350Y11998604D02*
G01*
X25533350Y12045950D01*
X25486004Y12045950D01*
X25491744Y12035485D01*
X25499822Y12024512D01*
X25509321Y12014708D01*
X25520040Y12006224D01*
X25531775Y11999264D01*
G37*
G36*
X27057350Y11998604D02*
G01*
X27057350Y12045950D01*
X27010004Y12045950D01*
X27015744Y12035485D01*
X27023822Y12024512D01*
X27033321Y12014708D01*
X27044040Y12006224D01*
X27055775Y11999264D01*
G37*
G36*
X23054360Y12051741D02*
G01*
X23072039Y12051741D01*
X23089565Y12053620D01*
X23106837Y12057329D01*
X23123601Y12062917D01*
X23139704Y12070181D01*
X23154894Y12079173D01*
X23169067Y12089688D01*
X23182021Y12101677D01*
X23193654Y12114936D01*
X23203814Y12129414D01*
X23212399Y12144857D01*
X23219257Y12161113D01*
X23224337Y12178030D01*
X23227639Y12195403D01*
X23229011Y12212980D01*
X23228554Y12230658D01*
X23226217Y12248134D01*
X23222000Y12265304D01*
X23216006Y12281916D01*
X23208284Y12297765D01*
X23198937Y12312751D01*
X23188015Y12326620D01*
X23175722Y12339320D01*
X23162107Y12350546D01*
X23147426Y12360351D01*
X23131729Y12368479D01*
X23115270Y12374880D01*
X23098252Y12379553D01*
X23080827Y12382347D01*
X23063200Y12383312D01*
X23045572Y12382347D01*
X23028148Y12379553D01*
X23011079Y12374880D01*
X22994620Y12368479D01*
X22978973Y12360351D01*
X22964241Y12350546D01*
X22950678Y12339320D01*
X22938333Y12326620D01*
X22927462Y12312751D01*
X22918064Y12297765D01*
X22910342Y12281916D01*
X22904348Y12265304D01*
X22900182Y12248134D01*
X22897846Y12230658D01*
X22897338Y12212980D01*
X22898760Y12195403D01*
X22902011Y12178030D01*
X22907142Y12161113D01*
X22914000Y12144857D01*
X22922534Y12129414D01*
X22932694Y12114936D01*
X22944328Y12101677D01*
X22957332Y12089688D01*
X22971506Y12079173D01*
X22986695Y12070181D01*
X23002798Y12062917D01*
X23019562Y12057329D01*
X23036784Y12053620D01*
G37*
G36*
X25486156Y12134850D02*
G01*
X25533350Y12134850D01*
X25533350Y12182043D01*
X25525780Y12178233D01*
X25514554Y12170511D01*
X25504394Y12161367D01*
X25495605Y12150953D01*
X25488290Y12139472D01*
G37*
G36*
X25622250Y12134850D02*
G01*
X25669443Y12134850D01*
X25667309Y12139472D01*
X25659994Y12150953D01*
X25651206Y12161367D01*
X25641046Y12170511D01*
X25629819Y12178233D01*
X25622250Y12182043D01*
G37*
G36*
X27010156Y12134850D02*
G01*
X27057350Y12134850D01*
X27057350Y12182043D01*
X27049780Y12178233D01*
X27038553Y12170511D01*
X27028394Y12161367D01*
X27019605Y12150953D01*
X27012290Y12139472D01*
G37*
G36*
X30317948Y12202414D02*
G01*
X30388560Y12202414D01*
X30382108Y12214047D01*
X30371999Y12228474D01*
X30360365Y12241733D01*
X30347412Y12253671D01*
X30333289Y12264186D01*
X30317948Y12273229D01*
G37*
G36*
X30094936Y12202414D02*
G01*
X30165548Y12202414D01*
X30165548Y12273229D01*
X30150206Y12264186D01*
X30136084Y12253671D01*
X30123130Y12241733D01*
X30111496Y12228474D01*
X30101387Y12214047D01*
G37*
G36*
X30840680Y12504521D02*
G01*
X30840680Y12552680D01*
X30792521Y12552680D01*
X30795772Y12546076D01*
X30803392Y12534696D01*
X30812435Y12524435D01*
X30822696Y12515392D01*
X30834076Y12507772D01*
G37*
G36*
X30932120Y12504521D02*
G01*
X30938724Y12507772D01*
X30950103Y12515392D01*
X30960364Y12524435D01*
X30969407Y12534696D01*
X30977027Y12546076D01*
X30979262Y12550648D01*
X30980888Y12552680D01*
X30932120Y12552680D01*
G37*
G36*
X23054360Y12559741D02*
G01*
X23072039Y12559741D01*
X23089565Y12561620D01*
X23106837Y12565329D01*
X23123601Y12570917D01*
X23139704Y12578181D01*
X23154894Y12587173D01*
X23169067Y12597688D01*
X23182021Y12609677D01*
X23193654Y12622936D01*
X23203814Y12637414D01*
X23212399Y12652857D01*
X23219257Y12669113D01*
X23224337Y12686030D01*
X23227639Y12703403D01*
X23229011Y12720980D01*
X23228554Y12738658D01*
X23226217Y12756134D01*
X23222000Y12773304D01*
X23216006Y12789916D01*
X23208284Y12805765D01*
X23198937Y12820751D01*
X23188015Y12834620D01*
X23175722Y12847320D01*
X23162107Y12858546D01*
X23147426Y12868351D01*
X23131729Y12876479D01*
X23115270Y12882880D01*
X23098252Y12887553D01*
X23080827Y12890347D01*
X23063200Y12891312D01*
X23045572Y12890347D01*
X23028148Y12887553D01*
X23011079Y12882880D01*
X22994620Y12876479D01*
X22978973Y12868351D01*
X22964241Y12858546D01*
X22950678Y12847320D01*
X22938333Y12834620D01*
X22927462Y12820751D01*
X22918064Y12805765D01*
X22910342Y12789916D01*
X22904348Y12773304D01*
X22900182Y12756134D01*
X22897846Y12738658D01*
X22897338Y12720980D01*
X22898760Y12703403D01*
X22902011Y12686030D01*
X22907142Y12669113D01*
X22914000Y12652857D01*
X22922534Y12637414D01*
X22932694Y12622936D01*
X22944328Y12609677D01*
X22957332Y12597688D01*
X22971506Y12587173D01*
X22986695Y12578181D01*
X23002798Y12570917D01*
X23019562Y12565329D01*
X23036784Y12561620D01*
G37*
G36*
X30792521Y12644120D02*
G01*
X30840680Y12644120D01*
X30840680Y12692278D01*
X30834076Y12689027D01*
X30822696Y12681407D01*
X30812435Y12672364D01*
X30803392Y12662103D01*
X30795772Y12650724D01*
G37*
G36*
X30932120Y12644120D02*
G01*
X30980888Y12644120D01*
X30979262Y12646152D01*
X30977027Y12650724D01*
X30969407Y12662103D01*
X30960364Y12672364D01*
X30950103Y12681407D01*
X30938724Y12689027D01*
X30932120Y12692278D01*
G37*
G36*
X26043280Y12686588D02*
G01*
X26060958Y12687046D01*
X26078434Y12689382D01*
X26095604Y12693599D01*
X26112216Y12699542D01*
X26128065Y12707315D01*
X26143051Y12716662D01*
X26156920Y12727584D01*
X26169620Y12739878D01*
X26180846Y12753492D01*
X26190651Y12768173D01*
X26198779Y12783870D01*
X26205180Y12800279D01*
X26209853Y12817348D01*
X26212647Y12834772D01*
X26213612Y12852400D01*
X26212647Y12870027D01*
X26209853Y12887452D01*
X26205180Y12904520D01*
X26198779Y12920980D01*
X26190651Y12936626D01*
X26180846Y12951358D01*
X26169620Y12964922D01*
X26156920Y12977266D01*
X26143051Y12988137D01*
X26128065Y12997535D01*
X26112216Y13005257D01*
X26095604Y13011251D01*
X26078434Y13015417D01*
X26060958Y13017754D01*
X26043280Y13018262D01*
X26025703Y13016839D01*
X26008330Y13013537D01*
X25991413Y13008457D01*
X25975157Y13001599D01*
X25959714Y12993065D01*
X25945236Y12982905D01*
X25931977Y12971272D01*
X25919988Y12958267D01*
X25909473Y12944094D01*
X25900481Y12928904D01*
X25893217Y12912801D01*
X25887629Y12896037D01*
X25883920Y12878816D01*
X25882041Y12861239D01*
X25882041Y12843560D01*
X25883920Y12826034D01*
X25887629Y12808762D01*
X25893217Y12791998D01*
X25900481Y12775895D01*
X25909473Y12760706D01*
X25919988Y12746532D01*
X25931977Y12733528D01*
X25945236Y12721945D01*
X25959714Y12711785D01*
X25975157Y12703200D01*
X25991413Y12696342D01*
X26008330Y12691262D01*
X26025703Y12687960D01*
G37*
G36*
X25616052Y12705334D02*
G01*
X25620065Y12707315D01*
X25635051Y12716662D01*
X25648920Y12727584D01*
X25661620Y12739878D01*
X25672846Y12753492D01*
X25682651Y12768173D01*
X25686715Y12776047D01*
X25616052Y12776047D01*
G37*
G36*
X28003652Y12705334D02*
G01*
X28007665Y12707315D01*
X28022651Y12716662D01*
X28036520Y12727584D01*
X28049169Y12739878D01*
X28060446Y12753492D01*
X28070251Y12768173D01*
X28074315Y12776047D01*
X28003652Y12776047D01*
G37*
G36*
X24422252Y12705334D02*
G01*
X24426265Y12707315D01*
X24441251Y12716662D01*
X24455120Y12727584D01*
X24467820Y12739878D01*
X24479046Y12753492D01*
X24488851Y12768173D01*
X24492915Y12776047D01*
X24422252Y12776047D01*
G37*
G36*
X26809852Y12705334D02*
G01*
X26813865Y12707315D01*
X26828851Y12716662D01*
X26842720Y12727584D01*
X26855369Y12739878D01*
X26866646Y12753492D01*
X26876451Y12768173D01*
X26880515Y12776047D01*
X26809852Y12776047D01*
G37*
G36*
X25463347Y12705334D02*
G01*
X25463347Y12776047D01*
X25392430Y12776047D01*
X25401473Y12760706D01*
X25411988Y12746532D01*
X25423977Y12733528D01*
X25437236Y12721945D01*
X25451714Y12711785D01*
G37*
G36*
X26657147Y12705334D02*
G01*
X26657147Y12776047D01*
X26586230Y12776047D01*
X26595273Y12760706D01*
X26605788Y12746532D01*
X26617777Y12733578D01*
X26631036Y12721945D01*
X26645514Y12711785D01*
G37*
G36*
X27850947Y12705334D02*
G01*
X27850947Y12776047D01*
X27780030Y12776047D01*
X27789073Y12760706D01*
X27799588Y12746532D01*
X27811577Y12733578D01*
X27824836Y12721945D01*
X27839314Y12711785D01*
G37*
G36*
X24269547Y12705334D02*
G01*
X24269547Y12776047D01*
X24198630Y12776047D01*
X24207673Y12760706D01*
X24218188Y12746532D01*
X24230177Y12733528D01*
X24243436Y12721945D01*
X24257914Y12711785D01*
G37*
G36*
X25616052Y12928752D02*
G01*
X25686715Y12928752D01*
X25682651Y12936626D01*
X25672846Y12951358D01*
X25661620Y12964922D01*
X25648920Y12977266D01*
X25635051Y12988137D01*
X25620065Y12997535D01*
X25616052Y12999466D01*
G37*
G36*
X26809852Y12928752D02*
G01*
X26880515Y12928752D01*
X26876451Y12936626D01*
X26866646Y12951358D01*
X26855369Y12964922D01*
X26842720Y12977266D01*
X26828851Y12988137D01*
X26813865Y12997535D01*
X26809852Y12999466D01*
G37*
G36*
X24422252Y12928752D02*
G01*
X24492915Y12928752D01*
X24488851Y12936626D01*
X24479046Y12951358D01*
X24467820Y12964922D01*
X24455120Y12977266D01*
X24441251Y12988137D01*
X24426265Y12997535D01*
X24422252Y12999466D01*
G37*
G36*
X28003652Y12928752D02*
G01*
X28074315Y12928752D01*
X28070251Y12936626D01*
X28060446Y12951358D01*
X28049169Y12964922D01*
X28036520Y12977266D01*
X28022651Y12988137D01*
X28007665Y12997535D01*
X28003652Y12999466D01*
G37*
G36*
X25392430Y12928752D02*
G01*
X25463347Y12928752D01*
X25463347Y12999466D01*
X25451714Y12993065D01*
X25437236Y12982905D01*
X25423977Y12971272D01*
X25411988Y12958267D01*
X25401473Y12944094D01*
G37*
G36*
X27780030Y12928752D02*
G01*
X27850947Y12928752D01*
X27850947Y12999516D01*
X27839314Y12993065D01*
X27824836Y12982905D01*
X27811577Y12971272D01*
X27799588Y12958267D01*
X27789073Y12944094D01*
G37*
G36*
X26586230Y12928752D02*
G01*
X26657147Y12928752D01*
X26657147Y12999516D01*
X26645514Y12993065D01*
X26631036Y12982905D01*
X26617777Y12971272D01*
X26605788Y12958267D01*
X26595273Y12944094D01*
G37*
G36*
X24198630Y12928752D02*
G01*
X24269547Y12928752D01*
X24269547Y12999466D01*
X24257914Y12993065D01*
X24243436Y12982905D01*
X24230177Y12971272D01*
X24218188Y12958267D01*
X24207673Y12944094D01*
G37*

%LPD*%
G36*
X25440792Y7835696D02*
G01*
X25436931Y7836458D01*
X25433629Y7838643D01*
X25431394Y7841945D01*
X25430632Y7845856D01*
X25431394Y7849717D01*
X25433629Y7853019D01*
X25523088Y7942478D01*
X25526339Y7944662D01*
X25530149Y7945475D01*
X25534010Y7944764D01*
X25541986Y7941614D01*
X25556057Y7937957D01*
X25570535Y7936128D01*
X25585064Y7936128D01*
X25599491Y7937957D01*
X25613614Y7941614D01*
X25627126Y7946948D01*
X25639877Y7953959D01*
X25651663Y7962493D01*
X25662280Y7972501D01*
X25671576Y7983677D01*
X25679349Y7995970D01*
X25685546Y8009128D01*
X25690068Y8022996D01*
X25692760Y8037271D01*
X25693674Y8051800D01*
X25692760Y8066328D01*
X25690068Y8080603D01*
X25685546Y8094472D01*
X25679349Y8107629D01*
X25671576Y8119922D01*
X25662280Y8131149D01*
X25659232Y8133994D01*
X25656844Y8137448D01*
X25656032Y8141614D01*
X25656997Y8145678D01*
X25659537Y8149081D01*
X25663245Y8151114D01*
X25666547Y8152079D01*
X25673202Y8155686D01*
X25679450Y8160766D01*
X25691592Y8172958D01*
X25694487Y8174939D01*
X25697891Y8175853D01*
X25705612Y8176564D01*
X25715061Y8179104D01*
X25723951Y8183219D01*
X25731927Y8188807D01*
X25738886Y8195767D01*
X25744474Y8203742D01*
X25747116Y8209432D01*
X25749808Y8212937D01*
X25753771Y8214969D01*
X25758241Y8215122D01*
X25762305Y8213344D01*
X25769722Y8207959D01*
X25780441Y8202066D01*
X25780441Y8254441D01*
X25753466Y8254441D01*
X25750266Y8255000D01*
X25747370Y8256473D01*
X25745135Y8258860D01*
X25738836Y8267903D01*
X25731927Y8274812D01*
X25723951Y8280400D01*
X25715061Y8284565D01*
X25705612Y8287105D01*
X25702463Y8287359D01*
X25698704Y8288426D01*
X25695656Y8290864D01*
X25693725Y8294268D01*
X25693217Y8298129D01*
X25693674Y8305800D01*
X25693471Y8309254D01*
X25694081Y8313521D01*
X25696418Y8317077D01*
X25733502Y8354161D01*
X25736804Y8356396D01*
X25740715Y8357158D01*
X25780441Y8357158D01*
X25780441Y8396884D01*
X25781203Y8400796D01*
X25783438Y8404098D01*
X26064972Y8685631D01*
X26068274Y8687816D01*
X26072134Y8688578D01*
X26128014Y8688628D01*
X26136904Y8689492D01*
X26139292Y8689898D01*
X26147928Y8692032D01*
X26150265Y8692794D01*
X26158494Y8696198D01*
X26160679Y8697315D01*
X26168299Y8701887D01*
X26170331Y8703310D01*
X26177138Y8708999D01*
X26329944Y8861704D01*
X26332637Y8863634D01*
X26335786Y8864600D01*
X26347420Y8866174D01*
X26360577Y8869781D01*
X26373124Y8875064D01*
X26377442Y8877655D01*
X26381456Y8878976D01*
X26385672Y8878570D01*
X26389380Y8876487D01*
X26391870Y8873032D01*
X26392784Y8868867D01*
X26392784Y8671610D01*
X26392022Y8667699D01*
X26389787Y8664397D01*
X26140511Y8415121D01*
X26137260Y8412937D01*
X26133450Y8412175D01*
X26129589Y8412886D01*
X26121614Y8416036D01*
X26107491Y8419642D01*
X26093064Y8421471D01*
X26078535Y8421471D01*
X26064057Y8419642D01*
X26049986Y8416036D01*
X26036473Y8410651D01*
X26023722Y8403640D01*
X26011936Y8395106D01*
X26001319Y8385149D01*
X25992023Y8373922D01*
X25984250Y8361629D01*
X25978053Y8348472D01*
X25973532Y8334603D01*
X25970839Y8320328D01*
X25969925Y8305800D01*
X25970839Y8291271D01*
X25973532Y8276996D01*
X25978053Y8263128D01*
X25984250Y8249970D01*
X25992023Y8237677D01*
X26001319Y8226501D01*
X26011936Y8216493D01*
X26023722Y8207959D01*
X26036473Y8200948D01*
X26049986Y8195614D01*
X26064057Y8191957D01*
X26078535Y8190128D01*
X26093064Y8190128D01*
X26107491Y8191957D01*
X26121614Y8195614D01*
X26135126Y8200948D01*
X26147877Y8207959D01*
X26159663Y8216493D01*
X26170280Y8226501D01*
X26179576Y8237677D01*
X26187349Y8249970D01*
X26193546Y8263128D01*
X26198068Y8276996D01*
X26200760Y8291271D01*
X26201674Y8305800D01*
X26200760Y8320328D01*
X26198068Y8334603D01*
X26193546Y8348472D01*
X26192276Y8353145D01*
X26192988Y8357209D01*
X26195223Y8360664D01*
X26458316Y8623757D01*
X26463447Y8630005D01*
X26467003Y8636660D01*
X26469187Y8643874D01*
X26470000Y8651900D01*
X26470000Y8917330D01*
X26470965Y8921648D01*
X26473658Y8925153D01*
X26477620Y8927185D01*
X26482039Y8927287D01*
X26486154Y8925560D01*
X26489050Y8922207D01*
X26495044Y8911285D01*
X26503122Y8900312D01*
X26512621Y8890508D01*
X26523340Y8882024D01*
X26535075Y8875064D01*
X26547622Y8869781D01*
X26560780Y8866174D01*
X26574292Y8864346D01*
X26587907Y8864346D01*
X26601420Y8866174D01*
X26614577Y8869781D01*
X26627124Y8875064D01*
X26638859Y8882024D01*
X26649578Y8890508D01*
X26659077Y8900312D01*
X26667155Y8911285D01*
X26673708Y8923223D01*
X26678585Y8935974D01*
X26681785Y8949232D01*
X26682547Y8957106D01*
X26683462Y8960408D01*
X26685494Y8963253D01*
X26718107Y8995867D01*
X26721663Y8998204D01*
X26725880Y8998864D01*
X26729944Y8997746D01*
X26733246Y8995054D01*
X26735125Y8991244D01*
X26735328Y8987028D01*
X26733550Y8976410D01*
X26733093Y8962796D01*
X26734414Y8949232D01*
X26737614Y8935974D01*
X26742491Y8923223D01*
X26749044Y8911285D01*
X26757122Y8900312D01*
X26766621Y8890508D01*
X26777340Y8882024D01*
X26789075Y8875064D01*
X26801622Y8869781D01*
X26814780Y8866174D01*
X26828292Y8864346D01*
X26841907Y8864346D01*
X26855420Y8866174D01*
X26869389Y8870035D01*
X26872946Y8870340D01*
X26876400Y8869426D01*
X26879296Y8867394D01*
X26932077Y8814612D01*
X26934312Y8811310D01*
X26935074Y8807450D01*
X26935074Y8405317D01*
X26934109Y8400999D01*
X26931365Y8397494D01*
X26927454Y8395462D01*
X26922984Y8395309D01*
X26918920Y8397087D01*
X26909877Y8403640D01*
X26899158Y8409584D01*
X26899158Y8357158D01*
X26924914Y8357158D01*
X26928775Y8356396D01*
X26932077Y8354161D01*
X26934312Y8350910D01*
X26935074Y8346998D01*
X26935074Y8264601D01*
X26934312Y8260740D01*
X26932077Y8257438D01*
X26928775Y8255253D01*
X26924914Y8254441D01*
X26899158Y8254441D01*
X26899158Y8202066D01*
X26909877Y8207959D01*
X26918920Y8214512D01*
X26922984Y8216290D01*
X26927454Y8216138D01*
X26931365Y8214156D01*
X26934109Y8210651D01*
X26935074Y8206282D01*
X26935074Y8180425D01*
X26935836Y8172399D01*
X26938071Y8165185D01*
X26941627Y8158530D01*
X26946707Y8152282D01*
X26992376Y8106664D01*
X26994612Y8103209D01*
X26995323Y8099145D01*
X26994053Y8094472D01*
X26989532Y8080603D01*
X26986839Y8066328D01*
X26985925Y8051800D01*
X26986839Y8037271D01*
X26989532Y8022996D01*
X26994053Y8009128D01*
X27000250Y7995970D01*
X27008175Y7983474D01*
X27009648Y7979409D01*
X27009344Y7975142D01*
X27007261Y7971332D01*
X27003806Y7968792D01*
X26999590Y7967878D01*
X26950009Y7967878D01*
X26945793Y7968792D01*
X26942338Y7971332D01*
X26940256Y7975142D01*
X26939951Y7979409D01*
X26941424Y7983474D01*
X26949349Y7995970D01*
X26955546Y8009128D01*
X26960068Y8022996D01*
X26962760Y8037271D01*
X26963674Y8051800D01*
X26962760Y8066328D01*
X26960068Y8080603D01*
X26955546Y8094472D01*
X26949349Y8107629D01*
X26941576Y8119922D01*
X26932280Y8131149D01*
X26921663Y8141106D01*
X26909877Y8149640D01*
X26897126Y8156651D01*
X26883614Y8162036D01*
X26869491Y8165642D01*
X26855064Y8167471D01*
X26840535Y8167471D01*
X26826057Y8165642D01*
X26811986Y8162036D01*
X26798473Y8156651D01*
X26785722Y8149640D01*
X26773936Y8141106D01*
X26763319Y8131149D01*
X26754023Y8119922D01*
X26746250Y8107629D01*
X26740053Y8094472D01*
X26735532Y8080603D01*
X26732839Y8066328D01*
X26731925Y8051800D01*
X26732839Y8037271D01*
X26735532Y8022996D01*
X26740053Y8009128D01*
X26746250Y7995970D01*
X26754175Y7983474D01*
X26755648Y7979409D01*
X26755344Y7975142D01*
X26753261Y7971332D01*
X26749806Y7968792D01*
X26745590Y7967878D01*
X26696009Y7967878D01*
X26691793Y7968792D01*
X26688338Y7971332D01*
X26686256Y7975142D01*
X26685951Y7979409D01*
X26687424Y7983474D01*
X26695349Y7995970D01*
X26701546Y8009128D01*
X26706068Y8022996D01*
X26708760Y8037271D01*
X26709674Y8051800D01*
X26708760Y8066328D01*
X26706068Y8080603D01*
X26701546Y8094472D01*
X26695349Y8107629D01*
X26687576Y8119922D01*
X26678280Y8131149D01*
X26667663Y8141106D01*
X26655877Y8149640D01*
X26643126Y8156651D01*
X26629614Y8162036D01*
X26615491Y8165642D01*
X26601064Y8167471D01*
X26586535Y8167471D01*
X26572057Y8165642D01*
X26557986Y8162036D01*
X26544473Y8156651D01*
X26531722Y8149640D01*
X26519936Y8141106D01*
X26509319Y8131149D01*
X26500023Y8119922D01*
X26492250Y8107629D01*
X26486053Y8094472D01*
X26481532Y8080603D01*
X26478839Y8066328D01*
X26477925Y8051800D01*
X26478839Y8037271D01*
X26481532Y8022996D01*
X26486053Y8009128D01*
X26492250Y7995970D01*
X26500175Y7983474D01*
X26501648Y7979409D01*
X26501344Y7975142D01*
X26499261Y7971332D01*
X26495806Y7968792D01*
X26491590Y7967878D01*
X26442009Y7967878D01*
X26437793Y7968792D01*
X26434338Y7971332D01*
X26432256Y7975142D01*
X26431951Y7979409D01*
X26433424Y7983474D01*
X26441349Y7995970D01*
X26443482Y8000441D01*
X26391158Y8000441D01*
X26391158Y7978038D01*
X26390396Y7974126D01*
X26388161Y7970824D01*
X26384859Y7968640D01*
X26380998Y7967878D01*
X26298601Y7967878D01*
X26294740Y7968640D01*
X26291438Y7970824D01*
X26289203Y7974126D01*
X26288441Y7978038D01*
X26288441Y8000441D01*
X26236117Y8000441D01*
X26238250Y7995970D01*
X26246175Y7983474D01*
X26247648Y7979409D01*
X26247344Y7975142D01*
X26245261Y7971332D01*
X26241806Y7968792D01*
X26237590Y7967878D01*
X26228548Y7967878D01*
X26224636Y7968640D01*
X26221385Y7970824D01*
X26195223Y7996986D01*
X26192988Y8000390D01*
X26192276Y8004454D01*
X26193546Y8009128D01*
X26198068Y8022996D01*
X26200760Y8037271D01*
X26201674Y8051800D01*
X26200760Y8066328D01*
X26198068Y8080603D01*
X26193546Y8094472D01*
X26187349Y8107629D01*
X26179576Y8119922D01*
X26170280Y8131149D01*
X26159663Y8141106D01*
X26147877Y8149640D01*
X26135126Y8156651D01*
X26121614Y8162036D01*
X26107491Y8165642D01*
X26093064Y8167471D01*
X26078535Y8167471D01*
X26064057Y8165642D01*
X26049986Y8162036D01*
X26036473Y8156651D01*
X26023722Y8149640D01*
X26011936Y8141106D01*
X26001319Y8131149D01*
X25992023Y8119922D01*
X25984250Y8107629D01*
X25978053Y8094472D01*
X25973532Y8080603D01*
X25970839Y8066328D01*
X25969925Y8051800D01*
X25970839Y8037271D01*
X25973532Y8022996D01*
X25978053Y8009128D01*
X25984250Y7995970D01*
X25992023Y7983677D01*
X26001319Y7972501D01*
X26011936Y7962493D01*
X26023722Y7953959D01*
X26036473Y7946948D01*
X26049986Y7941614D01*
X26064057Y7937957D01*
X26078535Y7936128D01*
X26093064Y7936128D01*
X26107491Y7937957D01*
X26121614Y7941614D01*
X26129589Y7944764D01*
X26133450Y7945475D01*
X26137260Y7944662D01*
X26140511Y7942478D01*
X26180694Y7902295D01*
X26186942Y7897215D01*
X26193597Y7893608D01*
X26200811Y7891424D01*
X26208837Y7890662D01*
X27148840Y7890662D01*
X27156867Y7891424D01*
X27164131Y7893608D01*
X27170786Y7897215D01*
X27177034Y7902295D01*
X27252472Y7977784D01*
X27256028Y7980070D01*
X27260143Y7980730D01*
X27264207Y7979714D01*
X27267509Y7977073D01*
X27271319Y7972501D01*
X27281936Y7962493D01*
X27293722Y7953959D01*
X27306473Y7946948D01*
X27319986Y7941614D01*
X27334057Y7937957D01*
X27348535Y7936128D01*
X27363064Y7936128D01*
X27377491Y7937957D01*
X27391614Y7941614D01*
X27405126Y7946948D01*
X27417877Y7953959D01*
X27429663Y7962493D01*
X27440280Y7972501D01*
X27449576Y7983677D01*
X27457349Y7995970D01*
X27463546Y8009128D01*
X27468068Y8022996D01*
X27470760Y8037271D01*
X27471674Y8051800D01*
X27470760Y8066328D01*
X27468068Y8080603D01*
X27463546Y8094472D01*
X27457349Y8107629D01*
X27449576Y8119922D01*
X27440280Y8131149D01*
X27429358Y8141411D01*
X27426920Y8144916D01*
X27426158Y8149132D01*
X27427174Y8153298D01*
X27429866Y8156651D01*
X27434844Y8160766D01*
X27506218Y8232140D01*
X27509724Y8234425D01*
X27513889Y8235086D01*
X27517953Y8234019D01*
X27521204Y8231428D01*
X27525319Y8226501D01*
X27535936Y8216493D01*
X27547722Y8207959D01*
X27558441Y8202066D01*
X27558441Y8254441D01*
X27531568Y8254441D01*
X27527656Y8255253D01*
X27524354Y8257438D01*
X27522170Y8260740D01*
X27521408Y8264601D01*
X27521408Y8346998D01*
X27522170Y8350910D01*
X27524354Y8354161D01*
X27527656Y8356396D01*
X27531568Y8357158D01*
X27558441Y8357158D01*
X27558441Y8409584D01*
X27547722Y8403640D01*
X27537511Y8396274D01*
X27533447Y8394496D01*
X27529027Y8394649D01*
X27525065Y8396630D01*
X27522373Y8400135D01*
X27521408Y8404504D01*
X27521408Y8625992D01*
X27522170Y8629904D01*
X27524354Y8633155D01*
X27682952Y8791752D01*
X27686508Y8794089D01*
X27690673Y8794750D01*
X27694737Y8793632D01*
X27698039Y8790990D01*
X27699970Y8787231D01*
X27700884Y8783726D01*
X27705050Y8774887D01*
X27710638Y8766860D01*
X27717546Y8759952D01*
X27725573Y8754313D01*
X27734412Y8750198D01*
X27743861Y8747658D01*
X27751633Y8746998D01*
X27755037Y8746083D01*
X27757932Y8744051D01*
X27782062Y8719870D01*
X27788311Y8714790D01*
X27794965Y8711184D01*
X27802230Y8708999D01*
X27810256Y8708237D01*
X28113024Y8708237D01*
X28116936Y8707424D01*
X28120238Y8705240D01*
X28386633Y8438794D01*
X28388868Y8435492D01*
X28389630Y8431631D01*
X28388868Y8427720D01*
X28386633Y8424418D01*
X28383331Y8422233D01*
X28379470Y8421471D01*
X28364535Y8421471D01*
X28350057Y8419642D01*
X28335986Y8416036D01*
X28322473Y8410651D01*
X28309722Y8403640D01*
X28297936Y8395106D01*
X28287319Y8385149D01*
X28278023Y8373922D01*
X28270250Y8361629D01*
X28264053Y8348472D01*
X28259532Y8334603D01*
X28256839Y8320328D01*
X28255925Y8305800D01*
X28256839Y8291271D01*
X28259532Y8276996D01*
X28264053Y8263128D01*
X28270250Y8249970D01*
X28278023Y8237677D01*
X28287319Y8226501D01*
X28297936Y8216493D01*
X28309722Y8207959D01*
X28322473Y8200948D01*
X28335986Y8195614D01*
X28350057Y8191957D01*
X28364535Y8190128D01*
X28379064Y8190128D01*
X28393491Y8191957D01*
X28407614Y8195614D01*
X28421126Y8200948D01*
X28433877Y8207959D01*
X28445663Y8216493D01*
X28456280Y8226501D01*
X28465576Y8237677D01*
X28473349Y8249970D01*
X28479546Y8263128D01*
X28484068Y8276996D01*
X28486760Y8291271D01*
X28487674Y8305800D01*
X28487420Y8310118D01*
X28488081Y8314385D01*
X28490468Y8318042D01*
X28494126Y8320328D01*
X28498444Y8320887D01*
X28500933Y8320633D01*
X28504642Y8319566D01*
X28507740Y8317179D01*
X28509671Y8313775D01*
X28510179Y8309914D01*
X28509925Y8305800D01*
X28510839Y8291271D01*
X28513532Y8276996D01*
X28518053Y8263128D01*
X28524250Y8249970D01*
X28532023Y8237677D01*
X28541319Y8226501D01*
X28551936Y8216493D01*
X28563722Y8207959D01*
X28576473Y8200948D01*
X28589986Y8195614D01*
X28604057Y8191957D01*
X28618535Y8190128D01*
X28633064Y8190128D01*
X28647491Y8191957D01*
X28661614Y8195614D01*
X28675126Y8200948D01*
X28687877Y8207959D01*
X28699663Y8216493D01*
X28710280Y8226501D01*
X28719576Y8237677D01*
X28727349Y8249970D01*
X28733546Y8263128D01*
X28738068Y8276996D01*
X28740760Y8291271D01*
X28741674Y8305800D01*
X28741166Y8313978D01*
X28741827Y8318246D01*
X28744214Y8321852D01*
X28747872Y8324189D01*
X28752190Y8324748D01*
X28758642Y8324138D01*
X28768395Y8325002D01*
X28777844Y8327542D01*
X28786734Y8331657D01*
X28794710Y8337296D01*
X28801669Y8344204D01*
X28807664Y8352840D01*
X28809950Y8355126D01*
X28812794Y8356650D01*
X28815995Y8357158D01*
X28828441Y8357158D01*
X28828441Y8409584D01*
X28820516Y8405215D01*
X28817011Y8404047D01*
X28813302Y8404199D01*
X28809950Y8405672D01*
X28807308Y8408263D01*
X28801669Y8416340D01*
X28794710Y8423249D01*
X28786734Y8428888D01*
X28777844Y8433003D01*
X28768395Y8435543D01*
X28760674Y8436203D01*
X28757270Y8437118D01*
X28754374Y8439150D01*
X28317494Y8876030D01*
X28315310Y8879332D01*
X28314497Y8883243D01*
X28315310Y8887104D01*
X28317494Y8890406D01*
X28320796Y8892590D01*
X28324657Y8893403D01*
X28412033Y8893403D01*
X28415894Y8892590D01*
X28419196Y8890406D01*
X28928161Y8381441D01*
X28930396Y8378139D01*
X28931158Y8374278D01*
X28931158Y8357158D01*
X28948227Y8357158D01*
X28952139Y8356396D01*
X28955441Y8354161D01*
X28971392Y8338210D01*
X28973627Y8334908D01*
X28974389Y8331047D01*
X28974389Y8264601D01*
X28973627Y8260740D01*
X28971392Y8257438D01*
X28968090Y8255253D01*
X28964229Y8254441D01*
X28931158Y8254441D01*
X28931158Y8202066D01*
X28941877Y8207959D01*
X28953663Y8216493D01*
X28964280Y8226501D01*
X28968141Y8231124D01*
X28971646Y8233867D01*
X28975964Y8234832D01*
X28980282Y8233816D01*
X28983787Y8231073D01*
X28986022Y8228380D01*
X29059428Y8154974D01*
X29061664Y8151622D01*
X29062375Y8147659D01*
X29061511Y8143697D01*
X29059174Y8140395D01*
X29049319Y8131149D01*
X29040023Y8119922D01*
X29032250Y8107629D01*
X29026053Y8094472D01*
X29021532Y8080603D01*
X29018839Y8066328D01*
X29017925Y8051800D01*
X29018839Y8037271D01*
X29021532Y8022996D01*
X29026053Y8009128D01*
X29032250Y7995970D01*
X29040023Y7983677D01*
X29043731Y7979257D01*
X29045560Y7975904D01*
X29046017Y7972145D01*
X29045103Y7968437D01*
X29042868Y7965338D01*
X29039616Y7963306D01*
X29035908Y7962595D01*
X28977691Y7962595D01*
X28973983Y7963306D01*
X28970732Y7965338D01*
X28968496Y7968437D01*
X28967582Y7972145D01*
X28968039Y7975904D01*
X28969868Y7979257D01*
X28973576Y7983677D01*
X28981349Y7995970D01*
X28987546Y8009128D01*
X28992068Y8022996D01*
X28994760Y8037271D01*
X28995674Y8051800D01*
X28994760Y8066328D01*
X28992068Y8080603D01*
X28987546Y8094472D01*
X28981349Y8107629D01*
X28973576Y8119922D01*
X28964280Y8131149D01*
X28953663Y8141106D01*
X28941877Y8149640D01*
X28929126Y8156651D01*
X28915614Y8162036D01*
X28901491Y8165642D01*
X28887064Y8167471D01*
X28872535Y8167471D01*
X28858057Y8165642D01*
X28843986Y8162036D01*
X28830473Y8156651D01*
X28817722Y8149640D01*
X28805936Y8141106D01*
X28795319Y8131149D01*
X28786023Y8119922D01*
X28778250Y8107629D01*
X28772053Y8094472D01*
X28767532Y8080603D01*
X28764839Y8066328D01*
X28763925Y8051800D01*
X28764839Y8037271D01*
X28767532Y8022996D01*
X28772053Y8009128D01*
X28778250Y7995970D01*
X28786023Y7983677D01*
X28789731Y7979257D01*
X28791560Y7975904D01*
X28792017Y7972145D01*
X28791103Y7968437D01*
X28788868Y7965338D01*
X28785616Y7963306D01*
X28781908Y7962595D01*
X28723691Y7962595D01*
X28719983Y7963306D01*
X28716732Y7965338D01*
X28714496Y7968437D01*
X28713582Y7972145D01*
X28714039Y7975904D01*
X28715868Y7979257D01*
X28719576Y7983677D01*
X28727349Y7995970D01*
X28733546Y8009128D01*
X28738068Y8022996D01*
X28740760Y8037271D01*
X28741674Y8051800D01*
X28740760Y8066328D01*
X28738068Y8080603D01*
X28733546Y8094472D01*
X28727349Y8107629D01*
X28719576Y8119922D01*
X28710280Y8131149D01*
X28699663Y8141106D01*
X28687877Y8149640D01*
X28675126Y8156651D01*
X28661614Y8162036D01*
X28647491Y8165642D01*
X28633064Y8167471D01*
X28618535Y8167471D01*
X28604057Y8165642D01*
X28589986Y8162036D01*
X28576473Y8156651D01*
X28563722Y8149640D01*
X28551936Y8141106D01*
X28541319Y8131149D01*
X28532023Y8119922D01*
X28524250Y8107629D01*
X28518053Y8094472D01*
X28513532Y8080603D01*
X28510839Y8066328D01*
X28509925Y8051800D01*
X28510839Y8037271D01*
X28513532Y8022996D01*
X28518053Y8009128D01*
X28524250Y7995970D01*
X28532023Y7983677D01*
X28535731Y7979257D01*
X28537560Y7975904D01*
X28538017Y7972145D01*
X28537103Y7968437D01*
X28534868Y7965338D01*
X28531616Y7963306D01*
X28527908Y7962595D01*
X28469691Y7962595D01*
X28465983Y7963306D01*
X28462732Y7965338D01*
X28460496Y7968437D01*
X28459582Y7972145D01*
X28460039Y7975904D01*
X28461868Y7979257D01*
X28465576Y7983677D01*
X28473349Y7995970D01*
X28475482Y8000441D01*
X28423158Y8000441D01*
X28423158Y7972755D01*
X28422396Y7968894D01*
X28420161Y7965592D01*
X28416859Y7963357D01*
X28412998Y7962595D01*
X28330601Y7962595D01*
X28326740Y7963357D01*
X28323438Y7965592D01*
X28321203Y7968894D01*
X28320441Y7972755D01*
X28320441Y8000441D01*
X28268117Y8000441D01*
X28270250Y7995970D01*
X28278023Y7983677D01*
X28281731Y7979257D01*
X28283560Y7975904D01*
X28284017Y7972145D01*
X28283103Y7968437D01*
X28280868Y7965338D01*
X28277616Y7963306D01*
X28273908Y7962595D01*
X28215691Y7962595D01*
X28211983Y7963306D01*
X28208732Y7965338D01*
X28206496Y7968437D01*
X28205582Y7972145D01*
X28206039Y7975904D01*
X28207868Y7979257D01*
X28211576Y7983677D01*
X28219349Y7995970D01*
X28225546Y8009128D01*
X28230068Y8022996D01*
X28232760Y8037271D01*
X28233674Y8051800D01*
X28232760Y8066328D01*
X28230068Y8080603D01*
X28225546Y8094472D01*
X28219349Y8107629D01*
X28211576Y8119922D01*
X28202280Y8131149D01*
X28191663Y8141106D01*
X28179877Y8149640D01*
X28167126Y8156651D01*
X28153614Y8162036D01*
X28139491Y8165642D01*
X28125064Y8167471D01*
X28110535Y8167471D01*
X28096057Y8165642D01*
X28081986Y8162036D01*
X28068473Y8156651D01*
X28055722Y8149640D01*
X28043936Y8141106D01*
X28033319Y8131149D01*
X28024023Y8119922D01*
X28016250Y8107629D01*
X28010053Y8094472D01*
X28005532Y8080603D01*
X28002839Y8066328D01*
X28001925Y8051800D01*
X28002839Y8037271D01*
X28005532Y8022996D01*
X28010053Y8009128D01*
X28016250Y7995970D01*
X28024023Y7983677D01*
X28027731Y7979257D01*
X28029560Y7975904D01*
X28030017Y7972145D01*
X28029103Y7968437D01*
X28026868Y7965338D01*
X28023616Y7963306D01*
X28019908Y7962595D01*
X28011780Y7962595D01*
X28007919Y7963357D01*
X28004617Y7965592D01*
X27973223Y7996986D01*
X27970988Y8000390D01*
X27970276Y8004454D01*
X27971546Y8009128D01*
X27976068Y8022996D01*
X27978760Y8037271D01*
X27979674Y8051800D01*
X27978760Y8066328D01*
X27976068Y8080603D01*
X27971546Y8094472D01*
X27965349Y8107629D01*
X27957576Y8119922D01*
X27948280Y8131149D01*
X27937663Y8141106D01*
X27925877Y8149640D01*
X27913126Y8156651D01*
X27899614Y8162036D01*
X27885491Y8165642D01*
X27871064Y8167471D01*
X27856535Y8167471D01*
X27842057Y8165642D01*
X27827986Y8162036D01*
X27814473Y8156651D01*
X27801722Y8149640D01*
X27789936Y8141106D01*
X27779319Y8131149D01*
X27770023Y8119922D01*
X27762250Y8107629D01*
X27756053Y8094472D01*
X27751532Y8080603D01*
X27748839Y8066328D01*
X27747925Y8051800D01*
X27748839Y8037271D01*
X27751532Y8022996D01*
X27756053Y8009128D01*
X27762250Y7995970D01*
X27770023Y7983677D01*
X27779319Y7972501D01*
X27789936Y7962493D01*
X27801722Y7953959D01*
X27814473Y7946948D01*
X27827986Y7941614D01*
X27842057Y7937957D01*
X27856535Y7936128D01*
X27871064Y7936128D01*
X27885491Y7937957D01*
X27899614Y7941614D01*
X27907589Y7944764D01*
X27911450Y7945475D01*
X27915260Y7944662D01*
X27918511Y7942478D01*
X27963926Y7897063D01*
X27970175Y7891932D01*
X27976830Y7888376D01*
X27984094Y7886192D01*
X27992120Y7885379D01*
X30191456Y7885379D01*
X30199482Y7886192D01*
X30206746Y7888376D01*
X30213401Y7891932D01*
X30219650Y7897063D01*
X30321859Y7999272D01*
X30326990Y8005521D01*
X30330546Y8012175D01*
X30332832Y8019745D01*
X30334712Y8023250D01*
X30337810Y8025790D01*
X30341620Y8026908D01*
X30345583Y8026501D01*
X30349037Y8024622D01*
X30351577Y8021574D01*
X30354574Y8015833D01*
X30368036Y7994497D01*
X30383124Y7974228D01*
X30399736Y7955178D01*
X30417770Y7937449D01*
X30437124Y7921244D01*
X30457698Y7906512D01*
X30479339Y7893456D01*
X30501945Y7882128D01*
X30525313Y7872577D01*
X30549392Y7864856D01*
X30573980Y7859014D01*
X30593995Y7855864D01*
X30598008Y7854340D01*
X30601005Y7851292D01*
X30602478Y7847228D01*
X30602123Y7842961D01*
X30600091Y7839151D01*
X30596636Y7836611D01*
X30592420Y7835696D01*
G37*

%LPC*%
G36*
X27602535Y7936128D02*
G01*
X27617064Y7936128D01*
X27631491Y7937957D01*
X27645614Y7941614D01*
X27659126Y7946948D01*
X27671877Y7953959D01*
X27683663Y7962493D01*
X27694280Y7972501D01*
X27703576Y7983677D01*
X27711349Y7995970D01*
X27717546Y8009128D01*
X27722068Y8022996D01*
X27724760Y8037271D01*
X27725674Y8051800D01*
X27724760Y8066328D01*
X27722068Y8080603D01*
X27717546Y8094472D01*
X27711349Y8107629D01*
X27703576Y8119922D01*
X27694280Y8131149D01*
X27683663Y8141106D01*
X27671877Y8149640D01*
X27659126Y8156651D01*
X27645614Y8162036D01*
X27631491Y8165642D01*
X27617064Y8167471D01*
X27602535Y8167471D01*
X27588057Y8165642D01*
X27573986Y8162036D01*
X27560473Y8156651D01*
X27547722Y8149640D01*
X27535936Y8141106D01*
X27525319Y8131149D01*
X27516023Y8119922D01*
X27508250Y8107629D01*
X27502053Y8094472D01*
X27497532Y8080603D01*
X27494839Y8066328D01*
X27493925Y8051800D01*
X27494839Y8037271D01*
X27497532Y8022996D01*
X27502053Y8009128D01*
X27508250Y7995970D01*
X27516023Y7983677D01*
X27525319Y7972501D01*
X27535936Y7962493D01*
X27547722Y7953959D01*
X27560473Y7946948D01*
X27573986Y7941614D01*
X27588057Y7937957D01*
G37*
G36*
X25824535Y7936128D02*
G01*
X25839064Y7936128D01*
X25853491Y7937957D01*
X25867614Y7941614D01*
X25881126Y7946948D01*
X25893877Y7953959D01*
X25905663Y7962493D01*
X25916280Y7972501D01*
X25925576Y7983677D01*
X25933349Y7995970D01*
X25939546Y8009128D01*
X25944068Y8022996D01*
X25946760Y8037271D01*
X25947674Y8051800D01*
X25946760Y8066328D01*
X25944068Y8080603D01*
X25939546Y8094472D01*
X25933349Y8107629D01*
X25925576Y8119922D01*
X25916280Y8131149D01*
X25905663Y8141106D01*
X25893877Y8149640D01*
X25881126Y8156651D01*
X25867614Y8162036D01*
X25853491Y8165642D01*
X25839064Y8167471D01*
X25824535Y8167471D01*
X25810057Y8165642D01*
X25795986Y8162036D01*
X25782473Y8156651D01*
X25769722Y8149640D01*
X25757936Y8141106D01*
X25747319Y8131149D01*
X25738023Y8119922D01*
X25730250Y8107629D01*
X25724053Y8094472D01*
X25719532Y8080603D01*
X25716839Y8066328D01*
X25715925Y8051800D01*
X25716839Y8037271D01*
X25719532Y8022996D01*
X25724053Y8009128D01*
X25730250Y7995970D01*
X25738023Y7983677D01*
X25747319Y7972501D01*
X25757936Y7962493D01*
X25769722Y7953959D01*
X25782473Y7946948D01*
X25795986Y7941614D01*
X25810057Y7937957D01*
G37*
G36*
X26391158Y8103158D02*
G01*
X26443482Y8103158D01*
X26441349Y8107629D01*
X26433576Y8119922D01*
X26424280Y8131149D01*
X26413663Y8141106D01*
X26401877Y8149640D01*
X26391158Y8155584D01*
G37*
G36*
X26236117Y8103158D02*
G01*
X26288441Y8103158D01*
X26288441Y8155584D01*
X26277722Y8149640D01*
X26265936Y8141106D01*
X26255319Y8131149D01*
X26246023Y8119922D01*
X26238250Y8107629D01*
G37*
G36*
X28268117Y8103158D02*
G01*
X28320441Y8103158D01*
X28320441Y8155584D01*
X28309722Y8149640D01*
X28297936Y8141106D01*
X28287319Y8131149D01*
X28278023Y8119922D01*
X28270250Y8107629D01*
G37*
G36*
X28423158Y8103158D02*
G01*
X28475482Y8103158D01*
X28473349Y8107629D01*
X28465576Y8119922D01*
X28456280Y8131149D01*
X28445663Y8141106D01*
X28433877Y8149640D01*
X28423158Y8155584D01*
G37*
G36*
X26332535Y8190128D02*
G01*
X26347064Y8190128D01*
X26361491Y8191957D01*
X26375614Y8195614D01*
X26389126Y8200948D01*
X26401877Y8207959D01*
X26413663Y8216493D01*
X26424280Y8226501D01*
X26433576Y8237677D01*
X26441349Y8249970D01*
X26447546Y8263128D01*
X26452068Y8276996D01*
X26454760Y8291271D01*
X26455674Y8305800D01*
X26454760Y8320328D01*
X26452068Y8334603D01*
X26447546Y8348472D01*
X26441349Y8361629D01*
X26433576Y8373922D01*
X26424280Y8385149D01*
X26413663Y8395106D01*
X26401877Y8403640D01*
X26389126Y8410651D01*
X26375614Y8416036D01*
X26361491Y8419642D01*
X26347064Y8421471D01*
X26332535Y8421471D01*
X26318057Y8419642D01*
X26303986Y8416036D01*
X26290473Y8410651D01*
X26277722Y8403640D01*
X26265936Y8395106D01*
X26255319Y8385149D01*
X26246023Y8373922D01*
X26238250Y8361629D01*
X26232053Y8348472D01*
X26227532Y8334603D01*
X26224839Y8320328D01*
X26223925Y8305800D01*
X26224839Y8291271D01*
X26227532Y8276996D01*
X26232053Y8263128D01*
X26238250Y8249970D01*
X26246023Y8237677D01*
X26255319Y8226501D01*
X26265936Y8216493D01*
X26277722Y8207959D01*
X26290473Y8200948D01*
X26303986Y8195614D01*
X26318057Y8191957D01*
G37*
G36*
X27856535Y8190128D02*
G01*
X27871064Y8190128D01*
X27885491Y8191957D01*
X27899614Y8195614D01*
X27913126Y8200948D01*
X27925877Y8207959D01*
X27937663Y8216493D01*
X27948280Y8226501D01*
X27957576Y8237677D01*
X27965349Y8249970D01*
X27971546Y8263128D01*
X27976068Y8276996D01*
X27978760Y8291271D01*
X27979674Y8305800D01*
X27978760Y8320328D01*
X27976068Y8334603D01*
X27971546Y8348472D01*
X27965349Y8361629D01*
X27957576Y8373922D01*
X27948280Y8385149D01*
X27937663Y8395106D01*
X27925877Y8403640D01*
X27913126Y8410651D01*
X27899614Y8416036D01*
X27885491Y8419642D01*
X27871064Y8421471D01*
X27856535Y8421471D01*
X27842057Y8419642D01*
X27827986Y8416036D01*
X27814473Y8410651D01*
X27801722Y8403640D01*
X27789936Y8395106D01*
X27779319Y8385149D01*
X27770023Y8373922D01*
X27762250Y8361629D01*
X27756053Y8348472D01*
X27751532Y8334603D01*
X27748839Y8320328D01*
X27747925Y8305800D01*
X27748839Y8291271D01*
X27751532Y8276996D01*
X27756053Y8263128D01*
X27762250Y8249970D01*
X27770023Y8237677D01*
X27779319Y8226501D01*
X27789936Y8216493D01*
X27801722Y8207959D01*
X27814473Y8200948D01*
X27827986Y8195614D01*
X27842057Y8191957D01*
G37*
G36*
X28110535Y8190128D02*
G01*
X28125064Y8190128D01*
X28139491Y8191957D01*
X28153614Y8195614D01*
X28167126Y8200948D01*
X28179877Y8207959D01*
X28191663Y8216493D01*
X28202280Y8226501D01*
X28211576Y8237677D01*
X28219349Y8249970D01*
X28225546Y8263128D01*
X28230068Y8276996D01*
X28232760Y8291271D01*
X28233674Y8305800D01*
X28232760Y8320328D01*
X28230068Y8334603D01*
X28225546Y8348472D01*
X28219349Y8361629D01*
X28211576Y8373922D01*
X28202280Y8385149D01*
X28191663Y8395106D01*
X28179877Y8403640D01*
X28167126Y8410651D01*
X28153614Y8416036D01*
X28139491Y8419642D01*
X28125064Y8421471D01*
X28110535Y8421471D01*
X28096057Y8419642D01*
X28081986Y8416036D01*
X28068473Y8410651D01*
X28055722Y8403640D01*
X28043936Y8395106D01*
X28033319Y8385149D01*
X28024023Y8373922D01*
X28016250Y8361629D01*
X28010053Y8348472D01*
X28005532Y8334603D01*
X28002839Y8320328D01*
X28001925Y8305800D01*
X28002839Y8291271D01*
X28005532Y8276996D01*
X28010053Y8263128D01*
X28016250Y8249970D01*
X28024023Y8237677D01*
X28033319Y8226501D01*
X28043936Y8216493D01*
X28055722Y8207959D01*
X28068473Y8200948D01*
X28081986Y8195614D01*
X28096057Y8191957D01*
G37*
G36*
X26586535Y8190128D02*
G01*
X26601064Y8190128D01*
X26615491Y8191957D01*
X26629614Y8195614D01*
X26643126Y8200948D01*
X26655877Y8207959D01*
X26667663Y8216493D01*
X26678280Y8226501D01*
X26687576Y8237677D01*
X26695349Y8249970D01*
X26701546Y8263128D01*
X26706068Y8276996D01*
X26708760Y8291271D01*
X26709674Y8305800D01*
X26708760Y8320328D01*
X26706068Y8334603D01*
X26701546Y8348472D01*
X26695349Y8361629D01*
X26687576Y8373922D01*
X26678280Y8385149D01*
X26667663Y8395106D01*
X26655877Y8403640D01*
X26643126Y8410651D01*
X26629614Y8416036D01*
X26615491Y8419642D01*
X26601064Y8421471D01*
X26586535Y8421471D01*
X26572057Y8419642D01*
X26557986Y8416036D01*
X26544473Y8410651D01*
X26531722Y8403640D01*
X26519936Y8395106D01*
X26509319Y8385149D01*
X26500023Y8373922D01*
X26492250Y8361629D01*
X26486053Y8348472D01*
X26481532Y8334603D01*
X26478839Y8320328D01*
X26477925Y8305800D01*
X26478839Y8291271D01*
X26481532Y8276996D01*
X26486053Y8263128D01*
X26492250Y8249970D01*
X26500023Y8237677D01*
X26509319Y8226501D01*
X26519936Y8216493D01*
X26531722Y8207959D01*
X26544473Y8200948D01*
X26557986Y8195614D01*
X26572057Y8191957D01*
G37*
G36*
X25883158Y8202066D02*
G01*
X25893877Y8207959D01*
X25905663Y8216493D01*
X25916280Y8226501D01*
X25925576Y8237677D01*
X25933349Y8249970D01*
X25935482Y8254441D01*
X25883158Y8254441D01*
G37*
G36*
X27661158Y8202066D02*
G01*
X27671877Y8207959D01*
X27683663Y8216493D01*
X27694280Y8226501D01*
X27703576Y8237677D01*
X27711349Y8249970D01*
X27713482Y8254441D01*
X27661158Y8254441D01*
G37*
G36*
X28828441Y8202066D02*
G01*
X28828441Y8254441D01*
X28776117Y8254441D01*
X28778250Y8249970D01*
X28786023Y8237677D01*
X28795319Y8226501D01*
X28805936Y8216493D01*
X28817722Y8207959D01*
G37*
G36*
X26796441Y8202066D02*
G01*
X26796441Y8254441D01*
X26744117Y8254441D01*
X26746250Y8249970D01*
X26754023Y8237677D01*
X26763319Y8226501D01*
X26773936Y8216493D01*
X26785722Y8207959D01*
G37*
G36*
X25883158Y8357158D02*
G01*
X25935482Y8357158D01*
X25933349Y8361629D01*
X25925576Y8373922D01*
X25916280Y8385149D01*
X25905663Y8395106D01*
X25893877Y8403640D01*
X25883158Y8409584D01*
G37*
G36*
X27661158Y8357158D02*
G01*
X27713482Y8357158D01*
X27711349Y8361629D01*
X27703576Y8373922D01*
X27694280Y8385149D01*
X27683663Y8395106D01*
X27671877Y8403640D01*
X27661158Y8409584D01*
G37*
G36*
X26744117Y8357158D02*
G01*
X26796441Y8357158D01*
X26796441Y8409584D01*
X26785722Y8403640D01*
X26773936Y8395106D01*
X26763319Y8385149D01*
X26754023Y8373922D01*
X26746250Y8361629D01*
G37*

%LPD*%
G36*
X30681168Y7835696D02*
G01*
X30676951Y7836611D01*
X30673497Y7839151D01*
X30671465Y7842961D01*
X30671109Y7847228D01*
X30672582Y7851292D01*
X30675580Y7854340D01*
X30679593Y7855864D01*
X30699608Y7859014D01*
X30724195Y7864856D01*
X30748274Y7872577D01*
X30771642Y7882128D01*
X30794248Y7893456D01*
X30815889Y7906512D01*
X30836463Y7921244D01*
X30855818Y7937449D01*
X30873852Y7955178D01*
X30890464Y7974228D01*
X30905551Y7994497D01*
X30919013Y8015833D01*
X30930799Y8038236D01*
X30940806Y8061401D01*
X30948985Y8085328D01*
X30955284Y8109813D01*
X30959704Y8134705D01*
X30962142Y8159851D01*
X30962650Y8185150D01*
X30961177Y8210346D01*
X30957723Y8235391D01*
X30952389Y8260080D01*
X30945124Y8284311D01*
X30936031Y8307882D01*
X30925160Y8330692D01*
X30912511Y8352586D01*
X30898185Y8373414D01*
X30882336Y8393074D01*
X30865013Y8411464D01*
X30846268Y8428482D01*
X30826303Y8443925D01*
X30805170Y8457844D01*
X30783072Y8470036D01*
X30760060Y8480501D01*
X30736286Y8489137D01*
X30711952Y8495944D01*
X30687162Y8500770D01*
X30662067Y8503716D01*
X30636819Y8504682D01*
X30611521Y8503716D01*
X30586426Y8500770D01*
X30561635Y8495944D01*
X30537302Y8489137D01*
X30513527Y8480501D01*
X30490515Y8470036D01*
X30468417Y8457844D01*
X30447284Y8443925D01*
X30427320Y8428482D01*
X30408575Y8411464D01*
X30391252Y8393074D01*
X30375402Y8373414D01*
X30361077Y8352586D01*
X30352492Y8337702D01*
X30349545Y8334451D01*
X30345481Y8332774D01*
X30341062Y8332978D01*
X30337150Y8335009D01*
X30334508Y8338464D01*
X30333543Y8342782D01*
X30333543Y8670493D01*
X30334305Y8674354D01*
X30336489Y8677656D01*
X30740451Y9081617D01*
X30745582Y9087866D01*
X30751119Y9098229D01*
X30754370Y9100718D01*
X30758333Y9101785D01*
X30762397Y9101175D01*
X30765851Y9099042D01*
X30768239Y9095689D01*
X30769052Y9091676D01*
X30769052Y9015018D01*
X30769763Y9008719D01*
X30771693Y9003233D01*
X30774741Y8998356D01*
X30778856Y8994241D01*
X30783733Y8991193D01*
X30789219Y8989263D01*
X30795518Y8988552D01*
X30951881Y8988552D01*
X30958180Y8989263D01*
X30963666Y8991193D01*
X30968543Y8994241D01*
X30972658Y8998356D01*
X30975706Y9003233D01*
X30977636Y9008719D01*
X30978297Y9014358D01*
X30979668Y9018524D01*
X30982716Y9021673D01*
X30986730Y9023248D01*
X30991098Y9023045D01*
X30994959Y9020962D01*
X30997601Y9017508D01*
X30998515Y9013240D01*
X30998515Y8010652D01*
X30997601Y7992211D01*
X30995010Y7975346D01*
X30990844Y7958785D01*
X30985053Y7942732D01*
X30977687Y7927289D01*
X30968848Y7912658D01*
X30958637Y7898993D01*
X30947156Y7886344D01*
X30934456Y7874914D01*
X30920689Y7864805D01*
X30906059Y7856067D01*
X30890565Y7848803D01*
X30874462Y7843113D01*
X30857901Y7838998D01*
X30840984Y7836560D01*
X30823560Y7835696D01*
G37*

%LPD*%
D10*
X25831800Y8305800D02*
G01*
X25958800Y8178800D01*
X26250900Y8178800D01*
X26250900Y8140700D01*
X26339800Y8051800D01*
X26339800Y8051800D02*
G01*
X26365200Y8051800D01*
X26492200Y8178800D01*
X26720800Y8178800D01*
X26847800Y8305800D01*
X27609800Y8305800D02*
G01*
X27736800Y8178800D01*
X28270200Y8178800D01*
X28371800Y8077200D01*
X28371800Y8051800D01*
X29387800Y8305800D02*
G01*
X29514800Y8178800D01*
X30022800Y8178800D01*
X30149800Y8051800D01*
X28879800Y8305800D02*
G01*
X28752800Y8178800D01*
X28448000Y8178800D01*
X28448000Y8128000D01*
X28371800Y8051800D01*
X25005451Y9529607D02*
G01*
X24973015Y9497171D01*
X24199611Y9497171D01*
X24149116Y9547666D01*
X24117239Y9547666D01*
X23045257Y8475685D01*
X23045257Y8324479D01*
X22945156Y8224377D01*
X22791257Y8224377D01*
X22644089Y8077210D01*
X26847789Y10820410D02*
G01*
X26983832Y10684367D01*
X27766126Y10684367D01*
X28254543Y10195951D01*
X28254543Y9183024D01*
X28242630Y9171111D01*
X28130794Y9171111D01*
X28033665Y9073982D01*
X28033665Y8982212D01*
X28142199Y8873677D01*
X28265262Y8873677D01*
X28758657Y8380282D01*
D11*
X24256989Y9613910D02*
G01*
X24256989Y10311902D01*
X24853889Y12852410D02*
G01*
X25323789Y12382510D01*
X25323789Y12090410D01*
D10*
X25577789Y8051810D02*
G01*
X25366588Y7840609D01*
X24658690Y7840609D01*
X24422089Y8077210D01*
X23760191Y8861917D02*
G01*
X23284957Y8386683D01*
X23284957Y8210077D01*
X23152089Y8077210D01*
X29641789Y8051810D02*
G01*
X29554794Y8051810D01*
X29427744Y8178860D01*
X29090152Y8178860D01*
X29012987Y8256026D01*
X29012987Y8351225D01*
X28432216Y8931996D01*
X28268818Y8931996D01*
X28503514Y8376549D02*
G01*
X28133233Y8746830D01*
X27809738Y8746830D01*
X27753630Y8802938D01*
X26085789Y8051810D02*
G01*
X26208344Y7929255D01*
X27149364Y7929255D01*
X27237705Y8017596D01*
X27237705Y8103194D01*
X27322236Y8187725D01*
X27407199Y8187725D01*
X27482789Y8263315D01*
X27482789Y8646195D01*
X27747813Y8911219D01*
X27747813Y9428109D01*
X27938440Y9618736D01*
X29222080Y9717872D02*
G01*
X29222080Y10173802D01*
X29550095Y10501817D01*
X29690862Y10501817D01*
X29841814Y10652770D01*
X29841814Y11299835D01*
X30886389Y12344410D01*
X30149789Y8305810D02*
G01*
X30149789Y8443173D01*
X29644380Y8948582D01*
X29397899Y8948582D01*
X29381719Y8932402D01*
X25333086Y8460648D02*
G01*
X24860036Y8933698D01*
X25323789Y8051810D02*
G01*
X25441696Y8051810D01*
X25441696Y8051810D02*
G01*
X25441696Y8110763D01*
X25518658Y8187725D01*
X25651780Y8187725D01*
X25695874Y8231819D01*
X23406089Y8331210D02*
G01*
X23656584Y8581704D01*
X24307281Y8581704D01*
X24327246Y8601669D01*
X25072888Y8601669D01*
X25205730Y8468827D01*
X25205730Y7950184D01*
X25245024Y7910890D01*
X29895789Y8305810D02*
G01*
X29327668Y8873931D01*
X24284701Y8646728D02*
G01*
X24722216Y9084243D01*
X25999531Y9084243D01*
X28007731Y8921506D02*
G01*
X28127238Y8801999D01*
X28186039Y8801999D01*
X28625789Y8362248D01*
X28625789Y8305810D01*
X24168089Y8077210D02*
G01*
X24309491Y8218611D01*
X24309491Y8415919D01*
X24372839Y8479266D01*
X24401998Y8479266D01*
X29133789Y8305810D02*
G01*
X29144229Y8316249D01*
X29144229Y8780104D01*
X30751922Y10387797D01*
X30751922Y10914542D01*
X30899089Y11061710D01*
X27889189Y11963410D02*
G01*
X27778801Y11853021D01*
X27778801Y11273698D01*
X27889189Y11163310D01*
X26835089Y8966210D02*
G01*
X26973672Y8827627D01*
X26973672Y8179927D01*
X27101789Y8051810D01*
X29641789Y10706110D02*
G01*
X28435264Y11912635D01*
X28435264Y12852410D01*
X28981389Y8801110D02*
G01*
X29108034Y8927754D01*
X29108034Y10030317D01*
X29032189Y10106162D01*
D11*
X30886389Y12090410D02*
G01*
X30886389Y11946442D01*
X30340289Y10716346D02*
G01*
X30340289Y11400342D01*
X30886389Y11946442D01*
X30340289Y10716346D02*
G01*
X30340289Y10337810D01*
X30241737Y10906008D02*
G01*
X30340289Y10807456D01*
X30340289Y10716346D01*
X28143189Y10909310D02*
G01*
X28143189Y10666714D01*
X28981389Y9828514D01*
X28981389Y9563110D01*
X27889189Y10909310D02*
G01*
X27635189Y10909310D01*
X26581089Y8966210D02*
G01*
X26726987Y9112107D01*
X27552792Y9112107D01*
X27635189Y9029710D01*
X27241489Y12852410D02*
G01*
X27243394Y12850505D01*
X27243394Y11301105D01*
X27635189Y10909310D01*
X28981389Y9563110D02*
G01*
X28447989Y9029710D01*
X28143189Y9029710D01*
X25577789Y8305810D02*
G01*
X26036488Y8764508D01*
X26125388Y8764508D01*
X26327089Y8966210D01*
D10*
X27635189Y9283710D02*
G01*
X26361405Y9283710D01*
X26073089Y8995394D01*
X26073089Y8966210D01*
X27635189Y10096510D02*
G01*
X27746314Y9985385D01*
X27746314Y9763795D01*
X27635189Y9652670D01*
X27635189Y9283710D01*
X27889189Y10096510D02*
G01*
X27999349Y9986350D01*
X27999349Y9393869D01*
X27889189Y9283710D01*
X28143189Y9283710D02*
G01*
X28143189Y9646701D01*
X28057668Y9732223D01*
X28143189Y11163310D02*
G01*
X28143189Y11269964D01*
X28143189Y11963410D02*
G01*
X28143189Y11856755D01*
X28143189Y11856755D02*
G01*
X28116519Y11856755D01*
X28032064Y11772300D01*
X28032064Y11381089D01*
X28143189Y11269964D01*
X29502089Y9982210D02*
G01*
X29502089Y10261610D01*
X29578289Y10337810D01*
X29041841Y10906008D02*
G01*
X29041841Y10369814D01*
X29032189Y10360162D01*
X29590989Y9588510D02*
G01*
X29629089Y9626610D01*
X29629089Y9982210D01*
X27355789Y8305810D02*
G01*
X27355789Y8699510D01*
X27089089Y8966210D01*
X30873715Y9601210D02*
G01*
X30713517Y9441012D01*
X30713517Y9109262D01*
X30294925Y8690670D01*
X30294925Y8026943D01*
X30191979Y7923997D01*
X27991602Y7923997D01*
X27863789Y8051810D01*
X25895594Y9212209D02*
G01*
X24498061Y9212209D01*
X23929431Y8643579D01*
X26085789Y8305810D02*
G01*
X26431382Y8651402D01*
X26431382Y9153204D01*
X26372378Y9212209D01*
X23914089Y8077210D02*
G01*
X24041089Y8204210D01*
X24041089Y8375939D01*
X24203345Y8538194D01*
X25034839Y8538194D01*
X27635189Y11963410D02*
G01*
X27519619Y11847840D01*
X27519619Y11278880D01*
X27635189Y11163310D01*
D11*
X24256989Y10311902D02*
G01*
X25235397Y10311902D01*
X25311100Y10236200D01*
X24256989Y10311902D02*
G01*
X24256989Y11404610D01*
X24282389Y11430010D01*
X24537128Y10311902D02*
G01*
X24428762Y10311902D01*
X24256989Y10140129D01*
X24257000Y10507218D02*
G01*
X24257000Y10452100D01*
X24397208Y10311892D01*
X24538431Y10311892D01*
X24853900Y12852400D02*
G01*
X24350903Y12349403D01*
X24350903Y9707803D01*
X24257000Y9613900D01*
D10*
X29035187Y8413379D02*
G01*
X29103436Y8481628D01*
X29103436Y8810889D01*
X29150401Y8857853D01*
X29150401Y10159298D01*
X29076538Y10233162D01*
X28996985Y10233162D01*
X28199603Y11030544D01*
X28107985Y11030544D01*
X28016189Y10938748D01*
X28016189Y10870600D01*
X27930515Y10784926D01*
X27137273Y10784926D01*
X27101789Y10820410D01*
D14*
G01*
X30886400Y12598400D03*
G01*
X30886400Y12344400D03*
D15*
G01*
X30886400Y12090400D03*
D14*
G01*
X22644100Y8077200D03*
G01*
X22644100Y8331200D03*
G01*
X22898100Y8077200D03*
G01*
X22898100Y8331200D03*
G01*
X23152100Y8077200D03*
G01*
X23152100Y8331200D03*
G01*
X23406100Y8077200D03*
G01*
X23406100Y8331200D03*
G01*
X23660100Y8077200D03*
G01*
X23660100Y8331200D03*
G01*
X23914100Y8077200D03*
G01*
X23914100Y8331200D03*
G01*
X24168100Y8077200D03*
G01*
X24168100Y8331200D03*
G01*
X24422100Y8077200D03*
D15*
G01*
X24422100Y8331200D03*
D14*
G01*
X27635200Y9029700D03*
G01*
X27635200Y9283700D03*
G01*
X27889200Y9029700D03*
G01*
X27889200Y9283700D03*
G01*
X28143200Y9029700D03*
D15*
G01*
X28143200Y9283700D03*
D14*
G01*
X27635200Y9842500D03*
G01*
X27635200Y10096500D03*
G01*
X27889200Y9842500D03*
G01*
X27889200Y10096500D03*
G01*
X28143200Y9842500D03*
D15*
G01*
X28143200Y10096500D03*
D16*
G01*
X24282400Y11430000D03*
G01*
X24790400Y11430000D03*
G01*
X24257000Y9613900D03*
G01*
X24765000Y9613900D03*
D14*
G01*
X30899100Y11315700D03*
G01*
X30899100Y11061700D03*
D15*
G01*
X30899100Y10807700D03*
D14*
G01*
X27635200Y10909300D03*
G01*
X27635200Y11163300D03*
G01*
X27889200Y10909300D03*
G01*
X27889200Y11163300D03*
G01*
X28143200Y10909300D03*
D15*
G01*
X28143200Y11163300D03*
D14*
G01*
X27635200Y11709400D03*
G01*
X27635200Y11963400D03*
G01*
X27889200Y11709400D03*
G01*
X27889200Y11963400D03*
G01*
X28143200Y11709400D03*
D15*
G01*
X28143200Y11963400D03*
D17*
G01*
X25819100Y10236200D03*
G01*
X25565100Y10236200D03*
G01*
X25311100Y10236200D03*
G01*
X26073100Y10236200D03*
G01*
X26327100Y10236200D03*
G01*
X26581100Y10236200D03*
G01*
X26835100Y10236200D03*
G01*
X27089100Y10236200D03*
G01*
X27089100Y8966200D03*
G01*
X26835100Y8966200D03*
G01*
X26581100Y8966200D03*
G01*
X26327100Y8966200D03*
G01*
X26073100Y8966200D03*
G01*
X25819100Y8966200D03*
G01*
X25565100Y8966200D03*
G01*
X25311100Y8966200D03*
G01*
X25831800Y12090400D03*
G01*
X25577800Y12090400D03*
G01*
X25323800Y12090400D03*
G01*
X26085800Y12090400D03*
G01*
X26339800Y12090400D03*
G01*
X26593800Y12090400D03*
G01*
X26847800Y12090400D03*
G01*
X27101800Y12090400D03*
G01*
X27101800Y10820400D03*
G01*
X26847800Y10820400D03*
G01*
X26593800Y10820400D03*
G01*
X26339800Y10820400D03*
G01*
X26085800Y10820400D03*
G01*
X25831800Y10820400D03*
G01*
X25577800Y10820400D03*
G01*
X25323800Y10820400D03*
D18*
G01*
X23063200Y8991600D03*
G01*
X23063200Y9499600D03*
G01*
X23063200Y10007600D03*
G01*
X23063200Y10515600D03*
G01*
X23063200Y11201400D03*
G01*
X23063200Y11709400D03*
G01*
X23063200Y12217400D03*
G01*
X23063200Y12725400D03*
G01*
X24345900Y12852400D03*
G01*
X24853900Y12852400D03*
G01*
X25539674Y12852400D03*
G01*
X26047674Y12852400D03*
G01*
X26733500Y12852400D03*
G01*
X27241500Y12852400D03*
G01*
X27927274Y12852400D03*
G01*
X28435274Y12852400D03*
D15*
G01*
X30873700Y9093200D03*
D14*
G01*
X30873725Y9347200D03*
G01*
X30873725Y9601200D03*
G01*
X30873725Y9855200D03*
D19*
G01*
X29578300Y10337800D03*
G01*
X30340300Y10337800D03*
D20*
G01*
X29032200Y10106152D03*
G01*
X29032200Y10360152D03*
D21*
G01*
X29591000Y8826500D03*
G01*
X29591000Y9588500D03*
G01*
X30213300Y8826500D03*
G01*
X30213300Y9588500D03*
G01*
X28981400Y8801100D03*
G01*
X28981400Y9563100D03*
D22*
G01*
X30241748Y12126213D03*
G01*
X29641800Y10706100D03*
G01*
X29041852Y10905997D03*
G01*
X30241748Y10905997D03*
G01*
X29041852Y12126213D03*
D23*
G01*
X30149800Y8305800D03*
G01*
X30149800Y8051800D03*
G01*
X29895800Y8305800D03*
G01*
X29895800Y8051800D03*
G01*
X29641800Y8305800D03*
G01*
X29641800Y8051800D03*
G01*
X29387800Y8305800D03*
G01*
X29387800Y8051800D03*
G01*
X29133800Y8305800D03*
G01*
X29133800Y8051800D03*
G01*
X28879800Y8305800D03*
G01*
X28879800Y8051800D03*
G01*
X28625800Y8305800D03*
G01*
X28625800Y8051800D03*
G01*
X28371800Y8305800D03*
G01*
X28371800Y8051800D03*
G01*
X28117800Y8305800D03*
G01*
X28117800Y8051800D03*
G01*
X27863800Y8305800D03*
G01*
X27863800Y8051800D03*
G01*
X27609800Y8305800D03*
G01*
X27609800Y8051800D03*
G01*
X27355800Y8305800D03*
G01*
X27355800Y8051800D03*
G01*
X27101800Y8305800D03*
G01*
X27101800Y8051800D03*
G01*
X26847800Y8305800D03*
G01*
X26847800Y8051800D03*
G01*
X26593800Y8305800D03*
G01*
X26593800Y8051800D03*
G01*
X26339800Y8305800D03*
G01*
X26339800Y8051800D03*
G01*
X26085800Y8305800D03*
G01*
X26085800Y8051800D03*
G01*
X25831800Y8305800D03*
G01*
X25831800Y8051800D03*
G01*
X25577800Y8305800D03*
G01*
X25577800Y8051800D03*
G01*
X25323800Y8305800D03*
G36*
X25233797Y8141807D02*
G01*
X25413797Y8141807D01*
X25413797Y7961807D01*
X25233797Y7961807D01*
G37*
D25*
G01*
X24836805Y8178800D03*
G01*
X30636794Y8178800D03*
D12*
G01*
X24130000Y9309100D03*
G01*
X24206200Y9309100D03*
G01*
X24282400Y9309100D03*
G01*
X24574500Y9309100D03*
G01*
X24498300Y9309100D03*
G01*
X24422100Y9309100D03*
G01*
X24866600Y9309100D03*
G01*
X24790400Y9309100D03*
G01*
X24714200Y9309100D03*
G01*
X30924500Y8775700D03*
G01*
X30848300Y8775700D03*
G01*
X30772100Y8775700D03*
G01*
X30924500Y8699500D03*
G01*
X30848300Y8699500D03*
G01*
X30772100Y8699500D03*
G01*
X30937200Y10401300D03*
G01*
X30937200Y10325100D03*
G01*
X30937200Y10248900D03*
G01*
X30848300Y10401300D03*
G01*
X30848300Y10325100D03*
G01*
X30848300Y10248900D03*
G01*
X29083000Y13233400D03*
G01*
X29006800Y13233400D03*
G01*
X28930600Y13233400D03*
G01*
X29349700Y13233400D03*
G01*
X29273500Y13233400D03*
G01*
X29197300Y13233400D03*
G01*
X29349700Y13144500D03*
G01*
X29273500Y13144500D03*
G01*
X29197300Y13144500D03*
G01*
X29083000Y13144500D03*
G01*
X29006800Y13144500D03*
G01*
X28930600Y13144500D03*
G01*
X29552900Y13144500D03*
G01*
X29629100Y13144500D03*
G01*
X29705300Y13144500D03*
G01*
X29819600Y13144500D03*
G01*
X29895800Y13144500D03*
G01*
X29972000Y13144500D03*
G01*
X29819600Y13233400D03*
G01*
X29895800Y13233400D03*
G01*
X29972000Y13233400D03*
G01*
X29552900Y13233400D03*
G01*
X29629100Y13233400D03*
G01*
X29705300Y13233400D03*
G01*
X23520400Y13169900D03*
G01*
X23596600Y13169900D03*
G01*
X23672800Y13169900D03*
G01*
X23787100Y13169900D03*
G01*
X23863300Y13169900D03*
G01*
X23939500Y13169900D03*
G01*
X23787100Y13258800D03*
G01*
X23863300Y13258800D03*
G01*
X23939500Y13258800D03*
G01*
X23520400Y13258800D03*
G01*
X23596600Y13258800D03*
G01*
X23672800Y13258800D03*
G01*
X23520400Y12941300D03*
G01*
X23596600Y12941300D03*
G01*
X23672800Y12941300D03*
G01*
X23787100Y12941300D03*
G01*
X23863300Y12941300D03*
G01*
X23939500Y12941300D03*
G01*
X23787100Y13030200D03*
G01*
X23863300Y13030200D03*
G01*
X23939500Y13030200D03*
G01*
X23520400Y13030200D03*
G01*
X23596600Y13030200D03*
G01*
X23672800Y13030200D03*
G01*
X23977600Y10642600D03*
G01*
X23977600Y10718800D03*
G01*
X23977600Y10795000D03*
G01*
X23977600Y10909300D03*
G01*
X23977600Y10985500D03*
G01*
X23977600Y11061700D03*
G01*
X23888700Y10909300D03*
G01*
X23888700Y10985500D03*
G01*
X23888700Y11061700D03*
G01*
X23888700Y10642600D03*
G01*
X23888700Y10718800D03*
G01*
X23888700Y10795000D03*
G01*
X23977600Y10223500D03*
G01*
X23977600Y10299700D03*
G01*
X23977600Y10375900D03*
G01*
X23977600Y10490200D03*
G01*
X23977600Y10566400D03*
G01*
X23888700Y10490200D03*
G01*
X23888700Y10566400D03*
G01*
X23888700Y10223500D03*
G01*
X23888700Y10299700D03*
G01*
X23888700Y10375900D03*
G01*
X24955500Y10502900D03*
G01*
X25031700Y10502900D03*
G01*
X25107900Y10502900D03*
G01*
X25222200Y10502900D03*
G01*
X25298400Y10502900D03*
G01*
X25374600Y10502900D03*
G01*
X25222200Y10591800D03*
G01*
X25298400Y10591800D03*
G01*
X25374600Y10591800D03*
G01*
X24955500Y10591800D03*
G01*
X25031700Y10591800D03*
G01*
X25107900Y10591800D03*
G01*
X28778200Y10668000D03*
G01*
X28778200Y10744200D03*
G01*
X28778200Y10820400D03*
G01*
X28778200Y10934700D03*
G01*
X28778200Y11010900D03*
G01*
X28778200Y11087100D03*
G01*
X28689300Y10934700D03*
G01*
X28689300Y11010900D03*
G01*
X28689300Y11087100D03*
G01*
X28689300Y10668000D03*
G01*
X28689300Y10744200D03*
G01*
X28689300Y10820400D03*
G01*
X28346400Y9677400D03*
G01*
X28435300Y9677400D03*
G01*
X28435300Y9753600D03*
G01*
X28346400Y9753600D03*
G01*
X28346400Y9829800D03*
G01*
X28435300Y9829800D03*
G01*
X28435300Y9944100D03*
G01*
X28346400Y9944100D03*
G01*
X28346400Y10020300D03*
G01*
X28435300Y10020300D03*
G01*
X28435300Y10096500D03*
G01*
X28346400Y10096500D03*
D13*
G01*
X28758667Y8380272D03*
G01*
X29035197Y8413369D03*
G01*
X23760201Y8861907D03*
G01*
X28268828Y8931986D03*
G01*
X27753640Y8802928D03*
G01*
X28503524Y8376538D03*
G01*
X29222090Y9717862D03*
G01*
X27938450Y9618726D03*
G01*
X29381729Y8932392D03*
G01*
X25695884Y8231809D03*
G01*
X25333096Y8460638D03*
G01*
X24860046Y8933687D03*
G01*
X25245034Y7910880D03*
G01*
X29327678Y8873921D03*
G01*
X28007741Y8921495D03*
G01*
X25999541Y9084233D03*
G01*
X24284711Y8646718D03*
G01*
X24402008Y8479256D03*
G01*
X28057678Y9732213D03*
G01*
X23929441Y8643569D03*
G01*
X25895604Y9212199D03*
G01*
X26372388Y9212199D03*
G01*
X25034849Y8538184D03*
D12*
G01*
X30543500Y8788400D03*
G01*
X30594300Y8839200D03*
G01*
X30492700Y8737600D03*
G01*
X30441900Y8686800D03*
G01*
X30391100Y8623300D03*
G01*
X28524200Y8724900D03*
G01*
X28714700Y8763000D03*
G01*
X28803600Y8763000D03*
G01*
X28714700Y8851900D03*
G01*
X28803600Y8851900D03*
G01*
X28905200Y8572500D03*
G01*
X28981400Y8572500D03*
D11*
X29756100Y9932200D02*
G01*
X29756100Y10032199D01*
X29629100Y9932200D02*
G01*
X29629100Y10032199D01*
X29502100Y9932200D02*
G01*
X29502100Y10032199D01*
M02*
