G04 Layer: TopLayer*
G04 EasyEDA v6.5.5, 2022-05-15 16:03:05*
G04 b3a66e96751545e5b315a235ba618c9c,f3b4bba6f80a42898d6f7a4ba36534e0,10*
G04 Gerber Generator version 0.2*
G04 Scale: 100 percent, Rotated: No, Reflected: No *
G04 Dimensions in millimeters *
G04 leading zeros omitted , absolute positions ,4 integer and 5 decimal *
%FSLAX45Y45*%
%MOMM*%

%ADD10C,0.2540*%
%ADD11C,1.0000*%
%ADD12C,0.6096*%
%ADD13C,0.6050*%
%ADD14C,1.5748*%
%ADD15R,1.5748X1.5748*%
%ADD16C,1.6000*%
%ADD17C,1.5240*%
%ADD18C,2.8000*%
%ADD19C,1.9050*%
%ADD20C,1.6510*%
%ADD21C,1.8796*%
%ADD22C,2.7940*%
%ADD23C,1.8000*%
%ADD25C,6.0000*%

%LPD*%
G36*
X28415183Y8679586D02*
G01*
X28411322Y8680348D01*
X28408020Y8682583D01*
X28405836Y8685885D01*
X28405023Y8689746D01*
X28405836Y8693658D01*
X28408020Y8696960D01*
X28595218Y8884158D01*
X28598520Y8886342D01*
X28602381Y8887104D01*
X28876040Y8887104D01*
X28880409Y8886139D01*
X28883914Y8883396D01*
X28885896Y8879382D01*
X28885997Y8874912D01*
X28884118Y8870848D01*
X28881476Y8867292D01*
X28874110Y8854541D01*
X28868370Y8840927D01*
X28864306Y8826754D01*
X28862020Y8812174D01*
X28861613Y8797391D01*
X28862934Y8782710D01*
X28866084Y8768283D01*
X28871011Y8754364D01*
X28877615Y8741156D01*
X28885743Y8728862D01*
X28895344Y8717635D01*
X28906266Y8707729D01*
X28918306Y8699195D01*
X28922573Y8695791D01*
X28924351Y8691727D01*
X28924250Y8687257D01*
X28922218Y8683294D01*
X28918712Y8680551D01*
X28914394Y8679586D01*
G37*

%LPD*%
G36*
X26444803Y8226348D02*
G01*
X26440638Y8227263D01*
X26437183Y8229803D01*
X26435100Y8233613D01*
X26434745Y8237880D01*
X26436269Y8241944D01*
X26441349Y8249970D01*
X26447546Y8263128D01*
X26452068Y8276996D01*
X26454760Y8291271D01*
X26455674Y8305800D01*
X26454760Y8320328D01*
X26452068Y8334603D01*
X26447546Y8348472D01*
X26441349Y8361629D01*
X26433576Y8373922D01*
X26424280Y8385149D01*
X26413663Y8395106D01*
X26401877Y8403640D01*
X26389126Y8410651D01*
X26375614Y8416036D01*
X26361491Y8419642D01*
X26347064Y8421471D01*
X26332535Y8421471D01*
X26318057Y8419642D01*
X26303986Y8416036D01*
X26296010Y8412886D01*
X26292149Y8412124D01*
X26288339Y8412937D01*
X26285088Y8415121D01*
X26118820Y8581390D01*
X26116584Y8584692D01*
X26115822Y8588603D01*
X26116584Y8592464D01*
X26118820Y8595766D01*
X26122071Y8597950D01*
X26125982Y8598763D01*
X27180794Y8598763D01*
X27184705Y8597950D01*
X27188007Y8595766D01*
X27346097Y8437676D01*
X27348484Y8433866D01*
X27348992Y8429396D01*
X27347519Y8425180D01*
X27344420Y8421928D01*
X27340153Y8420404D01*
X27334057Y8419642D01*
X27319986Y8416036D01*
X27306473Y8410651D01*
X27293722Y8403640D01*
X27281936Y8395106D01*
X27271319Y8385149D01*
X27262023Y8373922D01*
X27254250Y8361629D01*
X27248053Y8348472D01*
X27243532Y8334603D01*
X27240839Y8320328D01*
X27239925Y8305800D01*
X27240839Y8291271D01*
X27243532Y8276996D01*
X27248053Y8263128D01*
X27254250Y8249970D01*
X27259330Y8241944D01*
X27260854Y8237880D01*
X27260499Y8233613D01*
X27258416Y8229803D01*
X27254962Y8227263D01*
X27250745Y8226348D01*
X27206803Y8226348D01*
X27202638Y8227263D01*
X27199183Y8229803D01*
X27197100Y8233613D01*
X27196745Y8237880D01*
X27198269Y8241944D01*
X27203349Y8249970D01*
X27209546Y8263128D01*
X27214068Y8276996D01*
X27216760Y8291271D01*
X27217674Y8305800D01*
X27216760Y8320328D01*
X27214068Y8334603D01*
X27209546Y8348472D01*
X27203349Y8361629D01*
X27195576Y8373922D01*
X27186280Y8385149D01*
X27175663Y8395106D01*
X27163877Y8403640D01*
X27151126Y8410651D01*
X27137614Y8416036D01*
X27123491Y8419642D01*
X27109064Y8421471D01*
X27094535Y8421471D01*
X27080057Y8419642D01*
X27065986Y8416036D01*
X27052473Y8410651D01*
X27039722Y8403640D01*
X27027936Y8395106D01*
X27017319Y8385149D01*
X27008023Y8373922D01*
X27000250Y8361629D01*
X26994053Y8348472D01*
X26989532Y8334603D01*
X26986839Y8320328D01*
X26985925Y8305800D01*
X26986839Y8291271D01*
X26989532Y8276996D01*
X26994053Y8263128D01*
X27000250Y8249970D01*
X27005330Y8241944D01*
X27006854Y8237880D01*
X27006499Y8233613D01*
X27004416Y8229803D01*
X27000962Y8227263D01*
X26996745Y8226348D01*
X26952803Y8226348D01*
X26948638Y8227263D01*
X26945183Y8229803D01*
X26943100Y8233613D01*
X26942745Y8237880D01*
X26944269Y8241944D01*
X26949349Y8249970D01*
X26951482Y8254441D01*
X26899158Y8254441D01*
X26899158Y8236508D01*
X26898396Y8232597D01*
X26896161Y8229295D01*
X26892859Y8227110D01*
X26888998Y8226348D01*
X26806601Y8226348D01*
X26802740Y8227110D01*
X26799438Y8229295D01*
X26797203Y8232597D01*
X26796441Y8236508D01*
X26796441Y8254441D01*
X26744117Y8254441D01*
X26746250Y8249970D01*
X26751330Y8241944D01*
X26752854Y8237880D01*
X26752499Y8233613D01*
X26750416Y8229803D01*
X26746962Y8227263D01*
X26742745Y8226348D01*
X26698803Y8226348D01*
X26694638Y8227263D01*
X26691183Y8229803D01*
X26689100Y8233613D01*
X26688745Y8237880D01*
X26690269Y8241944D01*
X26695349Y8249970D01*
X26701546Y8263128D01*
X26706068Y8276996D01*
X26708760Y8291271D01*
X26709674Y8305800D01*
X26708760Y8320328D01*
X26706068Y8334603D01*
X26701546Y8348472D01*
X26695349Y8361629D01*
X26687576Y8373922D01*
X26678280Y8385149D01*
X26667663Y8395106D01*
X26655877Y8403640D01*
X26643126Y8410651D01*
X26629614Y8416036D01*
X26615491Y8419642D01*
X26601064Y8421471D01*
X26586535Y8421471D01*
X26572057Y8419642D01*
X26557986Y8416036D01*
X26544473Y8410651D01*
X26531722Y8403640D01*
X26519936Y8395106D01*
X26509319Y8385149D01*
X26500023Y8373922D01*
X26492250Y8361629D01*
X26486053Y8348472D01*
X26481532Y8334603D01*
X26478839Y8320328D01*
X26477925Y8305800D01*
X26478839Y8291271D01*
X26481532Y8276996D01*
X26486053Y8263128D01*
X26492250Y8249970D01*
X26497330Y8241944D01*
X26498854Y8237880D01*
X26498499Y8233613D01*
X26496416Y8229803D01*
X26492962Y8227263D01*
X26488745Y8226348D01*
G37*

%LPC*%
G36*
X26899158Y8357158D02*
G01*
X26951482Y8357158D01*
X26949349Y8361629D01*
X26941576Y8373922D01*
X26932280Y8385149D01*
X26921663Y8395106D01*
X26909877Y8403640D01*
X26899158Y8409584D01*
G37*
G36*
X26744117Y8357158D02*
G01*
X26796441Y8357158D01*
X26796441Y8409584D01*
X26785722Y8403640D01*
X26773936Y8395106D01*
X26763319Y8385149D01*
X26754023Y8373922D01*
X26746250Y8361629D01*
G37*

%LPD*%
G36*
X28842055Y8217408D02*
G01*
X28838194Y8218170D01*
X28834892Y8220405D01*
X28831438Y8223859D01*
X28829203Y8227161D01*
X28828441Y8231073D01*
X28828441Y8254441D01*
X28807410Y8254441D01*
X28803549Y8255253D01*
X28800247Y8257438D01*
X28798062Y8260740D01*
X28797250Y8264601D01*
X28797250Y8335619D01*
X28798062Y8339531D01*
X28800247Y8342782D01*
X28801669Y8344204D01*
X28807664Y8352840D01*
X28809950Y8355126D01*
X28812794Y8356650D01*
X28815995Y8357158D01*
X28828441Y8357158D01*
X28828441Y8409584D01*
X28820516Y8405215D01*
X28817011Y8404047D01*
X28813302Y8404199D01*
X28809950Y8405672D01*
X28807308Y8408263D01*
X28801161Y8417052D01*
X28799485Y8421116D01*
X28799637Y8425535D01*
X28801669Y8429447D01*
X28805174Y8432088D01*
X28809492Y8433054D01*
X28833724Y8433054D01*
X28836162Y8432546D01*
X28838601Y8433054D01*
X28920998Y8433054D01*
X28923437Y8432546D01*
X28925875Y8433054D01*
X28969715Y8433054D01*
X28973780Y8432190D01*
X28977183Y8429752D01*
X28979317Y8426145D01*
X28979825Y8422030D01*
X28979164Y8414613D01*
X28978453Y8411667D01*
X28976929Y8409076D01*
X28974745Y8406384D01*
X28969004Y8395411D01*
X28965753Y8392871D01*
X28961791Y8391804D01*
X28957777Y8392414D01*
X28953663Y8395106D01*
X28941877Y8403640D01*
X28931158Y8409584D01*
X28931158Y8357158D01*
X28958032Y8357158D01*
X28961892Y8356396D01*
X28965194Y8354161D01*
X28967430Y8350910D01*
X28968192Y8346998D01*
X28968192Y8264601D01*
X28967430Y8260740D01*
X28965194Y8257438D01*
X28961892Y8255253D01*
X28958032Y8254441D01*
X28931158Y8254441D01*
X28931158Y8227568D01*
X28930396Y8223707D01*
X28928161Y8220405D01*
X28924859Y8218170D01*
X28920998Y8217408D01*
G37*

%LPD*%
G36*
X27568601Y8217408D02*
G01*
X27564740Y8218170D01*
X27561438Y8220405D01*
X27559203Y8223707D01*
X27558441Y8227568D01*
X27558441Y8254441D01*
X27531517Y8254441D01*
X27527605Y8255253D01*
X27524303Y8257438D01*
X27522119Y8260740D01*
X27521357Y8264601D01*
X27521357Y8346998D01*
X27522119Y8350910D01*
X27524303Y8354161D01*
X27527605Y8356396D01*
X27531517Y8357158D01*
X27558441Y8357158D01*
X27558441Y8409584D01*
X27547722Y8403640D01*
X27535936Y8395106D01*
X27525319Y8385149D01*
X27521204Y8381542D01*
X27517140Y8380475D01*
X27513026Y8381187D01*
X27509520Y8383473D01*
X27243887Y8649106D01*
X27241652Y8652408D01*
X27240890Y8656269D01*
X27241652Y8660180D01*
X27243887Y8663482D01*
X27247138Y8665667D01*
X27251050Y8666429D01*
X27691181Y8666429D01*
X27695042Y8665667D01*
X27698344Y8663482D01*
X27703881Y8657945D01*
X27710130Y8652814D01*
X27716784Y8649258D01*
X27723998Y8647074D01*
X27732024Y8646261D01*
X28125115Y8646261D01*
X28129026Y8645499D01*
X28132328Y8643315D01*
X28134513Y8640013D01*
X28135275Y8636101D01*
X28134513Y8632240D01*
X28132328Y8628938D01*
X27918511Y8415121D01*
X27915260Y8412937D01*
X27911450Y8412175D01*
X27907589Y8412886D01*
X27899614Y8416036D01*
X27885491Y8419642D01*
X27871064Y8421471D01*
X27856535Y8421471D01*
X27842057Y8419642D01*
X27827986Y8416036D01*
X27814473Y8410651D01*
X27801722Y8403640D01*
X27789936Y8395106D01*
X27779319Y8385149D01*
X27770023Y8373922D01*
X27762250Y8361629D01*
X27756053Y8348472D01*
X27751532Y8334603D01*
X27748839Y8320328D01*
X27747925Y8305800D01*
X27748839Y8291271D01*
X27751532Y8276996D01*
X27756053Y8263128D01*
X27762250Y8249970D01*
X27770023Y8237677D01*
X27773071Y8234070D01*
X27774900Y8230717D01*
X27775357Y8226958D01*
X27774392Y8223250D01*
X27772156Y8220151D01*
X27768956Y8218119D01*
X27765197Y8217408D01*
X27708352Y8217408D01*
X27704643Y8218119D01*
X27701443Y8220151D01*
X27699157Y8223250D01*
X27698242Y8226958D01*
X27698700Y8230717D01*
X27700528Y8234070D01*
X27703576Y8237677D01*
X27711349Y8249970D01*
X27713482Y8254441D01*
X27661158Y8254441D01*
X27661158Y8227568D01*
X27660396Y8223707D01*
X27658161Y8220405D01*
X27654859Y8218170D01*
X27650998Y8217408D01*
G37*

%LPC*%
G36*
X27661158Y8357158D02*
G01*
X27713482Y8357158D01*
X27711349Y8361629D01*
X27703576Y8373922D01*
X27694280Y8385149D01*
X27683663Y8395106D01*
X27671877Y8403640D01*
X27661158Y8409584D01*
G37*

%LPD*%
G36*
X25917448Y7949488D02*
G01*
X25913537Y7950301D01*
X25910184Y7952536D01*
X25908000Y7955940D01*
X25907288Y7959852D01*
X25908203Y7963814D01*
X25910489Y7967065D01*
X25916280Y7972501D01*
X25925576Y7983677D01*
X25933349Y7995970D01*
X25939546Y8009128D01*
X25944068Y8022996D01*
X25946760Y8037271D01*
X25947674Y8051800D01*
X25946760Y8066328D01*
X25944068Y8080603D01*
X25939546Y8094472D01*
X25933349Y8107629D01*
X25925576Y8119922D01*
X25916280Y8131149D01*
X25905663Y8141106D01*
X25893877Y8149640D01*
X25881126Y8156651D01*
X25867614Y8162036D01*
X25853491Y8165642D01*
X25839064Y8167471D01*
X25824535Y8167471D01*
X25810057Y8165642D01*
X25795986Y8162036D01*
X25782473Y8156651D01*
X25769722Y8149640D01*
X25757936Y8141106D01*
X25754685Y8138058D01*
X25751383Y8135975D01*
X25747573Y8135315D01*
X25743763Y8136128D01*
X25740563Y8138261D01*
X25714909Y8163966D01*
X25712724Y8167166D01*
X25711912Y8170976D01*
X25712572Y8174786D01*
X25714655Y8178088D01*
X25717754Y8180324D01*
X25723951Y8183219D01*
X25731927Y8188807D01*
X25738886Y8195767D01*
X25744474Y8203742D01*
X25747116Y8209432D01*
X25749808Y8212937D01*
X25753771Y8214969D01*
X25758241Y8215122D01*
X25762305Y8213344D01*
X25769722Y8207959D01*
X25780441Y8202066D01*
X25780441Y8254441D01*
X25753466Y8254441D01*
X25750266Y8255000D01*
X25747370Y8256473D01*
X25745135Y8258860D01*
X25738836Y8267903D01*
X25737464Y8269325D01*
X25735280Y8272576D01*
X25734467Y8276488D01*
X25734467Y8346998D01*
X25735280Y8350910D01*
X25737464Y8354161D01*
X25740766Y8356396D01*
X25744627Y8357158D01*
X25780441Y8357158D01*
X25780441Y8409584D01*
X25769722Y8403640D01*
X25757936Y8395106D01*
X25747319Y8385149D01*
X25744017Y8381136D01*
X25740461Y8378393D01*
X25736143Y8377428D01*
X25731825Y8378393D01*
X25728320Y8381136D01*
X25722834Y8387842D01*
X25628447Y8482228D01*
X25626212Y8485530D01*
X25625450Y8489442D01*
X25626212Y8493302D01*
X25628447Y8496604D01*
X25631698Y8498789D01*
X25635610Y8499602D01*
X26003910Y8499602D01*
X26007771Y8498789D01*
X26011073Y8496604D01*
X26070712Y8437016D01*
X26073100Y8433206D01*
X26073608Y8428736D01*
X26072134Y8424468D01*
X26068985Y8421268D01*
X26064057Y8419642D01*
X26049986Y8416036D01*
X26036473Y8410651D01*
X26023722Y8403640D01*
X26011936Y8395106D01*
X26001319Y8385149D01*
X25992023Y8373922D01*
X25984250Y8361629D01*
X25978053Y8348472D01*
X25973532Y8334603D01*
X25970839Y8320328D01*
X25969925Y8305800D01*
X25970839Y8291271D01*
X25973532Y8276996D01*
X25978053Y8263128D01*
X25984250Y8249970D01*
X25992023Y8237677D01*
X26001319Y8226501D01*
X26011936Y8216493D01*
X26023722Y8207959D01*
X26036473Y8200948D01*
X26049986Y8195614D01*
X26064057Y8191957D01*
X26078535Y8190128D01*
X26093064Y8190128D01*
X26107491Y8191957D01*
X26121614Y8195614D01*
X26135126Y8200948D01*
X26147877Y8207959D01*
X26159663Y8216493D01*
X26170483Y8226704D01*
X26173633Y8228685D01*
X26177239Y8229447D01*
X26180897Y8228838D01*
X26184098Y8226958D01*
X26186434Y8224062D01*
X26189635Y8218068D01*
X26194766Y8211820D01*
X26245769Y8160766D01*
X26252017Y8155686D01*
X26258265Y8152333D01*
X26261263Y8149894D01*
X26263142Y8146592D01*
X26263650Y8142782D01*
X26262685Y8139074D01*
X26260450Y8135975D01*
X26255319Y8131149D01*
X26246023Y8119922D01*
X26238250Y8107629D01*
X26236117Y8103158D01*
X26288441Y8103158D01*
X26288441Y8138972D01*
X26289203Y8142833D01*
X26291438Y8146135D01*
X26294740Y8148320D01*
X26298601Y8149132D01*
X26380998Y8149132D01*
X26384859Y8148320D01*
X26388161Y8146135D01*
X26390396Y8142833D01*
X26391158Y8138972D01*
X26391158Y8103158D01*
X26443482Y8103158D01*
X26441349Y8107629D01*
X26433576Y8119922D01*
X26423823Y8131556D01*
X26421486Y8134807D01*
X26420622Y8138769D01*
X26421334Y8142681D01*
X26423518Y8146084D01*
X26426871Y8148320D01*
X26430782Y8149132D01*
X26502817Y8149132D01*
X26506728Y8148320D01*
X26510081Y8146084D01*
X26512265Y8142681D01*
X26512977Y8138769D01*
X26512062Y8134807D01*
X26509319Y8131149D01*
X26500023Y8119922D01*
X26492250Y8107629D01*
X26486053Y8094472D01*
X26481532Y8080603D01*
X26478839Y8066328D01*
X26477925Y8051800D01*
X26478839Y8037271D01*
X26481532Y8022996D01*
X26486053Y8009128D01*
X26492250Y7995970D01*
X26500023Y7983677D01*
X26509319Y7972501D01*
X26515060Y7967065D01*
X26517396Y7963814D01*
X26518260Y7959852D01*
X26517549Y7955940D01*
X26515364Y7952536D01*
X26512062Y7950301D01*
X26508151Y7949488D01*
X26425448Y7949488D01*
X26421537Y7950301D01*
X26418184Y7952536D01*
X26416000Y7955940D01*
X26415288Y7959852D01*
X26416203Y7963814D01*
X26418489Y7967065D01*
X26424280Y7972501D01*
X26433576Y7983677D01*
X26441349Y7995970D01*
X26443482Y8000441D01*
X26391158Y8000441D01*
X26391158Y7959648D01*
X26390396Y7955788D01*
X26388161Y7952486D01*
X26384859Y7950250D01*
X26380998Y7949488D01*
X26298601Y7949488D01*
X26294740Y7950250D01*
X26291438Y7952486D01*
X26289203Y7955788D01*
X26288441Y7959648D01*
X26288441Y8000441D01*
X26236117Y8000441D01*
X26238250Y7995970D01*
X26246023Y7983677D01*
X26255319Y7972501D01*
X26261060Y7967065D01*
X26263396Y7963814D01*
X26264260Y7959852D01*
X26263549Y7955940D01*
X26261364Y7952536D01*
X26258062Y7950301D01*
X26254151Y7949488D01*
X26171448Y7949488D01*
X26167537Y7950301D01*
X26164184Y7952536D01*
X26162000Y7955940D01*
X26161288Y7959852D01*
X26162203Y7963814D01*
X26164489Y7967065D01*
X26170280Y7972501D01*
X26179576Y7983677D01*
X26187349Y7995970D01*
X26193546Y8009128D01*
X26198068Y8022996D01*
X26200760Y8037271D01*
X26201674Y8051800D01*
X26200760Y8066328D01*
X26198068Y8080603D01*
X26193546Y8094472D01*
X26187349Y8107629D01*
X26179576Y8119922D01*
X26170280Y8131149D01*
X26159663Y8141106D01*
X26147877Y8149640D01*
X26135126Y8156651D01*
X26121614Y8162036D01*
X26107491Y8165642D01*
X26093064Y8167471D01*
X26078535Y8167471D01*
X26064057Y8165642D01*
X26049986Y8162036D01*
X26036473Y8156651D01*
X26023722Y8149640D01*
X26011936Y8141106D01*
X26001319Y8131149D01*
X25992023Y8119922D01*
X25984250Y8107629D01*
X25978053Y8094472D01*
X25973532Y8080603D01*
X25970839Y8066328D01*
X25969925Y8051800D01*
X25970839Y8037271D01*
X25973532Y8022996D01*
X25978053Y8009128D01*
X25984250Y7995970D01*
X25992023Y7983677D01*
X26001319Y7972501D01*
X26007060Y7967065D01*
X26009396Y7963814D01*
X26010260Y7959852D01*
X26009549Y7955940D01*
X26007364Y7952536D01*
X26004062Y7950301D01*
X26000151Y7949488D01*
G37*

%LPC*%
G36*
X25883158Y8202066D02*
G01*
X25893877Y8207959D01*
X25905663Y8216493D01*
X25916280Y8226501D01*
X25925576Y8237677D01*
X25933349Y8249970D01*
X25935482Y8254441D01*
X25883158Y8254441D01*
G37*
G36*
X25883158Y8357158D02*
G01*
X25935482Y8357158D01*
X25933349Y8361629D01*
X25925576Y8373922D01*
X25916280Y8385149D01*
X25905663Y8395106D01*
X25893877Y8403640D01*
X25883158Y8409584D01*
G37*

%LPD*%
G36*
X28203448Y7949488D02*
G01*
X28199537Y7950301D01*
X28196184Y7952536D01*
X28194000Y7955940D01*
X28193288Y7959852D01*
X28194203Y7963814D01*
X28196489Y7967065D01*
X28202280Y7972501D01*
X28211576Y7983677D01*
X28219349Y7995970D01*
X28225546Y8009128D01*
X28230068Y8022996D01*
X28232760Y8037271D01*
X28233674Y8051800D01*
X28232760Y8066328D01*
X28230068Y8080603D01*
X28225546Y8094472D01*
X28219349Y8107629D01*
X28211576Y8119922D01*
X28202280Y8131149D01*
X28191663Y8141106D01*
X28179877Y8149640D01*
X28167126Y8156651D01*
X28153614Y8162036D01*
X28139491Y8165642D01*
X28125064Y8167471D01*
X28110535Y8167471D01*
X28096057Y8165642D01*
X28081986Y8162036D01*
X28074010Y8158886D01*
X28070149Y8158124D01*
X28066339Y8158937D01*
X28063088Y8161121D01*
X28018435Y8205774D01*
X28012186Y8210854D01*
X28005532Y8214410D01*
X27998318Y8216646D01*
X27990292Y8217408D01*
X27962352Y8217408D01*
X27958643Y8218119D01*
X27955443Y8220151D01*
X27953157Y8223250D01*
X27952242Y8226958D01*
X27952700Y8230717D01*
X27954528Y8234070D01*
X27957576Y8237677D01*
X27965349Y8249970D01*
X27971546Y8263128D01*
X27976068Y8276996D01*
X27978760Y8291271D01*
X27979674Y8305800D01*
X27978760Y8320328D01*
X27976068Y8334603D01*
X27971546Y8348472D01*
X27970276Y8353145D01*
X27970988Y8357209D01*
X27973223Y8360664D01*
X28211983Y8599424D01*
X28215285Y8601608D01*
X28219146Y8602370D01*
X29404970Y8602370D01*
X29412996Y8603183D01*
X29420210Y8605367D01*
X29426865Y8608923D01*
X29433113Y8614054D01*
X29533189Y8714079D01*
X29536389Y8716264D01*
X29540200Y8717076D01*
X29544010Y8716365D01*
X29554677Y8712250D01*
X29568952Y8708694D01*
X29583634Y8706866D01*
X29598365Y8706866D01*
X29613047Y8708694D01*
X29627322Y8712250D01*
X29641088Y8717584D01*
X29654093Y8724595D01*
X29666133Y8733129D01*
X29677055Y8743035D01*
X29686656Y8754262D01*
X29694784Y8766556D01*
X29701388Y8779764D01*
X29706315Y8793683D01*
X29709465Y8808110D01*
X29710837Y8822791D01*
X29710380Y8837574D01*
X29708094Y8852154D01*
X29704030Y8866327D01*
X29698289Y8879941D01*
X29690923Y8892692D01*
X29682033Y8904478D01*
X29671772Y8915095D01*
X29660240Y8924340D01*
X29647692Y8932113D01*
X29634281Y8938260D01*
X29620260Y8942730D01*
X29605732Y8945473D01*
X29591000Y8946388D01*
X29576268Y8945473D01*
X29561739Y8942730D01*
X29547718Y8938260D01*
X29534307Y8932113D01*
X29521759Y8924340D01*
X29510227Y8915095D01*
X29499966Y8904478D01*
X29491076Y8892692D01*
X29483710Y8879941D01*
X29477970Y8866327D01*
X29473906Y8852154D01*
X29471620Y8837574D01*
X29471213Y8822791D01*
X29472534Y8808110D01*
X29475684Y8793683D01*
X29480865Y8779154D01*
X29481424Y8775395D01*
X29480560Y8771686D01*
X29478427Y8768588D01*
X29392473Y8682583D01*
X29389171Y8680348D01*
X29385260Y8679586D01*
X29048405Y8679586D01*
X29044087Y8680551D01*
X29040582Y8683294D01*
X29038550Y8687257D01*
X29038448Y8691727D01*
X29040226Y8695791D01*
X29044493Y8699195D01*
X29056533Y8707729D01*
X29067455Y8717635D01*
X29077056Y8728862D01*
X29085184Y8741156D01*
X29091788Y8754364D01*
X29096715Y8768283D01*
X29099865Y8782710D01*
X29101237Y8797391D01*
X29100780Y8812174D01*
X29098494Y8826754D01*
X29094430Y8840927D01*
X29088689Y8854541D01*
X29081323Y8867292D01*
X29078682Y8870848D01*
X29076802Y8874912D01*
X29076903Y8879382D01*
X29078885Y8883396D01*
X29082390Y8886139D01*
X29086759Y8887104D01*
X29255669Y8887104D01*
X29259580Y8886342D01*
X29262882Y8884158D01*
X29268775Y8878214D01*
X29270807Y8875318D01*
X29271722Y8871915D01*
X29272382Y8864193D01*
X29274922Y8854744D01*
X29279088Y8845854D01*
X29284676Y8837879D01*
X29291584Y8830919D01*
X29299611Y8825331D01*
X29308450Y8821216D01*
X29317899Y8818676D01*
X29327652Y8817813D01*
X29337406Y8818676D01*
X29346855Y8821216D01*
X29355745Y8825331D01*
X29363720Y8830919D01*
X29370680Y8837879D01*
X29376268Y8845854D01*
X29380383Y8854744D01*
X29382923Y8864193D01*
X29383278Y8868003D01*
X29384447Y8871966D01*
X29387088Y8875115D01*
X29390746Y8876944D01*
X29400906Y8879687D01*
X29409796Y8883802D01*
X29417772Y8889390D01*
X29424731Y8896350D01*
X29430319Y8904325D01*
X29434434Y8913215D01*
X29436974Y8922664D01*
X29437838Y8932418D01*
X29436974Y8942171D01*
X29434434Y8951620D01*
X29430319Y8960459D01*
X29424731Y8968486D01*
X29417772Y8975394D01*
X29409796Y8980982D01*
X29400906Y8985148D01*
X29391457Y8987688D01*
X29383736Y8988348D01*
X29380332Y8989263D01*
X29377436Y8991295D01*
X29375252Y8993479D01*
X29369003Y8998559D01*
X29362349Y9002115D01*
X29355135Y9004350D01*
X29347109Y9005112D01*
X28388411Y9005112D01*
X28380385Y9004350D01*
X28373171Y9002115D01*
X28366516Y8998559D01*
X28360268Y8993479D01*
X28329889Y8963050D01*
X28326181Y8960713D01*
X28321812Y8960104D01*
X28317596Y8961475D01*
X28314345Y8964422D01*
X28311805Y8968079D01*
X28304896Y8974988D01*
X28296870Y8980576D01*
X28288030Y8984742D01*
X28278582Y8987282D01*
X28268828Y8988094D01*
X28259074Y8987282D01*
X28255417Y8986266D01*
X28251048Y8986062D01*
X28247035Y8987739D01*
X28244038Y8990888D01*
X28242666Y8995054D01*
X28243174Y8999372D01*
X28244241Y9002623D01*
X28246933Y9016034D01*
X28247848Y9029700D01*
X28246933Y9043365D01*
X28244241Y9056776D01*
X28239872Y9069730D01*
X28233827Y9082024D01*
X28226207Y9093403D01*
X28217164Y9103664D01*
X28206903Y9112707D01*
X28195524Y9120327D01*
X28183230Y9126372D01*
X28170276Y9130741D01*
X28156865Y9133433D01*
X28143200Y9134348D01*
X28129534Y9133433D01*
X28116123Y9130741D01*
X28103169Y9126372D01*
X28090876Y9120327D01*
X28079496Y9112707D01*
X28074315Y9108135D01*
X28071165Y9106255D01*
X28067609Y9105595D01*
X27964790Y9105595D01*
X27961234Y9106255D01*
X27958084Y9108135D01*
X27952903Y9112707D01*
X27941524Y9120327D01*
X27929230Y9126372D01*
X27916276Y9130741D01*
X27902865Y9133433D01*
X27889200Y9134348D01*
X27875534Y9133433D01*
X27862123Y9130741D01*
X27849169Y9126372D01*
X27836876Y9120327D01*
X27825496Y9112707D01*
X27820315Y9108135D01*
X27817165Y9106255D01*
X27813609Y9105595D01*
X27789428Y9105595D01*
X27785415Y9106458D01*
X27782012Y9108846D01*
X27779878Y9112351D01*
X27779319Y9116466D01*
X27780386Y9120428D01*
X27782977Y9123629D01*
X27787041Y9126931D01*
X27843175Y9183065D01*
X27846274Y9185198D01*
X27849931Y9186062D01*
X27853639Y9185503D01*
X27862123Y9182658D01*
X27875534Y9179966D01*
X27889200Y9179052D01*
X27902865Y9179966D01*
X27916276Y9182658D01*
X27929230Y9187027D01*
X27941524Y9193072D01*
X27952903Y9200692D01*
X27963164Y9209735D01*
X27972207Y9219996D01*
X27979827Y9231376D01*
X27985872Y9243669D01*
X27989885Y9255556D01*
X27992120Y9259265D01*
X27995626Y9261703D01*
X27999842Y9262465D01*
X28004008Y9261398D01*
X28007360Y9258757D01*
X28009291Y9256420D01*
X28015133Y9251645D01*
X28021788Y9248089D01*
X28032964Y9244838D01*
X28035910Y9242552D01*
X28037891Y9239402D01*
X28038552Y9235744D01*
X28038552Y9205518D01*
X28039263Y9199219D01*
X28041193Y9193733D01*
X28044241Y9188856D01*
X28048356Y9184741D01*
X28053233Y9181693D01*
X28058719Y9179763D01*
X28065018Y9179052D01*
X28221381Y9179052D01*
X28227680Y9179763D01*
X28233166Y9181693D01*
X28238043Y9184741D01*
X28242158Y9188856D01*
X28245206Y9193733D01*
X28247136Y9199219D01*
X28247848Y9205518D01*
X28247848Y9361881D01*
X28247136Y9368180D01*
X28245206Y9373666D01*
X28242158Y9378543D01*
X28238043Y9382658D01*
X28233166Y9385706D01*
X28227680Y9387636D01*
X28221381Y9388348D01*
X28065018Y9388348D01*
X28058719Y9387636D01*
X28053233Y9385706D01*
X28048356Y9382658D01*
X28044241Y9378543D01*
X28042819Y9376257D01*
X28040380Y9373565D01*
X28037129Y9371939D01*
X28033522Y9371533D01*
X28030017Y9372396D01*
X28027020Y9374479D01*
X27975966Y9425533D01*
X27969718Y9430664D01*
X27963063Y9434220D01*
X27955849Y9436404D01*
X27947823Y9437217D01*
X25997966Y9437217D01*
X25989940Y9436404D01*
X25982726Y9434220D01*
X25976072Y9430664D01*
X25969823Y9425533D01*
X25609092Y9064802D01*
X25605994Y9062669D01*
X25602285Y9061856D01*
X25598577Y9062415D01*
X25592074Y9064650D01*
X25578714Y9067393D01*
X25565100Y9068308D01*
X25551485Y9067393D01*
X25538125Y9064650D01*
X25525222Y9060180D01*
X25513080Y9054033D01*
X25501854Y9046311D01*
X25491694Y9037167D01*
X25482905Y9026753D01*
X25475590Y9015272D01*
X25469850Y9002877D01*
X25465786Y8989872D01*
X25463550Y8976410D01*
X25463093Y8962796D01*
X25464414Y8949232D01*
X25467614Y8935974D01*
X25472491Y8923223D01*
X25476708Y8915552D01*
X25477927Y8911590D01*
X25477419Y8907424D01*
X25475285Y8903817D01*
X25471882Y8901379D01*
X25467767Y8900515D01*
X25408432Y8900515D01*
X25404318Y8901379D01*
X25400914Y8903817D01*
X25398780Y8907424D01*
X25398272Y8911590D01*
X25399492Y8915552D01*
X25402895Y8921750D01*
X25355550Y8921750D01*
X25355550Y8910675D01*
X25354788Y8906814D01*
X25352552Y8903512D01*
X25349301Y8901277D01*
X25345390Y8900515D01*
X25276810Y8900515D01*
X25272898Y8901277D01*
X25269647Y8903512D01*
X25267412Y8906814D01*
X25266650Y8910675D01*
X25266650Y8921750D01*
X25219304Y8921750D01*
X25222708Y8915552D01*
X25223927Y8911590D01*
X25223419Y8907424D01*
X25221285Y8903817D01*
X25217882Y8901379D01*
X25213767Y8900515D01*
X24922226Y8900515D01*
X24918568Y8901226D01*
X24915368Y8903157D01*
X24913132Y8906103D01*
X24912116Y8909659D01*
X24912421Y8913368D01*
X24915317Y8923985D01*
X24916180Y8933688D01*
X24915317Y8943441D01*
X24912777Y8952890D01*
X24908662Y8961780D01*
X24903023Y8969756D01*
X24896114Y8976664D01*
X24888088Y8982303D01*
X24879249Y8986418D01*
X24869800Y8988958D01*
X24860046Y8989822D01*
X24850293Y8988958D01*
X24840844Y8986418D01*
X24831954Y8982303D01*
X24823978Y8976664D01*
X24822556Y8975293D01*
X24819254Y8973058D01*
X24815393Y8972296D01*
X23501096Y8972296D01*
X23493069Y8971534D01*
X23485805Y8969298D01*
X23479150Y8965742D01*
X23472902Y8960662D01*
X22944124Y8431834D01*
X22941026Y8429701D01*
X22937368Y8428837D01*
X22933660Y8429396D01*
X22925176Y8432241D01*
X22911765Y8434933D01*
X22898100Y8435848D01*
X22884434Y8434933D01*
X22871023Y8432241D01*
X22858069Y8427872D01*
X22845776Y8421827D01*
X22834396Y8414207D01*
X22824135Y8405164D01*
X22815092Y8394903D01*
X22807472Y8383524D01*
X22803510Y8375497D01*
X22801275Y8372500D01*
X22798125Y8370519D01*
X22794417Y8369808D01*
X22747782Y8369808D01*
X22744074Y8370519D01*
X22740924Y8372500D01*
X22738689Y8375497D01*
X22734727Y8383524D01*
X22727107Y8394903D01*
X22718064Y8405164D01*
X22707803Y8414207D01*
X22696424Y8421827D01*
X22684130Y8427872D01*
X22671176Y8432241D01*
X22657765Y8434933D01*
X22644100Y8435848D01*
X22630434Y8434933D01*
X22617023Y8432241D01*
X22604069Y8427872D01*
X22591776Y8421827D01*
X22580396Y8414207D01*
X22570135Y8405164D01*
X22568154Y8402929D01*
X22564902Y8400491D01*
X22560991Y8399475D01*
X22556927Y8400135D01*
X22553472Y8402320D01*
X22551186Y8405672D01*
X22550374Y8409635D01*
X22550374Y13209625D01*
X22551288Y13228015D01*
X22553879Y13244931D01*
X22558044Y13261492D01*
X22563836Y13277545D01*
X22571202Y13292937D01*
X22580041Y13307568D01*
X22590252Y13321284D01*
X22601732Y13333882D01*
X22614432Y13345312D01*
X22628199Y13355472D01*
X22642830Y13364210D01*
X22658324Y13371474D01*
X22674427Y13377163D01*
X22690988Y13381278D01*
X22707904Y13383717D01*
X22725329Y13384580D01*
X30823560Y13384580D01*
X30842000Y13383615D01*
X30858866Y13381075D01*
X30875427Y13376859D01*
X30891480Y13371068D01*
X30906923Y13363701D01*
X30921553Y13354913D01*
X30935218Y13344702D01*
X30947868Y13333171D01*
X30959298Y13320471D01*
X30969407Y13306755D01*
X30978144Y13292074D01*
X30985409Y13276630D01*
X30991149Y13260527D01*
X30995213Y13243915D01*
X30997702Y13227050D01*
X30998515Y13209625D01*
X30998515Y12650622D01*
X30997550Y12646253D01*
X30994705Y12642697D01*
X30993842Y12642291D01*
X30995569Y12641122D01*
X30997753Y12637871D01*
X30998515Y12633960D01*
X30998515Y12562840D01*
X30997753Y12558928D01*
X30995569Y12555677D01*
X30993842Y12554508D01*
X30994705Y12554102D01*
X30997550Y12550546D01*
X30998515Y12546177D01*
X30998515Y12396622D01*
X30997550Y12392253D01*
X30994705Y12388697D01*
X30990692Y12386767D01*
X30986171Y12386716D01*
X30982107Y12388646D01*
X30979262Y12392152D01*
X30977027Y12396724D01*
X30969407Y12408103D01*
X30960364Y12418364D01*
X30950103Y12427407D01*
X30938724Y12435027D01*
X30926430Y12441072D01*
X30913476Y12445441D01*
X30900065Y12448133D01*
X30886400Y12449048D01*
X30872734Y12448133D01*
X30859323Y12445441D01*
X30846369Y12441072D01*
X30834076Y12435027D01*
X30822696Y12427407D01*
X30812435Y12418364D01*
X30803392Y12408103D01*
X30795772Y12396724D01*
X30789727Y12384430D01*
X30785358Y12371476D01*
X30782666Y12358065D01*
X30781752Y12344400D01*
X30782666Y12330734D01*
X30785358Y12317323D01*
X30789727Y12304369D01*
X30795772Y12292076D01*
X30803392Y12280696D01*
X30812435Y12270435D01*
X30822696Y12261392D01*
X30834076Y12253772D01*
X30846369Y12247727D01*
X30859323Y12243358D01*
X30872734Y12240666D01*
X30886400Y12239752D01*
X30900065Y12240666D01*
X30913476Y12243358D01*
X30926430Y12247727D01*
X30938724Y12253772D01*
X30950103Y12261392D01*
X30960364Y12270435D01*
X30969407Y12280696D01*
X30977027Y12292076D01*
X30979262Y12296648D01*
X30982107Y12300153D01*
X30986171Y12302083D01*
X30990692Y12302032D01*
X30994705Y12300102D01*
X30997550Y12296546D01*
X30998515Y12292177D01*
X30998515Y12196572D01*
X30997753Y12192711D01*
X30995569Y12189460D01*
X30992318Y12187224D01*
X30988457Y12186412D01*
X30984545Y12187174D01*
X30976366Y12192406D01*
X30970880Y12194336D01*
X30964581Y12195048D01*
X30808218Y12195048D01*
X30801919Y12194336D01*
X30796433Y12192406D01*
X30791556Y12189358D01*
X30787441Y12185243D01*
X30784393Y12180366D01*
X30782463Y12174880D01*
X30781752Y12168581D01*
X30781752Y12012218D01*
X30782463Y12005919D01*
X30784393Y12000433D01*
X30787441Y11995556D01*
X30791556Y11991441D01*
X30796433Y11988393D01*
X30801919Y11986463D01*
X30808218Y11985752D01*
X30964581Y11985752D01*
X30970880Y11986463D01*
X30976366Y11988393D01*
X30984545Y11993626D01*
X30988457Y11994388D01*
X30992318Y11993575D01*
X30995569Y11991340D01*
X30997753Y11988088D01*
X30998515Y11984228D01*
X30998515Y11387632D01*
X30997702Y11383670D01*
X30995416Y11380317D01*
X30991962Y11378133D01*
X30987949Y11377523D01*
X30983986Y11378488D01*
X30980735Y11380978D01*
X30973064Y11389664D01*
X30962803Y11398707D01*
X30951424Y11406327D01*
X30944820Y11409578D01*
X30944820Y11361420D01*
X30988355Y11361420D01*
X30992267Y11360658D01*
X30995569Y11358422D01*
X30997753Y11355171D01*
X30998515Y11351260D01*
X30998515Y11280140D01*
X30997753Y11276228D01*
X30995569Y11272977D01*
X30992267Y11270742D01*
X30988355Y11269980D01*
X30944820Y11269980D01*
X30944820Y11221821D01*
X30951424Y11225072D01*
X30962803Y11232692D01*
X30973064Y11241735D01*
X30980735Y11250422D01*
X30983986Y11252911D01*
X30987949Y11253876D01*
X30991962Y11253266D01*
X30995416Y11251082D01*
X30997702Y11247729D01*
X30998515Y11243767D01*
X30998515Y11133632D01*
X30997702Y11129670D01*
X30995416Y11126317D01*
X30991962Y11124133D01*
X30987949Y11123523D01*
X30983986Y11124488D01*
X30980735Y11126978D01*
X30973064Y11135664D01*
X30962803Y11144707D01*
X30951424Y11152327D01*
X30939130Y11158372D01*
X30926176Y11162741D01*
X30912765Y11165433D01*
X30899100Y11166348D01*
X30885434Y11165433D01*
X30872023Y11162741D01*
X30859069Y11158372D01*
X30846776Y11152327D01*
X30835396Y11144707D01*
X30825135Y11135664D01*
X30816092Y11125403D01*
X30808472Y11114024D01*
X30802427Y11101730D01*
X30798058Y11088776D01*
X30795366Y11075365D01*
X30794452Y11061700D01*
X30795366Y11048034D01*
X30798058Y11034623D01*
X30802427Y11021669D01*
X30808472Y11009376D01*
X30816092Y10997996D01*
X30825135Y10987735D01*
X30835396Y10978692D01*
X30846776Y10971072D01*
X30859069Y10965027D01*
X30872023Y10960658D01*
X30885434Y10957966D01*
X30899100Y10957052D01*
X30912765Y10957966D01*
X30926176Y10960658D01*
X30939130Y10965027D01*
X30951424Y10971072D01*
X30962803Y10978692D01*
X30973064Y10987735D01*
X30980735Y10996422D01*
X30983986Y10998911D01*
X30987949Y10999876D01*
X30991962Y10999266D01*
X30995416Y10997082D01*
X30997702Y10993729D01*
X30998515Y10989767D01*
X30998515Y10920730D01*
X30997804Y10916920D01*
X30995721Y10913719D01*
X30992572Y10911484D01*
X30988812Y10910570D01*
X30983580Y10911636D01*
X30977281Y10912348D01*
X30820918Y10912348D01*
X30814619Y10911636D01*
X30809133Y10909706D01*
X30804256Y10906658D01*
X30800141Y10902543D01*
X30797093Y10897666D01*
X30796077Y10894720D01*
X30793944Y10891215D01*
X30790642Y10888827D01*
X30786679Y10887913D01*
X30782666Y10888675D01*
X30779262Y10890910D01*
X30708600Y10961522D01*
X30701742Y10967212D01*
X30699760Y10968634D01*
X30692140Y10973206D01*
X30689905Y10974324D01*
X30681726Y10977727D01*
X30679389Y10978489D01*
X30670753Y10980623D01*
X30668315Y10981029D01*
X30659476Y10981842D01*
X30394706Y10981893D01*
X30391201Y10982553D01*
X30388102Y10984382D01*
X30385816Y10987176D01*
X30382108Y10993831D01*
X30371999Y11008258D01*
X30360365Y11021517D01*
X30347412Y11033455D01*
X30333289Y11043970D01*
X30318100Y11052962D01*
X30302047Y11060226D01*
X30285334Y11065764D01*
X30268113Y11069472D01*
X30250536Y11071352D01*
X30232959Y11071352D01*
X30215433Y11069472D01*
X30198161Y11065764D01*
X30181448Y11060226D01*
X30165395Y11052962D01*
X30150206Y11043970D01*
X30136084Y11033455D01*
X30123130Y11021517D01*
X30111496Y11008258D01*
X30101387Y10993831D01*
X30092853Y10978388D01*
X30085995Y10962182D01*
X30080864Y10945317D01*
X30077613Y10927994D01*
X30076190Y10910417D01*
X30076698Y10892790D01*
X30079035Y10875314D01*
X30083201Y10858195D01*
X30089195Y10841634D01*
X30096917Y10825734D01*
X30106264Y10810798D01*
X30117135Y10796930D01*
X30129429Y10784332D01*
X30142992Y10773054D01*
X30157674Y10763351D01*
X30173320Y10755223D01*
X30189728Y10748772D01*
X30206746Y10744149D01*
X30224171Y10741355D01*
X30241748Y10740390D01*
X30259324Y10741355D01*
X30276749Y10744149D01*
X30293767Y10748772D01*
X30310175Y10755223D01*
X30325822Y10763351D01*
X30340503Y10773054D01*
X30354066Y10784332D01*
X30366360Y10796930D01*
X30377231Y10810798D01*
X30386324Y10825327D01*
X30388610Y10827867D01*
X30391608Y10829544D01*
X30394960Y10830102D01*
X30621173Y10830102D01*
X30625084Y10829340D01*
X30628336Y10827105D01*
X30703367Y10752175D01*
X30712206Y10745114D01*
X30719826Y10740491D01*
X30730240Y10736021D01*
X30732577Y10735259D01*
X30741213Y10733074D01*
X30743601Y10732668D01*
X30752491Y10731855D01*
X30785104Y10731804D01*
X30789219Y10730941D01*
X30792623Y10728452D01*
X30794756Y10724845D01*
X30797144Y10717682D01*
X30800141Y10712856D01*
X30804256Y10708741D01*
X30809133Y10705693D01*
X30814619Y10703763D01*
X30820918Y10703052D01*
X30977281Y10703052D01*
X30983580Y10703763D01*
X30988812Y10704830D01*
X30992572Y10703915D01*
X30995721Y10701680D01*
X30997804Y10698480D01*
X30998515Y10694670D01*
X30998515Y9603282D01*
X30998058Y9601200D01*
X30998515Y9599117D01*
X30998515Y9349282D01*
X30998058Y9347200D01*
X30998515Y9345117D01*
X30998515Y9301683D01*
X30997753Y9297822D01*
X30995569Y9294520D01*
X30992267Y9292285D01*
X30988355Y9291523D01*
X30984494Y9292285D01*
X30981192Y9294520D01*
X30974385Y9301327D01*
X30972252Y9304375D01*
X30971388Y9308033D01*
X30971947Y9311741D01*
X30974741Y9320123D01*
X30977433Y9333534D01*
X30978246Y9345777D01*
X30978246Y9348622D01*
X30977433Y9360865D01*
X30974741Y9374276D01*
X30970372Y9387230D01*
X30964327Y9399524D01*
X30956707Y9410903D01*
X30947664Y9421164D01*
X30937403Y9430207D01*
X30926024Y9437827D01*
X30913730Y9443872D01*
X30900776Y9448241D01*
X30887365Y9450933D01*
X30873700Y9451848D01*
X30860034Y9450933D01*
X30846623Y9448241D01*
X30833669Y9443872D01*
X30821376Y9437827D01*
X30809996Y9430207D01*
X30799735Y9421164D01*
X30790692Y9410903D01*
X30783072Y9399524D01*
X30777027Y9387230D01*
X30772658Y9374276D01*
X30769966Y9360865D01*
X30769052Y9347200D01*
X30769966Y9333534D01*
X30772658Y9320123D01*
X30777027Y9307169D01*
X30783072Y9294876D01*
X30790692Y9283496D01*
X30799735Y9273235D01*
X30809996Y9264192D01*
X30821376Y9256572D01*
X30833669Y9250527D01*
X30846623Y9246158D01*
X30860034Y9243466D01*
X30873700Y9242552D01*
X30887365Y9243466D01*
X30900776Y9246158D01*
X30909412Y9249054D01*
X30913120Y9249613D01*
X30916727Y9248749D01*
X30919826Y9246616D01*
X30939028Y9227464D01*
X30941264Y9224162D01*
X30942026Y9220301D01*
X30942026Y9208008D01*
X30941264Y9204096D01*
X30939028Y9200845D01*
X30935777Y9198610D01*
X30931865Y9197848D01*
X30795518Y9197848D01*
X30789219Y9197136D01*
X30783733Y9195206D01*
X30778856Y9192158D01*
X30774741Y9188043D01*
X30771693Y9183166D01*
X30770677Y9180220D01*
X30768544Y9176715D01*
X30765242Y9174327D01*
X30761279Y9173413D01*
X30757266Y9174175D01*
X30753862Y9176410D01*
X30460492Y9469831D01*
X30458257Y9473082D01*
X30457495Y9476994D01*
X30457495Y10296144D01*
X30456987Y10303306D01*
X30460543Y10322915D01*
X30461458Y10337800D01*
X30460543Y10352684D01*
X30457800Y10367365D01*
X30453279Y10381538D01*
X30447030Y10395102D01*
X30439156Y10407802D01*
X30429809Y10419435D01*
X30419090Y10429798D01*
X30407203Y10438790D01*
X30394300Y10446258D01*
X30380584Y10452049D01*
X30366208Y10456113D01*
X30351476Y10458399D01*
X30336591Y10458856D01*
X30321707Y10457484D01*
X30307127Y10454335D01*
X30293106Y10449356D01*
X30279746Y10442702D01*
X30267300Y10434472D01*
X30255972Y10424769D01*
X30245913Y10413746D01*
X30237328Y10401554D01*
X30230267Y10388447D01*
X30224882Y10374528D01*
X30221224Y10360050D01*
X30219396Y10345267D01*
X30219396Y10330332D01*
X30221224Y10315549D01*
X30224882Y10301071D01*
X30230267Y10287152D01*
X30237328Y10274046D01*
X30245913Y10261854D01*
X30255972Y10250830D01*
X30267300Y10241127D01*
X30279746Y10232898D01*
X30293106Y10226243D01*
X30298898Y10224211D01*
X30302453Y10222026D01*
X30304841Y10218674D01*
X30305705Y10214610D01*
X30305705Y9688931D01*
X30304994Y9685223D01*
X30302962Y9682022D01*
X30299914Y9679787D01*
X30296256Y9678822D01*
X30292497Y9679228D01*
X30289144Y9681006D01*
X30282540Y9686340D01*
X30269992Y9694113D01*
X30256581Y9700260D01*
X30242560Y9704730D01*
X30228032Y9707473D01*
X30213300Y9708388D01*
X30198568Y9707473D01*
X30184039Y9704730D01*
X30170018Y9700260D01*
X30156607Y9694113D01*
X30144059Y9686340D01*
X30132527Y9677095D01*
X30122266Y9666478D01*
X30113376Y9654692D01*
X30106010Y9641941D01*
X30102352Y9633305D01*
X30100168Y9630054D01*
X30096866Y9627870D01*
X30093005Y9627108D01*
X29711294Y9627108D01*
X29707433Y9627870D01*
X29704131Y9630054D01*
X29701947Y9633305D01*
X29698289Y9641941D01*
X29690923Y9654692D01*
X29682033Y9666478D01*
X29671772Y9677095D01*
X29660240Y9686340D01*
X29647692Y9694113D01*
X29634281Y9700260D01*
X29620260Y9704730D01*
X29605732Y9707473D01*
X29591000Y9708388D01*
X29576268Y9707473D01*
X29561739Y9704730D01*
X29547718Y9700260D01*
X29534307Y9694113D01*
X29521759Y9686340D01*
X29510227Y9677095D01*
X29499966Y9666478D01*
X29491076Y9654692D01*
X29483710Y9641941D01*
X29477970Y9628327D01*
X29473906Y9614154D01*
X29471620Y9599574D01*
X29471213Y9584791D01*
X29472534Y9570110D01*
X29475684Y9555683D01*
X29480611Y9541764D01*
X29487215Y9528556D01*
X29495343Y9516262D01*
X29497985Y9513214D01*
X29499864Y9509861D01*
X29500423Y9506051D01*
X29499509Y9502343D01*
X29497274Y9499193D01*
X29494022Y9497161D01*
X29490263Y9496399D01*
X29159657Y9496399D01*
X29155745Y9497212D01*
X29152443Y9499396D01*
X29103827Y9548012D01*
X29101491Y9551720D01*
X29100932Y9556140D01*
X29101237Y9559391D01*
X29100780Y9574174D01*
X29098494Y9588754D01*
X29094430Y9602927D01*
X29088689Y9616541D01*
X29081323Y9629292D01*
X29072433Y9641078D01*
X29062172Y9651695D01*
X29050335Y9661194D01*
X29047694Y9664395D01*
X29046576Y9668357D01*
X29047135Y9672472D01*
X29049268Y9676028D01*
X29052672Y9678416D01*
X29056736Y9679279D01*
X29177437Y9679279D01*
X29181298Y9678466D01*
X29184600Y9676282D01*
X29186022Y9674860D01*
X29193998Y9669272D01*
X29202888Y9665157D01*
X29212336Y9662617D01*
X29222090Y9661753D01*
X29231844Y9662617D01*
X29241292Y9665157D01*
X29250132Y9669272D01*
X29258158Y9674860D01*
X29265067Y9681819D01*
X29270706Y9689795D01*
X29274820Y9698685D01*
X29277360Y9708134D01*
X29278224Y9717887D01*
X29277360Y9727641D01*
X29274820Y9737090D01*
X29270706Y9745929D01*
X29265067Y9753955D01*
X29258158Y9760864D01*
X29250132Y9766452D01*
X29241292Y9770618D01*
X29231844Y9773158D01*
X29222090Y9773970D01*
X29212336Y9773158D01*
X29202888Y9770618D01*
X29193998Y9766452D01*
X29186022Y9760864D01*
X29184600Y9759442D01*
X29181298Y9757257D01*
X29177437Y9756495D01*
X28668726Y9756495D01*
X28660699Y9755682D01*
X28653486Y9753498D01*
X28646831Y9749942D01*
X28640582Y9744811D01*
X28556102Y9660331D01*
X28552800Y9658096D01*
X28548888Y9657334D01*
X28071419Y9657334D01*
X28067355Y9658197D01*
X28063952Y9660585D01*
X28061818Y9664141D01*
X28061259Y9668256D01*
X28062427Y9672269D01*
X28065069Y9675469D01*
X28068777Y9677298D01*
X28076855Y9679482D01*
X28085745Y9683597D01*
X28093720Y9689236D01*
X28100680Y9696145D01*
X28106268Y9704171D01*
X28110383Y9713010D01*
X28112923Y9722459D01*
X28113786Y9732213D01*
X28112923Y9741966D01*
X28110383Y9751415D01*
X28106268Y9760305D01*
X28098242Y9771786D01*
X28097480Y9775698D01*
X28097480Y9796780D01*
X28085135Y9796780D01*
X28081224Y9797542D01*
X28077922Y9799777D01*
X28075737Y9803028D01*
X28074975Y9806940D01*
X28074975Y9878060D01*
X28075737Y9881971D01*
X28077922Y9885222D01*
X28081224Y9887458D01*
X28085135Y9888220D01*
X28097480Y9888220D01*
X28097480Y9911994D01*
X28098242Y9915906D01*
X28100477Y9919208D01*
X28129534Y9948265D01*
X28132836Y9950450D01*
X28136697Y9951262D01*
X28142692Y9951262D01*
X28150718Y9952024D01*
X28157932Y9954209D01*
X28164586Y9957816D01*
X28170479Y9962591D01*
X28175254Y9968433D01*
X28178810Y9975088D01*
X28182062Y9986264D01*
X28184348Y9989210D01*
X28187497Y9991191D01*
X28191155Y9991852D01*
X28221381Y9991852D01*
X28227680Y9992563D01*
X28233166Y9994493D01*
X28238043Y9997541D01*
X28242158Y10001656D01*
X28245206Y10006533D01*
X28247136Y10012019D01*
X28247848Y10018318D01*
X28247848Y10174681D01*
X28247136Y10180980D01*
X28245206Y10186466D01*
X28242158Y10191343D01*
X28238043Y10195458D01*
X28233166Y10198506D01*
X28227680Y10200436D01*
X28221381Y10201148D01*
X28065018Y10201148D01*
X28058719Y10200436D01*
X28053233Y10198506D01*
X28048356Y10195458D01*
X28044241Y10191343D01*
X28041193Y10186466D01*
X28039263Y10180980D01*
X28038552Y10174681D01*
X28038552Y10018318D01*
X28039263Y10012019D01*
X28041193Y10006533D01*
X28044241Y10001656D01*
X28048356Y9997541D01*
X28050642Y9996119D01*
X28053284Y9993680D01*
X28054960Y9990429D01*
X28055366Y9986822D01*
X28054452Y9983317D01*
X28052420Y9980320D01*
X28009392Y9937343D01*
X28004312Y9931095D01*
X28000756Y9924440D01*
X27998521Y9917226D01*
X27997759Y9909200D01*
X27997759Y9901478D01*
X27996845Y9897262D01*
X27994305Y9893808D01*
X27990546Y9891725D01*
X27986278Y9891369D01*
X27982214Y9892842D01*
X27979166Y9895789D01*
X27972207Y9906203D01*
X27963164Y9916464D01*
X27952903Y9925507D01*
X27941524Y9933127D01*
X27934920Y9936378D01*
X27934920Y9888220D01*
X27987599Y9888220D01*
X27991460Y9887458D01*
X27994762Y9885222D01*
X27996997Y9881971D01*
X27997759Y9878060D01*
X27997759Y9806940D01*
X27996997Y9803028D01*
X27994762Y9799777D01*
X27991460Y9797542D01*
X27987599Y9796780D01*
X27934920Y9796780D01*
X27934920Y9748621D01*
X27941524Y9751872D01*
X27952903Y9759492D01*
X27963164Y9768535D01*
X27972207Y9778796D01*
X27979166Y9789210D01*
X27982214Y9792157D01*
X27986278Y9793630D01*
X27990546Y9793274D01*
X27994305Y9791192D01*
X27996845Y9787737D01*
X27997759Y9783521D01*
X27997759Y9754057D01*
X27998521Y9746030D01*
X28001010Y9737801D01*
X28002382Y9722459D01*
X28004922Y9713010D01*
X28009088Y9704171D01*
X28014676Y9696145D01*
X28021584Y9689236D01*
X28029611Y9683597D01*
X28038450Y9679482D01*
X28046578Y9677298D01*
X28050286Y9675469D01*
X28052928Y9672269D01*
X28054096Y9668256D01*
X28053538Y9664141D01*
X28051404Y9660585D01*
X28048000Y9658197D01*
X28043936Y9657334D01*
X27983129Y9657334D01*
X27979217Y9658096D01*
X27975915Y9660331D01*
X27974493Y9661702D01*
X27966517Y9667341D01*
X27957627Y9671456D01*
X27948178Y9673996D01*
X27938425Y9674860D01*
X27928671Y9673996D01*
X27919222Y9671456D01*
X27910383Y9667341D01*
X27902357Y9661702D01*
X27895448Y9654794D01*
X27889860Y9646818D01*
X27885694Y9637928D01*
X27883154Y9628479D01*
X27882342Y9618726D01*
X27883154Y9608972D01*
X27885694Y9599523D01*
X27889860Y9590684D01*
X27895448Y9582658D01*
X27902357Y9575749D01*
X27910383Y9570110D01*
X27919222Y9565995D01*
X27928671Y9563455D01*
X27938425Y9562592D01*
X27948178Y9563455D01*
X27957627Y9565995D01*
X27966517Y9570110D01*
X27974493Y9575749D01*
X27975915Y9577171D01*
X27979217Y9579356D01*
X27983129Y9580118D01*
X28568599Y9580118D01*
X28576625Y9580930D01*
X28583839Y9583115D01*
X28590494Y9586671D01*
X28596742Y9591802D01*
X28681273Y9676282D01*
X28684524Y9678466D01*
X28688436Y9679279D01*
X28906063Y9679279D01*
X28910127Y9678416D01*
X28913531Y9676028D01*
X28915664Y9672472D01*
X28916223Y9668357D01*
X28915106Y9664395D01*
X28912464Y9661194D01*
X28900627Y9651695D01*
X28890366Y9641078D01*
X28881476Y9629292D01*
X28874110Y9616541D01*
X28868370Y9602927D01*
X28864306Y9588754D01*
X28862020Y9574174D01*
X28861613Y9559391D01*
X28862934Y9544710D01*
X28866084Y9530283D01*
X28871011Y9516364D01*
X28877615Y9503156D01*
X28885743Y9490862D01*
X28895344Y9479635D01*
X28906266Y9469729D01*
X28918306Y9461195D01*
X28931311Y9454184D01*
X28945077Y9448850D01*
X28959352Y9445294D01*
X28974034Y9443466D01*
X28989477Y9443466D01*
X28993338Y9442704D01*
X28996639Y9440468D01*
X29072230Y9364980D01*
X29081069Y9357918D01*
X29088689Y9353296D01*
X29099103Y9348825D01*
X29101440Y9348063D01*
X29110076Y9345879D01*
X29112464Y9345472D01*
X29121353Y9344660D01*
X30366766Y9344609D01*
X30370678Y9343847D01*
X30373929Y9341612D01*
X30677967Y9037675D01*
X30686806Y9030614D01*
X30694426Y9025991D01*
X30704840Y9021521D01*
X30707177Y9020759D01*
X30715813Y9018574D01*
X30718201Y9018168D01*
X30727091Y9017355D01*
X30759704Y9017304D01*
X30763819Y9016441D01*
X30767223Y9013952D01*
X30769356Y9010345D01*
X30771744Y9003182D01*
X30774741Y8998356D01*
X30778856Y8994241D01*
X30783733Y8991193D01*
X30789219Y8989263D01*
X30795518Y8988552D01*
X30821731Y8988552D01*
X30825643Y8987790D01*
X30828945Y8985554D01*
X30831129Y8982303D01*
X30831891Y8978392D01*
X30831129Y8974480D01*
X30828945Y8971229D01*
X30370729Y8512962D01*
X30367427Y8510778D01*
X30363515Y8510016D01*
X29913122Y8510270D01*
X28503880Y8510270D01*
X28495853Y8509457D01*
X28488639Y8507272D01*
X28481934Y8503716D01*
X28475736Y8498586D01*
X28399892Y8422792D01*
X28397453Y8420963D01*
X28394507Y8419998D01*
X28391459Y8419896D01*
X28379064Y8421471D01*
X28364535Y8421471D01*
X28350057Y8419642D01*
X28335986Y8416036D01*
X28322473Y8410651D01*
X28309722Y8403640D01*
X28297936Y8395106D01*
X28287319Y8385149D01*
X28278023Y8373922D01*
X28270250Y8361629D01*
X28264053Y8348472D01*
X28259532Y8334603D01*
X28256839Y8320328D01*
X28255925Y8305800D01*
X28256839Y8291271D01*
X28259532Y8276996D01*
X28264053Y8263128D01*
X28270250Y8249970D01*
X28278023Y8237677D01*
X28287319Y8226501D01*
X28297936Y8216493D01*
X28309722Y8207959D01*
X28322473Y8200948D01*
X28335986Y8195614D01*
X28350057Y8191957D01*
X28364535Y8190128D01*
X28379064Y8190128D01*
X28393491Y8191957D01*
X28407614Y8195614D01*
X28421126Y8200948D01*
X28433877Y8207959D01*
X28445663Y8216493D01*
X28456280Y8226501D01*
X28457956Y8228482D01*
X28461462Y8231225D01*
X28465780Y8232190D01*
X28470098Y8231174D01*
X28473603Y8228431D01*
X28476549Y8224875D01*
X28548838Y8152587D01*
X28551073Y8149234D01*
X28551835Y8145221D01*
X28550971Y8141309D01*
X28548634Y8138007D01*
X28541319Y8131149D01*
X28532023Y8119922D01*
X28524250Y8107629D01*
X28518053Y8094472D01*
X28513532Y8080603D01*
X28510839Y8066328D01*
X28509925Y8051800D01*
X28510839Y8037271D01*
X28513532Y8022996D01*
X28518053Y8009128D01*
X28519323Y8004454D01*
X28518612Y8000441D01*
X28516376Y7996986D01*
X28471876Y7952486D01*
X28468574Y7950250D01*
X28464662Y7949488D01*
X28457448Y7949488D01*
X28453537Y7950301D01*
X28450184Y7952536D01*
X28448000Y7955940D01*
X28447288Y7959852D01*
X28448203Y7963814D01*
X28450489Y7967065D01*
X28456280Y7972501D01*
X28465576Y7983677D01*
X28473349Y7995970D01*
X28475482Y8000441D01*
X28423158Y8000441D01*
X28423158Y7959648D01*
X28422396Y7955788D01*
X28420161Y7952486D01*
X28416859Y7950250D01*
X28412998Y7949488D01*
X28330601Y7949488D01*
X28326740Y7950250D01*
X28323438Y7952486D01*
X28321203Y7955788D01*
X28320441Y7959648D01*
X28320441Y8000441D01*
X28268117Y8000441D01*
X28270250Y7995970D01*
X28278023Y7983677D01*
X28287319Y7972501D01*
X28293060Y7967065D01*
X28295396Y7963814D01*
X28296260Y7959852D01*
X28295549Y7955940D01*
X28293364Y7952536D01*
X28290062Y7950301D01*
X28286151Y7949488D01*
G37*

%LPC*%
G36*
X28268117Y8103158D02*
G01*
X28320441Y8103158D01*
X28320441Y8155584D01*
X28309722Y8149640D01*
X28297936Y8141106D01*
X28287319Y8131149D01*
X28278023Y8119922D01*
X28270250Y8107629D01*
G37*
G36*
X28423158Y8103158D02*
G01*
X28475482Y8103158D01*
X28473349Y8107629D01*
X28465576Y8119922D01*
X28456280Y8131149D01*
X28445663Y8141106D01*
X28433877Y8149640D01*
X28423158Y8155584D01*
G37*
G36*
X28110535Y8190128D02*
G01*
X28125064Y8190128D01*
X28139491Y8191957D01*
X28153614Y8195614D01*
X28167126Y8200948D01*
X28179877Y8207959D01*
X28191663Y8216493D01*
X28202280Y8226501D01*
X28211576Y8237677D01*
X28219349Y8249970D01*
X28225546Y8263128D01*
X28230068Y8276996D01*
X28232760Y8291271D01*
X28233674Y8305800D01*
X28232760Y8320328D01*
X28230068Y8334603D01*
X28225546Y8348472D01*
X28219349Y8361629D01*
X28211576Y8373922D01*
X28202280Y8385149D01*
X28191663Y8395106D01*
X28179877Y8403640D01*
X28167126Y8410651D01*
X28153614Y8416036D01*
X28139491Y8419642D01*
X28125064Y8421471D01*
X28110535Y8421471D01*
X28096057Y8419642D01*
X28081986Y8416036D01*
X28068473Y8410651D01*
X28055722Y8403640D01*
X28043936Y8395106D01*
X28033319Y8385149D01*
X28024023Y8373922D01*
X28016250Y8361629D01*
X28010053Y8348472D01*
X28005532Y8334603D01*
X28002839Y8320328D01*
X28001925Y8305800D01*
X28002839Y8291271D01*
X28005532Y8276996D01*
X28010053Y8263128D01*
X28016250Y8249970D01*
X28024023Y8237677D01*
X28033319Y8226501D01*
X28043936Y8216493D01*
X28055722Y8207959D01*
X28068473Y8200948D01*
X28081986Y8195614D01*
X28096057Y8191957D01*
G37*
G36*
X30159960Y8719362D02*
G01*
X30159960Y8773160D01*
X30106213Y8773160D01*
X30109515Y8766556D01*
X30117643Y8754262D01*
X30127244Y8743035D01*
X30138166Y8733129D01*
X30150206Y8724595D01*
G37*
G36*
X30266639Y8719362D02*
G01*
X30276393Y8724595D01*
X30288433Y8733129D01*
X30299355Y8743035D01*
X30308956Y8754262D01*
X30317084Y8766556D01*
X30320386Y8773160D01*
X30266639Y8773160D01*
G37*
G36*
X23054360Y8825941D02*
G01*
X23072039Y8825941D01*
X23089565Y8827820D01*
X23106837Y8831529D01*
X23123601Y8837117D01*
X23139704Y8844381D01*
X23154894Y8853373D01*
X23169067Y8863888D01*
X23182021Y8875877D01*
X23193654Y8889136D01*
X23203814Y8903614D01*
X23212399Y8919057D01*
X23219257Y8935313D01*
X23224337Y8952230D01*
X23227639Y8969603D01*
X23229011Y8987180D01*
X23228554Y9004858D01*
X23226217Y9022334D01*
X23222000Y9039504D01*
X23216006Y9056116D01*
X23208132Y9072321D01*
X23207116Y9076334D01*
X23207827Y9080449D01*
X23210113Y9083903D01*
X23831245Y9705035D01*
X23834496Y9707219D01*
X23838408Y9708032D01*
X24177091Y9708032D01*
X24181054Y9707219D01*
X24184406Y9704882D01*
X24186591Y9701428D01*
X24187251Y9697415D01*
X24186235Y9693452D01*
X24183797Y9690201D01*
X24182120Y9688779D01*
X24172976Y9678365D01*
X24165306Y9666833D01*
X24159159Y9654438D01*
X24154739Y9641281D01*
X24151996Y9627717D01*
X24151132Y9613900D01*
X24151996Y9600082D01*
X24154739Y9586518D01*
X24159159Y9573361D01*
X24165306Y9560966D01*
X24172976Y9549434D01*
X24182120Y9539020D01*
X24192534Y9529876D01*
X24204066Y9522206D01*
X24216461Y9516059D01*
X24229618Y9511639D01*
X24243182Y9508896D01*
X24257000Y9508032D01*
X24270817Y9508896D01*
X24284381Y9511639D01*
X24297538Y9516059D01*
X24309933Y9522206D01*
X24321465Y9529876D01*
X24331879Y9539020D01*
X24341023Y9549434D01*
X24348694Y9560966D01*
X24354840Y9573361D01*
X24359260Y9586518D01*
X24362003Y9600082D01*
X24362867Y9613900D01*
X24362003Y9627717D01*
X24359260Y9641281D01*
X24354840Y9654438D01*
X24348694Y9666833D01*
X24341023Y9678365D01*
X24331879Y9688779D01*
X24330202Y9690201D01*
X24327764Y9693452D01*
X24326748Y9697415D01*
X24327408Y9701428D01*
X24329593Y9704882D01*
X24332946Y9707219D01*
X24336908Y9708032D01*
X24685091Y9708032D01*
X24689054Y9707219D01*
X24692406Y9704882D01*
X24694591Y9701428D01*
X24695251Y9697415D01*
X24694235Y9693452D01*
X24691797Y9690201D01*
X24690120Y9688779D01*
X24680976Y9678365D01*
X24673306Y9666833D01*
X24670054Y9660229D01*
X24718670Y9660229D01*
X24718670Y9697872D01*
X24719432Y9701733D01*
X24721616Y9705035D01*
X24724918Y9707219D01*
X24728830Y9708032D01*
X24801169Y9708032D01*
X24805081Y9707219D01*
X24808383Y9705035D01*
X24810567Y9701733D01*
X24811329Y9697872D01*
X24811329Y9660229D01*
X24859945Y9660229D01*
X24856694Y9666833D01*
X24849023Y9678365D01*
X24839879Y9688779D01*
X24838202Y9690201D01*
X24835764Y9693452D01*
X24834748Y9697415D01*
X24835408Y9701428D01*
X24837593Y9704882D01*
X24840946Y9707219D01*
X24844908Y9708032D01*
X26090981Y9708032D01*
X26099008Y9708794D01*
X26106272Y9710978D01*
X26112927Y9714585D01*
X26119175Y9719665D01*
X26536903Y10137394D01*
X26539799Y10139426D01*
X26543253Y10140340D01*
X26546759Y10140035D01*
X26560780Y10136174D01*
X26574292Y10134346D01*
X26587907Y10134346D01*
X26601420Y10136174D01*
X26614577Y10139781D01*
X26627124Y10145064D01*
X26638859Y10152024D01*
X26649578Y10160508D01*
X26659077Y10170312D01*
X26667155Y10181285D01*
X26673708Y10193223D01*
X26678585Y10205974D01*
X26681785Y10219232D01*
X26683106Y10232796D01*
X26682649Y10246410D01*
X26680414Y10259872D01*
X26676350Y10272877D01*
X26670609Y10285272D01*
X26663294Y10296753D01*
X26654506Y10307167D01*
X26644346Y10316311D01*
X26633119Y10324033D01*
X26620977Y10330180D01*
X26608074Y10334650D01*
X26594714Y10337393D01*
X26581100Y10338308D01*
X26567485Y10337393D01*
X26554125Y10334650D01*
X26541222Y10330180D01*
X26529080Y10324033D01*
X26517853Y10316311D01*
X26507694Y10307167D01*
X26498905Y10296753D01*
X26491590Y10285272D01*
X26485850Y10272877D01*
X26481786Y10259872D01*
X26479550Y10246410D01*
X26479093Y10232796D01*
X26480414Y10219232D01*
X26483614Y10205974D01*
X26484732Y10202976D01*
X26485392Y10199166D01*
X26484630Y10195356D01*
X26482446Y10192156D01*
X26078484Y9788194D01*
X26075182Y9786010D01*
X26071322Y9785248D01*
X23818697Y9785248D01*
X23810671Y9784435D01*
X23803457Y9782251D01*
X23796802Y9778695D01*
X23790554Y9773564D01*
X23155351Y9138412D01*
X23151795Y9136075D01*
X23147578Y9135414D01*
X23143514Y9136532D01*
X23131729Y9142679D01*
X23115270Y9149080D01*
X23098252Y9153753D01*
X23080827Y9156547D01*
X23063200Y9157512D01*
X23045572Y9156547D01*
X23028148Y9153753D01*
X23011079Y9149080D01*
X22994620Y9142679D01*
X22978973Y9134551D01*
X22964241Y9124746D01*
X22950678Y9113469D01*
X22938333Y9100820D01*
X22927462Y9086951D01*
X22918064Y9071965D01*
X22910342Y9056116D01*
X22904348Y9039504D01*
X22900182Y9022334D01*
X22897846Y9004858D01*
X22897338Y8987180D01*
X22898760Y8969603D01*
X22902011Y8952230D01*
X22907142Y8935313D01*
X22914000Y8919057D01*
X22922534Y8903614D01*
X22932694Y8889136D01*
X22944328Y8875877D01*
X22957332Y8863888D01*
X22971506Y8853373D01*
X22986695Y8844381D01*
X23002798Y8837117D01*
X23019562Y8831529D01*
X23036784Y8827820D01*
G37*
G36*
X30266639Y8879840D02*
G01*
X30320640Y8879840D01*
X30313223Y8892692D01*
X30304333Y8904478D01*
X30294072Y8915095D01*
X30282540Y8924340D01*
X30269992Y8932113D01*
X30266639Y8933637D01*
G37*
G36*
X30105959Y8879840D02*
G01*
X30159960Y8879840D01*
X30159960Y8933637D01*
X30156607Y8932113D01*
X30144059Y8924340D01*
X30132527Y8915095D01*
X30122266Y8904478D01*
X30113376Y8892692D01*
G37*
G36*
X25219456Y9010650D02*
G01*
X25266650Y9010650D01*
X25266650Y9057843D01*
X25259080Y9054033D01*
X25247854Y9046311D01*
X25237694Y9037167D01*
X25228905Y9026753D01*
X25221590Y9015272D01*
G37*
G36*
X25355550Y9010650D02*
G01*
X25402743Y9010650D01*
X25400609Y9015272D01*
X25393294Y9026753D01*
X25384506Y9037167D01*
X25374346Y9046311D01*
X25363119Y9054033D01*
X25355550Y9057843D01*
G37*
G36*
X23054360Y9333941D02*
G01*
X23072039Y9333941D01*
X23089565Y9335820D01*
X23106837Y9339529D01*
X23123601Y9345117D01*
X23139704Y9352381D01*
X23154894Y9361373D01*
X23169067Y9371888D01*
X23182021Y9383877D01*
X23193654Y9397136D01*
X23203814Y9411614D01*
X23212399Y9427057D01*
X23219257Y9443313D01*
X23224337Y9460230D01*
X23227639Y9477603D01*
X23229011Y9495180D01*
X23228554Y9512858D01*
X23226217Y9530334D01*
X23222000Y9547504D01*
X23216006Y9564116D01*
X23208132Y9580321D01*
X23207116Y9584334D01*
X23207827Y9588449D01*
X23210113Y9591903D01*
X23470717Y9852558D01*
X23474019Y9854742D01*
X23477880Y9855504D01*
X25984504Y9855504D01*
X25992531Y9856317D01*
X25999744Y9858502D01*
X26006399Y9862058D01*
X26012648Y9867188D01*
X26282903Y10137394D01*
X26285799Y10139426D01*
X26289253Y10140340D01*
X26292759Y10140035D01*
X26306780Y10136174D01*
X26320292Y10134346D01*
X26333907Y10134346D01*
X26347420Y10136174D01*
X26360577Y10139781D01*
X26373124Y10145064D01*
X26384859Y10152024D01*
X26395578Y10160508D01*
X26405077Y10170312D01*
X26413155Y10181285D01*
X26419708Y10193223D01*
X26424585Y10205974D01*
X26427785Y10219232D01*
X26429106Y10232796D01*
X26428649Y10246410D01*
X26426414Y10259872D01*
X26422350Y10272877D01*
X26416609Y10285272D01*
X26409294Y10296753D01*
X26400506Y10307167D01*
X26390346Y10316311D01*
X26379119Y10324033D01*
X26366977Y10330180D01*
X26354074Y10334650D01*
X26340714Y10337393D01*
X26327100Y10338308D01*
X26313485Y10337393D01*
X26300125Y10334650D01*
X26287222Y10330180D01*
X26275080Y10324033D01*
X26263853Y10316311D01*
X26253694Y10307167D01*
X26244905Y10296753D01*
X26237590Y10285272D01*
X26231850Y10272877D01*
X26227786Y10259872D01*
X26225550Y10246410D01*
X26225093Y10232796D01*
X26226414Y10219232D01*
X26229614Y10205974D01*
X26230732Y10202976D01*
X26231392Y10199166D01*
X26230630Y10195356D01*
X26228446Y10192156D01*
X25972008Y9935718D01*
X25968706Y9933482D01*
X25964794Y9932720D01*
X23458220Y9932720D01*
X23450194Y9931958D01*
X23442930Y9929723D01*
X23436275Y9926167D01*
X23430026Y9921087D01*
X23155351Y9646412D01*
X23151795Y9644075D01*
X23147578Y9643414D01*
X23143514Y9644532D01*
X23131729Y9650679D01*
X23115270Y9657080D01*
X23098252Y9661753D01*
X23080827Y9664547D01*
X23063200Y9665512D01*
X23045572Y9664547D01*
X23028148Y9661753D01*
X23011079Y9657080D01*
X22994620Y9650679D01*
X22978973Y9642551D01*
X22964241Y9632746D01*
X22950678Y9621469D01*
X22938333Y9608820D01*
X22927462Y9594951D01*
X22918064Y9579965D01*
X22910342Y9564116D01*
X22904348Y9547504D01*
X22900182Y9530334D01*
X22897846Y9512858D01*
X22897338Y9495180D01*
X22898760Y9477603D01*
X22902011Y9460230D01*
X22907142Y9443313D01*
X22914000Y9427057D01*
X22922534Y9411614D01*
X22932694Y9397136D01*
X22944328Y9383877D01*
X22957332Y9371888D01*
X22971506Y9361373D01*
X22986695Y9352381D01*
X23002798Y9345117D01*
X23019562Y9339529D01*
X23036784Y9335820D01*
G37*
G36*
X30873700Y9496552D02*
G01*
X30887365Y9497466D01*
X30900776Y9500158D01*
X30913730Y9504527D01*
X30926024Y9510572D01*
X30937403Y9518192D01*
X30947664Y9527235D01*
X30956707Y9537496D01*
X30964327Y9548876D01*
X30970372Y9561169D01*
X30974741Y9574123D01*
X30977433Y9587534D01*
X30978246Y9599777D01*
X30978246Y9602622D01*
X30977433Y9614865D01*
X30974741Y9628276D01*
X30970372Y9641230D01*
X30964327Y9653524D01*
X30956707Y9664903D01*
X30947664Y9675164D01*
X30937403Y9684207D01*
X30926024Y9691827D01*
X30913730Y9697872D01*
X30900776Y9702241D01*
X30887365Y9704933D01*
X30873700Y9705848D01*
X30860034Y9704933D01*
X30846623Y9702241D01*
X30833669Y9697872D01*
X30821376Y9691827D01*
X30809996Y9684207D01*
X30799735Y9675164D01*
X30790692Y9664903D01*
X30783072Y9653524D01*
X30777027Y9641230D01*
X30772658Y9628276D01*
X30769966Y9614865D01*
X30769052Y9601200D01*
X30769966Y9587534D01*
X30772658Y9574123D01*
X30777027Y9561169D01*
X30783072Y9548876D01*
X30790692Y9537496D01*
X30799735Y9527235D01*
X30809996Y9518192D01*
X30821376Y9510572D01*
X30833669Y9504527D01*
X30846623Y9500158D01*
X30860034Y9497466D01*
G37*
G36*
X24718670Y9518954D02*
G01*
X24718670Y9567570D01*
X24670054Y9567570D01*
X24673306Y9560966D01*
X24680976Y9549434D01*
X24690120Y9539020D01*
X24700534Y9529876D01*
X24712066Y9522206D01*
G37*
G36*
X24811329Y9518954D02*
G01*
X24817933Y9522206D01*
X24829465Y9529876D01*
X24839879Y9539020D01*
X24849023Y9549434D01*
X24856694Y9560966D01*
X24859945Y9567570D01*
X24811329Y9567570D01*
G37*
G36*
X27843480Y9748621D02*
G01*
X27843480Y9796780D01*
X27795321Y9796780D01*
X27798572Y9790176D01*
X27806192Y9778796D01*
X27815235Y9768535D01*
X27825496Y9759492D01*
X27836876Y9751872D01*
G37*
G36*
X28188920Y9748621D02*
G01*
X28195524Y9751872D01*
X28206903Y9759492D01*
X28217164Y9768535D01*
X28226207Y9778796D01*
X28233827Y9790176D01*
X28237078Y9796780D01*
X28188920Y9796780D01*
G37*
G36*
X27589480Y9748621D02*
G01*
X27589480Y9796780D01*
X27541321Y9796780D01*
X27544572Y9790176D01*
X27552192Y9778796D01*
X27561235Y9768535D01*
X27571496Y9759492D01*
X27582876Y9751872D01*
G37*
G36*
X27680920Y9748621D02*
G01*
X27687524Y9751872D01*
X27698903Y9759492D01*
X27709164Y9768535D01*
X27718207Y9778796D01*
X27725827Y9790176D01*
X27729078Y9796780D01*
X27680920Y9796780D01*
G37*
G36*
X30919420Y9761321D02*
G01*
X30926024Y9764572D01*
X30937403Y9772192D01*
X30947664Y9781235D01*
X30956707Y9791496D01*
X30964327Y9802876D01*
X30967578Y9809480D01*
X30919420Y9809480D01*
G37*
G36*
X30827980Y9761321D02*
G01*
X30827980Y9809480D01*
X30779821Y9809480D01*
X30783072Y9802876D01*
X30790692Y9791496D01*
X30799735Y9781235D01*
X30809996Y9772192D01*
X30821376Y9764572D01*
G37*
G36*
X23054360Y9841941D02*
G01*
X23072039Y9841941D01*
X23089565Y9843820D01*
X23106837Y9847529D01*
X23123601Y9853117D01*
X23139704Y9860381D01*
X23154894Y9869373D01*
X23169067Y9879888D01*
X23182021Y9891877D01*
X23193654Y9905136D01*
X23203814Y9919614D01*
X23212399Y9935057D01*
X23219257Y9951313D01*
X23222407Y9961778D01*
X23224490Y9965537D01*
X23227944Y9968077D01*
X23232110Y9968992D01*
X25843992Y9968992D01*
X25852018Y9969804D01*
X25859232Y9971989D01*
X25865886Y9975545D01*
X25872135Y9980676D01*
X26028904Y10137394D01*
X26031799Y10139426D01*
X26035254Y10140340D01*
X26038759Y10140035D01*
X26052780Y10136174D01*
X26066292Y10134346D01*
X26079907Y10134346D01*
X26093420Y10136174D01*
X26106577Y10139781D01*
X26119124Y10145064D01*
X26130859Y10152024D01*
X26141578Y10160508D01*
X26151077Y10170312D01*
X26159155Y10181285D01*
X26165708Y10193223D01*
X26170585Y10205974D01*
X26173785Y10219232D01*
X26175106Y10232796D01*
X26174649Y10246410D01*
X26172414Y10259872D01*
X26168350Y10272877D01*
X26162609Y10285272D01*
X26155294Y10296753D01*
X26146506Y10307167D01*
X26136346Y10316311D01*
X26125119Y10324033D01*
X26112977Y10330180D01*
X26100074Y10334650D01*
X26086714Y10337393D01*
X26073100Y10338308D01*
X26059485Y10337393D01*
X26046125Y10334650D01*
X26033222Y10330180D01*
X26021080Y10324033D01*
X26009854Y10316311D01*
X25999694Y10307167D01*
X25990905Y10296753D01*
X25983590Y10285272D01*
X25977850Y10272877D01*
X25973786Y10259872D01*
X25971550Y10246410D01*
X25971093Y10232796D01*
X25972414Y10219232D01*
X25975614Y10205974D01*
X25976732Y10202976D01*
X25977392Y10199166D01*
X25976630Y10195356D01*
X25974446Y10192156D01*
X25831495Y10049205D01*
X25828193Y10046970D01*
X25824281Y10046208D01*
X23232262Y10046208D01*
X23227893Y10047224D01*
X23224388Y10049967D01*
X23222407Y10053980D01*
X23216006Y10072116D01*
X23208284Y10087965D01*
X23198937Y10102951D01*
X23188015Y10116820D01*
X23175722Y10129520D01*
X23162107Y10140746D01*
X23147426Y10150551D01*
X23131729Y10158679D01*
X23115270Y10165080D01*
X23098252Y10169753D01*
X23080827Y10172547D01*
X23063200Y10173512D01*
X23045572Y10172547D01*
X23028148Y10169753D01*
X23011079Y10165080D01*
X22994620Y10158679D01*
X22978973Y10150551D01*
X22964241Y10140746D01*
X22950678Y10129520D01*
X22938333Y10116820D01*
X22927462Y10102951D01*
X22918064Y10087965D01*
X22910342Y10072116D01*
X22904348Y10055504D01*
X22900182Y10038334D01*
X22897846Y10020858D01*
X22897338Y10003180D01*
X22898760Y9985603D01*
X22902011Y9968230D01*
X22907142Y9951313D01*
X22914000Y9935057D01*
X22922534Y9919614D01*
X22932694Y9905136D01*
X22944328Y9891877D01*
X22957332Y9879888D01*
X22971506Y9869373D01*
X22986695Y9860381D01*
X23002798Y9853117D01*
X23019562Y9847529D01*
X23036784Y9843820D01*
G37*
G36*
X29496410Y9856520D02*
G01*
X29507789Y9856520D01*
X29518965Y9858248D01*
X29529836Y9861550D01*
X29540047Y9866477D01*
X29549394Y9872878D01*
X29558640Y9881565D01*
X29561840Y9883597D01*
X29565600Y9884308D01*
X29569359Y9883597D01*
X29572559Y9881565D01*
X29581805Y9872878D01*
X29591152Y9866477D01*
X29601363Y9861550D01*
X29612234Y9858248D01*
X29623410Y9856520D01*
X29634789Y9856520D01*
X29645965Y9858248D01*
X29656836Y9861550D01*
X29667047Y9866477D01*
X29676394Y9872878D01*
X29685640Y9881565D01*
X29688840Y9883597D01*
X29692600Y9884308D01*
X29696359Y9883597D01*
X29699559Y9881565D01*
X29708805Y9872878D01*
X29718152Y9866477D01*
X29724756Y9863328D01*
X29724756Y9925862D01*
X29715155Y9925862D01*
X29711294Y9926624D01*
X29707992Y9928809D01*
X29705757Y9932111D01*
X29704995Y9936022D01*
X29704995Y10028377D01*
X29705757Y10032288D01*
X29707992Y10035590D01*
X29711294Y10037775D01*
X29715155Y10038537D01*
X29724756Y10038537D01*
X29724756Y10101072D01*
X29718152Y10097922D01*
X29708805Y10091521D01*
X29699559Y10082834D01*
X29696359Y10080802D01*
X29692600Y10080091D01*
X29688840Y10080802D01*
X29685640Y10082834D01*
X29676394Y10091521D01*
X29667047Y10097922D01*
X29656836Y10102850D01*
X29645965Y10106152D01*
X29634789Y10107879D01*
X29623410Y10107879D01*
X29612234Y10106152D01*
X29601363Y10102850D01*
X29591152Y10097922D01*
X29581805Y10091521D01*
X29572559Y10082834D01*
X29569359Y10080802D01*
X29565600Y10080091D01*
X29561840Y10080802D01*
X29558640Y10082834D01*
X29549394Y10091521D01*
X29540047Y10097922D01*
X29529836Y10102850D01*
X29518965Y10106152D01*
X29507789Y10107879D01*
X29496410Y10107879D01*
X29485234Y10106152D01*
X29474363Y10102850D01*
X29464152Y10097922D01*
X29454805Y10091521D01*
X29446474Y10083800D01*
X29439412Y10074960D01*
X29433723Y10065105D01*
X29429608Y10054590D01*
X29427068Y10043515D01*
X29426204Y10031831D01*
X29426204Y9932568D01*
X29427068Y9920884D01*
X29429608Y9909810D01*
X29433723Y9899294D01*
X29439412Y9889439D01*
X29446474Y9880600D01*
X29454805Y9872878D01*
X29464152Y9866477D01*
X29474363Y9861550D01*
X29485234Y9858248D01*
G37*
G36*
X29787443Y9863328D02*
G01*
X29794047Y9866477D01*
X29803394Y9872878D01*
X29811726Y9880600D01*
X29818787Y9889439D01*
X29824476Y9899294D01*
X29828591Y9909810D01*
X29831131Y9920884D01*
X29831487Y9925862D01*
X29787443Y9925862D01*
G37*
G36*
X27541321Y9888220D02*
G01*
X27589480Y9888220D01*
X27589480Y9936378D01*
X27582876Y9933127D01*
X27571496Y9925507D01*
X27561235Y9916464D01*
X27552192Y9906203D01*
X27544572Y9894824D01*
G37*
G36*
X28188920Y9888220D02*
G01*
X28237078Y9888220D01*
X28233827Y9894824D01*
X28226207Y9906203D01*
X28217164Y9916464D01*
X28206903Y9925507D01*
X28195524Y9933127D01*
X28188920Y9936378D01*
G37*
G36*
X27795321Y9888220D02*
G01*
X27843480Y9888220D01*
X27843480Y9936378D01*
X27836876Y9933127D01*
X27825496Y9925507D01*
X27815235Y9916464D01*
X27806192Y9906203D01*
X27798572Y9894824D01*
G37*
G36*
X27680920Y9888220D02*
G01*
X27729078Y9888220D01*
X27725827Y9894824D01*
X27718207Y9906203D01*
X27709164Y9916464D01*
X27698903Y9925507D01*
X27687524Y9933127D01*
X27680920Y9936378D01*
G37*
G36*
X30779821Y9900920D02*
G01*
X30827980Y9900920D01*
X30827980Y9949078D01*
X30821376Y9945827D01*
X30809996Y9938207D01*
X30799735Y9929164D01*
X30790692Y9918903D01*
X30783072Y9907524D01*
G37*
G36*
X30919420Y9900920D02*
G01*
X30967578Y9900920D01*
X30964327Y9907524D01*
X30956707Y9918903D01*
X30947664Y9929164D01*
X30937403Y9938207D01*
X30926024Y9945827D01*
X30919420Y9949078D01*
G37*
G36*
X27635200Y9991852D02*
G01*
X27648865Y9992766D01*
X27662276Y9995458D01*
X27675230Y9999827D01*
X27687524Y10005872D01*
X27698903Y10013492D01*
X27709164Y10022535D01*
X27718207Y10032796D01*
X27725827Y10044176D01*
X27731872Y10056469D01*
X27736241Y10069423D01*
X27738933Y10082834D01*
X27739848Y10096500D01*
X27738933Y10110165D01*
X27736241Y10123576D01*
X27731872Y10136530D01*
X27725827Y10148824D01*
X27718207Y10160203D01*
X27709164Y10170464D01*
X27698903Y10179507D01*
X27687524Y10187127D01*
X27675230Y10193172D01*
X27662276Y10197541D01*
X27648865Y10200233D01*
X27635200Y10201148D01*
X27621534Y10200233D01*
X27608123Y10197541D01*
X27595169Y10193172D01*
X27582876Y10187127D01*
X27571496Y10179507D01*
X27561235Y10170464D01*
X27552192Y10160203D01*
X27544572Y10148824D01*
X27538527Y10136530D01*
X27534158Y10123576D01*
X27531466Y10110165D01*
X27530552Y10096500D01*
X27531466Y10082834D01*
X27534158Y10069423D01*
X27538527Y10056469D01*
X27544572Y10044176D01*
X27552192Y10032796D01*
X27561235Y10022535D01*
X27571496Y10013492D01*
X27582876Y10005872D01*
X27595169Y9999827D01*
X27608123Y9995458D01*
X27621534Y9992766D01*
G37*
G36*
X27889200Y9991852D02*
G01*
X27902865Y9992766D01*
X27916276Y9995458D01*
X27929230Y9999827D01*
X27941524Y10005872D01*
X27952903Y10013492D01*
X27963164Y10022535D01*
X27972207Y10032796D01*
X27979827Y10044176D01*
X27985872Y10056469D01*
X27990241Y10069423D01*
X27992933Y10082834D01*
X27993848Y10096500D01*
X27992933Y10110165D01*
X27990241Y10123576D01*
X27985872Y10136530D01*
X27979827Y10148824D01*
X27972207Y10160203D01*
X27963164Y10170464D01*
X27952903Y10179507D01*
X27941524Y10187127D01*
X27929230Y10193172D01*
X27916276Y10197541D01*
X27902865Y10200233D01*
X27889200Y10201148D01*
X27875534Y10200233D01*
X27862123Y10197541D01*
X27849169Y10193172D01*
X27836876Y10187127D01*
X27825496Y10179507D01*
X27815235Y10170464D01*
X27806192Y10160203D01*
X27798572Y10148824D01*
X27792527Y10136530D01*
X27788158Y10123576D01*
X27785466Y10110165D01*
X27784552Y10096500D01*
X27785466Y10082834D01*
X27788158Y10069423D01*
X27792527Y10056469D01*
X27798572Y10044176D01*
X27806192Y10032796D01*
X27815235Y10022535D01*
X27825496Y10013492D01*
X27836876Y10005872D01*
X27849169Y9999827D01*
X27862123Y9995458D01*
X27875534Y9992766D01*
G37*
G36*
X29032200Y9997694D02*
G01*
X29046373Y9998659D01*
X29060241Y10001402D01*
X29073703Y10005974D01*
X29086403Y10012222D01*
X29098189Y10020147D01*
X29108857Y10029494D01*
X29118204Y10040162D01*
X29126129Y10051948D01*
X29132377Y10064648D01*
X29136949Y10078110D01*
X29139692Y10091978D01*
X29140658Y10106152D01*
X29139692Y10120325D01*
X29136949Y10134193D01*
X29132377Y10147655D01*
X29126129Y10160355D01*
X29118204Y10172141D01*
X29108857Y10182809D01*
X29098189Y10192156D01*
X29086403Y10200081D01*
X29073703Y10206329D01*
X29060241Y10210901D01*
X29046373Y10213644D01*
X29032200Y10214610D01*
X29018026Y10213644D01*
X29004158Y10210901D01*
X28990696Y10206329D01*
X28977996Y10200081D01*
X28966210Y10192156D01*
X28955542Y10182809D01*
X28946195Y10172141D01*
X28938270Y10160355D01*
X28932022Y10147655D01*
X28927450Y10134193D01*
X28924707Y10120325D01*
X28923742Y10106152D01*
X28924707Y10091978D01*
X28927450Y10078110D01*
X28932022Y10064648D01*
X28938270Y10051948D01*
X28946195Y10040162D01*
X28955542Y10029494D01*
X28966210Y10020147D01*
X28977996Y10012222D01*
X28990696Y10005974D01*
X29004158Y10001402D01*
X29018026Y9998659D01*
G37*
G36*
X29787443Y10038537D02*
G01*
X29831487Y10038537D01*
X29831131Y10043515D01*
X29828591Y10054590D01*
X29824476Y10065105D01*
X29818787Y10074960D01*
X29811726Y10083800D01*
X29803394Y10091521D01*
X29794047Y10097922D01*
X29787443Y10101072D01*
G37*
G36*
X23457306Y10083393D02*
G01*
X25704342Y10083393D01*
X25712369Y10084155D01*
X25719633Y10086340D01*
X25726288Y10089946D01*
X25732536Y10095026D01*
X25774904Y10137394D01*
X25777799Y10139426D01*
X25781254Y10140340D01*
X25784759Y10140035D01*
X25798780Y10136174D01*
X25812292Y10134346D01*
X25825907Y10134346D01*
X25839420Y10136174D01*
X25852577Y10139781D01*
X25865124Y10145064D01*
X25876859Y10152024D01*
X25887578Y10160508D01*
X25897078Y10170312D01*
X25905155Y10181285D01*
X25911708Y10193223D01*
X25916585Y10205974D01*
X25919785Y10219232D01*
X25921106Y10232796D01*
X25920649Y10246410D01*
X25918414Y10259872D01*
X25914350Y10272877D01*
X25908609Y10285272D01*
X25901294Y10296753D01*
X25892506Y10307167D01*
X25882346Y10316311D01*
X25871119Y10324033D01*
X25858978Y10330180D01*
X25846074Y10334650D01*
X25832714Y10337393D01*
X25819100Y10338308D01*
X25805485Y10337393D01*
X25792125Y10334650D01*
X25779222Y10330180D01*
X25767080Y10324033D01*
X25755854Y10316311D01*
X25745694Y10307167D01*
X25736905Y10296753D01*
X25729590Y10285272D01*
X25723850Y10272877D01*
X25719786Y10259872D01*
X25717550Y10246410D01*
X25717093Y10232796D01*
X25718414Y10219232D01*
X25721614Y10205974D01*
X25722732Y10202976D01*
X25723392Y10199166D01*
X25722630Y10195356D01*
X25720446Y10192156D01*
X25691846Y10163556D01*
X25688544Y10161371D01*
X25684683Y10160609D01*
X25656032Y10160609D01*
X25651663Y10161574D01*
X25648158Y10164318D01*
X25646176Y10168280D01*
X25646024Y10172700D01*
X25647853Y10176764D01*
X25651155Y10181285D01*
X25656895Y10191750D01*
X25609550Y10191750D01*
X25609550Y10170769D01*
X25608788Y10166858D01*
X25606552Y10163556D01*
X25603301Y10161371D01*
X25599390Y10160609D01*
X25530810Y10160609D01*
X25526898Y10161371D01*
X25523647Y10163556D01*
X25521412Y10166858D01*
X25520650Y10170769D01*
X25520650Y10191750D01*
X25473304Y10191750D01*
X25479044Y10181285D01*
X25482346Y10176764D01*
X25484175Y10172700D01*
X25484023Y10168280D01*
X25482042Y10164318D01*
X25478536Y10161574D01*
X25474168Y10160609D01*
X25402032Y10160609D01*
X25397663Y10161574D01*
X25394158Y10164318D01*
X25392176Y10168280D01*
X25392024Y10172700D01*
X25393853Y10176764D01*
X25397155Y10181285D01*
X25403708Y10193223D01*
X25408585Y10205974D01*
X25411785Y10219232D01*
X25413106Y10232796D01*
X25412649Y10246410D01*
X25410414Y10259872D01*
X25406350Y10272877D01*
X25400609Y10285272D01*
X25393294Y10296753D01*
X25384506Y10307167D01*
X25374346Y10316311D01*
X25363119Y10324033D01*
X25350978Y10330180D01*
X25338074Y10334650D01*
X25324714Y10337393D01*
X25311100Y10338308D01*
X25297485Y10337393D01*
X25284125Y10334650D01*
X25271222Y10330180D01*
X25259080Y10324033D01*
X25247854Y10316311D01*
X25237694Y10307167D01*
X25228905Y10296753D01*
X25221590Y10285272D01*
X25215850Y10272877D01*
X25211786Y10259872D01*
X25209550Y10246410D01*
X25209093Y10232796D01*
X25210414Y10219232D01*
X25213614Y10205974D01*
X25218491Y10193223D01*
X25225044Y10181285D01*
X25228346Y10176764D01*
X25230175Y10172700D01*
X25230023Y10168280D01*
X25228042Y10164318D01*
X25224536Y10161574D01*
X25220168Y10160609D01*
X23477016Y10160609D01*
X23473105Y10161371D01*
X23469854Y10163556D01*
X23209961Y10423448D01*
X23207573Y10427106D01*
X23207014Y10431424D01*
X23208234Y10435590D01*
X23212399Y10443057D01*
X23219257Y10459313D01*
X23224337Y10476230D01*
X23227639Y10493603D01*
X23229011Y10511180D01*
X23228554Y10528858D01*
X23226217Y10546334D01*
X23222000Y10563504D01*
X23216006Y10580116D01*
X23208284Y10595965D01*
X23198937Y10610951D01*
X23188015Y10624820D01*
X23175722Y10637520D01*
X23162107Y10648746D01*
X23147426Y10658551D01*
X23131729Y10666679D01*
X23115270Y10673080D01*
X23098252Y10677753D01*
X23080827Y10680547D01*
X23063200Y10681512D01*
X23045572Y10680547D01*
X23028148Y10677753D01*
X23011079Y10673080D01*
X22994620Y10666679D01*
X22978973Y10658551D01*
X22964241Y10648746D01*
X22950678Y10637520D01*
X22938333Y10624820D01*
X22927462Y10610951D01*
X22918064Y10595965D01*
X22910342Y10580116D01*
X22904348Y10563504D01*
X22900182Y10546334D01*
X22897846Y10528858D01*
X22897338Y10511180D01*
X22898760Y10493603D01*
X22902011Y10476230D01*
X22907142Y10459313D01*
X22914000Y10443057D01*
X22922534Y10427614D01*
X22932694Y10413136D01*
X22944328Y10399877D01*
X22957332Y10387888D01*
X22971506Y10377373D01*
X22986695Y10368381D01*
X23002798Y10361117D01*
X23019562Y10355529D01*
X23036784Y10351820D01*
X23054360Y10349941D01*
X23072039Y10349941D01*
X23089565Y10351820D01*
X23106837Y10355529D01*
X23123601Y10361117D01*
X23139704Y10368381D01*
X23143057Y10370362D01*
X23147274Y10371734D01*
X23151642Y10371175D01*
X23155402Y10368788D01*
X23429163Y10095026D01*
X23435411Y10089946D01*
X23442066Y10086340D01*
X23449280Y10084155D01*
G37*
G36*
X26828292Y10134346D02*
G01*
X26841907Y10134346D01*
X26855420Y10136174D01*
X26868577Y10139781D01*
X26881124Y10145064D01*
X26892859Y10152024D01*
X26903578Y10160508D01*
X26913077Y10170312D01*
X26921155Y10181285D01*
X26927708Y10193223D01*
X26932585Y10205974D01*
X26935785Y10219232D01*
X26937106Y10232796D01*
X26936649Y10246410D01*
X26934414Y10259872D01*
X26930350Y10272877D01*
X26924609Y10285272D01*
X26917294Y10296753D01*
X26908506Y10307167D01*
X26898346Y10316311D01*
X26887119Y10324033D01*
X26874977Y10330180D01*
X26862074Y10334650D01*
X26848714Y10337393D01*
X26835100Y10338308D01*
X26821485Y10337393D01*
X26808125Y10334650D01*
X26795222Y10330180D01*
X26783080Y10324033D01*
X26771853Y10316311D01*
X26761694Y10307167D01*
X26752905Y10296753D01*
X26745590Y10285272D01*
X26739850Y10272877D01*
X26735786Y10259872D01*
X26733550Y10246410D01*
X26733093Y10232796D01*
X26734414Y10219232D01*
X26737614Y10205974D01*
X26742491Y10193223D01*
X26749044Y10181285D01*
X26757122Y10170312D01*
X26766621Y10160508D01*
X26777340Y10152024D01*
X26789075Y10145064D01*
X26801622Y10139781D01*
X26814780Y10136174D01*
G37*
G36*
X27133550Y10144404D02*
G01*
X27135124Y10145064D01*
X27146859Y10152024D01*
X27157578Y10160508D01*
X27167077Y10170312D01*
X27175155Y10181285D01*
X27180895Y10191750D01*
X27133550Y10191750D01*
G37*
G36*
X27044650Y10144404D02*
G01*
X27044650Y10191750D01*
X26997304Y10191750D01*
X27003044Y10181285D01*
X27011122Y10170312D01*
X27020621Y10160508D01*
X27031340Y10152024D01*
X27043075Y10145064D01*
G37*
G36*
X29574591Y10216743D02*
G01*
X29589476Y10217200D01*
X29604208Y10219486D01*
X29618584Y10223550D01*
X29632300Y10229342D01*
X29645203Y10236809D01*
X29657090Y10245801D01*
X29667809Y10256164D01*
X29677156Y10267797D01*
X29685030Y10280497D01*
X29691279Y10294061D01*
X29695800Y10308234D01*
X29698543Y10322915D01*
X29699458Y10337800D01*
X29698543Y10352684D01*
X29695800Y10367365D01*
X29691279Y10381538D01*
X29685030Y10395102D01*
X29677156Y10407802D01*
X29667809Y10419435D01*
X29657090Y10429798D01*
X29645203Y10438790D01*
X29632300Y10446258D01*
X29618584Y10452049D01*
X29604208Y10456113D01*
X29589476Y10458399D01*
X29574591Y10458856D01*
X29559707Y10457484D01*
X29545127Y10454335D01*
X29531106Y10449356D01*
X29517746Y10442702D01*
X29505300Y10434472D01*
X29493972Y10424769D01*
X29483913Y10413746D01*
X29476344Y10403078D01*
X29474109Y10400741D01*
X29471264Y10399268D01*
X29468064Y10398760D01*
X29140099Y10398760D01*
X29136441Y10399471D01*
X29133241Y10401452D01*
X29131006Y10404449D01*
X29126129Y10414355D01*
X29118204Y10426141D01*
X29108857Y10436809D01*
X29098189Y10446156D01*
X29086403Y10454081D01*
X29073703Y10460329D01*
X29060241Y10464901D01*
X29046373Y10467644D01*
X29032200Y10468610D01*
X29018026Y10467644D01*
X29004158Y10464901D01*
X28990696Y10460329D01*
X28977996Y10454081D01*
X28966210Y10446156D01*
X28955542Y10436809D01*
X28946195Y10426141D01*
X28938270Y10414355D01*
X28932022Y10401655D01*
X28927450Y10388193D01*
X28924707Y10374325D01*
X28923742Y10360152D01*
X28924707Y10345978D01*
X28927450Y10332110D01*
X28932022Y10318648D01*
X28938270Y10305948D01*
X28946195Y10294162D01*
X28955542Y10283494D01*
X28966210Y10274147D01*
X28977996Y10266222D01*
X28990696Y10259974D01*
X29004158Y10255402D01*
X29018026Y10252659D01*
X29032200Y10251694D01*
X29046373Y10252659D01*
X29060241Y10255402D01*
X29073703Y10259974D01*
X29086403Y10266222D01*
X29098189Y10274147D01*
X29108857Y10283494D01*
X29118204Y10294162D01*
X29126129Y10305948D01*
X29131006Y10315905D01*
X29133241Y10318902D01*
X29136441Y10320883D01*
X29140150Y10321544D01*
X29449776Y10321544D01*
X29454144Y10320578D01*
X29457650Y10317835D01*
X29459631Y10313873D01*
X29462882Y10301071D01*
X29468267Y10287152D01*
X29475328Y10274046D01*
X29483913Y10261854D01*
X29493972Y10250830D01*
X29505300Y10241127D01*
X29517746Y10232898D01*
X29531106Y10226243D01*
X29545127Y10221264D01*
X29559707Y10218115D01*
G37*
G36*
X26997456Y10280650D02*
G01*
X27044650Y10280650D01*
X27044650Y10327843D01*
X27037080Y10324033D01*
X27025853Y10316311D01*
X27015694Y10307167D01*
X27006905Y10296753D01*
X26999590Y10285272D01*
G37*
G36*
X25609550Y10280650D02*
G01*
X25656743Y10280650D01*
X25654609Y10285272D01*
X25647294Y10296753D01*
X25638506Y10307167D01*
X25628346Y10316311D01*
X25617119Y10324033D01*
X25609550Y10327843D01*
G37*
G36*
X25473456Y10280650D02*
G01*
X25520650Y10280650D01*
X25520650Y10327843D01*
X25513080Y10324033D01*
X25501854Y10316311D01*
X25491694Y10307167D01*
X25482905Y10296753D01*
X25475590Y10285272D01*
G37*
G36*
X27133550Y10280650D02*
G01*
X27180743Y10280650D01*
X27178609Y10285272D01*
X27171294Y10296753D01*
X27162506Y10307167D01*
X27152346Y10316311D01*
X27141119Y10324033D01*
X27133550Y10327843D01*
G37*
G36*
X29641800Y10540492D02*
G01*
X29659376Y10541457D01*
X29676801Y10544251D01*
X29693819Y10548874D01*
X29710227Y10555325D01*
X29725874Y10563453D01*
X29740555Y10573156D01*
X29754118Y10584434D01*
X29766412Y10597032D01*
X29777283Y10610900D01*
X29786630Y10625836D01*
X29794352Y10641736D01*
X29800346Y10658297D01*
X29804512Y10675416D01*
X29806849Y10692892D01*
X29807357Y10710519D01*
X29805934Y10728096D01*
X29802683Y10745419D01*
X29797552Y10762284D01*
X29790745Y10778490D01*
X29782160Y10793933D01*
X29772051Y10808360D01*
X29760418Y10821619D01*
X29747464Y10833557D01*
X29733341Y10844072D01*
X29718152Y10853064D01*
X29702099Y10860328D01*
X29685386Y10865866D01*
X29668165Y10869574D01*
X29650588Y10871454D01*
X29633011Y10871454D01*
X29615485Y10869574D01*
X29598213Y10865866D01*
X29581500Y10860328D01*
X29565447Y10853064D01*
X29550258Y10844072D01*
X29536136Y10833557D01*
X29523182Y10821619D01*
X29511548Y10808360D01*
X29501439Y10793933D01*
X29492905Y10778490D01*
X29486047Y10762284D01*
X29480916Y10745419D01*
X29477665Y10728096D01*
X29476242Y10710519D01*
X29476750Y10692892D01*
X29479087Y10675416D01*
X29483253Y10658297D01*
X29489247Y10641736D01*
X29496969Y10625836D01*
X29506316Y10610900D01*
X29517187Y10597032D01*
X29529481Y10584434D01*
X29543044Y10573156D01*
X29557726Y10563453D01*
X29573372Y10555325D01*
X29589780Y10548874D01*
X29606798Y10544251D01*
X29624223Y10541457D01*
G37*
G36*
X25693573Y10666526D02*
G01*
X27590648Y10666526D01*
X27598674Y10667288D01*
X27605888Y10669473D01*
X27612543Y10673080D01*
X27618791Y10678160D01*
X27789428Y10848797D01*
X27793188Y10851184D01*
X27797607Y10851743D01*
X27801874Y10850372D01*
X27805075Y10847273D01*
X27806192Y10845596D01*
X27815235Y10835335D01*
X27825496Y10826292D01*
X27836876Y10818672D01*
X27849169Y10812627D01*
X27862123Y10808258D01*
X27875534Y10805566D01*
X27889200Y10804652D01*
X27902865Y10805566D01*
X27916276Y10808258D01*
X27929230Y10812627D01*
X27941524Y10818672D01*
X27952903Y10826292D01*
X27958135Y10830864D01*
X27961234Y10832744D01*
X27964841Y10833404D01*
X28067558Y10833404D01*
X28071165Y10832744D01*
X28074264Y10830864D01*
X28079496Y10826292D01*
X28090876Y10818672D01*
X28103169Y10812627D01*
X28116123Y10808258D01*
X28129534Y10805566D01*
X28143200Y10804652D01*
X28156865Y10805566D01*
X28170276Y10808258D01*
X28183230Y10812627D01*
X28195524Y10818672D01*
X28206903Y10826292D01*
X28217164Y10835335D01*
X28226207Y10845596D01*
X28233827Y10856976D01*
X28239872Y10869269D01*
X28244241Y10882223D01*
X28246933Y10895634D01*
X28247848Y10909300D01*
X28246933Y10922965D01*
X28244241Y10936376D01*
X28239872Y10949330D01*
X28233827Y10961624D01*
X28226207Y10973003D01*
X28217164Y10983264D01*
X28206903Y10992307D01*
X28195524Y10999927D01*
X28183230Y11005972D01*
X28170276Y11010341D01*
X28156865Y11013033D01*
X28143200Y11013948D01*
X28129534Y11013033D01*
X28116123Y11010341D01*
X28103169Y11005972D01*
X28090876Y10999927D01*
X28079496Y10992307D01*
X28074315Y10987735D01*
X28071165Y10985855D01*
X28067609Y10985195D01*
X27964790Y10985195D01*
X27961234Y10985855D01*
X27957780Y10987989D01*
X27955341Y10991291D01*
X27954325Y10995304D01*
X27955036Y10999368D01*
X27957322Y11002822D01*
X28027020Y11072520D01*
X28030017Y11074603D01*
X28033522Y11075466D01*
X28037129Y11075060D01*
X28040380Y11073434D01*
X28042819Y11070742D01*
X28044241Y11068456D01*
X28048356Y11064341D01*
X28053233Y11061293D01*
X28058719Y11059363D01*
X28065018Y11058652D01*
X28221381Y11058652D01*
X28227680Y11059363D01*
X28233166Y11061293D01*
X28238043Y11064341D01*
X28242158Y11068456D01*
X28245206Y11073333D01*
X28247136Y11078819D01*
X28247848Y11085118D01*
X28247848Y11241481D01*
X28247136Y11247780D01*
X28245206Y11253266D01*
X28242158Y11258143D01*
X28238043Y11262258D01*
X28233166Y11265306D01*
X28227680Y11267236D01*
X28221381Y11267948D01*
X28065018Y11267948D01*
X28058719Y11267236D01*
X28053233Y11265306D01*
X28048356Y11262258D01*
X28044241Y11258143D01*
X28041193Y11253266D01*
X28039263Y11247780D01*
X28038552Y11241481D01*
X28038552Y11211255D01*
X28037891Y11207597D01*
X28035910Y11204448D01*
X28032964Y11202212D01*
X28021788Y11198910D01*
X28015133Y11195354D01*
X28009291Y11190579D01*
X28007360Y11188242D01*
X28004008Y11185601D01*
X27999842Y11184534D01*
X27995626Y11185347D01*
X27992120Y11187785D01*
X27989885Y11191443D01*
X27985872Y11203330D01*
X27979827Y11215624D01*
X27972207Y11227003D01*
X27963164Y11237264D01*
X27952903Y11246307D01*
X27941524Y11253927D01*
X27929230Y11259972D01*
X27916276Y11264341D01*
X27902865Y11267033D01*
X27889200Y11267948D01*
X27875534Y11267033D01*
X27862123Y11264341D01*
X27853639Y11261496D01*
X27849931Y11260937D01*
X27846274Y11261801D01*
X27843175Y11263934D01*
X27796744Y11310366D01*
X27790495Y11315446D01*
X27783840Y11319002D01*
X27776627Y11321237D01*
X27768600Y11321999D01*
X26295299Y11321999D01*
X26287272Y11321237D01*
X26280008Y11319002D01*
X26273353Y11315446D01*
X26267105Y11310366D01*
X25875792Y10919002D01*
X25872694Y10916869D01*
X25868985Y10916056D01*
X25865277Y10916615D01*
X25858774Y10918850D01*
X25845414Y10921593D01*
X25831800Y10922508D01*
X25818185Y10921593D01*
X25804825Y10918850D01*
X25791922Y10914380D01*
X25779780Y10908233D01*
X25768554Y10900511D01*
X25758394Y10891367D01*
X25749605Y10880953D01*
X25742290Y10869472D01*
X25736550Y10857077D01*
X25732486Y10844072D01*
X25730250Y10830610D01*
X25729793Y10816996D01*
X25731114Y10803432D01*
X25734314Y10790174D01*
X25739191Y10777423D01*
X25745744Y10765485D01*
X25749859Y10759897D01*
X25751637Y10755833D01*
X25751536Y10751413D01*
X25749504Y10747451D01*
X25745998Y10744708D01*
X25741680Y10743742D01*
X25713283Y10743742D01*
X25709372Y10744504D01*
X25706120Y10746689D01*
X25676453Y10776356D01*
X25674269Y10779556D01*
X25673456Y10783366D01*
X25674167Y10787176D01*
X25675285Y10790174D01*
X25678485Y10803432D01*
X25679806Y10816996D01*
X25679349Y10830610D01*
X25677114Y10844072D01*
X25673050Y10857077D01*
X25667309Y10869472D01*
X25659994Y10880953D01*
X25651206Y10891367D01*
X25641046Y10900511D01*
X25629819Y10908233D01*
X25617678Y10914380D01*
X25604774Y10918850D01*
X25591414Y10921593D01*
X25577800Y10922508D01*
X25564185Y10921593D01*
X25550825Y10918850D01*
X25537922Y10914380D01*
X25525780Y10908233D01*
X25514554Y10900511D01*
X25504394Y10891367D01*
X25495605Y10880953D01*
X25488290Y10869472D01*
X25482550Y10857077D01*
X25478486Y10844072D01*
X25476250Y10830610D01*
X25475793Y10816996D01*
X25477114Y10803432D01*
X25480314Y10790174D01*
X25485191Y10777423D01*
X25491744Y10765485D01*
X25499822Y10754512D01*
X25509321Y10744708D01*
X25520040Y10736224D01*
X25531775Y10729264D01*
X25544322Y10723981D01*
X25557480Y10720374D01*
X25570992Y10718546D01*
X25584607Y10718546D01*
X25598120Y10720374D01*
X25612090Y10724235D01*
X25615646Y10724540D01*
X25619100Y10723626D01*
X25621996Y10721594D01*
X25665430Y10678160D01*
X25671678Y10673080D01*
X25678333Y10669473D01*
X25685546Y10667288D01*
G37*
G36*
X25368250Y10728604D02*
G01*
X25369824Y10729264D01*
X25381559Y10736224D01*
X25392278Y10744708D01*
X25401778Y10754512D01*
X25409855Y10765485D01*
X25415595Y10775950D01*
X25368250Y10775950D01*
G37*
G36*
X25279350Y10728604D02*
G01*
X25279350Y10775950D01*
X25232004Y10775950D01*
X25237744Y10765485D01*
X25245822Y10754512D01*
X25255321Y10744708D01*
X25266040Y10736224D01*
X25277775Y10729264D01*
G37*
G36*
X29041852Y10740390D02*
G01*
X29059428Y10741355D01*
X29076853Y10744149D01*
X29093871Y10748772D01*
X29110279Y10755223D01*
X29125926Y10763351D01*
X29140607Y10773054D01*
X29154170Y10784332D01*
X29166464Y10796930D01*
X29177335Y10810798D01*
X29186682Y10825734D01*
X29194404Y10841634D01*
X29200398Y10858195D01*
X29204564Y10875314D01*
X29206901Y10892790D01*
X29207409Y10910417D01*
X29205986Y10927994D01*
X29202735Y10945317D01*
X29197604Y10962182D01*
X29190797Y10978388D01*
X29182212Y10993831D01*
X29172103Y11008258D01*
X29160470Y11021517D01*
X29147515Y11033455D01*
X29133393Y11043970D01*
X29118204Y11052962D01*
X29102151Y11060226D01*
X29085438Y11065764D01*
X29068217Y11069472D01*
X29050640Y11071352D01*
X29033063Y11071352D01*
X29015537Y11069472D01*
X28998265Y11065764D01*
X28981552Y11060226D01*
X28965499Y11052962D01*
X28950310Y11043970D01*
X28936188Y11033455D01*
X28923234Y11021517D01*
X28911600Y11008258D01*
X28901491Y10993831D01*
X28892957Y10978388D01*
X28886099Y10962182D01*
X28880968Y10945317D01*
X28877717Y10927994D01*
X28876294Y10910417D01*
X28876802Y10892790D01*
X28879139Y10875314D01*
X28883305Y10858195D01*
X28889299Y10841634D01*
X28897021Y10825734D01*
X28906368Y10810798D01*
X28917239Y10796930D01*
X28929533Y10784332D01*
X28943096Y10773054D01*
X28957777Y10763351D01*
X28973424Y10755223D01*
X28989832Y10748772D01*
X29006850Y10744149D01*
X29024275Y10741355D01*
G37*
G36*
X25232156Y10864850D02*
G01*
X25279350Y10864850D01*
X25279350Y10912043D01*
X25271780Y10908233D01*
X25260554Y10900511D01*
X25250394Y10891367D01*
X25241605Y10880953D01*
X25234290Y10869472D01*
G37*
G36*
X25368250Y10864850D02*
G01*
X25415443Y10864850D01*
X25413309Y10869472D01*
X25405994Y10880953D01*
X25397206Y10891367D01*
X25387046Y10900511D01*
X25375819Y10908233D01*
X25368250Y10912043D01*
G37*
G36*
X23054360Y11035741D02*
G01*
X23072039Y11035741D01*
X23089565Y11037620D01*
X23106837Y11041329D01*
X23123601Y11046917D01*
X23139704Y11054181D01*
X23154894Y11063173D01*
X23169067Y11073688D01*
X23182021Y11085677D01*
X23193654Y11098936D01*
X23203814Y11113414D01*
X23212399Y11128857D01*
X23219257Y11145113D01*
X23222407Y11155578D01*
X23224490Y11159337D01*
X23227944Y11161877D01*
X23232110Y11162792D01*
X25704292Y11162792D01*
X25712318Y11163604D01*
X25719532Y11165789D01*
X25726186Y11169345D01*
X25732435Y11174476D01*
X26549603Y11991594D01*
X26552499Y11993626D01*
X26555953Y11994540D01*
X26559459Y11994235D01*
X26573480Y11990374D01*
X26586992Y11988546D01*
X26600607Y11988546D01*
X26614120Y11990374D01*
X26627277Y11993981D01*
X26639824Y11999264D01*
X26651559Y12006224D01*
X26662278Y12014708D01*
X26671777Y12024512D01*
X26679855Y12035485D01*
X26686408Y12047423D01*
X26691285Y12060174D01*
X26694485Y12073432D01*
X26695806Y12086996D01*
X26695349Y12100610D01*
X26693114Y12114072D01*
X26689050Y12127077D01*
X26683309Y12139472D01*
X26675994Y12150953D01*
X26667206Y12161367D01*
X26657046Y12170511D01*
X26645819Y12178233D01*
X26633677Y12184380D01*
X26620774Y12188850D01*
X26607414Y12191593D01*
X26593800Y12192508D01*
X26580185Y12191593D01*
X26566825Y12188850D01*
X26553922Y12184380D01*
X26541780Y12178233D01*
X26530553Y12170511D01*
X26520394Y12161367D01*
X26511605Y12150953D01*
X26504290Y12139472D01*
X26498550Y12127077D01*
X26494486Y12114072D01*
X26492250Y12100610D01*
X26491793Y12086996D01*
X26493114Y12073432D01*
X26496314Y12060174D01*
X26497432Y12057176D01*
X26498092Y12053366D01*
X26497330Y12049556D01*
X26495146Y12046356D01*
X25691795Y11243005D01*
X25688493Y11240770D01*
X25684581Y11240008D01*
X23232262Y11240008D01*
X23227893Y11241024D01*
X23224388Y11243767D01*
X23222407Y11247780D01*
X23216006Y11265916D01*
X23208284Y11281765D01*
X23198937Y11296751D01*
X23188015Y11310620D01*
X23175722Y11323269D01*
X23162107Y11334546D01*
X23147426Y11344351D01*
X23131729Y11352479D01*
X23115270Y11358880D01*
X23098252Y11363553D01*
X23080827Y11366347D01*
X23063200Y11367312D01*
X23045572Y11366347D01*
X23028148Y11363553D01*
X23011079Y11358880D01*
X22994620Y11352479D01*
X22978973Y11344351D01*
X22964241Y11334546D01*
X22950678Y11323269D01*
X22938333Y11310620D01*
X22927462Y11296751D01*
X22918064Y11281765D01*
X22910342Y11265916D01*
X22904348Y11249304D01*
X22900182Y11232134D01*
X22897846Y11214658D01*
X22897338Y11196980D01*
X22898760Y11179403D01*
X22902011Y11162030D01*
X22907142Y11145113D01*
X22914000Y11128857D01*
X22922534Y11113414D01*
X22932694Y11098936D01*
X22944328Y11085677D01*
X22957332Y11073688D01*
X22971506Y11063173D01*
X22986695Y11054181D01*
X23002798Y11046917D01*
X23019562Y11041329D01*
X23036784Y11037620D01*
G37*
G36*
X30853380Y11221821D02*
G01*
X30853380Y11269980D01*
X30805221Y11269980D01*
X30808472Y11263376D01*
X30816092Y11251996D01*
X30825135Y11241735D01*
X30835396Y11232692D01*
X30846776Y11225072D01*
G37*
G36*
X24282400Y11324132D02*
G01*
X24296217Y11324996D01*
X24309781Y11327739D01*
X24322938Y11332159D01*
X24335333Y11338306D01*
X24346865Y11345976D01*
X24357279Y11355120D01*
X24366423Y11365534D01*
X24374094Y11377066D01*
X24380240Y11389461D01*
X24384660Y11402618D01*
X24387403Y11416182D01*
X24388267Y11430000D01*
X24387403Y11443817D01*
X24384660Y11457381D01*
X24380240Y11470538D01*
X24374094Y11482933D01*
X24366423Y11494465D01*
X24357279Y11504879D01*
X24346865Y11514023D01*
X24335333Y11521694D01*
X24322938Y11527840D01*
X24309781Y11532260D01*
X24296217Y11535003D01*
X24282400Y11535867D01*
X24268582Y11535003D01*
X24255018Y11532260D01*
X24241861Y11527840D01*
X24229466Y11521694D01*
X24217934Y11514023D01*
X24207520Y11504879D01*
X24198376Y11494465D01*
X24190706Y11482933D01*
X24184559Y11470538D01*
X24180139Y11457381D01*
X24177396Y11443817D01*
X24176532Y11430000D01*
X24177396Y11416182D01*
X24180139Y11402618D01*
X24184559Y11389461D01*
X24190706Y11377066D01*
X24198376Y11365534D01*
X24207520Y11355120D01*
X24217934Y11345976D01*
X24229466Y11338306D01*
X24241861Y11332159D01*
X24255018Y11327739D01*
X24268582Y11324996D01*
G37*
G36*
X24836729Y11335054D02*
G01*
X24843333Y11338306D01*
X24854865Y11345976D01*
X24865279Y11355120D01*
X24874423Y11365534D01*
X24882094Y11377066D01*
X24885345Y11383670D01*
X24836729Y11383670D01*
G37*
G36*
X24744070Y11335054D02*
G01*
X24744070Y11383670D01*
X24695454Y11383670D01*
X24698706Y11377066D01*
X24706376Y11365534D01*
X24715520Y11355120D01*
X24725934Y11345976D01*
X24737466Y11338306D01*
G37*
G36*
X30805221Y11361420D02*
G01*
X30853380Y11361420D01*
X30853380Y11409578D01*
X30846776Y11406327D01*
X30835396Y11398707D01*
X30825135Y11389664D01*
X30816092Y11379403D01*
X30808472Y11368024D01*
G37*
G36*
X24836729Y11476329D02*
G01*
X24885345Y11476329D01*
X24882094Y11482933D01*
X24874423Y11494465D01*
X24865279Y11504879D01*
X24854865Y11514023D01*
X24843333Y11521694D01*
X24836729Y11524945D01*
G37*
G36*
X24695454Y11476329D02*
G01*
X24744070Y11476329D01*
X24744070Y11524945D01*
X24737466Y11521694D01*
X24725934Y11514023D01*
X24715520Y11504879D01*
X24706376Y11494465D01*
X24698706Y11482933D01*
G37*
G36*
X23054360Y11543741D02*
G01*
X23072039Y11543741D01*
X23089565Y11545620D01*
X23106837Y11549329D01*
X23123601Y11554917D01*
X23139704Y11562181D01*
X23154894Y11571173D01*
X23169067Y11581688D01*
X23182021Y11593677D01*
X23193654Y11606936D01*
X23203814Y11621414D01*
X23212399Y11636857D01*
X23219257Y11653113D01*
X23222407Y11663578D01*
X23224490Y11667337D01*
X23227944Y11669877D01*
X23232110Y11670792D01*
X25958292Y11670792D01*
X25966318Y11671604D01*
X25973532Y11673789D01*
X25980186Y11677345D01*
X25986435Y11682476D01*
X26295603Y11991594D01*
X26298499Y11993626D01*
X26301953Y11994540D01*
X26305459Y11994235D01*
X26319480Y11990374D01*
X26332992Y11988546D01*
X26346607Y11988546D01*
X26360120Y11990374D01*
X26373277Y11993981D01*
X26385824Y11999264D01*
X26397559Y12006224D01*
X26408278Y12014708D01*
X26417777Y12024512D01*
X26425855Y12035485D01*
X26432408Y12047423D01*
X26437285Y12060174D01*
X26440485Y12073432D01*
X26441806Y12086996D01*
X26441349Y12100610D01*
X26439114Y12114072D01*
X26435050Y12127077D01*
X26429309Y12139472D01*
X26421994Y12150953D01*
X26413206Y12161367D01*
X26403046Y12170511D01*
X26391819Y12178233D01*
X26379677Y12184380D01*
X26366774Y12188850D01*
X26353414Y12191593D01*
X26339800Y12192508D01*
X26326185Y12191593D01*
X26312825Y12188850D01*
X26299922Y12184380D01*
X26287780Y12178233D01*
X26276553Y12170511D01*
X26266394Y12161367D01*
X26257605Y12150953D01*
X26250290Y12139472D01*
X26244550Y12127077D01*
X26240486Y12114072D01*
X26238250Y12100610D01*
X26237793Y12086996D01*
X26239114Y12073432D01*
X26242314Y12060174D01*
X26243432Y12057176D01*
X26244092Y12053366D01*
X26243330Y12049556D01*
X26241146Y12046356D01*
X25945795Y11751005D01*
X25942493Y11748770D01*
X25938581Y11748008D01*
X23232262Y11748008D01*
X23227893Y11749024D01*
X23224388Y11751767D01*
X23222407Y11755780D01*
X23216006Y11773916D01*
X23208284Y11789765D01*
X23198937Y11804751D01*
X23188015Y11818620D01*
X23175722Y11831269D01*
X23162107Y11842546D01*
X23147426Y11852351D01*
X23131729Y11860479D01*
X23115270Y11866880D01*
X23098252Y11871553D01*
X23080827Y11874347D01*
X23063200Y11875312D01*
X23045572Y11874347D01*
X23028148Y11871553D01*
X23011079Y11866880D01*
X22994620Y11860479D01*
X22978973Y11852351D01*
X22964241Y11842546D01*
X22950678Y11831269D01*
X22938333Y11818620D01*
X22927462Y11804751D01*
X22918064Y11789765D01*
X22910342Y11773916D01*
X22904348Y11757304D01*
X22900182Y11740134D01*
X22897846Y11722658D01*
X22897338Y11704980D01*
X22898760Y11687403D01*
X22902011Y11670030D01*
X22907142Y11653113D01*
X22914000Y11636857D01*
X22922534Y11621414D01*
X22932694Y11606936D01*
X22944328Y11593677D01*
X22957332Y11581688D01*
X22971506Y11571173D01*
X22986695Y11562181D01*
X23002798Y11554917D01*
X23019562Y11549329D01*
X23036784Y11545620D01*
G37*
G36*
X28097480Y11615521D02*
G01*
X28097480Y11663680D01*
X28049321Y11663680D01*
X28052572Y11657076D01*
X28060192Y11645696D01*
X28069235Y11635435D01*
X28079496Y11626392D01*
X28090876Y11618772D01*
G37*
G36*
X27843480Y11615521D02*
G01*
X27843480Y11663680D01*
X27795321Y11663680D01*
X27798572Y11657076D01*
X27806192Y11645696D01*
X27815235Y11635435D01*
X27825496Y11626392D01*
X27836876Y11618772D01*
G37*
G36*
X27589480Y11615521D02*
G01*
X27589480Y11663680D01*
X27541321Y11663680D01*
X27544572Y11657076D01*
X27552192Y11645696D01*
X27561235Y11635435D01*
X27571496Y11626392D01*
X27582876Y11618772D01*
G37*
G36*
X27680920Y11615521D02*
G01*
X27687524Y11618772D01*
X27698903Y11626392D01*
X27709164Y11635435D01*
X27718207Y11645696D01*
X27725827Y11657076D01*
X27729078Y11663680D01*
X27680920Y11663680D01*
G37*
G36*
X28188920Y11615521D02*
G01*
X28195524Y11618772D01*
X28206903Y11626392D01*
X28217164Y11635435D01*
X28226207Y11645696D01*
X28233827Y11657076D01*
X28237078Y11663680D01*
X28188920Y11663680D01*
G37*
G36*
X27934920Y11615521D02*
G01*
X27941524Y11618772D01*
X27952903Y11626392D01*
X27963164Y11635435D01*
X27972207Y11645696D01*
X27979827Y11657076D01*
X27983078Y11663680D01*
X27934920Y11663680D01*
G37*
G36*
X28049321Y11755120D02*
G01*
X28097480Y11755120D01*
X28097480Y11803278D01*
X28090876Y11800027D01*
X28079496Y11792407D01*
X28069235Y11783364D01*
X28060192Y11773103D01*
X28052572Y11761724D01*
G37*
G36*
X27541321Y11755120D02*
G01*
X27589480Y11755120D01*
X27589480Y11803278D01*
X27582876Y11800027D01*
X27571496Y11792407D01*
X27561235Y11783364D01*
X27552192Y11773103D01*
X27544572Y11761724D01*
G37*
G36*
X27795321Y11755120D02*
G01*
X27843480Y11755120D01*
X27843480Y11803278D01*
X27836876Y11800027D01*
X27825496Y11792407D01*
X27815235Y11783364D01*
X27806192Y11773103D01*
X27798572Y11761724D01*
G37*
G36*
X27934920Y11755120D02*
G01*
X27983078Y11755120D01*
X27979827Y11761724D01*
X27972207Y11773103D01*
X27963164Y11783364D01*
X27952903Y11792407D01*
X27941524Y11800027D01*
X27934920Y11803278D01*
G37*
G36*
X27680920Y11755120D02*
G01*
X27729078Y11755120D01*
X27725827Y11761724D01*
X27718207Y11773103D01*
X27709164Y11783364D01*
X27698903Y11792407D01*
X27687524Y11800027D01*
X27680920Y11803278D01*
G37*
G36*
X28188920Y11755120D02*
G01*
X28237078Y11755120D01*
X28233827Y11761724D01*
X28226207Y11773103D01*
X28217164Y11783364D01*
X28206903Y11792407D01*
X28195524Y11800027D01*
X28188920Y11803278D01*
G37*
G36*
X27889200Y11858752D02*
G01*
X27902865Y11859666D01*
X27916276Y11862358D01*
X27929230Y11866727D01*
X27941524Y11872772D01*
X27952903Y11880392D01*
X27963164Y11889435D01*
X27972207Y11899696D01*
X27979827Y11911076D01*
X27985872Y11923369D01*
X27990241Y11936323D01*
X27992933Y11949734D01*
X27993848Y11963400D01*
X27992933Y11977065D01*
X27990241Y11990476D01*
X27985872Y12003430D01*
X27979827Y12015724D01*
X27972207Y12027103D01*
X27963164Y12037364D01*
X27952903Y12046407D01*
X27941524Y12054027D01*
X27929230Y12060072D01*
X27916276Y12064441D01*
X27902865Y12067133D01*
X27889200Y12068048D01*
X27875534Y12067133D01*
X27862123Y12064441D01*
X27849169Y12060072D01*
X27836876Y12054027D01*
X27825496Y12046407D01*
X27815235Y12037364D01*
X27806192Y12027103D01*
X27798572Y12015724D01*
X27792527Y12003430D01*
X27788158Y11990476D01*
X27785466Y11977065D01*
X27784552Y11963400D01*
X27785466Y11949734D01*
X27788158Y11936323D01*
X27792527Y11923369D01*
X27798572Y11911076D01*
X27806192Y11899696D01*
X27815235Y11889435D01*
X27825496Y11880392D01*
X27836876Y11872772D01*
X27849169Y11866727D01*
X27862123Y11862358D01*
X27875534Y11859666D01*
G37*
G36*
X27635200Y11858752D02*
G01*
X27648865Y11859666D01*
X27662276Y11862358D01*
X27675230Y11866727D01*
X27687524Y11872772D01*
X27698903Y11880392D01*
X27709164Y11889435D01*
X27718207Y11899696D01*
X27725827Y11911076D01*
X27731872Y11923369D01*
X27736241Y11936323D01*
X27738933Y11949734D01*
X27739848Y11963400D01*
X27738933Y11977065D01*
X27736241Y11990476D01*
X27731872Y12003430D01*
X27725827Y12015724D01*
X27718207Y12027103D01*
X27709164Y12037364D01*
X27698903Y12046407D01*
X27687524Y12054027D01*
X27675230Y12060072D01*
X27662276Y12064441D01*
X27648865Y12067133D01*
X27635200Y12068048D01*
X27621534Y12067133D01*
X27608123Y12064441D01*
X27595169Y12060072D01*
X27582876Y12054027D01*
X27571496Y12046407D01*
X27561235Y12037364D01*
X27552192Y12027103D01*
X27544572Y12015724D01*
X27538527Y12003430D01*
X27534158Y11990476D01*
X27531466Y11977065D01*
X27530552Y11963400D01*
X27531466Y11949734D01*
X27534158Y11936323D01*
X27538527Y11923369D01*
X27544572Y11911076D01*
X27552192Y11899696D01*
X27561235Y11889435D01*
X27571496Y11880392D01*
X27582876Y11872772D01*
X27595169Y11866727D01*
X27608123Y11862358D01*
X27621534Y11859666D01*
G37*
G36*
X28065018Y11858752D02*
G01*
X28221381Y11858752D01*
X28227680Y11859463D01*
X28233166Y11861393D01*
X28238043Y11864441D01*
X28242158Y11868556D01*
X28245206Y11873433D01*
X28247136Y11878919D01*
X28247848Y11885218D01*
X28247848Y12041581D01*
X28247136Y12047880D01*
X28245206Y12053366D01*
X28242158Y12058243D01*
X28238043Y12062358D01*
X28233166Y12065406D01*
X28227680Y12067336D01*
X28221381Y12068048D01*
X28065018Y12068048D01*
X28058719Y12067336D01*
X28053233Y12065406D01*
X28048356Y12062358D01*
X28044241Y12058243D01*
X28041193Y12053366D01*
X28039263Y12047880D01*
X28038552Y12041581D01*
X28038552Y11885218D01*
X28039263Y11878919D01*
X28041193Y11873433D01*
X28044241Y11868556D01*
X28048356Y11864441D01*
X28053233Y11861393D01*
X28058719Y11859463D01*
G37*
G36*
X23301401Y11941098D02*
G01*
X25974548Y11941098D01*
X25982574Y11941860D01*
X25989838Y11944045D01*
X25996493Y11947652D01*
X26002742Y11952732D01*
X26041604Y11991594D01*
X26044499Y11993626D01*
X26047954Y11994540D01*
X26051459Y11994235D01*
X26065480Y11990374D01*
X26078992Y11988546D01*
X26092607Y11988546D01*
X26106120Y11990374D01*
X26119277Y11993981D01*
X26131824Y11999264D01*
X26143559Y12006224D01*
X26154278Y12014708D01*
X26163777Y12024512D01*
X26171855Y12035485D01*
X26178408Y12047423D01*
X26183285Y12060174D01*
X26186485Y12073432D01*
X26187806Y12086996D01*
X26187349Y12100610D01*
X26185114Y12114072D01*
X26181050Y12127077D01*
X26175309Y12139472D01*
X26167994Y12150953D01*
X26159206Y12161367D01*
X26149046Y12170511D01*
X26137819Y12178233D01*
X26125677Y12184380D01*
X26112774Y12188850D01*
X26099414Y12191593D01*
X26085800Y12192508D01*
X26072185Y12191593D01*
X26058825Y12188850D01*
X26045922Y12184380D01*
X26033780Y12178233D01*
X26022554Y12170511D01*
X26012393Y12161367D01*
X26003605Y12150953D01*
X25996290Y12139472D01*
X25990550Y12127077D01*
X25986486Y12114072D01*
X25984250Y12100610D01*
X25983793Y12086996D01*
X25985114Y12073432D01*
X25988314Y12060174D01*
X25989432Y12057176D01*
X25990092Y12053366D01*
X25989330Y12049556D01*
X25987146Y12046356D01*
X25962051Y12021261D01*
X25958749Y12019076D01*
X25954888Y12018314D01*
X25925322Y12018314D01*
X25920954Y12019280D01*
X25917448Y12022023D01*
X25915467Y12025985D01*
X25915315Y12030405D01*
X25917855Y12035485D01*
X25924408Y12047423D01*
X25929285Y12060174D01*
X25932485Y12073432D01*
X25933806Y12086996D01*
X25933349Y12100610D01*
X25931114Y12114072D01*
X25927050Y12127077D01*
X25921309Y12139472D01*
X25913994Y12150953D01*
X25905206Y12161367D01*
X25895046Y12170511D01*
X25883819Y12178233D01*
X25871678Y12184380D01*
X25858774Y12188850D01*
X25845414Y12191593D01*
X25831800Y12192508D01*
X25818185Y12191593D01*
X25804825Y12188850D01*
X25798322Y12186615D01*
X25794563Y12186056D01*
X25790906Y12186869D01*
X25787807Y12189002D01*
X25654203Y12322606D01*
X25647954Y12327686D01*
X25641300Y12331242D01*
X25634086Y12333478D01*
X25626060Y12334240D01*
X23513135Y12334240D01*
X23509274Y12335002D01*
X23505972Y12337237D01*
X23209961Y12633248D01*
X23207573Y12636906D01*
X23207014Y12641224D01*
X23208234Y12645390D01*
X23212399Y12652857D01*
X23219257Y12669113D01*
X23224337Y12686030D01*
X23227639Y12703403D01*
X23229011Y12720980D01*
X23228554Y12738658D01*
X23226217Y12756134D01*
X23222000Y12773304D01*
X23216006Y12789916D01*
X23208284Y12805765D01*
X23198937Y12820751D01*
X23188015Y12834620D01*
X23175722Y12847320D01*
X23162107Y12858546D01*
X23147426Y12868351D01*
X23131729Y12876479D01*
X23115270Y12882880D01*
X23098252Y12887553D01*
X23080827Y12890347D01*
X23063200Y12891312D01*
X23045572Y12890347D01*
X23028148Y12887553D01*
X23011079Y12882880D01*
X22994620Y12876479D01*
X22978973Y12868351D01*
X22964241Y12858546D01*
X22950678Y12847320D01*
X22938333Y12834620D01*
X22927462Y12820751D01*
X22918064Y12805765D01*
X22910342Y12789916D01*
X22904348Y12773304D01*
X22900182Y12756134D01*
X22897846Y12738658D01*
X22897338Y12720980D01*
X22898760Y12703403D01*
X22902011Y12686030D01*
X22907142Y12669113D01*
X22914000Y12652857D01*
X22922534Y12637414D01*
X22932694Y12622936D01*
X22944328Y12609677D01*
X22957332Y12597688D01*
X22971506Y12587173D01*
X22986695Y12578181D01*
X23002798Y12570917D01*
X23019562Y12565329D01*
X23036784Y12561620D01*
X23054360Y12559741D01*
X23072039Y12559741D01*
X23089565Y12561620D01*
X23106837Y12565329D01*
X23123601Y12570917D01*
X23139704Y12578181D01*
X23143057Y12580162D01*
X23147274Y12581534D01*
X23151642Y12580975D01*
X23155402Y12578588D01*
X23465282Y12268708D01*
X23471530Y12263577D01*
X23478185Y12260021D01*
X23485449Y12257836D01*
X23493476Y12257024D01*
X25606349Y12257024D01*
X25610261Y12256262D01*
X25613563Y12254077D01*
X25733146Y12134443D01*
X25735229Y12131446D01*
X25736092Y12127890D01*
X25735635Y12124283D01*
X25732486Y12114072D01*
X25730250Y12100610D01*
X25729793Y12086996D01*
X25731114Y12073432D01*
X25734314Y12060174D01*
X25739191Y12047423D01*
X25745744Y12035485D01*
X25748284Y12030405D01*
X25748132Y12025985D01*
X25746151Y12022023D01*
X25742646Y12019280D01*
X25738277Y12018314D01*
X25671322Y12018314D01*
X25666954Y12019280D01*
X25663448Y12022023D01*
X25661467Y12025985D01*
X25661315Y12030405D01*
X25663855Y12035485D01*
X25669595Y12045950D01*
X25622250Y12045950D01*
X25622250Y12028474D01*
X25621488Y12024563D01*
X25619252Y12021261D01*
X25616001Y12019076D01*
X25612090Y12018314D01*
X25543510Y12018314D01*
X25539598Y12019076D01*
X25536347Y12021261D01*
X25534112Y12024563D01*
X25533350Y12028474D01*
X25533350Y12045950D01*
X25486004Y12045950D01*
X25491744Y12035485D01*
X25494284Y12030405D01*
X25494132Y12025985D01*
X25492151Y12022023D01*
X25488646Y12019280D01*
X25484277Y12018314D01*
X25417322Y12018314D01*
X25412954Y12019280D01*
X25409448Y12022023D01*
X25407467Y12025985D01*
X25407315Y12030405D01*
X25409855Y12035485D01*
X25416408Y12047423D01*
X25421285Y12060174D01*
X25424485Y12073432D01*
X25425806Y12086996D01*
X25425349Y12100610D01*
X25423114Y12114072D01*
X25419050Y12127077D01*
X25413309Y12139472D01*
X25405994Y12150953D01*
X25397206Y12161367D01*
X25387046Y12170511D01*
X25375819Y12178233D01*
X25363678Y12184380D01*
X25350774Y12188850D01*
X25337414Y12191593D01*
X25323800Y12192508D01*
X25310185Y12191593D01*
X25296825Y12188850D01*
X25283922Y12184380D01*
X25271780Y12178233D01*
X25260554Y12170511D01*
X25250394Y12161367D01*
X25241605Y12150953D01*
X25234290Y12139472D01*
X25228550Y12127077D01*
X25224486Y12114072D01*
X25222250Y12100610D01*
X25221793Y12086996D01*
X25223114Y12073432D01*
X25226314Y12060174D01*
X25231191Y12047423D01*
X25237744Y12035485D01*
X25240284Y12030405D01*
X25240132Y12025985D01*
X25238151Y12022023D01*
X25234646Y12019280D01*
X25230277Y12018314D01*
X23321111Y12018314D01*
X23317200Y12019076D01*
X23313948Y12021261D01*
X23209961Y12125248D01*
X23207573Y12128906D01*
X23207014Y12133224D01*
X23208234Y12137390D01*
X23212399Y12144857D01*
X23219257Y12161113D01*
X23224337Y12178030D01*
X23227639Y12195403D01*
X23229011Y12212980D01*
X23228554Y12230658D01*
X23226217Y12248134D01*
X23222000Y12265304D01*
X23216006Y12281916D01*
X23208284Y12297765D01*
X23198937Y12312751D01*
X23188015Y12326620D01*
X23175722Y12339320D01*
X23162107Y12350546D01*
X23147426Y12360351D01*
X23131729Y12368479D01*
X23115270Y12374880D01*
X23098252Y12379553D01*
X23080827Y12382347D01*
X23063200Y12383312D01*
X23045572Y12382347D01*
X23028148Y12379553D01*
X23011079Y12374880D01*
X22994620Y12368479D01*
X22978973Y12360351D01*
X22964241Y12350546D01*
X22950678Y12339320D01*
X22938333Y12326620D01*
X22927462Y12312751D01*
X22918064Y12297765D01*
X22910342Y12281916D01*
X22904348Y12265304D01*
X22900182Y12248134D01*
X22897846Y12230658D01*
X22897338Y12212980D01*
X22898760Y12195403D01*
X22902011Y12178030D01*
X22907142Y12161113D01*
X22914000Y12144857D01*
X22922534Y12129414D01*
X22932694Y12114936D01*
X22944328Y12101677D01*
X22957332Y12089688D01*
X22971506Y12079173D01*
X22986695Y12070181D01*
X23002798Y12062917D01*
X23019562Y12057329D01*
X23036784Y12053620D01*
X23054360Y12051741D01*
X23072039Y12051741D01*
X23089565Y12053620D01*
X23106837Y12057329D01*
X23123601Y12062917D01*
X23139704Y12070181D01*
X23143057Y12072162D01*
X23147274Y12073534D01*
X23151642Y12072975D01*
X23155402Y12070588D01*
X23273258Y11952732D01*
X23279506Y11947652D01*
X23286161Y11944045D01*
X23293374Y11941860D01*
G37*
G36*
X29041852Y11960606D02*
G01*
X29059428Y11961571D01*
X29076853Y11964365D01*
X29093871Y11968988D01*
X29110279Y11975439D01*
X29125926Y11983567D01*
X29140607Y11993270D01*
X29154170Y12004548D01*
X29166464Y12017146D01*
X29177335Y12031014D01*
X29186682Y12045950D01*
X29194404Y12061850D01*
X29200398Y12078411D01*
X29204564Y12095530D01*
X29206901Y12113006D01*
X29207409Y12130633D01*
X29205986Y12148210D01*
X29202735Y12165533D01*
X29197604Y12182398D01*
X29190797Y12198604D01*
X29182212Y12214047D01*
X29172103Y12228474D01*
X29160470Y12241733D01*
X29147515Y12253671D01*
X29133393Y12264186D01*
X29118204Y12273178D01*
X29102151Y12280442D01*
X29085438Y12285980D01*
X29068217Y12289688D01*
X29050640Y12291568D01*
X29033063Y12291568D01*
X29015537Y12289688D01*
X28998265Y12285980D01*
X28993896Y12285218D01*
X28990289Y12286081D01*
X28987191Y12288215D01*
X28737052Y12538303D01*
X28730194Y12543993D01*
X28728212Y12545415D01*
X28720592Y12549987D01*
X28718357Y12551105D01*
X28710178Y12554508D01*
X28707842Y12555270D01*
X28699206Y12557404D01*
X28696767Y12557810D01*
X28687928Y12558623D01*
X26452931Y12558674D01*
X26449070Y12559487D01*
X26445768Y12561671D01*
X26209802Y12797637D01*
X26207770Y12800533D01*
X26206856Y12803987D01*
X26207161Y12807492D01*
X26209853Y12817348D01*
X26212647Y12834772D01*
X26213612Y12852400D01*
X26212647Y12870027D01*
X26209853Y12887452D01*
X26205180Y12904520D01*
X26198779Y12920980D01*
X26190651Y12936626D01*
X26180846Y12951358D01*
X26169620Y12964922D01*
X26156920Y12977266D01*
X26143051Y12988137D01*
X26128065Y12997535D01*
X26112216Y13005257D01*
X26095604Y13011251D01*
X26078434Y13015417D01*
X26060958Y13017754D01*
X26043280Y13018262D01*
X26025703Y13016839D01*
X26008330Y13013537D01*
X25991413Y13008457D01*
X25975157Y13001599D01*
X25959714Y12993065D01*
X25945236Y12982905D01*
X25931977Y12971272D01*
X25919988Y12958267D01*
X25909473Y12944094D01*
X25900481Y12928904D01*
X25893217Y12912801D01*
X25887629Y12896037D01*
X25883920Y12878816D01*
X25882041Y12861239D01*
X25882041Y12843560D01*
X25883920Y12826034D01*
X25887629Y12808762D01*
X25893217Y12791998D01*
X25900481Y12775895D01*
X25909473Y12760706D01*
X25919988Y12746532D01*
X25931977Y12733528D01*
X25945236Y12721945D01*
X25959714Y12711785D01*
X25975157Y12703200D01*
X25991413Y12696342D01*
X26008330Y12691262D01*
X26025703Y12687960D01*
X26043280Y12686588D01*
X26060958Y12687046D01*
X26078434Y12689382D01*
X26092912Y12692938D01*
X26096366Y12693142D01*
X26099668Y12692227D01*
X26102513Y12690246D01*
X26365504Y12427254D01*
X26372362Y12421616D01*
X26381964Y12415570D01*
X26392377Y12411100D01*
X26394714Y12410338D01*
X26403350Y12408154D01*
X26405789Y12407747D01*
X26414628Y12406934D01*
X28649625Y12406884D01*
X28653536Y12406122D01*
X28656788Y12403886D01*
X28880003Y12180722D01*
X28882035Y12177725D01*
X28882949Y12174220D01*
X28882543Y12170613D01*
X28880968Y12165533D01*
X28877717Y12148210D01*
X28876294Y12130633D01*
X28876802Y12113006D01*
X28879139Y12095530D01*
X28883305Y12078411D01*
X28889299Y12061850D01*
X28897021Y12045950D01*
X28906368Y12031014D01*
X28917239Y12017146D01*
X28929533Y12004548D01*
X28943096Y11993270D01*
X28957777Y11983567D01*
X28973424Y11975439D01*
X28989832Y11968988D01*
X29006850Y11964365D01*
X29024275Y11961571D01*
G37*
G36*
X30165548Y11979452D02*
G01*
X30165548Y12050014D01*
X30094936Y12050014D01*
X30096917Y12045950D01*
X30106264Y12031014D01*
X30117135Y12017146D01*
X30129429Y12004548D01*
X30142992Y11993270D01*
X30157674Y11983567D01*
G37*
G36*
X30317948Y11979452D02*
G01*
X30325822Y11983567D01*
X30340503Y11993270D01*
X30354066Y12004548D01*
X30366360Y12017146D01*
X30377231Y12031014D01*
X30386578Y12045950D01*
X30388560Y12050014D01*
X30317948Y12050014D01*
G37*
G36*
X26840992Y11988546D02*
G01*
X26854607Y11988546D01*
X26868120Y11990374D01*
X26881277Y11993981D01*
X26893824Y11999264D01*
X26905559Y12006224D01*
X26916278Y12014708D01*
X26925777Y12024512D01*
X26933855Y12035485D01*
X26940408Y12047423D01*
X26945285Y12060174D01*
X26948485Y12073432D01*
X26949806Y12086996D01*
X26949349Y12100610D01*
X26947114Y12114072D01*
X26943050Y12127077D01*
X26937309Y12139472D01*
X26929994Y12150953D01*
X26921206Y12161367D01*
X26911046Y12170511D01*
X26899819Y12178233D01*
X26887677Y12184380D01*
X26874774Y12188850D01*
X26861414Y12191593D01*
X26847800Y12192508D01*
X26834185Y12191593D01*
X26820825Y12188850D01*
X26807922Y12184380D01*
X26795780Y12178233D01*
X26784553Y12170511D01*
X26774394Y12161367D01*
X26765605Y12150953D01*
X26758290Y12139472D01*
X26752550Y12127077D01*
X26748486Y12114072D01*
X26746250Y12100610D01*
X26745793Y12086996D01*
X26747114Y12073432D01*
X26750314Y12060174D01*
X26755191Y12047423D01*
X26761744Y12035485D01*
X26769822Y12024512D01*
X26779321Y12014708D01*
X26790040Y12006224D01*
X26801775Y11999264D01*
X26814322Y11993981D01*
X26827480Y11990374D01*
G37*
G36*
X27057350Y11998604D02*
G01*
X27057350Y12045950D01*
X27010004Y12045950D01*
X27015744Y12035485D01*
X27023822Y12024512D01*
X27033321Y12014708D01*
X27044040Y12006224D01*
X27055775Y11999264D01*
G37*
G36*
X27146250Y11998604D02*
G01*
X27147824Y11999264D01*
X27159559Y12006224D01*
X27170278Y12014708D01*
X27179777Y12024512D01*
X27187855Y12035485D01*
X27193595Y12045950D01*
X27146250Y12045950D01*
G37*
G36*
X25486156Y12134850D02*
G01*
X25533350Y12134850D01*
X25533350Y12182043D01*
X25525780Y12178233D01*
X25514554Y12170511D01*
X25504394Y12161367D01*
X25495605Y12150953D01*
X25488290Y12139472D01*
G37*
G36*
X25622250Y12134850D02*
G01*
X25669443Y12134850D01*
X25667309Y12139472D01*
X25659994Y12150953D01*
X25651206Y12161367D01*
X25641046Y12170511D01*
X25629819Y12178233D01*
X25622250Y12182043D01*
G37*
G36*
X27146250Y12134850D02*
G01*
X27193443Y12134850D01*
X27191309Y12139472D01*
X27183994Y12150953D01*
X27175206Y12161367D01*
X27165046Y12170511D01*
X27153819Y12178233D01*
X27146250Y12182043D01*
G37*
G36*
X27010156Y12134850D02*
G01*
X27057350Y12134850D01*
X27057350Y12182043D01*
X27049780Y12178233D01*
X27038553Y12170511D01*
X27028394Y12161367D01*
X27019605Y12150953D01*
X27012290Y12139472D01*
G37*
G36*
X30317948Y12202414D02*
G01*
X30388560Y12202414D01*
X30382108Y12214047D01*
X30371999Y12228474D01*
X30360365Y12241733D01*
X30347412Y12253671D01*
X30333289Y12264186D01*
X30317948Y12273229D01*
G37*
G36*
X30094936Y12202414D02*
G01*
X30165548Y12202414D01*
X30165548Y12273229D01*
X30150206Y12264186D01*
X30136084Y12253671D01*
X30123130Y12241733D01*
X30111496Y12228474D01*
X30101387Y12214047D01*
G37*
G36*
X30840680Y12504521D02*
G01*
X30840680Y12552680D01*
X30792521Y12552680D01*
X30795772Y12546076D01*
X30803392Y12534696D01*
X30812435Y12524435D01*
X30822696Y12515392D01*
X30834076Y12507772D01*
G37*
G36*
X30932120Y12504521D02*
G01*
X30938724Y12507772D01*
X30950103Y12515392D01*
X30960364Y12524435D01*
X30969407Y12534696D01*
X30977027Y12546076D01*
X30979262Y12550648D01*
X30980888Y12552680D01*
X30932120Y12552680D01*
G37*
G36*
X30792521Y12644120D02*
G01*
X30840680Y12644120D01*
X30840680Y12692278D01*
X30834076Y12689027D01*
X30822696Y12681407D01*
X30812435Y12672364D01*
X30803392Y12662103D01*
X30795772Y12650724D01*
G37*
G36*
X30932120Y12644120D02*
G01*
X30980888Y12644120D01*
X30979262Y12646152D01*
X30977027Y12650724D01*
X30969407Y12662103D01*
X30960364Y12672364D01*
X30950103Y12681407D01*
X30938724Y12689027D01*
X30932120Y12692278D01*
G37*
G36*
X28430880Y12686588D02*
G01*
X28448558Y12687046D01*
X28466034Y12689382D01*
X28483204Y12693599D01*
X28499815Y12699593D01*
X28515665Y12707315D01*
X28530651Y12716662D01*
X28544520Y12727584D01*
X28557169Y12739878D01*
X28568446Y12753492D01*
X28578251Y12768173D01*
X28586379Y12783870D01*
X28592780Y12800330D01*
X28597453Y12817348D01*
X28600247Y12834772D01*
X28601212Y12852400D01*
X28600247Y12870027D01*
X28597453Y12887452D01*
X28592780Y12904520D01*
X28586379Y12920980D01*
X28578251Y12936626D01*
X28568446Y12951358D01*
X28557169Y12964922D01*
X28544520Y12977266D01*
X28530651Y12988137D01*
X28515665Y12997535D01*
X28499815Y13005257D01*
X28483204Y13011251D01*
X28466034Y13015417D01*
X28448558Y13017754D01*
X28430880Y13018262D01*
X28413303Y13016839D01*
X28395930Y13013588D01*
X28379013Y13008457D01*
X28362757Y13001599D01*
X28347314Y12993065D01*
X28332836Y12982905D01*
X28319577Y12971272D01*
X28307588Y12958267D01*
X28297073Y12944094D01*
X28288081Y12928904D01*
X28280817Y12912801D01*
X28275229Y12896037D01*
X28271520Y12878816D01*
X28269641Y12861239D01*
X28269641Y12843560D01*
X28271520Y12826034D01*
X28275229Y12808762D01*
X28280817Y12791998D01*
X28288081Y12775895D01*
X28297073Y12760706D01*
X28307588Y12746532D01*
X28319577Y12733578D01*
X28332836Y12721945D01*
X28347314Y12711785D01*
X28362757Y12703200D01*
X28379013Y12696342D01*
X28395930Y12691262D01*
X28413303Y12687960D01*
G37*
G36*
X27237080Y12686588D02*
G01*
X27254758Y12687046D01*
X27272234Y12689382D01*
X27289404Y12693599D01*
X27306015Y12699593D01*
X27321865Y12707315D01*
X27336851Y12716662D01*
X27350720Y12727584D01*
X27363369Y12739878D01*
X27374646Y12753492D01*
X27384451Y12768173D01*
X27392579Y12783870D01*
X27398980Y12800330D01*
X27403653Y12817348D01*
X27406447Y12834772D01*
X27407412Y12852400D01*
X27406447Y12870027D01*
X27403653Y12887452D01*
X27398980Y12904520D01*
X27392579Y12920980D01*
X27384451Y12936626D01*
X27374646Y12951358D01*
X27363369Y12964922D01*
X27350720Y12977266D01*
X27336851Y12988137D01*
X27321865Y12997535D01*
X27306015Y13005257D01*
X27289404Y13011251D01*
X27272234Y13015417D01*
X27254758Y13017754D01*
X27237080Y13018262D01*
X27219503Y13016839D01*
X27202130Y13013588D01*
X27185213Y13008457D01*
X27168957Y13001599D01*
X27153514Y12993065D01*
X27139036Y12982905D01*
X27125777Y12971272D01*
X27113788Y12958267D01*
X27103273Y12944094D01*
X27094281Y12928904D01*
X27087017Y12912801D01*
X27081429Y12896037D01*
X27077720Y12878816D01*
X27075841Y12861239D01*
X27075841Y12843560D01*
X27077720Y12826034D01*
X27081429Y12808762D01*
X27087017Y12791998D01*
X27094281Y12775895D01*
X27103273Y12760706D01*
X27113788Y12746532D01*
X27125777Y12733578D01*
X27139036Y12721945D01*
X27153514Y12711785D01*
X27168957Y12703200D01*
X27185213Y12696342D01*
X27202130Y12691262D01*
X27219503Y12687960D01*
G37*
G36*
X24849480Y12686588D02*
G01*
X24867158Y12687046D01*
X24884634Y12689382D01*
X24901804Y12693599D01*
X24918416Y12699542D01*
X24934265Y12707315D01*
X24949251Y12716662D01*
X24963120Y12727584D01*
X24975820Y12739878D01*
X24987046Y12753492D01*
X24996851Y12768173D01*
X25004979Y12783870D01*
X25011380Y12800279D01*
X25016053Y12817348D01*
X25018847Y12834772D01*
X25019812Y12852400D01*
X25018847Y12870027D01*
X25016053Y12887452D01*
X25011380Y12904520D01*
X25004979Y12920980D01*
X24996851Y12936626D01*
X24987046Y12951358D01*
X24975820Y12964922D01*
X24963120Y12977266D01*
X24949251Y12988137D01*
X24934265Y12997535D01*
X24918416Y13005257D01*
X24901804Y13011251D01*
X24884634Y13015417D01*
X24867158Y13017754D01*
X24849480Y13018262D01*
X24831903Y13016839D01*
X24814530Y13013537D01*
X24797613Y13008457D01*
X24781357Y13001599D01*
X24765914Y12993065D01*
X24751436Y12982905D01*
X24738177Y12971272D01*
X24726188Y12958267D01*
X24715673Y12944094D01*
X24706681Y12928904D01*
X24699417Y12912801D01*
X24693829Y12896037D01*
X24690120Y12878816D01*
X24688241Y12861239D01*
X24688241Y12843560D01*
X24690120Y12826034D01*
X24693829Y12808762D01*
X24699417Y12791998D01*
X24706681Y12775895D01*
X24715673Y12760706D01*
X24726188Y12746532D01*
X24738177Y12733528D01*
X24751436Y12721945D01*
X24765914Y12711785D01*
X24781357Y12703200D01*
X24797613Y12696342D01*
X24814530Y12691262D01*
X24831903Y12687960D01*
G37*
G36*
X26809852Y12705334D02*
G01*
X26813865Y12707315D01*
X26828851Y12716662D01*
X26842720Y12727584D01*
X26855369Y12739878D01*
X26866646Y12753492D01*
X26876451Y12768173D01*
X26880515Y12776047D01*
X26809852Y12776047D01*
G37*
G36*
X24422252Y12705334D02*
G01*
X24426265Y12707315D01*
X24441251Y12716662D01*
X24455120Y12727584D01*
X24467820Y12739878D01*
X24479046Y12753492D01*
X24488851Y12768173D01*
X24492915Y12776047D01*
X24422252Y12776047D01*
G37*
G36*
X25616052Y12705334D02*
G01*
X25620065Y12707315D01*
X25635051Y12716662D01*
X25648920Y12727584D01*
X25661620Y12739878D01*
X25672846Y12753492D01*
X25682651Y12768173D01*
X25686715Y12776047D01*
X25616052Y12776047D01*
G37*
G36*
X28003652Y12705334D02*
G01*
X28007665Y12707315D01*
X28022651Y12716662D01*
X28036520Y12727584D01*
X28049169Y12739878D01*
X28060446Y12753492D01*
X28070251Y12768173D01*
X28074315Y12776047D01*
X28003652Y12776047D01*
G37*
G36*
X25463347Y12705334D02*
G01*
X25463347Y12776047D01*
X25392430Y12776047D01*
X25401473Y12760706D01*
X25411988Y12746532D01*
X25423977Y12733528D01*
X25437236Y12721945D01*
X25451714Y12711785D01*
G37*
G36*
X26657147Y12705334D02*
G01*
X26657147Y12776047D01*
X26586230Y12776047D01*
X26595273Y12760706D01*
X26605788Y12746532D01*
X26617777Y12733578D01*
X26631036Y12721945D01*
X26645514Y12711785D01*
G37*
G36*
X27850947Y12705334D02*
G01*
X27850947Y12776047D01*
X27780030Y12776047D01*
X27789073Y12760706D01*
X27799588Y12746532D01*
X27811577Y12733578D01*
X27824836Y12721945D01*
X27839314Y12711785D01*
G37*
G36*
X24269547Y12705334D02*
G01*
X24269547Y12776047D01*
X24198630Y12776047D01*
X24207673Y12760706D01*
X24218188Y12746532D01*
X24230177Y12733528D01*
X24243436Y12721945D01*
X24257914Y12711785D01*
G37*
G36*
X28003652Y12928752D02*
G01*
X28074315Y12928752D01*
X28070251Y12936626D01*
X28060446Y12951358D01*
X28049169Y12964922D01*
X28036520Y12977266D01*
X28022651Y12988137D01*
X28007665Y12997535D01*
X28003652Y12999466D01*
G37*
G36*
X24422252Y12928752D02*
G01*
X24492915Y12928752D01*
X24488851Y12936626D01*
X24479046Y12951358D01*
X24467820Y12964922D01*
X24455120Y12977266D01*
X24441251Y12988137D01*
X24426265Y12997535D01*
X24422252Y12999466D01*
G37*
G36*
X26809852Y12928752D02*
G01*
X26880515Y12928752D01*
X26876451Y12936626D01*
X26866646Y12951358D01*
X26855369Y12964922D01*
X26842720Y12977266D01*
X26828851Y12988137D01*
X26813865Y12997535D01*
X26809852Y12999466D01*
G37*
G36*
X25616052Y12928752D02*
G01*
X25686715Y12928752D01*
X25682651Y12936626D01*
X25672846Y12951358D01*
X25661620Y12964922D01*
X25648920Y12977266D01*
X25635051Y12988137D01*
X25620065Y12997535D01*
X25616052Y12999466D01*
G37*
G36*
X26586230Y12928752D02*
G01*
X26657147Y12928752D01*
X26657147Y12999516D01*
X26645514Y12993065D01*
X26631036Y12982905D01*
X26617777Y12971272D01*
X26605788Y12958267D01*
X26595273Y12944094D01*
G37*
G36*
X27780030Y12928752D02*
G01*
X27850947Y12928752D01*
X27850947Y12999516D01*
X27839314Y12993065D01*
X27824836Y12982905D01*
X27811577Y12971272D01*
X27799588Y12958267D01*
X27789073Y12944094D01*
G37*
G36*
X25392430Y12928752D02*
G01*
X25463347Y12928752D01*
X25463347Y12999466D01*
X25451714Y12993065D01*
X25437236Y12982905D01*
X25423977Y12971272D01*
X25411988Y12958267D01*
X25401473Y12944094D01*
G37*
G36*
X24198630Y12928752D02*
G01*
X24269547Y12928752D01*
X24269547Y12999466D01*
X24257914Y12993065D01*
X24243436Y12982905D01*
X24230177Y12971272D01*
X24218188Y12958267D01*
X24207673Y12944094D01*
G37*

%LPD*%
G36*
X22725329Y7835696D02*
G01*
X22706888Y7836611D01*
X22690023Y7839202D01*
X22673462Y7843367D01*
X22657409Y7849209D01*
X22641966Y7856524D01*
X22627336Y7865364D01*
X22613670Y7875574D01*
X22601021Y7887055D01*
X22589591Y7899755D01*
X22579482Y7913522D01*
X22570744Y7928203D01*
X22563480Y7943646D01*
X22557790Y7959750D01*
X22553676Y7976311D01*
X22551186Y7993227D01*
X22550983Y7997545D01*
X22551644Y8001660D01*
X22553879Y8005165D01*
X22557333Y8007451D01*
X22561397Y8008213D01*
X22565461Y8007248D01*
X22568763Y8004759D01*
X22570135Y8003235D01*
X22580396Y7994192D01*
X22591776Y7986572D01*
X22598380Y7983321D01*
X22598380Y8031480D01*
X22560534Y8031480D01*
X22556622Y8032242D01*
X22553320Y8034477D01*
X22551136Y8037728D01*
X22550374Y8041640D01*
X22550374Y8112759D01*
X22551136Y8116671D01*
X22553320Y8119922D01*
X22556622Y8122158D01*
X22560534Y8122920D01*
X22598380Y8122920D01*
X22598380Y8171078D01*
X22591776Y8167827D01*
X22580396Y8160207D01*
X22570135Y8151164D01*
X22568154Y8148929D01*
X22564902Y8146491D01*
X22560991Y8145475D01*
X22556927Y8146135D01*
X22553472Y8148320D01*
X22551186Y8151672D01*
X22550374Y8155635D01*
X22550374Y8252764D01*
X22551186Y8256727D01*
X22553472Y8260080D01*
X22556927Y8262264D01*
X22560991Y8262874D01*
X22564902Y8261908D01*
X22568154Y8259470D01*
X22570135Y8257235D01*
X22580396Y8248192D01*
X22591776Y8240572D01*
X22604069Y8234527D01*
X22617023Y8230158D01*
X22630434Y8227466D01*
X22644100Y8226552D01*
X22657765Y8227466D01*
X22671176Y8230158D01*
X22684130Y8234527D01*
X22696424Y8240572D01*
X22707803Y8248192D01*
X22718064Y8257235D01*
X22727107Y8267496D01*
X22734727Y8278875D01*
X22738689Y8286953D01*
X22740924Y8289950D01*
X22744125Y8291931D01*
X22747782Y8292592D01*
X22794417Y8292592D01*
X22798074Y8291931D01*
X22801275Y8289950D01*
X22803510Y8286953D01*
X22807472Y8278875D01*
X22815092Y8267496D01*
X22824135Y8257235D01*
X22834396Y8248192D01*
X22845776Y8240572D01*
X22858069Y8234527D01*
X22871023Y8230158D01*
X22884434Y8227466D01*
X22898100Y8226552D01*
X22911765Y8227466D01*
X22925176Y8230158D01*
X22938130Y8234527D01*
X22950424Y8240572D01*
X22961803Y8248192D01*
X22972064Y8257235D01*
X22981107Y8267496D01*
X22988066Y8277910D01*
X22991114Y8280857D01*
X22995178Y8282330D01*
X22999446Y8281974D01*
X23003205Y8279892D01*
X23005745Y8276437D01*
X23006659Y8270951D01*
X23007421Y8262924D01*
X23009656Y8255711D01*
X23013212Y8249056D01*
X23018292Y8242808D01*
X23083824Y8177275D01*
X23086974Y8174685D01*
X23089717Y8171230D01*
X23090682Y8167014D01*
X23089819Y8162696D01*
X23087228Y8159191D01*
X23078135Y8151164D01*
X23069092Y8140903D01*
X23061472Y8129524D01*
X23055427Y8117230D01*
X23051058Y8104276D01*
X23048366Y8090865D01*
X23047452Y8077200D01*
X23048366Y8063534D01*
X23051058Y8050123D01*
X23055427Y8037169D01*
X23061472Y8024875D01*
X23069092Y8013496D01*
X23078135Y8003235D01*
X23088396Y7994192D01*
X23099776Y7986572D01*
X23112069Y7980527D01*
X23125023Y7976158D01*
X23138434Y7973466D01*
X23152100Y7972552D01*
X23165765Y7973466D01*
X23179176Y7976158D01*
X23192130Y7980527D01*
X23204424Y7986572D01*
X23215803Y7994192D01*
X23226064Y8003235D01*
X23235107Y8013496D01*
X23242727Y8024875D01*
X23248772Y8037169D01*
X23253141Y8050123D01*
X23255833Y8063534D01*
X23256748Y8077200D01*
X23255833Y8090865D01*
X23253141Y8104276D01*
X23248772Y8117230D01*
X23242727Y8129524D01*
X23235107Y8140903D01*
X23228198Y8148726D01*
X23226268Y8152079D01*
X23225709Y8155889D01*
X23226623Y8159648D01*
X23228858Y8162798D01*
X23232059Y8164880D01*
X23235869Y8165592D01*
X23258881Y8165592D01*
X23262793Y8164830D01*
X23266095Y8162645D01*
X23305465Y8123224D01*
X23307598Y8120125D01*
X23308462Y8116468D01*
X23307903Y8112759D01*
X23305058Y8104276D01*
X23302366Y8090865D01*
X23301452Y8077200D01*
X23302366Y8063534D01*
X23305058Y8050123D01*
X23309427Y8037169D01*
X23315472Y8024875D01*
X23323092Y8013496D01*
X23332135Y8003235D01*
X23342396Y7994192D01*
X23353776Y7986572D01*
X23366069Y7980527D01*
X23379023Y7976158D01*
X23392434Y7973466D01*
X23406100Y7972552D01*
X23419765Y7973466D01*
X23433176Y7976158D01*
X23446130Y7980527D01*
X23458424Y7986572D01*
X23469803Y7994192D01*
X23480064Y8003235D01*
X23489107Y8013496D01*
X23496625Y8024774D01*
X23499318Y8027466D01*
X23502772Y8029041D01*
X23506582Y8029194D01*
X23510189Y8027924D01*
X23513034Y8025434D01*
X23514812Y8022081D01*
X23517098Y8014512D01*
X23520654Y8007858D01*
X23525784Y8001609D01*
X23595787Y7931607D01*
X23602035Y7926527D01*
X23608690Y7922920D01*
X23615904Y7920736D01*
X23623930Y7919974D01*
X23959261Y7919974D01*
X23967287Y7920736D01*
X23974501Y7922920D01*
X23981156Y7926527D01*
X23987404Y7931607D01*
X24070056Y8014258D01*
X24073510Y8016494D01*
X24077574Y8017205D01*
X24081587Y8016240D01*
X24084889Y8013750D01*
X24094135Y8003235D01*
X24104396Y7994192D01*
X24115776Y7986572D01*
X24128069Y7980527D01*
X24141023Y7976158D01*
X24154434Y7973466D01*
X24168100Y7972552D01*
X24181765Y7973466D01*
X24195176Y7976158D01*
X24208130Y7980527D01*
X24220424Y7986572D01*
X24231803Y7994192D01*
X24242064Y8003235D01*
X24251107Y8013496D01*
X24258727Y8024875D01*
X24264772Y8037169D01*
X24269141Y8050123D01*
X24271833Y8063534D01*
X24272748Y8077200D01*
X24271833Y8090865D01*
X24269141Y8104276D01*
X24264772Y8117230D01*
X24258727Y8129524D01*
X24251107Y8140903D01*
X24242064Y8151164D01*
X24236070Y8156448D01*
X24233479Y8160003D01*
X24232565Y8164271D01*
X24233581Y8168538D01*
X24236324Y8171942D01*
X24242776Y8177275D01*
X24305920Y8240420D01*
X24308917Y8242503D01*
X24312422Y8243366D01*
X24316029Y8242960D01*
X24319280Y8241334D01*
X24321719Y8238642D01*
X24323141Y8236356D01*
X24327256Y8232241D01*
X24332133Y8229193D01*
X24337619Y8227263D01*
X24343918Y8226552D01*
X24505564Y8226501D01*
X24508917Y8224926D01*
X24511457Y8222284D01*
X24512930Y8218931D01*
X24513082Y8215274D01*
X24512422Y8210346D01*
X24510949Y8185150D01*
X24511457Y8160308D01*
X24510746Y8156498D01*
X24508714Y8153196D01*
X24505564Y8150910D01*
X24501805Y8149996D01*
X24497944Y8150555D01*
X24494591Y8152485D01*
X24485803Y8160207D01*
X24474424Y8167827D01*
X24462130Y8173872D01*
X24449176Y8178241D01*
X24435765Y8180933D01*
X24422100Y8181848D01*
X24408434Y8180933D01*
X24395023Y8178241D01*
X24382069Y8173872D01*
X24369776Y8167827D01*
X24358396Y8160207D01*
X24348135Y8151164D01*
X24339092Y8140903D01*
X24331472Y8129524D01*
X24325427Y8117230D01*
X24321058Y8104276D01*
X24318366Y8090865D01*
X24317452Y8077200D01*
X24318366Y8063534D01*
X24321058Y8050123D01*
X24325427Y8037169D01*
X24331472Y8024875D01*
X24339092Y8013496D01*
X24348135Y8003235D01*
X24358396Y7994192D01*
X24369776Y7986572D01*
X24382069Y7980527D01*
X24395023Y7976158D01*
X24408434Y7973466D01*
X24422100Y7972552D01*
X24435765Y7973466D01*
X24449176Y7976158D01*
X24462130Y7980527D01*
X24474424Y7986572D01*
X24485803Y7994192D01*
X24496064Y8003235D01*
X24505107Y8013496D01*
X24512727Y8024875D01*
X24518772Y8037169D01*
X24521058Y8043925D01*
X24523090Y8047380D01*
X24526341Y8049818D01*
X24530253Y8050784D01*
X24534266Y8050123D01*
X24537670Y8047990D01*
X24540006Y8044637D01*
X24542800Y8038236D01*
X24554535Y8015833D01*
X24568048Y7994497D01*
X24583136Y7974228D01*
X24599747Y7955178D01*
X24617781Y7937449D01*
X24637136Y7921244D01*
X24657710Y7906512D01*
X24679351Y7893456D01*
X24701957Y7882128D01*
X24725325Y7872577D01*
X24749404Y7864856D01*
X24773991Y7859014D01*
X24794006Y7855915D01*
X24798020Y7854340D01*
X24801017Y7851292D01*
X24802490Y7847228D01*
X24802134Y7842961D01*
X24800052Y7839151D01*
X24796597Y7836611D01*
X24792432Y7835696D01*
G37*

%LPC*%
G36*
X22852380Y7983321D02*
G01*
X22852380Y8031480D01*
X22804221Y8031480D01*
X22807472Y8024875D01*
X22815092Y8013496D01*
X22824135Y8003235D01*
X22834396Y7994192D01*
X22845776Y7986572D01*
G37*
G36*
X22689820Y7983321D02*
G01*
X22696424Y7986572D01*
X22707803Y7994192D01*
X22718064Y8003235D01*
X22727107Y8013496D01*
X22734727Y8024875D01*
X22737978Y8031480D01*
X22689820Y8031480D01*
G37*
G36*
X22943820Y7983321D02*
G01*
X22950424Y7986572D01*
X22961803Y7994192D01*
X22972064Y8003235D01*
X22981107Y8013496D01*
X22988727Y8024875D01*
X22991978Y8031480D01*
X22943820Y8031480D01*
G37*
G36*
X22804221Y8122920D02*
G01*
X22852380Y8122920D01*
X22852380Y8171078D01*
X22845776Y8167827D01*
X22834396Y8160207D01*
X22824135Y8151164D01*
X22815092Y8140903D01*
X22807472Y8129524D01*
G37*
G36*
X22943820Y8122920D02*
G01*
X22991978Y8122920D01*
X22988727Y8129524D01*
X22981107Y8140903D01*
X22972064Y8151164D01*
X22961803Y8160207D01*
X22950424Y8167827D01*
X22943820Y8171078D01*
G37*
G36*
X22689820Y8122920D02*
G01*
X22737978Y8122920D01*
X22734727Y8129524D01*
X22727107Y8140903D01*
X22718064Y8151164D01*
X22707803Y8160207D01*
X22696424Y8167827D01*
X22689820Y8171078D01*
G37*

%LPD*%
G36*
X25257556Y7835696D02*
G01*
X25253492Y7836560D01*
X25250089Y7838948D01*
X25247955Y7842503D01*
X25247447Y7846618D01*
X25248565Y7850581D01*
X25251206Y7853781D01*
X25254915Y7855661D01*
X25264211Y7858150D01*
X25273101Y7862265D01*
X25281077Y7867903D01*
X25282499Y7869326D01*
X25285801Y7871510D01*
X25289713Y7872272D01*
X28484372Y7872272D01*
X28492399Y7873085D01*
X28499612Y7875270D01*
X28506267Y7878825D01*
X28512515Y7883956D01*
X28571088Y7942478D01*
X28574339Y7944662D01*
X28578149Y7945475D01*
X28582010Y7944764D01*
X28589986Y7941614D01*
X28604057Y7937957D01*
X28618535Y7936128D01*
X28633064Y7936128D01*
X28647491Y7937957D01*
X28661614Y7941614D01*
X28675126Y7946948D01*
X28687877Y7953959D01*
X28699663Y7962493D01*
X28710280Y7972501D01*
X28719576Y7983677D01*
X28727349Y7995970D01*
X28733546Y8009128D01*
X28738068Y8022996D01*
X28740760Y8037271D01*
X28741674Y8051800D01*
X28740760Y8066328D01*
X28738068Y8080603D01*
X28733546Y8094472D01*
X28727349Y8107629D01*
X28722269Y8115706D01*
X28720745Y8119719D01*
X28721100Y8124037D01*
X28723183Y8127796D01*
X28726638Y8130387D01*
X28730803Y8131302D01*
X28741522Y8131302D01*
X28745383Y8130489D01*
X28748685Y8128304D01*
X28770376Y8106664D01*
X28772612Y8103209D01*
X28773323Y8099145D01*
X28772053Y8094472D01*
X28767532Y8080603D01*
X28764839Y8066328D01*
X28763925Y8051800D01*
X28764839Y8037271D01*
X28767532Y8022996D01*
X28772053Y8009128D01*
X28778250Y7995970D01*
X28786023Y7983677D01*
X28795319Y7972501D01*
X28805936Y7962493D01*
X28817722Y7953959D01*
X28830473Y7946948D01*
X28843986Y7941614D01*
X28858057Y7937957D01*
X28872535Y7936128D01*
X28887064Y7936128D01*
X28901491Y7937957D01*
X28915614Y7941614D01*
X28929126Y7946948D01*
X28941877Y7953959D01*
X28953663Y7962493D01*
X28964280Y7972501D01*
X28973576Y7983677D01*
X28981349Y7995970D01*
X28987546Y8009128D01*
X28992068Y8022996D01*
X28994760Y8037271D01*
X28995674Y8051800D01*
X28994760Y8066328D01*
X28992068Y8080603D01*
X28987546Y8094472D01*
X28981349Y8107629D01*
X28973576Y8119922D01*
X28970528Y8123580D01*
X28968700Y8126882D01*
X28968242Y8130692D01*
X28969157Y8134350D01*
X28971392Y8137448D01*
X28974643Y8139480D01*
X28978352Y8140192D01*
X28986581Y8140192D01*
X28990493Y8139430D01*
X28993795Y8137245D01*
X29024376Y8106664D01*
X29026612Y8103209D01*
X29027323Y8099145D01*
X29026053Y8094472D01*
X29021532Y8080603D01*
X29018839Y8066328D01*
X29017925Y8051800D01*
X29018839Y8037271D01*
X29021532Y8022996D01*
X29026053Y8009128D01*
X29032250Y7995970D01*
X29040023Y7983677D01*
X29049319Y7972501D01*
X29059936Y7962493D01*
X29071722Y7953959D01*
X29084473Y7946948D01*
X29097986Y7941614D01*
X29112057Y7937957D01*
X29126535Y7936128D01*
X29141064Y7936128D01*
X29155491Y7937957D01*
X29169614Y7941614D01*
X29183126Y7946948D01*
X29195877Y7953959D01*
X29207663Y7962493D01*
X29218280Y7972501D01*
X29227576Y7983677D01*
X29235349Y7995970D01*
X29241546Y8009128D01*
X29246068Y8022996D01*
X29248760Y8037271D01*
X29249674Y8051800D01*
X29248760Y8066328D01*
X29246068Y8080603D01*
X29241546Y8094472D01*
X29235349Y8107629D01*
X29227576Y8119922D01*
X29224528Y8123580D01*
X29222700Y8126882D01*
X29222242Y8130692D01*
X29223157Y8134350D01*
X29225392Y8137448D01*
X29228643Y8139480D01*
X29232352Y8140192D01*
X29240581Y8140192D01*
X29244493Y8139430D01*
X29247795Y8137245D01*
X29278376Y8106664D01*
X29280612Y8103209D01*
X29281323Y8099145D01*
X29280053Y8094472D01*
X29275532Y8080603D01*
X29272839Y8066328D01*
X29271925Y8051800D01*
X29272839Y8037271D01*
X29275532Y8022996D01*
X29280053Y8009128D01*
X29286250Y7995970D01*
X29294023Y7983677D01*
X29303319Y7972501D01*
X29313936Y7962493D01*
X29325722Y7953959D01*
X29338473Y7946948D01*
X29351986Y7941614D01*
X29366057Y7937957D01*
X29380535Y7936128D01*
X29395064Y7936128D01*
X29409491Y7937957D01*
X29423614Y7941614D01*
X29437126Y7946948D01*
X29449877Y7953959D01*
X29461663Y7962493D01*
X29472280Y7972501D01*
X29481576Y7983677D01*
X29489349Y7995970D01*
X29495546Y8009128D01*
X29500068Y8022996D01*
X29502760Y8037271D01*
X29503674Y8051800D01*
X29502760Y8066328D01*
X29500068Y8080603D01*
X29495546Y8094472D01*
X29489349Y8107629D01*
X29481576Y8119922D01*
X29472280Y8131149D01*
X29461663Y8141106D01*
X29449877Y8149640D01*
X29437126Y8156651D01*
X29423614Y8162036D01*
X29409491Y8165642D01*
X29395064Y8167471D01*
X29380535Y8167471D01*
X29366057Y8165642D01*
X29351986Y8162036D01*
X29344010Y8158886D01*
X29340149Y8158124D01*
X29336339Y8158937D01*
X29333088Y8161121D01*
X29288435Y8205774D01*
X29282186Y8210854D01*
X29275532Y8214410D01*
X29268318Y8216646D01*
X29260292Y8217408D01*
X29232352Y8217408D01*
X29228643Y8218119D01*
X29225443Y8220151D01*
X29223157Y8223250D01*
X29222242Y8226958D01*
X29222700Y8230717D01*
X29224528Y8234070D01*
X29227576Y8237677D01*
X29235349Y8249970D01*
X29241546Y8263128D01*
X29246068Y8276996D01*
X29248760Y8291271D01*
X29249674Y8305800D01*
X29248760Y8320328D01*
X29246068Y8334603D01*
X29241546Y8348472D01*
X29235349Y8361629D01*
X29227576Y8373922D01*
X29218280Y8385149D01*
X29207663Y8395106D01*
X29195877Y8403640D01*
X29183126Y8410651D01*
X29176116Y8413445D01*
X29172763Y8415629D01*
X29170528Y8418880D01*
X29169715Y8422792D01*
X29170426Y8426704D01*
X29172662Y8430056D01*
X29175964Y8432292D01*
X29179875Y8433054D01*
X29341724Y8433054D01*
X29344162Y8432546D01*
X29346601Y8433054D01*
X29428998Y8433054D01*
X29431437Y8432546D01*
X29433875Y8433054D01*
X29595724Y8433054D01*
X29599636Y8432292D01*
X29602938Y8430056D01*
X29605173Y8426704D01*
X29605884Y8422792D01*
X29605071Y8418880D01*
X29602836Y8415629D01*
X29599483Y8413445D01*
X29592473Y8410651D01*
X29579722Y8403640D01*
X29567936Y8395106D01*
X29557319Y8385149D01*
X29548023Y8373922D01*
X29540250Y8361629D01*
X29534053Y8348472D01*
X29529532Y8334603D01*
X29526839Y8320328D01*
X29525925Y8305800D01*
X29526839Y8291271D01*
X29529532Y8276996D01*
X29534053Y8263128D01*
X29540250Y8249970D01*
X29548023Y8237677D01*
X29557319Y8226501D01*
X29567936Y8216493D01*
X29579722Y8207959D01*
X29592473Y8200948D01*
X29605986Y8195614D01*
X29620057Y8191957D01*
X29634535Y8190128D01*
X29649064Y8190128D01*
X29663491Y8191957D01*
X29677614Y8195614D01*
X29691126Y8200948D01*
X29703877Y8207959D01*
X29715663Y8216493D01*
X29726280Y8226501D01*
X29735576Y8237677D01*
X29743349Y8249970D01*
X29749546Y8263128D01*
X29754068Y8276996D01*
X29756760Y8291271D01*
X29757674Y8305800D01*
X29756760Y8320328D01*
X29754068Y8334603D01*
X29749546Y8348472D01*
X29743349Y8361629D01*
X29735576Y8373922D01*
X29726280Y8385149D01*
X29715663Y8395106D01*
X29703877Y8403640D01*
X29691126Y8410651D01*
X29684116Y8413445D01*
X29680763Y8415629D01*
X29678528Y8418880D01*
X29677715Y8422792D01*
X29678426Y8426704D01*
X29680662Y8430056D01*
X29683964Y8432292D01*
X29687875Y8433054D01*
X29849724Y8433054D01*
X29853636Y8432292D01*
X29856938Y8430056D01*
X29859173Y8426704D01*
X29859884Y8422792D01*
X29859071Y8418880D01*
X29856836Y8415629D01*
X29853483Y8413445D01*
X29846473Y8410651D01*
X29833722Y8403640D01*
X29821936Y8395106D01*
X29811319Y8385149D01*
X29802023Y8373922D01*
X29794250Y8361629D01*
X29788053Y8348472D01*
X29783532Y8334603D01*
X29780839Y8320328D01*
X29779925Y8305800D01*
X29780839Y8291271D01*
X29783532Y8276996D01*
X29788053Y8263128D01*
X29794250Y8249970D01*
X29802023Y8237677D01*
X29811319Y8226501D01*
X29821936Y8216493D01*
X29833722Y8207959D01*
X29846473Y8200948D01*
X29859986Y8195614D01*
X29874057Y8191957D01*
X29888535Y8190128D01*
X29903064Y8190128D01*
X29917491Y8191957D01*
X29931614Y8195614D01*
X29945126Y8200948D01*
X29957877Y8207959D01*
X29969663Y8216493D01*
X29980280Y8226501D01*
X29989576Y8237677D01*
X29997349Y8249970D01*
X30003546Y8263128D01*
X30008068Y8276996D01*
X30010760Y8291271D01*
X30011674Y8305800D01*
X30010760Y8320328D01*
X30008068Y8334603D01*
X30003546Y8348472D01*
X29997349Y8361629D01*
X29989576Y8373922D01*
X29980280Y8385149D01*
X29969663Y8395106D01*
X29957877Y8403640D01*
X29945126Y8410651D01*
X29938167Y8413445D01*
X29934814Y8415578D01*
X29932579Y8418880D01*
X29931715Y8422792D01*
X29932477Y8426704D01*
X29934662Y8430056D01*
X29938014Y8432241D01*
X29941926Y8433054D01*
X30103470Y8432952D01*
X30107382Y8432139D01*
X30110684Y8429955D01*
X30112868Y8426602D01*
X30113630Y8422690D01*
X30112817Y8418779D01*
X30110531Y8415477D01*
X30107178Y8413343D01*
X30100473Y8410651D01*
X30087722Y8403640D01*
X30075936Y8395106D01*
X30065319Y8385149D01*
X30056023Y8373922D01*
X30048250Y8361629D01*
X30042053Y8348472D01*
X30037532Y8334603D01*
X30034839Y8320328D01*
X30033925Y8305800D01*
X30034839Y8291271D01*
X30037532Y8276996D01*
X30042053Y8263128D01*
X30048250Y8249970D01*
X30056023Y8237677D01*
X30065319Y8226501D01*
X30075936Y8216493D01*
X30087722Y8207959D01*
X30100473Y8200948D01*
X30113986Y8195614D01*
X30128057Y8191957D01*
X30142535Y8190128D01*
X30157064Y8190128D01*
X30171491Y8191957D01*
X30185614Y8195614D01*
X30199126Y8200948D01*
X30211877Y8207959D01*
X30223663Y8216493D01*
X30234280Y8226501D01*
X30243576Y8237677D01*
X30251349Y8249970D01*
X30257546Y8263128D01*
X30262068Y8276996D01*
X30264760Y8291271D01*
X30265674Y8305800D01*
X30264760Y8320328D01*
X30262068Y8334603D01*
X30257546Y8348472D01*
X30251349Y8361629D01*
X30243576Y8373922D01*
X30234280Y8385149D01*
X30223663Y8395106D01*
X30211877Y8403640D01*
X30199126Y8410651D01*
X30192522Y8413292D01*
X30189170Y8415426D01*
X30186934Y8418728D01*
X30186122Y8422640D01*
X30186884Y8426551D01*
X30189068Y8429904D01*
X30192370Y8432088D01*
X30196282Y8432901D01*
X30383175Y8432800D01*
X30391201Y8433562D01*
X30398465Y8435746D01*
X30405120Y8439302D01*
X30411369Y8444433D01*
X30911596Y8944660D01*
X30914898Y8946896D01*
X30918810Y8947658D01*
X30972506Y8947658D01*
X30980532Y8948470D01*
X30985409Y8949944D01*
X30989168Y8950350D01*
X30992826Y8949334D01*
X30995823Y8947099D01*
X30997855Y8943898D01*
X30998515Y8940190D01*
X30998515Y8010652D01*
X30997601Y7992211D01*
X30995010Y7975346D01*
X30990844Y7958785D01*
X30985053Y7942732D01*
X30977687Y7927289D01*
X30968848Y7912658D01*
X30958637Y7898993D01*
X30947156Y7886344D01*
X30934456Y7874914D01*
X30920689Y7864805D01*
X30906059Y7856067D01*
X30890565Y7848803D01*
X30874462Y7843113D01*
X30857901Y7838998D01*
X30840984Y7836560D01*
X30823560Y7835696D01*
X30681168Y7835696D01*
X30676951Y7836611D01*
X30673497Y7839151D01*
X30671465Y7842961D01*
X30671109Y7847228D01*
X30672582Y7851292D01*
X30675580Y7854340D01*
X30679593Y7855864D01*
X30699608Y7859014D01*
X30724195Y7864856D01*
X30748274Y7872577D01*
X30771642Y7882128D01*
X30794248Y7893456D01*
X30815889Y7906512D01*
X30836463Y7921244D01*
X30855818Y7937449D01*
X30873852Y7955178D01*
X30890464Y7974228D01*
X30905551Y7994497D01*
X30919013Y8015833D01*
X30930799Y8038236D01*
X30940806Y8061401D01*
X30948985Y8085328D01*
X30955284Y8109813D01*
X30959704Y8134705D01*
X30962142Y8159851D01*
X30962650Y8185150D01*
X30961177Y8210346D01*
X30957723Y8235391D01*
X30952389Y8260080D01*
X30945124Y8284311D01*
X30936031Y8307882D01*
X30925160Y8330692D01*
X30912511Y8352586D01*
X30898185Y8373414D01*
X30882336Y8393074D01*
X30865013Y8411464D01*
X30846268Y8428482D01*
X30826303Y8443925D01*
X30805170Y8457844D01*
X30783072Y8470036D01*
X30760060Y8480501D01*
X30736286Y8489137D01*
X30711952Y8495944D01*
X30687162Y8500770D01*
X30662067Y8503716D01*
X30636819Y8504682D01*
X30611521Y8503716D01*
X30586426Y8500770D01*
X30561635Y8495944D01*
X30537302Y8489137D01*
X30513527Y8480501D01*
X30490515Y8470036D01*
X30468417Y8457844D01*
X30447284Y8443925D01*
X30427320Y8428482D01*
X30408575Y8411464D01*
X30391252Y8393074D01*
X30375402Y8373414D01*
X30361077Y8352586D01*
X30348427Y8330692D01*
X30337556Y8307882D01*
X30328463Y8284311D01*
X30321199Y8260080D01*
X30315865Y8235391D01*
X30312410Y8210346D01*
X30310937Y8185150D01*
X30311445Y8159851D01*
X30313884Y8134705D01*
X30318303Y8109813D01*
X30324602Y8085328D01*
X30332781Y8061401D01*
X30342789Y8038236D01*
X30354574Y8015833D01*
X30368036Y7994497D01*
X30383124Y7974228D01*
X30399736Y7955178D01*
X30417770Y7937449D01*
X30437124Y7921244D01*
X30457698Y7906512D01*
X30479339Y7893456D01*
X30501945Y7882128D01*
X30525313Y7872577D01*
X30549392Y7864856D01*
X30573980Y7859014D01*
X30593995Y7855864D01*
X30598008Y7854340D01*
X30601005Y7851292D01*
X30602478Y7847228D01*
X30602123Y7842961D01*
X30600091Y7839151D01*
X30596636Y7836611D01*
X30592420Y7835696D01*
G37*

%LPC*%
G36*
X29888535Y7936128D02*
G01*
X29903064Y7936128D01*
X29917491Y7937957D01*
X29931614Y7941614D01*
X29945126Y7946948D01*
X29957877Y7953959D01*
X29969663Y7962493D01*
X29980280Y7972501D01*
X29989576Y7983677D01*
X29997349Y7995970D01*
X30003546Y8009128D01*
X30008068Y8022996D01*
X30010760Y8037271D01*
X30011674Y8051800D01*
X30010760Y8066328D01*
X30008068Y8080603D01*
X30003546Y8094472D01*
X29997349Y8107629D01*
X29989576Y8119922D01*
X29980280Y8131149D01*
X29969663Y8141106D01*
X29957877Y8149640D01*
X29945126Y8156651D01*
X29931614Y8162036D01*
X29917491Y8165642D01*
X29903064Y8167471D01*
X29888535Y8167471D01*
X29874057Y8165642D01*
X29859986Y8162036D01*
X29846473Y8156651D01*
X29833722Y8149640D01*
X29821936Y8141106D01*
X29811319Y8131149D01*
X29802023Y8119922D01*
X29794250Y8107629D01*
X29788053Y8094472D01*
X29783532Y8080603D01*
X29780839Y8066328D01*
X29779925Y8051800D01*
X29780839Y8037271D01*
X29783532Y8022996D01*
X29788053Y8009128D01*
X29794250Y7995970D01*
X29802023Y7983677D01*
X29811319Y7972501D01*
X29821936Y7962493D01*
X29833722Y7953959D01*
X29846473Y7946948D01*
X29859986Y7941614D01*
X29874057Y7937957D01*
G37*
G36*
X29634535Y7936128D02*
G01*
X29649064Y7936128D01*
X29663491Y7937957D01*
X29677614Y7941614D01*
X29691126Y7946948D01*
X29703877Y7953959D01*
X29715663Y7962493D01*
X29726280Y7972501D01*
X29735576Y7983677D01*
X29743349Y7995970D01*
X29749546Y8009128D01*
X29754068Y8022996D01*
X29756760Y8037271D01*
X29757674Y8051800D01*
X29756760Y8066328D01*
X29754068Y8080603D01*
X29749546Y8094472D01*
X29743349Y8107629D01*
X29735576Y8119922D01*
X29726280Y8131149D01*
X29715663Y8141106D01*
X29703877Y8149640D01*
X29691126Y8156651D01*
X29677614Y8162036D01*
X29663491Y8165642D01*
X29649064Y8167471D01*
X29634535Y8167471D01*
X29620057Y8165642D01*
X29605986Y8162036D01*
X29592473Y8156651D01*
X29579722Y8149640D01*
X29567936Y8141106D01*
X29557319Y8131149D01*
X29548023Y8119922D01*
X29540250Y8107629D01*
X29534053Y8094472D01*
X29529532Y8080603D01*
X29526839Y8066328D01*
X29525925Y8051800D01*
X29526839Y8037271D01*
X29529532Y8022996D01*
X29534053Y8009128D01*
X29540250Y7995970D01*
X29548023Y7983677D01*
X29557319Y7972501D01*
X29567936Y7962493D01*
X29579722Y7953959D01*
X29592473Y7946948D01*
X29605986Y7941614D01*
X29620057Y7937957D01*
G37*
G36*
X30098441Y7948066D02*
G01*
X30098441Y8000441D01*
X30046117Y8000441D01*
X30048250Y7995970D01*
X30056023Y7983677D01*
X30065319Y7972501D01*
X30075936Y7962493D01*
X30087722Y7953959D01*
G37*
G36*
X30201158Y7948066D02*
G01*
X30211877Y7953959D01*
X30223663Y7962493D01*
X30234280Y7972501D01*
X30243576Y7983677D01*
X30251349Y7995970D01*
X30253482Y8000441D01*
X30201158Y8000441D01*
G37*
G36*
X30046117Y8103158D02*
G01*
X30098441Y8103158D01*
X30098441Y8155584D01*
X30087722Y8149640D01*
X30075936Y8141106D01*
X30065319Y8131149D01*
X30056023Y8119922D01*
X30048250Y8107629D01*
G37*
G36*
X30201158Y8103158D02*
G01*
X30253482Y8103158D01*
X30251349Y8107629D01*
X30243576Y8119922D01*
X30234280Y8131149D01*
X30223663Y8141106D01*
X30211877Y8149640D01*
X30201158Y8155584D01*
G37*
G36*
X29336441Y8202066D02*
G01*
X29336441Y8254441D01*
X29284117Y8254441D01*
X29286250Y8249970D01*
X29294023Y8237677D01*
X29303319Y8226501D01*
X29313936Y8216493D01*
X29325722Y8207959D01*
G37*
G36*
X29439158Y8202066D02*
G01*
X29449877Y8207959D01*
X29461663Y8216493D01*
X29472280Y8226501D01*
X29481576Y8237677D01*
X29489349Y8249970D01*
X29491482Y8254441D01*
X29439158Y8254441D01*
G37*
G36*
X29439158Y8357158D02*
G01*
X29491482Y8357158D01*
X29489349Y8361629D01*
X29481576Y8373922D01*
X29472280Y8385149D01*
X29461663Y8395106D01*
X29449877Y8403640D01*
X29439158Y8409584D01*
G37*
G36*
X29284117Y8357158D02*
G01*
X29336441Y8357158D01*
X29336441Y8409584D01*
X29325722Y8403640D01*
X29313936Y8395106D01*
X29303319Y8385149D01*
X29294023Y8373922D01*
X29286250Y8361629D01*
G37*

%LPD*%
D10*
X29133789Y8051810D02*
G01*
X29006789Y8178810D01*
X28821877Y8178810D01*
X28758657Y8242030D01*
X28758657Y8380282D01*
X29387789Y8051810D02*
G01*
X29260789Y8178810D01*
X29091676Y8178810D01*
X29006789Y8263696D01*
X29006789Y8384981D01*
X29035187Y8413379D01*
X23760191Y8861917D02*
G01*
X28198739Y8861917D01*
X28268818Y8931996D01*
X27753630Y8802938D02*
G01*
X23470732Y8802938D01*
X23045257Y8377463D01*
X23045257Y8270453D01*
X23111500Y8204210D01*
X23279089Y8204210D01*
X23406089Y8077210D01*
X28879789Y8051810D02*
G01*
X28761705Y8169894D01*
X28586140Y8169894D01*
X28503514Y8252520D01*
X28503514Y8376549D01*
X29222080Y9717872D02*
G01*
X28668233Y9717872D01*
X28569097Y9618736D01*
X27938440Y9618736D01*
X29381719Y8932402D02*
G01*
X29347607Y8966514D01*
X28387918Y8966514D01*
X28147050Y8725646D01*
X27748423Y8725646D01*
X27728255Y8745814D01*
X23566694Y8745814D01*
X23152089Y8331210D01*
X22898089Y8331210D02*
G01*
X22644089Y8331210D01*
X24860036Y8933698D02*
G01*
X23500577Y8933698D01*
X22898089Y8331210D01*
X25333086Y8460648D02*
G01*
X25595417Y8460648D01*
X25695874Y8360191D01*
X25695874Y8231819D01*
X28625789Y8051810D02*
G01*
X28484870Y7910890D01*
X25245024Y7910890D01*
X23660089Y8331210D02*
G01*
X23699536Y8331210D01*
X24073373Y8705047D01*
X27711364Y8705047D01*
X27731532Y8684879D01*
X28341360Y8684879D01*
X28582203Y8925722D01*
X29275877Y8925722D01*
X29327668Y8873931D01*
X25999531Y9084243D02*
G01*
X27289114Y9084243D01*
X27451852Y8921506D01*
X28007731Y8921506D01*
X23914089Y8331210D02*
G01*
X24229608Y8646728D01*
X24284701Y8646728D01*
X25831789Y8051810D02*
G01*
X25772430Y8051810D01*
X25649189Y8175050D01*
X25285283Y8175050D01*
X25165420Y8294913D01*
X25165420Y8321177D01*
X24963465Y8523132D01*
X24445864Y8523132D01*
X24401998Y8479266D01*
X25831789Y10820410D02*
G01*
X26294781Y11283401D01*
X27769098Y11283401D01*
X27889189Y11163310D01*
D11*
X30381590Y9420514D02*
G01*
X30381590Y10296509D01*
X30340289Y10337810D01*
X30729722Y9093210D02*
G01*
X30402418Y9420514D01*
X30381590Y9420514D01*
X30381590Y9420514D02*
G01*
X29123985Y9420514D01*
X28981389Y9563110D01*
X27889189Y9029710D02*
G01*
X27635189Y9029710D01*
X28143189Y9029710D02*
G01*
X27889189Y9029710D01*
X28143189Y10909310D02*
G01*
X27889189Y10909310D01*
X26327089Y8966210D02*
G01*
X26581089Y8966210D01*
X26593789Y10820410D02*
G01*
X26737630Y10964250D01*
X27580249Y10964250D01*
X27635189Y10909310D01*
X26339789Y10820410D02*
G01*
X26593789Y10820410D01*
X30873689Y9093210D02*
G01*
X30729722Y9093210D01*
X30899089Y10807710D02*
G01*
X30755122Y10807710D01*
X30241737Y10906008D02*
G01*
X30656824Y10906008D01*
X30755122Y10807710D01*
X25323789Y8305810D02*
G01*
X25577789Y8305810D01*
D10*
X25819089Y8966210D02*
G01*
X25819089Y8986276D01*
X25986704Y9153890D01*
X27759370Y9153890D01*
X27889189Y9283710D01*
X28143189Y9989855D02*
G01*
X28116519Y9989855D01*
X28036357Y9909693D01*
X28036357Y9753533D01*
X28057668Y9732223D01*
X28143189Y10096510D02*
G01*
X28143189Y9989855D01*
X28143189Y9283710D02*
G01*
X28036535Y9283710D01*
X25565089Y8966210D02*
G01*
X25997474Y9398594D01*
X27948321Y9398594D01*
X28036535Y9310380D01*
X28036535Y9283710D01*
X28143189Y11163310D02*
G01*
X28036535Y11163310D01*
X28036535Y11163310D02*
G01*
X28036535Y11136640D01*
X27916037Y11016142D01*
X27828433Y11016142D01*
X27762189Y10949899D01*
X27762189Y10876163D01*
X27591146Y10705119D01*
X25693080Y10705119D01*
X25577789Y10820410D01*
X29032189Y10360162D02*
G01*
X29555937Y10360162D01*
X29578289Y10337810D01*
X30213289Y9588510D02*
G01*
X29590989Y9588510D01*
X24168089Y8331210D02*
G01*
X24433418Y8596538D01*
X26049061Y8596538D01*
X26339789Y8305810D01*
X23929431Y8643579D02*
G01*
X23815995Y8643579D01*
X23552724Y8380308D01*
X23552724Y8029280D01*
X23623437Y7958566D01*
X23959759Y7958566D01*
X24061257Y8060065D01*
X24061257Y8137966D01*
X24127500Y8204210D01*
X24215105Y8204210D01*
X24315435Y8304540D01*
X24315435Y8331210D01*
X26372378Y9212209D02*
G01*
X25895594Y9212209D01*
X24422089Y8331210D02*
G01*
X24315435Y8331210D01*
X23063189Y10515610D02*
G01*
X23456813Y10121986D01*
X25704866Y10121986D01*
X25819089Y10236210D01*
X23063189Y10007610D02*
G01*
X25844489Y10007610D01*
X26073089Y10236210D01*
X23063189Y9499610D02*
G01*
X23457702Y9894122D01*
X25985002Y9894122D01*
X26327089Y10236210D01*
X23063189Y8991610D02*
G01*
X23818204Y9746625D01*
X26091504Y9746625D01*
X26581089Y10236210D01*
X23063189Y12725410D02*
G01*
X23492957Y12295642D01*
X25626557Y12295642D01*
X25831789Y12090410D01*
X23063189Y12217410D02*
G01*
X23300908Y11979691D01*
X25975071Y11979691D01*
X26085789Y12090410D01*
X23063189Y11709410D02*
G01*
X25958789Y11709410D01*
X26339789Y12090410D01*
X23063189Y11201410D02*
G01*
X25704789Y11201410D01*
X26593789Y12090410D01*
D11*
X29041841Y12126224D02*
G01*
X28685276Y12482789D01*
X26417285Y12482789D01*
X26047664Y12852410D01*
D10*
X23660089Y8077210D02*
G01*
X23807257Y8224377D01*
X23974846Y8224377D01*
X24041089Y8290620D01*
X24041089Y8361105D01*
X24268394Y8588410D01*
X24308882Y8588410D01*
X24357827Y8637356D01*
X27201002Y8637356D01*
X27482739Y8355619D01*
X27482739Y8242106D01*
X27546035Y8178810D01*
X27990789Y8178810D01*
X28117789Y8051810D01*
X27609789Y8051810D02*
G01*
X27473874Y8187725D01*
X26273445Y8187725D01*
X26221705Y8239465D01*
X26221705Y8340582D01*
X26024093Y8538194D01*
X25034839Y8538194D01*
X26085789Y10820410D02*
G01*
X26428689Y11163310D01*
X27635189Y11163310D01*
X27863789Y8305810D02*
G01*
X28198968Y8640988D01*
X29405468Y8640988D01*
X29590989Y8826510D01*
X30873700Y9347200D02*
G01*
X30980634Y9240520D01*
X30980634Y8993886D01*
X30973013Y8986265D01*
X30898591Y8986265D01*
X30383716Y8471387D01*
X30383716Y8471387D02*
G01*
X29913072Y8471662D01*
X28503372Y8471662D01*
X28371800Y8340089D01*
X28371800Y8305800D01*
D14*
G01*
X30886400Y12598400D03*
G01*
X30886400Y12344400D03*
D15*
G01*
X30886400Y12090400D03*
D14*
G01*
X22644100Y8077200D03*
G01*
X22644100Y8331200D03*
G01*
X22898100Y8077200D03*
G01*
X22898100Y8331200D03*
G01*
X23152100Y8077200D03*
G01*
X23152100Y8331200D03*
G01*
X23406100Y8077200D03*
G01*
X23406100Y8331200D03*
G01*
X23660100Y8077200D03*
G01*
X23660100Y8331200D03*
G01*
X23914100Y8077200D03*
G01*
X23914100Y8331200D03*
G01*
X24168100Y8077200D03*
G01*
X24168100Y8331200D03*
G01*
X24422100Y8077200D03*
D15*
G01*
X24422100Y8331200D03*
D14*
G01*
X27635200Y9029700D03*
G01*
X27635200Y9283700D03*
G01*
X27889200Y9029700D03*
G01*
X27889200Y9283700D03*
G01*
X28143200Y9029700D03*
D15*
G01*
X28143200Y9283700D03*
D14*
G01*
X27635200Y9842500D03*
G01*
X27635200Y10096500D03*
G01*
X27889200Y9842500D03*
G01*
X27889200Y10096500D03*
G01*
X28143200Y9842500D03*
D15*
G01*
X28143200Y10096500D03*
D16*
G01*
X24282400Y11430000D03*
G01*
X24790400Y11430000D03*
G01*
X24257000Y9613900D03*
G01*
X24765000Y9613900D03*
D14*
G01*
X30899100Y11315700D03*
G01*
X30899100Y11061700D03*
D15*
G01*
X30899100Y10807700D03*
D14*
G01*
X27635200Y10909300D03*
G01*
X27635200Y11163300D03*
G01*
X27889200Y10909300D03*
G01*
X27889200Y11163300D03*
G01*
X28143200Y10909300D03*
D15*
G01*
X28143200Y11163300D03*
D14*
G01*
X27635200Y11709400D03*
G01*
X27635200Y11963400D03*
G01*
X27889200Y11709400D03*
G01*
X27889200Y11963400D03*
G01*
X28143200Y11709400D03*
D15*
G01*
X28143200Y11963400D03*
D17*
G01*
X25819100Y10236200D03*
G01*
X25565100Y10236200D03*
G01*
X25311100Y10236200D03*
G01*
X26073100Y10236200D03*
G01*
X26327100Y10236200D03*
G01*
X26581100Y10236200D03*
G01*
X26835100Y10236200D03*
G01*
X27089100Y10236200D03*
G01*
X27089100Y8966200D03*
G01*
X26835100Y8966200D03*
G01*
X26581100Y8966200D03*
G01*
X26327100Y8966200D03*
G01*
X26073100Y8966200D03*
G01*
X25819100Y8966200D03*
G01*
X25565100Y8966200D03*
G01*
X25311100Y8966200D03*
G01*
X25831800Y12090400D03*
G01*
X25577800Y12090400D03*
G01*
X25323800Y12090400D03*
G01*
X26085800Y12090400D03*
G01*
X26339800Y12090400D03*
G01*
X26593800Y12090400D03*
G01*
X26847800Y12090400D03*
G01*
X27101800Y12090400D03*
G01*
X27101800Y10820400D03*
G01*
X26847800Y10820400D03*
G01*
X26593800Y10820400D03*
G01*
X26339800Y10820400D03*
G01*
X26085800Y10820400D03*
G01*
X25831800Y10820400D03*
G01*
X25577800Y10820400D03*
G01*
X25323800Y10820400D03*
D18*
G01*
X23063200Y8991600D03*
G01*
X23063200Y9499600D03*
G01*
X23063200Y10007600D03*
G01*
X23063200Y10515600D03*
G01*
X23063200Y11201400D03*
G01*
X23063200Y11709400D03*
G01*
X23063200Y12217400D03*
G01*
X23063200Y12725400D03*
G01*
X24345900Y12852400D03*
G01*
X24853900Y12852400D03*
G01*
X25539674Y12852400D03*
G01*
X26047674Y12852400D03*
G01*
X26733500Y12852400D03*
G01*
X27241500Y12852400D03*
G01*
X27927274Y12852400D03*
G01*
X28435274Y12852400D03*
D15*
G01*
X30873700Y9093200D03*
D14*
G01*
X30873725Y9347200D03*
G01*
X30873725Y9601200D03*
G01*
X30873725Y9855200D03*
D19*
G01*
X29578300Y10337800D03*
G01*
X30340300Y10337800D03*
D20*
G01*
X29032200Y10106152D03*
G01*
X29032200Y10360152D03*
D21*
G01*
X29591000Y8826500D03*
G01*
X29591000Y9588500D03*
G01*
X30213300Y8826500D03*
G01*
X30213300Y9588500D03*
G01*
X28981400Y8801100D03*
G01*
X28981400Y9563100D03*
D22*
G01*
X30241748Y12126213D03*
G01*
X29641800Y10706100D03*
G01*
X29041852Y10905997D03*
G01*
X30241748Y10905997D03*
G01*
X29041852Y12126213D03*
D23*
G01*
X30149800Y8305800D03*
G01*
X30149800Y8051800D03*
G01*
X29895800Y8305800D03*
G01*
X29895800Y8051800D03*
G01*
X29641800Y8305800D03*
G01*
X29641800Y8051800D03*
G01*
X29387800Y8305800D03*
G01*
X29387800Y8051800D03*
G01*
X29133800Y8305800D03*
G01*
X29133800Y8051800D03*
G01*
X28879800Y8305800D03*
G01*
X28879800Y8051800D03*
G01*
X28625800Y8305800D03*
G01*
X28625800Y8051800D03*
G01*
X28371800Y8305800D03*
G01*
X28371800Y8051800D03*
G01*
X28117800Y8305800D03*
G01*
X28117800Y8051800D03*
G01*
X27863800Y8305800D03*
G01*
X27863800Y8051800D03*
G01*
X27609800Y8305800D03*
G01*
X27609800Y8051800D03*
G01*
X27355800Y8305800D03*
G01*
X27355800Y8051800D03*
G01*
X27101800Y8305800D03*
G01*
X27101800Y8051800D03*
G01*
X26847800Y8305800D03*
G01*
X26847800Y8051800D03*
G01*
X26593800Y8305800D03*
G01*
X26593800Y8051800D03*
G01*
X26339800Y8305800D03*
G01*
X26339800Y8051800D03*
G01*
X26085800Y8305800D03*
G01*
X26085800Y8051800D03*
G01*
X25831800Y8305800D03*
G01*
X25831800Y8051800D03*
G01*
X25577800Y8305800D03*
G01*
X25577800Y8051800D03*
G01*
X25323800Y8305800D03*
G36*
X25233797Y8141807D02*
G01*
X25413797Y8141807D01*
X25413797Y7961807D01*
X25233797Y7961807D01*
G37*
D25*
G01*
X24836805Y8178800D03*
G01*
X30636794Y8178800D03*
D12*
G01*
X24130000Y9309100D03*
G01*
X24206200Y9309100D03*
G01*
X24282400Y9309100D03*
G01*
X24574500Y9309100D03*
G01*
X24498300Y9309100D03*
G01*
X24422100Y9309100D03*
G01*
X24866600Y9309100D03*
G01*
X24790400Y9309100D03*
G01*
X24714200Y9309100D03*
G01*
X30924500Y8775700D03*
G01*
X30848300Y8775700D03*
G01*
X30772100Y8775700D03*
G01*
X30924500Y8699500D03*
G01*
X30848300Y8699500D03*
G01*
X30772100Y8699500D03*
G01*
X30937200Y10401300D03*
G01*
X30937200Y10325100D03*
G01*
X30937200Y10248900D03*
G01*
X30848300Y10401300D03*
G01*
X30848300Y10325100D03*
G01*
X30848300Y10248900D03*
G01*
X29083000Y13233400D03*
G01*
X29006800Y13233400D03*
G01*
X28930600Y13233400D03*
G01*
X29349700Y13233400D03*
G01*
X29273500Y13233400D03*
G01*
X29197300Y13233400D03*
G01*
X29349700Y13144500D03*
G01*
X29273500Y13144500D03*
G01*
X29197300Y13144500D03*
G01*
X29083000Y13144500D03*
G01*
X29006800Y13144500D03*
G01*
X28930600Y13144500D03*
G01*
X29552900Y13144500D03*
G01*
X29629100Y13144500D03*
G01*
X29705300Y13144500D03*
G01*
X29819600Y13144500D03*
G01*
X29895800Y13144500D03*
G01*
X29972000Y13144500D03*
G01*
X29819600Y13233400D03*
G01*
X29895800Y13233400D03*
G01*
X29972000Y13233400D03*
G01*
X29552900Y13233400D03*
G01*
X29629100Y13233400D03*
G01*
X29705300Y13233400D03*
G01*
X23520400Y13169900D03*
G01*
X23596600Y13169900D03*
G01*
X23672800Y13169900D03*
G01*
X23787100Y13169900D03*
G01*
X23863300Y13169900D03*
G01*
X23939500Y13169900D03*
G01*
X23787100Y13258800D03*
G01*
X23863300Y13258800D03*
G01*
X23939500Y13258800D03*
G01*
X23520400Y13258800D03*
G01*
X23596600Y13258800D03*
G01*
X23672800Y13258800D03*
G01*
X23520400Y12941300D03*
G01*
X23596600Y12941300D03*
G01*
X23672800Y12941300D03*
G01*
X23787100Y12941300D03*
G01*
X23863300Y12941300D03*
G01*
X23939500Y12941300D03*
G01*
X23787100Y13030200D03*
G01*
X23863300Y13030200D03*
G01*
X23939500Y13030200D03*
G01*
X23520400Y13030200D03*
G01*
X23596600Y13030200D03*
G01*
X23672800Y13030200D03*
G01*
X23977600Y10642600D03*
G01*
X23977600Y10718800D03*
G01*
X23977600Y10795000D03*
G01*
X23977600Y10909300D03*
G01*
X23977600Y10985500D03*
G01*
X23977600Y11061700D03*
G01*
X23888700Y10909300D03*
G01*
X23888700Y10985500D03*
G01*
X23888700Y11061700D03*
G01*
X23888700Y10642600D03*
G01*
X23888700Y10718800D03*
G01*
X23888700Y10795000D03*
G01*
X23977600Y10223500D03*
G01*
X23977600Y10299700D03*
G01*
X23977600Y10375900D03*
G01*
X23977600Y10490200D03*
G01*
X23977600Y10566400D03*
G01*
X23888700Y10490200D03*
G01*
X23888700Y10566400D03*
G01*
X23888700Y10223500D03*
G01*
X23888700Y10299700D03*
G01*
X23888700Y10375900D03*
G01*
X24955500Y10502900D03*
G01*
X25031700Y10502900D03*
G01*
X25107900Y10502900D03*
G01*
X25222200Y10502900D03*
G01*
X25298400Y10502900D03*
G01*
X25374600Y10502900D03*
G01*
X25222200Y10591800D03*
G01*
X25298400Y10591800D03*
G01*
X25374600Y10591800D03*
G01*
X24955500Y10591800D03*
G01*
X25031700Y10591800D03*
G01*
X25107900Y10591800D03*
G01*
X28778200Y10668000D03*
G01*
X28778200Y10744200D03*
G01*
X28778200Y10820400D03*
G01*
X28778200Y10934700D03*
G01*
X28778200Y11010900D03*
G01*
X28778200Y11087100D03*
G01*
X28689300Y10934700D03*
G01*
X28689300Y11010900D03*
G01*
X28689300Y11087100D03*
G01*
X28689300Y10668000D03*
G01*
X28689300Y10744200D03*
G01*
X28689300Y10820400D03*
G01*
X28346400Y9677400D03*
G01*
X28435300Y9677400D03*
G01*
X28435300Y9753600D03*
G01*
X28346400Y9753600D03*
G01*
X28346400Y9829800D03*
G01*
X28435300Y9829800D03*
G01*
X28435300Y9944100D03*
G01*
X28346400Y9944100D03*
G01*
X28346400Y10020300D03*
G01*
X28435300Y10020300D03*
G01*
X28435300Y10096500D03*
G01*
X28346400Y10096500D03*
D13*
G01*
X28758667Y8380272D03*
G01*
X29035197Y8413369D03*
G01*
X23760201Y8861907D03*
G01*
X28268828Y8931986D03*
G01*
X27753640Y8802928D03*
G01*
X28503524Y8376538D03*
G01*
X29222090Y9717862D03*
G01*
X27938450Y9618726D03*
G01*
X29381729Y8932392D03*
G01*
X25695884Y8231809D03*
G01*
X25333096Y8460638D03*
G01*
X24860046Y8933687D03*
G01*
X25245034Y7910880D03*
G01*
X29327678Y8873921D03*
G01*
X28007741Y8921495D03*
G01*
X25999541Y9084233D03*
G01*
X24284711Y8646718D03*
G01*
X24402008Y8479256D03*
G01*
X28057678Y9732213D03*
G01*
X23929441Y8643569D03*
G01*
X25895604Y9212199D03*
G01*
X26372388Y9212199D03*
G01*
X25034849Y8538184D03*
D12*
G01*
X30543500Y8788400D03*
G01*
X30594300Y8839200D03*
G01*
X30492700Y8737600D03*
G01*
X30441900Y8686800D03*
G01*
X30391100Y8623300D03*
G01*
X28524200Y8724900D03*
G01*
X28714700Y8763000D03*
G01*
X28803600Y8763000D03*
G01*
X28714700Y8851900D03*
G01*
X28803600Y8851900D03*
G01*
X28905200Y8572500D03*
G01*
X28981400Y8572500D03*
D11*
X29756100Y9932200D02*
G01*
X29756100Y10032199D01*
X29629100Y9932200D02*
G01*
X29629100Y10032199D01*
X29502100Y9932200D02*
G01*
X29502100Y10032199D01*
M02*
