G04 Layer: BottomSilkscreenLayer*
G04 EasyEDA v6.5.5, 2022-05-15 16:03:05*
G04 b3a66e96751545e5b315a235ba618c9c,f3b4bba6f80a42898d6f7a4ba36534e0,10*
G04 Gerber Generator version 0.2*
G04 Scale: 100 percent, Rotated: No, Reflected: No *
G04 Dimensions in millimeters *
G04 leading zeros omitted , absolute positions ,4 integer and 5 decimal *
%FSLAX45Y45*%
%MOMM*%

%ADD10C,0.0001*%

%LPD*%
G36*
X28465018Y11599926D02*
G01*
X28465018Y11465306D01*
X28487115Y11465306D01*
X28487115Y11575288D01*
X28544012Y11575288D01*
X28544012Y11472418D01*
X28565856Y11472418D01*
X28565856Y11575288D01*
X28629356Y11575288D01*
X28629356Y11460988D01*
X28651200Y11460988D01*
X28651200Y11599926D01*
G37*
G36*
X28556712Y11434064D02*
G01*
X28542691Y11433403D01*
X28529534Y11431320D01*
X28517291Y11427917D01*
X28505912Y11423142D01*
X28495752Y11416944D01*
X28486912Y11409629D01*
X28479394Y11401094D01*
X28473146Y11391392D01*
X28468269Y11380825D01*
X28464764Y11369802D01*
X28462681Y11358270D01*
X28461970Y11346180D01*
X28462884Y11332768D01*
X28465526Y11320475D01*
X28469945Y11309248D01*
X28476194Y11299190D01*
X28484017Y11290401D01*
X28493262Y11283035D01*
X28503981Y11277193D01*
X28516072Y11272774D01*
X28521914Y11296904D01*
X28504337Y11304879D01*
X28492196Y11315700D01*
X28485338Y11329670D01*
X28483052Y11346688D01*
X28483661Y11357051D01*
X28485592Y11366500D01*
X28488741Y11375085D01*
X28493212Y11382756D01*
X28505353Y11394897D01*
X28520898Y11402822D01*
X28538474Y11407190D01*
X28556712Y11408664D01*
X28568142Y11408257D01*
X28578860Y11406936D01*
X28588868Y11404803D01*
X28598114Y11401806D01*
X28613608Y11392966D01*
X28624530Y11380216D01*
X28631184Y11365077D01*
X28633420Y11348720D01*
X28632658Y11338712D01*
X28630422Y11329568D01*
X28626714Y11321186D01*
X28621482Y11313668D01*
X28614776Y11307013D01*
X28606648Y11301526D01*
X28596996Y11297259D01*
X28585922Y11294110D01*
X28592272Y11269726D01*
X28606496Y11274298D01*
X28618942Y11280444D01*
X28629610Y11288166D01*
X28638500Y11297412D01*
X28645408Y11308029D01*
X28650336Y11319764D01*
X28653282Y11332667D01*
X28654248Y11346688D01*
X28653486Y11361013D01*
X28651200Y11373916D01*
X28647389Y11385499D01*
X28642056Y11395710D01*
X28635299Y11404549D01*
X28627120Y11412270D01*
X28617621Y11418925D01*
X28606750Y11424412D01*
X28594862Y11428628D01*
X28582569Y11431676D01*
X28569818Y11433454D01*
G37*
G36*
X28465018Y11238738D02*
G01*
X28465018Y11104118D01*
X28487115Y11104118D01*
X28487115Y11214100D01*
X28544012Y11214100D01*
X28544012Y11111230D01*
X28565856Y11111230D01*
X28565856Y11214100D01*
X28629356Y11214100D01*
X28629356Y11099800D01*
X28651200Y11099800D01*
X28651200Y11238738D01*
G37*
G36*
X28572460Y11077702D02*
G01*
X28572460Y11007344D01*
X28595320Y11007344D01*
X28595320Y11077702D01*
G37*
G36*
X28585668Y10995914D02*
G01*
X28471158Y10915396D01*
X28501848Y10915396D01*
X28585668Y10973562D01*
X28585668Y10915396D01*
X28471158Y10915396D01*
X28465018Y10911078D01*
X28465018Y10892536D01*
X28585668Y10892536D01*
X28585668Y10867390D01*
X28606750Y10867390D01*
X28606750Y10892536D01*
X28651200Y10892536D01*
X28651200Y10915396D01*
X28606750Y10915396D01*
X28606750Y10995914D01*
G37*
G36*
X28510992Y10826496D02*
G01*
X28506267Y10817148D01*
X28501086Y10808462D01*
X28495345Y10800384D01*
X28489148Y10792968D01*
X28476600Y10780623D01*
X28464256Y10772648D01*
X28464256Y10757916D01*
X28651200Y10757916D01*
X28651200Y10780776D01*
X28505658Y10780776D01*
X28513532Y10790224D01*
X28521406Y10802366D01*
X28528264Y10815116D01*
X28533089Y10826496D01*
G37*
G36*
X28602177Y10699242D02*
G01*
X28599130Y10676382D01*
X28615741Y10670997D01*
X28627070Y10662920D01*
X28633572Y10652455D01*
X28635706Y10639806D01*
X28632912Y10625023D01*
X28624530Y10612628D01*
X28612033Y10604246D01*
X28596844Y10601452D01*
X28582416Y10604042D01*
X28570682Y10611866D01*
X28563062Y10623499D01*
X28560522Y10638028D01*
X28560674Y10641431D01*
X28561944Y10649407D01*
X28563062Y10654030D01*
X28542996Y10651490D01*
X28543250Y10647934D01*
X28541370Y10633964D01*
X28535630Y10621518D01*
X28525977Y10612729D01*
X28512262Y10609834D01*
X28506216Y10610392D01*
X28500679Y10612018D01*
X28495802Y10614710D01*
X28491434Y10618470D01*
X28487776Y10622991D01*
X28485134Y10628122D01*
X28483560Y10633913D01*
X28483052Y10640314D01*
X28485134Y10652658D01*
X28491434Y10662666D01*
X28501898Y10669981D01*
X28516580Y10674096D01*
X28512515Y10696956D01*
X28501746Y10694162D01*
X28492196Y10690047D01*
X28483966Y10684611D01*
X28476956Y10677906D01*
X28471418Y10669981D01*
X28467456Y10661142D01*
X28465068Y10651439D01*
X28464256Y10640822D01*
X28465932Y10626242D01*
X28470860Y10612882D01*
X28478632Y10601502D01*
X28488639Y10593324D01*
X28500374Y10588193D01*
X28512770Y10586466D01*
X28518612Y10586872D01*
X28524200Y10588091D01*
X28529534Y10590174D01*
X28534614Y10593070D01*
X28543503Y10600994D01*
X28550362Y10612120D01*
X28556203Y10597438D01*
X28566110Y10586466D01*
X28579775Y10579608D01*
X28596336Y10577322D01*
X28608070Y10578439D01*
X28618840Y10581741D01*
X28628644Y10587329D01*
X28637484Y10595102D01*
X28644951Y10604601D01*
X28650234Y10615218D01*
X28653435Y10627055D01*
X28654502Y10640060D01*
X28653587Y10651744D01*
X28650895Y10662412D01*
X28646374Y10672064D01*
X28640024Y10680700D01*
X28632150Y10687964D01*
X28623209Y10693450D01*
X28613201Y10697210D01*
G37*
G36*
X28558998Y10479532D02*
G01*
X28545637Y10478820D01*
X28532734Y10476687D01*
X28520237Y10473080D01*
X28508198Y10468102D01*
X28497276Y10461752D01*
X28487827Y10454182D01*
X28479851Y10445394D01*
X28473400Y10435336D01*
X28468421Y10424261D01*
X28464814Y10412425D01*
X28462681Y10399776D01*
X28461970Y10386314D01*
X28463646Y10367010D01*
X28468574Y10349738D01*
X28476244Y10335209D01*
X28486608Y10324084D01*
X28500070Y10316006D01*
X28517088Y10310114D01*
X28523184Y10332212D01*
X28516427Y10334498D01*
X28510484Y10336987D01*
X28505302Y10339679D01*
X28500832Y10342626D01*
X28496971Y10346131D01*
X28493516Y10350246D01*
X28490519Y10355021D01*
X28487877Y10360406D01*
X28484271Y10372648D01*
X28483052Y10386060D01*
X28484322Y10401858D01*
X28488132Y10415270D01*
X28490875Y10421162D01*
X28494024Y10426446D01*
X28497631Y10431068D01*
X28501594Y10435082D01*
X28505912Y10438688D01*
X28510433Y10441889D01*
X28515157Y10444632D01*
X28520136Y10447020D01*
X28528924Y10450118D01*
X28538119Y10452354D01*
X28547618Y10453674D01*
X28557474Y10454132D01*
X28569412Y10453573D01*
X28580334Y10451947D01*
X28590239Y10449255D01*
X28599130Y10445496D01*
X28613709Y10434980D01*
X28624022Y10420604D01*
X28630118Y10403636D01*
X28632150Y10385806D01*
X28630626Y10370007D01*
X28626053Y10354564D01*
X28619703Y10341152D01*
X28612846Y10331450D01*
X28578302Y10331450D01*
X28578302Y10386060D01*
X28556458Y10386060D01*
X28556203Y10307320D01*
X28625292Y10307320D01*
X28632099Y10316413D01*
X28637992Y10325658D01*
X28643021Y10335107D01*
X28647136Y10344658D01*
X28650234Y10354360D01*
X28652470Y10364216D01*
X28653790Y10374172D01*
X28654248Y10384282D01*
X28653536Y10397693D01*
X28651352Y10410444D01*
X28647694Y10422585D01*
X28642564Y10434066D01*
X28636061Y10444683D01*
X28628289Y10453878D01*
X28619196Y10461701D01*
X28608782Y10468102D01*
X28597301Y10473080D01*
X28585160Y10476687D01*
X28572409Y10478820D01*
G37*
G36*
X28516326Y10274046D02*
G01*
X28516326Y10253472D01*
X28536900Y10253472D01*
X28530296Y10249712D01*
X28524911Y10246055D01*
X28520745Y10242448D01*
X28517850Y10238994D01*
X28515868Y10235590D01*
X28514395Y10232085D01*
X28513582Y10228376D01*
X28513277Y10224516D01*
X28515106Y10212781D01*
X28520644Y10200894D01*
X28541980Y10208768D01*
X28539744Y10212984D01*
X28538170Y10217150D01*
X28537204Y10221315D01*
X28536900Y10225532D01*
X28537204Y10229240D01*
X28538068Y10232694D01*
X28539490Y10235946D01*
X28541472Y10238994D01*
X28543961Y10241838D01*
X28546856Y10244175D01*
X28550209Y10246156D01*
X28553918Y10247630D01*
X28566668Y10250474D01*
X28580588Y10251440D01*
X28651200Y10251440D01*
X28651200Y10274046D01*
G37*
G36*
X28583889Y10195814D02*
G01*
X28571901Y10195255D01*
X28560979Y10193477D01*
X28551174Y10190581D01*
X28542437Y10186568D01*
X28534817Y10181336D01*
X28528264Y10174986D01*
X28521710Y10165842D01*
X28517037Y10155732D01*
X28514192Y10144658D01*
X28513277Y10132568D01*
X28532327Y10132568D01*
X28535477Y10148316D01*
X28545027Y10161016D01*
X28552292Y10165994D01*
X28561233Y10169601D01*
X28571748Y10171734D01*
X28583889Y10172446D01*
X28596031Y10171734D01*
X28606496Y10169601D01*
X28615335Y10165994D01*
X28622498Y10161016D01*
X28632200Y10148316D01*
X28635452Y10132568D01*
X28632200Y10117023D01*
X28622498Y10104374D01*
X28615182Y10099395D01*
X28606191Y10095788D01*
X28595472Y10093655D01*
X28583127Y10092944D01*
X28571291Y10093655D01*
X28561030Y10095788D01*
X28552241Y10099395D01*
X28545027Y10104374D01*
X28535477Y10117124D01*
X28532327Y10132568D01*
X28513277Y10132568D01*
X28514395Y10119360D01*
X28517850Y10107371D01*
X28523590Y10096601D01*
X28531565Y10087102D01*
X28541573Y10079431D01*
X28553308Y10073944D01*
X28566719Y10070693D01*
X28581858Y10069576D01*
X28594202Y10070084D01*
X28605175Y10071557D01*
X28614674Y10073995D01*
X28622752Y10077450D01*
X28636061Y10086898D01*
X28646120Y10100056D01*
X28652215Y10115702D01*
X28654248Y10132568D01*
X28653130Y10146080D01*
X28649726Y10158222D01*
X28644088Y10168940D01*
X28636214Y10178288D01*
X28626104Y10185958D01*
X28613963Y10191445D01*
X28599942Y10194696D01*
G37*
G36*
X28516326Y10043160D02*
G01*
X28516326Y10020300D01*
X28599434Y10020198D01*
X28606191Y10019995D01*
X28611474Y10019588D01*
X28615386Y10019030D01*
X28619602Y10017607D01*
X28623310Y10015626D01*
X28626562Y10013035D01*
X28629356Y10009886D01*
X28631692Y10006126D01*
X28633369Y10002012D01*
X28634334Y9997490D01*
X28634689Y9992614D01*
X28634334Y9987483D01*
X28633369Y9982555D01*
X28631692Y9977831D01*
X28629356Y9973310D01*
X28626460Y9969093D01*
X28623056Y9965537D01*
X28619196Y9962743D01*
X28614877Y9960610D01*
X28603905Y9957765D01*
X28588715Y9956800D01*
X28516326Y9956800D01*
X28516326Y9933940D01*
X28651200Y9933940D01*
X28651200Y9954260D01*
X28631388Y9954260D01*
X28641395Y9962845D01*
X28648507Y9972852D01*
X28652825Y9984333D01*
X28654248Y9997186D01*
X28653943Y10003078D01*
X28653079Y10008717D01*
X28651657Y10014254D01*
X28649676Y10019538D01*
X28647237Y10024313D01*
X28644545Y10028428D01*
X28641548Y10031933D01*
X28638246Y10034778D01*
X28634588Y10037114D01*
X28630575Y10039096D01*
X28626104Y10040670D01*
X28621227Y10041890D01*
X28617418Y10042448D01*
X28612592Y10042855D01*
X28599892Y10043160D01*
G37*
G36*
X28516326Y9898126D02*
G01*
X28516326Y9877298D01*
X28533852Y9877298D01*
X28529076Y9873488D01*
X28524911Y9869474D01*
X28521304Y9865258D01*
X28518358Y9860788D01*
X28516122Y9855860D01*
X28514548Y9850424D01*
X28513582Y9844532D01*
X28513387Y9840468D01*
X28531312Y9840468D01*
X28534664Y9854133D01*
X28544774Y9866122D01*
X28552394Y9871100D01*
X28561588Y9874707D01*
X28572358Y9876840D01*
X28584652Y9877552D01*
X28596742Y9876891D01*
X28607207Y9874859D01*
X28615944Y9871557D01*
X28623006Y9866884D01*
X28632353Y9855352D01*
X28635452Y9841484D01*
X28632200Y9827310D01*
X28622498Y9815322D01*
X28615233Y9810546D01*
X28606191Y9807143D01*
X28595320Y9805060D01*
X28582620Y9804400D01*
X28570580Y9805060D01*
X28560166Y9807092D01*
X28551276Y9810394D01*
X28544012Y9815068D01*
X28534461Y9826752D01*
X28531312Y9840468D01*
X28513387Y9840468D01*
X28513277Y9838182D01*
X28515513Y9821926D01*
X28522168Y9807702D01*
X28532886Y9796170D01*
X28547314Y9787890D01*
X28564332Y9782759D01*
X28582874Y9781032D01*
X28592932Y9781489D01*
X28602432Y9782860D01*
X28611474Y9785197D01*
X28619958Y9788398D01*
X28634689Y9797592D01*
X28645358Y9809988D01*
X28652012Y9824618D01*
X28654248Y9839960D01*
X28653943Y9845497D01*
X28653028Y9850729D01*
X28651555Y9855657D01*
X28649422Y9860280D01*
X28646831Y9864648D01*
X28643986Y9868611D01*
X28640735Y9872116D01*
X28637230Y9875266D01*
X28702762Y9875266D01*
X28702762Y9898126D01*
G37*
G36*
X28651200Y9690608D02*
G01*
X28647186Y9690506D01*
X28643224Y9690049D01*
X28639312Y9689134D01*
X28635452Y9687814D01*
X28622904Y9681768D01*
X28610560Y9672828D01*
X28604210Y9667036D01*
X28597402Y9660128D01*
X28590138Y9652050D01*
X28570580Y9628987D01*
X28560064Y9617506D01*
X28550870Y9608515D01*
X28542996Y9601962D01*
X28528873Y9593986D01*
X28515564Y9591294D01*
X28502914Y9593681D01*
X28492450Y9600946D01*
X28485592Y9612122D01*
X28483306Y9626346D01*
X28485795Y9641230D01*
X28493212Y9652762D01*
X28505048Y9660178D01*
X28520644Y9662668D01*
X28518103Y9686290D01*
X28505810Y9684207D01*
X28495040Y9680448D01*
X28485846Y9675063D01*
X28478226Y9668002D01*
X28472130Y9659467D01*
X28467761Y9649612D01*
X28465119Y9638385D01*
X28464256Y9625838D01*
X28465170Y9613087D01*
X28468015Y9601758D01*
X28472688Y9591903D01*
X28479242Y9583420D01*
X28487065Y9576663D01*
X28495802Y9571786D01*
X28505505Y9568891D01*
X28516072Y9567926D01*
X28521609Y9568180D01*
X28527095Y9568992D01*
X28532531Y9570364D01*
X28537915Y9572244D01*
X28549092Y9578340D01*
X28560776Y9587484D01*
X28567278Y9593681D01*
X28574949Y9601657D01*
X28583686Y9611360D01*
X28608020Y9639655D01*
X28616910Y9649206D01*
X28623056Y9654540D01*
X28629356Y9658858D01*
X28629356Y9567672D01*
X28651200Y9567672D01*
G37*
G36*
X28585668Y9550654D02*
G01*
X28471140Y9469882D01*
X28501848Y9469882D01*
X28585668Y9528048D01*
X28585668Y9469882D01*
X28471140Y9469882D01*
X28465018Y9465564D01*
X28465018Y9447022D01*
X28585668Y9447022D01*
X28585668Y9421876D01*
X28606750Y9421876D01*
X28606750Y9447022D01*
X28651200Y9447022D01*
X28651200Y9469882D01*
X28606750Y9469882D01*
X28606750Y9550654D01*
G37*
G36*
X24335740Y13278866D02*
G01*
X24330609Y13278612D01*
X24325681Y13277799D01*
X24320957Y13276427D01*
X24316436Y13274548D01*
X24312168Y13272160D01*
X24308511Y13269213D01*
X24305412Y13265759D01*
X24302974Y13261848D01*
X24300992Y13257631D01*
X24299570Y13253110D01*
X24298706Y13248233D01*
X24298402Y13243051D01*
X24298554Y13239242D01*
X24299011Y13235635D01*
X24299824Y13232231D01*
X24300942Y13229082D01*
X24302313Y13226084D01*
X24303990Y13223443D01*
X24305920Y13221106D01*
X24308054Y13219176D01*
X24310492Y13217499D01*
X24313286Y13216077D01*
X24316334Y13214857D01*
X24319738Y13213842D01*
X24322024Y13222224D01*
X24317198Y13224103D01*
X24313388Y13226288D01*
X24311965Y13227557D01*
X24310644Y13229132D01*
X24308562Y13233146D01*
X24307647Y13235381D01*
X24306631Y13240359D01*
X24306631Y13246150D01*
X24307647Y13251738D01*
X24308562Y13254228D01*
X24310898Y13258546D01*
X24312321Y13260324D01*
X24315470Y13263168D01*
X24318874Y13265454D01*
X24320754Y13266419D01*
X24324208Y13267639D01*
X24327815Y13268502D01*
X24331472Y13269061D01*
X24335232Y13269213D01*
X24339854Y13269010D01*
X24344071Y13268401D01*
X24347830Y13267334D01*
X24351234Y13265912D01*
X24354332Y13264083D01*
X24356974Y13261848D01*
X24359158Y13259257D01*
X24360886Y13256260D01*
X24362206Y13253059D01*
X24363172Y13249706D01*
X24363730Y13246303D01*
X24363934Y13242798D01*
X24363781Y13239750D01*
X24363375Y13236752D01*
X24362664Y13233806D01*
X24360479Y13228116D01*
X24357939Y13223646D01*
X24356568Y13221969D01*
X24343106Y13221969D01*
X24343106Y13243051D01*
X24334724Y13243051D01*
X24334724Y13212572D01*
X24361394Y13212572D01*
X24364035Y13216128D01*
X24366270Y13219734D01*
X24368201Y13223392D01*
X24369776Y13227050D01*
X24370995Y13230758D01*
X24371858Y13234568D01*
X24372417Y13238378D01*
X24372570Y13242290D01*
X24372265Y13247471D01*
X24371452Y13252450D01*
X24369979Y13257123D01*
X24367998Y13261594D01*
X24365458Y13265556D01*
X24362460Y13269010D01*
X24359006Y13272007D01*
X24355044Y13274548D01*
X24350624Y13276427D01*
X24345900Y13277799D01*
X24340972Y13278612D01*
G37*
G36*
X24299672Y13198856D02*
G01*
X24299672Y13189204D01*
X24355806Y13151612D01*
X24299672Y13151612D01*
X24299672Y13142468D01*
X24371300Y13142468D01*
X24371300Y13152119D01*
X24315166Y13189712D01*
X24371300Y13189712D01*
X24371300Y13198856D01*
G37*
G36*
X24299672Y13126466D02*
G01*
X24299672Y13117068D01*
X24362918Y13117068D01*
X24362816Y13098475D01*
X24362206Y13092887D01*
X24361648Y13090652D01*
X24359920Y13087045D01*
X24357838Y13084302D01*
X24356009Y13082625D01*
X24353926Y13081203D01*
X24351437Y13079984D01*
X24348694Y13078968D01*
X24345747Y13078206D01*
X24338889Y13077291D01*
X24334978Y13077190D01*
X24329694Y13077393D01*
X24325072Y13078053D01*
X24321058Y13079171D01*
X24317706Y13080746D01*
X24314912Y13082727D01*
X24312626Y13084860D01*
X24310848Y13087197D01*
X24309578Y13089636D01*
X24308917Y13091820D01*
X24308409Y13094665D01*
X24308054Y13102082D01*
X24308054Y13117068D01*
X24299672Y13117068D01*
X24299722Y13097865D01*
X24300230Y13091515D01*
X24300688Y13089128D01*
X24302720Y13083387D01*
X24304091Y13080847D01*
X24305768Y13078460D01*
X24308358Y13075818D01*
X24311305Y13073583D01*
X24314556Y13071652D01*
X24318214Y13070078D01*
X24322024Y13068858D01*
X24326138Y13067995D01*
X24330558Y13067436D01*
X24335232Y13067284D01*
X24342852Y13067792D01*
X24349456Y13069315D01*
X24355247Y13071398D01*
X24359870Y13074142D01*
X24363680Y13077240D01*
X24366474Y13080492D01*
X24368506Y13084403D01*
X24370030Y13089128D01*
X24370995Y13094512D01*
X24371300Y13100558D01*
X24371300Y13126466D01*
G37*
G36*
X24879300Y13260069D02*
G01*
X24876252Y13259816D01*
X24873204Y13259054D01*
X24868378Y13256717D01*
X24863552Y13253212D01*
X24858573Y13248436D01*
X24848312Y13236397D01*
X24844248Y13231977D01*
X24840692Y13228523D01*
X24837644Y13226034D01*
X24834900Y13224256D01*
X24832157Y13222986D01*
X24829566Y13222224D01*
X24826976Y13221969D01*
X24824537Y13222173D01*
X24822251Y13222884D01*
X24820219Y13223951D01*
X24818340Y13225526D01*
X24816765Y13227557D01*
X24815647Y13229894D01*
X24814987Y13232536D01*
X24814784Y13235432D01*
X24815038Y13238429D01*
X24815749Y13241121D01*
X24816917Y13243509D01*
X24818594Y13245592D01*
X24820676Y13247268D01*
X24823115Y13248436D01*
X24825858Y13249148D01*
X24829008Y13249401D01*
X24828246Y13258546D01*
X24823470Y13257733D01*
X24819305Y13256260D01*
X24815698Y13254177D01*
X24812752Y13251434D01*
X24810415Y13248132D01*
X24808738Y13244322D01*
X24807773Y13240004D01*
X24807418Y13235178D01*
X24807773Y13230250D01*
X24808891Y13225881D01*
X24810720Y13222122D01*
X24813260Y13218922D01*
X24816206Y13216229D01*
X24819559Y13214350D01*
X24823216Y13213181D01*
X24827230Y13212826D01*
X24831548Y13213283D01*
X24835866Y13214604D01*
X24837948Y13215619D01*
X24842266Y13218566D01*
X24846991Y13222833D01*
X24853341Y13229539D01*
X24864669Y13242645D01*
X24867260Y13245185D01*
X24870918Y13247878D01*
X24870918Y13212826D01*
X24879300Y13212826D01*
G37*
G36*
X24854154Y13206222D02*
G01*
X24810194Y13175234D01*
X24821896Y13175234D01*
X24854154Y13197586D01*
X24854154Y13175234D01*
X24810194Y13175234D01*
X24807672Y13173456D01*
X24807672Y13166344D01*
X24854154Y13166344D01*
X24854154Y13156692D01*
X24862282Y13156692D01*
X24862282Y13166344D01*
X24879300Y13166344D01*
X24879300Y13175234D01*
X24862282Y13175234D01*
X24862282Y13206222D01*
G37*
G36*
X24807672Y13151357D02*
G01*
X24807672Y13141198D01*
X24862840Y13121538D01*
X24871426Y13118846D01*
X24859742Y13115036D01*
X24807672Y13095732D01*
X24807672Y13086080D01*
X24879300Y13114019D01*
X24879300Y13123672D01*
G37*
G36*
X25516840Y13278866D02*
G01*
X25511709Y13278612D01*
X25506781Y13277799D01*
X25502057Y13276427D01*
X25497536Y13274548D01*
X25493268Y13272160D01*
X25489611Y13269213D01*
X25486512Y13265759D01*
X25484074Y13261848D01*
X25482092Y13257631D01*
X25480670Y13253110D01*
X25479806Y13248233D01*
X25479502Y13243051D01*
X25479654Y13239242D01*
X25480111Y13235635D01*
X25480924Y13232231D01*
X25482042Y13229082D01*
X25483413Y13226084D01*
X25485090Y13223443D01*
X25487020Y13221106D01*
X25489154Y13219176D01*
X25491592Y13217499D01*
X25494386Y13216077D01*
X25497434Y13214857D01*
X25500838Y13213842D01*
X25503124Y13222224D01*
X25498298Y13224103D01*
X25494488Y13226288D01*
X25493065Y13227557D01*
X25491744Y13229132D01*
X25489662Y13233146D01*
X25488747Y13235381D01*
X25487731Y13240359D01*
X25487731Y13246150D01*
X25488747Y13251738D01*
X25489662Y13254228D01*
X25491998Y13258546D01*
X25493421Y13260324D01*
X25496570Y13263168D01*
X25499974Y13265454D01*
X25501854Y13266419D01*
X25505308Y13267639D01*
X25508915Y13268502D01*
X25512572Y13269061D01*
X25516332Y13269213D01*
X25520954Y13269010D01*
X25525171Y13268401D01*
X25528930Y13267334D01*
X25532334Y13265912D01*
X25535432Y13264083D01*
X25538074Y13261848D01*
X25540258Y13259257D01*
X25541986Y13256260D01*
X25543306Y13253059D01*
X25544272Y13249706D01*
X25544830Y13246303D01*
X25545034Y13242798D01*
X25544881Y13239750D01*
X25544475Y13236752D01*
X25543764Y13233806D01*
X25541579Y13228116D01*
X25539039Y13223646D01*
X25537668Y13221969D01*
X25524206Y13221969D01*
X25524206Y13243051D01*
X25515824Y13243051D01*
X25515824Y13212572D01*
X25542494Y13212572D01*
X25545135Y13216128D01*
X25547370Y13219734D01*
X25549301Y13223392D01*
X25550876Y13227050D01*
X25552095Y13230758D01*
X25552958Y13234568D01*
X25553517Y13238378D01*
X25553670Y13242290D01*
X25553365Y13247471D01*
X25552552Y13252450D01*
X25551079Y13257123D01*
X25549098Y13261594D01*
X25546558Y13265556D01*
X25543560Y13269010D01*
X25540106Y13272007D01*
X25536144Y13274548D01*
X25531724Y13276427D01*
X25527000Y13277799D01*
X25522072Y13278612D01*
G37*
G36*
X25480772Y13198856D02*
G01*
X25480772Y13189204D01*
X25536906Y13151612D01*
X25480772Y13151612D01*
X25480772Y13142468D01*
X25552400Y13142468D01*
X25552400Y13152119D01*
X25496266Y13189712D01*
X25552400Y13189712D01*
X25552400Y13198856D01*
G37*
G36*
X25480772Y13126466D02*
G01*
X25480772Y13117068D01*
X25544018Y13117068D01*
X25543916Y13098475D01*
X25543306Y13092887D01*
X25542748Y13090652D01*
X25541020Y13087045D01*
X25538938Y13084302D01*
X25537109Y13082625D01*
X25535026Y13081203D01*
X25532537Y13079984D01*
X25529794Y13078968D01*
X25526847Y13078206D01*
X25519989Y13077291D01*
X25516078Y13077190D01*
X25510794Y13077393D01*
X25506172Y13078053D01*
X25502158Y13079171D01*
X25498806Y13080746D01*
X25496012Y13082727D01*
X25493726Y13084860D01*
X25491948Y13087197D01*
X25490678Y13089636D01*
X25490017Y13091820D01*
X25489509Y13094665D01*
X25489154Y13102082D01*
X25489154Y13117068D01*
X25480772Y13117068D01*
X25480822Y13097865D01*
X25481330Y13091515D01*
X25481788Y13089128D01*
X25483820Y13083387D01*
X25485191Y13080847D01*
X25486868Y13078460D01*
X25489458Y13075818D01*
X25492405Y13073583D01*
X25495656Y13071652D01*
X25499314Y13070078D01*
X25503124Y13068858D01*
X25507238Y13067995D01*
X25511658Y13067436D01*
X25516332Y13067284D01*
X25523952Y13067792D01*
X25530556Y13069315D01*
X25536347Y13071398D01*
X25540970Y13074142D01*
X25544780Y13077240D01*
X25547574Y13080492D01*
X25549606Y13084403D01*
X25551130Y13089128D01*
X25552095Y13094512D01*
X25552400Y13100558D01*
X25552400Y13126466D01*
G37*
G36*
X26006552Y13256107D02*
G01*
X26002691Y13249198D01*
X25998170Y13243153D01*
X25993191Y13238581D01*
X25990854Y13236905D01*
X25988518Y13235533D01*
X25988518Y13229691D01*
X26060400Y13229691D01*
X26060400Y13238581D01*
X26004520Y13238581D01*
X26007364Y13242239D01*
X26010362Y13246963D01*
X26013003Y13251789D01*
X26014934Y13256107D01*
G37*
G36*
X26058876Y13208406D02*
G01*
X26055827Y13207898D01*
X26051916Y13206323D01*
X26047090Y13203428D01*
X26042264Y13199363D01*
X26036930Y13193674D01*
X26029412Y13184733D01*
X26025348Y13180313D01*
X26021792Y13176859D01*
X26018743Y13174319D01*
X26016000Y13172541D01*
X26013257Y13171271D01*
X26010666Y13170509D01*
X26008076Y13170255D01*
X26005637Y13170509D01*
X26003351Y13171220D01*
X26001319Y13172440D01*
X25999440Y13174065D01*
X25997865Y13176046D01*
X25996747Y13178282D01*
X25996087Y13180872D01*
X25995884Y13183717D01*
X25996138Y13186765D01*
X25996849Y13189457D01*
X25998017Y13191845D01*
X25999694Y13193877D01*
X26001776Y13195554D01*
X26004215Y13196773D01*
X26006958Y13197484D01*
X26010108Y13197687D01*
X26009346Y13206831D01*
X26004570Y13206018D01*
X26000405Y13204545D01*
X25996798Y13202462D01*
X25993852Y13199719D01*
X25991515Y13196417D01*
X25989838Y13192607D01*
X25988873Y13188289D01*
X25988518Y13183463D01*
X25988873Y13178637D01*
X25989991Y13174319D01*
X25991820Y13170509D01*
X25994360Y13167207D01*
X25997306Y13164566D01*
X26000659Y13162635D01*
X26004316Y13161518D01*
X26008330Y13161111D01*
X26012648Y13161568D01*
X26016966Y13162889D01*
X26021131Y13165277D01*
X26025602Y13168731D01*
X26031088Y13174167D01*
X26038302Y13182193D01*
X26043839Y13188797D01*
X26047192Y13192353D01*
X26049528Y13194487D01*
X26052018Y13196163D01*
X26052018Y13161111D01*
X26060400Y13161111D01*
X26060400Y13208355D01*
G37*
G36*
X25988772Y13155269D02*
G01*
X25988772Y13145109D01*
X26049782Y13123570D01*
X26052526Y13122757D01*
X26040842Y13118947D01*
X25988772Y13099643D01*
X25988772Y13089991D01*
X26060400Y13117931D01*
X26060400Y13127583D01*
G37*
G36*
X26697939Y13278866D02*
G01*
X26692809Y13278612D01*
X26687881Y13277799D01*
X26683157Y13276427D01*
X26678636Y13274548D01*
X26674368Y13272160D01*
X26670711Y13269213D01*
X26667612Y13265759D01*
X26665174Y13261848D01*
X26663142Y13257631D01*
X26661719Y13253110D01*
X26660856Y13248233D01*
X26660602Y13243051D01*
X26660754Y13239242D01*
X26661211Y13235635D01*
X26662024Y13232231D01*
X26663142Y13229082D01*
X26664513Y13226084D01*
X26666189Y13223443D01*
X26668069Y13221106D01*
X26670253Y13219176D01*
X26672692Y13217499D01*
X26675435Y13216077D01*
X26678534Y13214857D01*
X26681938Y13213842D01*
X26684224Y13222224D01*
X26679398Y13224103D01*
X26675588Y13226288D01*
X26674114Y13227557D01*
X26672844Y13229132D01*
X26670762Y13233146D01*
X26669847Y13235381D01*
X26668831Y13240359D01*
X26668831Y13246150D01*
X26669847Y13251738D01*
X26671828Y13256513D01*
X26673098Y13258546D01*
X26674521Y13260324D01*
X26677670Y13263168D01*
X26681074Y13265454D01*
X26682953Y13266419D01*
X26686408Y13267639D01*
X26690015Y13268502D01*
X26693672Y13269061D01*
X26697432Y13269213D01*
X26702054Y13269010D01*
X26706271Y13268401D01*
X26710030Y13267334D01*
X26713434Y13265912D01*
X26716482Y13264083D01*
X26719123Y13261848D01*
X26721308Y13259257D01*
X26723086Y13256260D01*
X26724406Y13253059D01*
X26725372Y13249706D01*
X26725930Y13246303D01*
X26726134Y13242798D01*
X26725981Y13239750D01*
X26725575Y13236752D01*
X26723848Y13230860D01*
X26721409Y13225729D01*
X26720139Y13223646D01*
X26718768Y13221969D01*
X26705306Y13221969D01*
X26705306Y13243051D01*
X26696924Y13243051D01*
X26696924Y13212572D01*
X26723594Y13212572D01*
X26726184Y13216128D01*
X26728470Y13219734D01*
X26730401Y13223392D01*
X26731976Y13227050D01*
X26733195Y13230758D01*
X26734058Y13234568D01*
X26734566Y13238378D01*
X26734770Y13242290D01*
X26734465Y13247471D01*
X26733601Y13252450D01*
X26732179Y13257123D01*
X26730198Y13261594D01*
X26727658Y13265556D01*
X26724660Y13269010D01*
X26721206Y13272007D01*
X26717244Y13274548D01*
X26712773Y13276427D01*
X26708100Y13277799D01*
X26703121Y13278612D01*
G37*
G36*
X26661872Y13198856D02*
G01*
X26661872Y13189204D01*
X26718006Y13151612D01*
X26661872Y13151612D01*
X26661872Y13142468D01*
X26733500Y13142468D01*
X26733500Y13152119D01*
X26677365Y13189712D01*
X26733500Y13189712D01*
X26733500Y13198856D01*
G37*
G36*
X26661872Y13126466D02*
G01*
X26661872Y13117068D01*
X26725118Y13117068D01*
X26725016Y13098475D01*
X26724406Y13092887D01*
X26723848Y13090652D01*
X26722120Y13087045D01*
X26720038Y13084302D01*
X26718209Y13082625D01*
X26716075Y13081203D01*
X26713637Y13079984D01*
X26710894Y13078968D01*
X26707947Y13078206D01*
X26701089Y13077291D01*
X26697177Y13077190D01*
X26691894Y13077393D01*
X26687272Y13078053D01*
X26683258Y13079171D01*
X26679906Y13080746D01*
X26677112Y13082727D01*
X26674826Y13084860D01*
X26673048Y13087197D01*
X26671777Y13089636D01*
X26671117Y13091820D01*
X26670609Y13094665D01*
X26670253Y13102082D01*
X26670253Y13117068D01*
X26661872Y13117068D01*
X26661922Y13097865D01*
X26662430Y13091515D01*
X26662888Y13089128D01*
X26663751Y13086181D01*
X26664920Y13083387D01*
X26666291Y13080847D01*
X26667968Y13078460D01*
X26670558Y13075818D01*
X26673505Y13073583D01*
X26676756Y13071652D01*
X26680414Y13070078D01*
X26684224Y13068858D01*
X26688338Y13067995D01*
X26692758Y13067436D01*
X26697432Y13067284D01*
X26705052Y13067792D01*
X26711656Y13069315D01*
X26717447Y13071398D01*
X26722070Y13074142D01*
X26725880Y13077240D01*
X26728674Y13080492D01*
X26730706Y13084403D01*
X26732230Y13089128D01*
X26733195Y13094512D01*
X26733500Y13100558D01*
X26733500Y13126466D01*
G37*
G36*
X27222703Y13231723D02*
G01*
X27221942Y13222579D01*
X27225142Y13221919D01*
X27227936Y13220903D01*
X27230222Y13219531D01*
X27232102Y13217753D01*
X27233524Y13215772D01*
X27234591Y13213638D01*
X27235200Y13211352D01*
X27235403Y13208863D01*
X27235099Y13205815D01*
X27234184Y13202970D01*
X27232711Y13200380D01*
X27230577Y13197941D01*
X27228088Y13196062D01*
X27225091Y13194741D01*
X27221738Y13193928D01*
X27217877Y13193623D01*
X27214372Y13193928D01*
X27211274Y13194741D01*
X27208530Y13196062D01*
X27206194Y13197941D01*
X27204314Y13200176D01*
X27202942Y13202716D01*
X27202130Y13205612D01*
X27201876Y13208863D01*
X27201977Y13210997D01*
X27202892Y13214807D01*
X27204720Y13218210D01*
X27207260Y13221004D01*
X27208734Y13222071D01*
X27207718Y13230199D01*
X27170888Y13223341D01*
X27170888Y13187781D01*
X27179270Y13187781D01*
X27179270Y13216229D01*
X27198574Y13220039D01*
X27196592Y13216839D01*
X27195170Y13213537D01*
X27194306Y13210133D01*
X27194002Y13206577D01*
X27194408Y13202107D01*
X27195627Y13197941D01*
X27197710Y13194233D01*
X27200606Y13190829D01*
X27204009Y13187984D01*
X27207921Y13185901D01*
X27212289Y13184682D01*
X27217115Y13184225D01*
X27221891Y13184632D01*
X27226310Y13185698D01*
X27230425Y13187527D01*
X27234134Y13190067D01*
X27237893Y13193826D01*
X27240636Y13198195D01*
X27242211Y13203224D01*
X27242770Y13208863D01*
X27242414Y13213486D01*
X27241398Y13217651D01*
X27239620Y13221360D01*
X27237182Y13224611D01*
X27234286Y13227456D01*
X27230882Y13229590D01*
X27227022Y13231012D01*
G37*
G36*
X27169872Y13179907D02*
G01*
X27169872Y13169493D01*
X27224939Y13149884D01*
X27233626Y13147141D01*
X27227784Y13145465D01*
X27169872Y13124027D01*
X27169872Y13114375D01*
X27241500Y13142315D01*
X27241500Y13152221D01*
G37*
G36*
X27917139Y13278866D02*
G01*
X27912009Y13278612D01*
X27907132Y13277799D01*
X27902357Y13276427D01*
X27897836Y13274548D01*
X27893568Y13272160D01*
X27889911Y13269213D01*
X27886812Y13265759D01*
X27884374Y13261848D01*
X27882392Y13257631D01*
X27880970Y13253110D01*
X27880106Y13248233D01*
X27879802Y13243051D01*
X27879954Y13239242D01*
X27880411Y13235635D01*
X27881224Y13232231D01*
X27882342Y13229082D01*
X27883713Y13226084D01*
X27885389Y13223443D01*
X27887320Y13221106D01*
X27889453Y13219176D01*
X27891892Y13217499D01*
X27894686Y13216077D01*
X27897734Y13214857D01*
X27901138Y13213842D01*
X27903424Y13222224D01*
X27898598Y13224103D01*
X27894788Y13226288D01*
X27893365Y13227557D01*
X27892044Y13229132D01*
X27889962Y13233146D01*
X27888438Y13237768D01*
X27887930Y13243051D01*
X27888438Y13248995D01*
X27889047Y13251738D01*
X27889962Y13254228D01*
X27892298Y13258546D01*
X27893721Y13260324D01*
X27896870Y13263168D01*
X27900274Y13265454D01*
X27902153Y13266419D01*
X27905608Y13267639D01*
X27909215Y13268502D01*
X27912872Y13269061D01*
X27916632Y13269213D01*
X27921254Y13269010D01*
X27925471Y13268401D01*
X27929230Y13267334D01*
X27932634Y13265912D01*
X27935732Y13264083D01*
X27938374Y13261848D01*
X27940558Y13259257D01*
X27942286Y13256260D01*
X27943606Y13253059D01*
X27944572Y13249706D01*
X27945130Y13246303D01*
X27945334Y13242798D01*
X27945181Y13239750D01*
X27944775Y13236752D01*
X27944064Y13233806D01*
X27941879Y13228116D01*
X27939339Y13223646D01*
X27937968Y13221969D01*
X27924506Y13221969D01*
X27924506Y13243051D01*
X27916124Y13243051D01*
X27916124Y13212572D01*
X27942794Y13212572D01*
X27945435Y13216128D01*
X27947670Y13219734D01*
X27949601Y13223392D01*
X27951176Y13227050D01*
X27952395Y13230758D01*
X27953258Y13234568D01*
X27953817Y13238378D01*
X27953970Y13242290D01*
X27953665Y13247471D01*
X27952852Y13252450D01*
X27951379Y13257123D01*
X27949398Y13261594D01*
X27946858Y13265556D01*
X27943860Y13269010D01*
X27940406Y13272007D01*
X27936444Y13274548D01*
X27932024Y13276427D01*
X27927300Y13277799D01*
X27922372Y13278612D01*
G37*
G36*
X27881072Y13198856D02*
G01*
X27881072Y13189204D01*
X27937206Y13151612D01*
X27881072Y13151612D01*
X27881072Y13142468D01*
X27952700Y13142468D01*
X27952700Y13152119D01*
X27896565Y13189712D01*
X27952700Y13189712D01*
X27952700Y13198856D01*
G37*
G36*
X27881072Y13126466D02*
G01*
X27881072Y13117068D01*
X27944318Y13117068D01*
X27944216Y13098475D01*
X27943606Y13092887D01*
X27943048Y13090652D01*
X27941320Y13087045D01*
X27939238Y13084302D01*
X27937409Y13082625D01*
X27935326Y13081203D01*
X27932837Y13079984D01*
X27930094Y13078968D01*
X27927147Y13078206D01*
X27920289Y13077291D01*
X27916377Y13077190D01*
X27911094Y13077393D01*
X27906472Y13078053D01*
X27902458Y13079171D01*
X27899106Y13080746D01*
X27896312Y13082727D01*
X27894026Y13084860D01*
X27892248Y13087197D01*
X27890977Y13089636D01*
X27890317Y13091820D01*
X27889809Y13094665D01*
X27889453Y13102082D01*
X27889453Y13117068D01*
X27881072Y13117068D01*
X27881122Y13097865D01*
X27881630Y13091515D01*
X27882088Y13089128D01*
X27884120Y13083387D01*
X27885491Y13080847D01*
X27887168Y13078460D01*
X27889758Y13075818D01*
X27892705Y13073583D01*
X27895956Y13071652D01*
X27899614Y13070078D01*
X27903424Y13068858D01*
X27907538Y13067995D01*
X27911958Y13067436D01*
X27916632Y13067284D01*
X27924252Y13067792D01*
X27930856Y13069315D01*
X27936647Y13071398D01*
X27941270Y13074142D01*
X27945080Y13077240D01*
X27947874Y13080492D01*
X27949906Y13084403D01*
X27951430Y13089128D01*
X27952395Y13094512D01*
X27952700Y13100558D01*
X27952700Y13126466D01*
G37*
G36*
X28424377Y13283438D02*
G01*
X28418942Y13283184D01*
X28413913Y13282422D01*
X28409188Y13281151D01*
X28404820Y13279374D01*
X28400908Y13276986D01*
X28397453Y13274141D01*
X28394558Y13270890D01*
X28392120Y13267182D01*
X28390240Y13263118D01*
X28388868Y13258850D01*
X28388056Y13254380D01*
X28387802Y13249656D01*
X28388157Y13244525D01*
X28389173Y13239800D01*
X28390951Y13235533D01*
X28393389Y13231622D01*
X28396336Y13228218D01*
X28399892Y13225373D01*
X28403956Y13223138D01*
X28408630Y13221462D01*
X28410915Y13230860D01*
X28407258Y13232231D01*
X28404108Y13233907D01*
X28401518Y13235787D01*
X28399486Y13237972D01*
X28397911Y13240512D01*
X28396793Y13243356D01*
X28396133Y13246506D01*
X28395930Y13249910D01*
X28396184Y13253923D01*
X28396946Y13257530D01*
X28398215Y13260781D01*
X28399994Y13263626D01*
X28402076Y13266216D01*
X28404565Y13268401D01*
X28407410Y13270128D01*
X28410662Y13271500D01*
X28414014Y13272516D01*
X28417418Y13273227D01*
X28420872Y13273633D01*
X28424377Y13273786D01*
X28428797Y13273633D01*
X28432963Y13273074D01*
X28436824Y13272211D01*
X28440380Y13270992D01*
X28443478Y13269518D01*
X28446222Y13267690D01*
X28448558Y13265454D01*
X28450539Y13262863D01*
X28451962Y13260019D01*
X28453029Y13257022D01*
X28453638Y13253923D01*
X28453842Y13250672D01*
X28453537Y13246862D01*
X28452673Y13243356D01*
X28451251Y13240156D01*
X28449270Y13237210D01*
X28446679Y13234669D01*
X28443580Y13232587D01*
X28439821Y13230961D01*
X28435553Y13229844D01*
X28438094Y13220192D01*
X28443580Y13222020D01*
X28448406Y13224357D01*
X28452470Y13227354D01*
X28455874Y13230860D01*
X28458566Y13235025D01*
X28460446Y13239546D01*
X28461563Y13244525D01*
X28461970Y13249910D01*
X28461665Y13255447D01*
X28460750Y13260425D01*
X28459277Y13264845D01*
X28457144Y13268706D01*
X28454603Y13272160D01*
X28451505Y13275106D01*
X28447847Y13277596D01*
X28443682Y13279628D01*
X28439059Y13281304D01*
X28434284Y13282472D01*
X28429407Y13283184D01*
G37*
G36*
X28425902Y13211556D02*
G01*
X28410052Y13209117D01*
X28397962Y13201904D01*
X28390342Y13190931D01*
X28387802Y13177266D01*
X28395930Y13177266D01*
X28396336Y13182041D01*
X28397657Y13186511D01*
X28399790Y13190677D01*
X28402788Y13194538D01*
X28412135Y13199872D01*
X28425902Y13201650D01*
X28432048Y13201243D01*
X28437535Y13199922D01*
X28442310Y13197789D01*
X28446476Y13194792D01*
X28449676Y13191032D01*
X28452013Y13186867D01*
X28453384Y13182244D01*
X28453842Y13177266D01*
X28453384Y13172186D01*
X28451911Y13167563D01*
X28449574Y13163397D01*
X28446222Y13159740D01*
X28442107Y13156742D01*
X28437230Y13154609D01*
X28431439Y13153288D01*
X28424886Y13152882D01*
X28420720Y13153034D01*
X28416758Y13153593D01*
X28413100Y13154456D01*
X28409646Y13155676D01*
X28406648Y13157352D01*
X28403905Y13159333D01*
X28401568Y13161670D01*
X28399486Y13164312D01*
X28397911Y13167309D01*
X28396793Y13170458D01*
X28396133Y13173811D01*
X28395930Y13177266D01*
X28387802Y13177266D01*
X28388106Y13172440D01*
X28389021Y13167817D01*
X28390494Y13163397D01*
X28392627Y13159232D01*
X28395168Y13155523D01*
X28398215Y13152323D01*
X28401772Y13149580D01*
X28405836Y13147294D01*
X28410153Y13145414D01*
X28414776Y13144042D01*
X28419704Y13143230D01*
X28424886Y13142976D01*
X28430220Y13143230D01*
X28435249Y13144042D01*
X28439973Y13145414D01*
X28444444Y13147294D01*
X28448508Y13149783D01*
X28452013Y13152678D01*
X28454959Y13156031D01*
X28457398Y13159740D01*
X28459379Y13163905D01*
X28460852Y13168172D01*
X28461665Y13172643D01*
X28461970Y13177266D01*
X28461665Y13182193D01*
X28460750Y13186867D01*
X28459277Y13191236D01*
X28457144Y13195300D01*
X28454400Y13199008D01*
X28451251Y13202259D01*
X28447644Y13205104D01*
X28443682Y13207492D01*
X28439414Y13209269D01*
X28435046Y13210540D01*
X28430524Y13211301D01*
G37*
G36*
X28389072Y13131038D02*
G01*
X28389072Y13116813D01*
X28450286Y13096494D01*
X28389072Y13075412D01*
X28389072Y13062712D01*
X28460700Y13062712D01*
X28460700Y13071856D01*
X28400756Y13071856D01*
X28460700Y13092684D01*
X28460700Y13101319D01*
X28399739Y13121894D01*
X28460700Y13121894D01*
X28460700Y13131038D01*
G37*
G36*
X30667706Y12658598D02*
G01*
X30663896Y12658445D01*
X30660289Y12657988D01*
X30656885Y12657175D01*
X30653736Y12656058D01*
X30650738Y12654635D01*
X30648097Y12653010D01*
X30645760Y12651079D01*
X30643830Y12648946D01*
X30642153Y12646507D01*
X30640731Y12643764D01*
X30639512Y12640665D01*
X30638496Y12637262D01*
X30646877Y12634976D01*
X30648808Y12639802D01*
X30650942Y12643612D01*
X30652212Y12645034D01*
X30653786Y12646355D01*
X30657800Y12648438D01*
X30660035Y12649352D01*
X30665013Y12650368D01*
X30670804Y12650368D01*
X30676392Y12649352D01*
X30678882Y12648438D01*
X30683200Y12646101D01*
X30684977Y12644678D01*
X30687822Y12641529D01*
X30690108Y12638125D01*
X30691074Y12636246D01*
X30692293Y12632791D01*
X30693156Y12629184D01*
X30693715Y12625527D01*
X30693868Y12621768D01*
X30693664Y12617145D01*
X30693055Y12612928D01*
X30691988Y12609169D01*
X30690565Y12605766D01*
X30688737Y12602667D01*
X30686502Y12600076D01*
X30683911Y12597841D01*
X30680914Y12596114D01*
X30677713Y12594793D01*
X30674360Y12593828D01*
X30670957Y12593269D01*
X30667452Y12593066D01*
X30664403Y12593218D01*
X30661406Y12593624D01*
X30658460Y12594336D01*
X30652770Y12596520D01*
X30648300Y12599060D01*
X30646624Y12600432D01*
X30646624Y12613894D01*
X30667706Y12613894D01*
X30667706Y12622276D01*
X30637226Y12622276D01*
X30637226Y12595606D01*
X30640782Y12592964D01*
X30644388Y12590729D01*
X30648046Y12588798D01*
X30651703Y12587224D01*
X30655412Y12586004D01*
X30659222Y12585141D01*
X30663032Y12584582D01*
X30666944Y12584430D01*
X30672176Y12584734D01*
X30677103Y12585547D01*
X30681828Y12587020D01*
X30686248Y12589002D01*
X30690210Y12591542D01*
X30693664Y12594539D01*
X30696662Y12597993D01*
X30699202Y12601956D01*
X30701081Y12606426D01*
X30702453Y12611100D01*
X30703265Y12616078D01*
X30703520Y12621260D01*
X30703265Y12626390D01*
X30702453Y12631318D01*
X30701081Y12636042D01*
X30699202Y12640564D01*
X30696814Y12644831D01*
X30693868Y12648488D01*
X30690464Y12651587D01*
X30686502Y12654026D01*
X30682285Y12656007D01*
X30677764Y12657429D01*
X30672887Y12658293D01*
G37*
G36*
X30567122Y12657328D02*
G01*
X30567122Y12585700D01*
X30576774Y12585700D01*
X30614365Y12641834D01*
X30614365Y12585700D01*
X30623510Y12585700D01*
X30623510Y12657328D01*
X30613858Y12657328D01*
X30576265Y12601194D01*
X30576265Y12657328D01*
G37*
G36*
X30526482Y12657328D02*
G01*
X30519115Y12657074D01*
X30513782Y12656312D01*
X30510835Y12655397D01*
X30508092Y12654280D01*
X30505501Y12652908D01*
X30503114Y12651232D01*
X30500472Y12648641D01*
X30498237Y12645694D01*
X30496306Y12642443D01*
X30494732Y12638786D01*
X30493512Y12634976D01*
X30492649Y12630861D01*
X30492090Y12626441D01*
X30491946Y12622022D01*
X30501844Y12622022D01*
X30502047Y12627305D01*
X30502758Y12631928D01*
X30503825Y12635941D01*
X30505400Y12639294D01*
X30507381Y12642088D01*
X30509514Y12644374D01*
X30511851Y12646152D01*
X30514289Y12647422D01*
X30516474Y12648082D01*
X30522722Y12648844D01*
X30541722Y12648946D01*
X30541722Y12594082D01*
X30523129Y12594183D01*
X30517541Y12594793D01*
X30515306Y12595352D01*
X30511699Y12597079D01*
X30508956Y12599162D01*
X30507279Y12600990D01*
X30505857Y12603073D01*
X30504638Y12605562D01*
X30503622Y12608306D01*
X30502860Y12611252D01*
X30501945Y12618110D01*
X30501844Y12622022D01*
X30491946Y12622022D01*
X30492446Y12614148D01*
X30493106Y12610693D01*
X30494935Y12604496D01*
X30496052Y12601752D01*
X30498796Y12597130D01*
X30501894Y12593320D01*
X30505146Y12590526D01*
X30509108Y12588494D01*
X30513782Y12586970D01*
X30519166Y12586004D01*
X30525212Y12585700D01*
X30551120Y12585700D01*
X30551120Y12657328D01*
G37*
G36*
X30614010Y12404598D02*
G01*
X30609133Y12404293D01*
X30604510Y12403378D01*
X30600142Y12401905D01*
X30595976Y12399772D01*
X30592268Y12397232D01*
X30589016Y12394184D01*
X30586273Y12390628D01*
X30584038Y12386564D01*
X30582108Y12382246D01*
X30580787Y12377623D01*
X30579974Y12372695D01*
X30579720Y12367514D01*
X30589626Y12367514D01*
X30589778Y12371730D01*
X30590286Y12375642D01*
X30591150Y12379350D01*
X30592420Y12382754D01*
X30594096Y12385751D01*
X30596077Y12388494D01*
X30598414Y12390831D01*
X30601056Y12392914D01*
X30604002Y12394488D01*
X30607152Y12395606D01*
X30610352Y12396266D01*
X30613756Y12396470D01*
X30618633Y12396063D01*
X30623205Y12394742D01*
X30627421Y12392609D01*
X30631282Y12389612D01*
X30636616Y12380264D01*
X30638394Y12366498D01*
X30637937Y12360351D01*
X30636667Y12354864D01*
X30634533Y12350089D01*
X30631536Y12345924D01*
X30627726Y12342723D01*
X30623560Y12340386D01*
X30618988Y12339015D01*
X30614010Y12338558D01*
X30608879Y12339015D01*
X30604256Y12340437D01*
X30600142Y12342825D01*
X30596484Y12346178D01*
X30593436Y12350292D01*
X30591302Y12355220D01*
X30590032Y12360960D01*
X30589626Y12367514D01*
X30579720Y12367514D01*
X30579974Y12362180D01*
X30580787Y12357150D01*
X30582108Y12352426D01*
X30584038Y12347956D01*
X30586527Y12343892D01*
X30589423Y12340386D01*
X30592725Y12337440D01*
X30596484Y12335002D01*
X30600599Y12333020D01*
X30604917Y12331547D01*
X30609387Y12330734D01*
X30614010Y12330430D01*
X30618938Y12330734D01*
X30623560Y12331649D01*
X30627929Y12333122D01*
X30632044Y12335256D01*
X30635702Y12337999D01*
X30638953Y12341148D01*
X30641696Y12344755D01*
X30643982Y12348718D01*
X30645862Y12352985D01*
X30647182Y12357354D01*
X30647995Y12361875D01*
X30648300Y12366498D01*
X30645862Y12382347D01*
X30638648Y12394438D01*
X30627624Y12402058D01*
G37*
G36*
X30662016Y12403328D02*
G01*
X30662016Y12331700D01*
X30671414Y12331700D01*
X30671414Y12403328D01*
G37*
G36*
X30524094Y12402312D02*
G01*
X30524094Y12395454D01*
X30527498Y12391593D01*
X30530952Y12387072D01*
X30534356Y12381941D01*
X30537810Y12376150D01*
X30543703Y12363958D01*
X30548224Y12351258D01*
X30550307Y12341910D01*
X30551526Y12331700D01*
X30560416Y12331700D01*
X30560162Y12336119D01*
X30559552Y12340945D01*
X30558536Y12346279D01*
X30555387Y12357963D01*
X30553304Y12363754D01*
X30550815Y12369495D01*
X30544973Y12380518D01*
X30541925Y12385395D01*
X30538775Y12389916D01*
X30535524Y12393930D01*
X30570576Y12393930D01*
X30570576Y12402312D01*
G37*
G36*
X30539029Y12162028D02*
G01*
X30567020Y12090400D01*
X30576672Y12090400D01*
X30604358Y12162028D01*
X30594198Y12162028D01*
X30574538Y12106859D01*
X30571795Y12098274D01*
X30568036Y12109958D01*
X30548732Y12162028D01*
G37*
G36*
X30612232Y12161012D02*
G01*
X30612232Y12152630D01*
X30640934Y12152630D01*
X30644693Y12133326D01*
X30641391Y12135307D01*
X30637988Y12136729D01*
X30634533Y12137593D01*
X30630977Y12137898D01*
X30626608Y12137491D01*
X30622494Y12136272D01*
X30618734Y12134189D01*
X30615229Y12131294D01*
X30612486Y12127890D01*
X30610505Y12123978D01*
X30609286Y12119610D01*
X30608879Y12114784D01*
X30609235Y12110008D01*
X30610302Y12105589D01*
X30612029Y12101474D01*
X30614518Y12097766D01*
X30618226Y12094006D01*
X30622595Y12091263D01*
X30627624Y12089688D01*
X30633263Y12089130D01*
X30637988Y12089485D01*
X30642255Y12090501D01*
X30646014Y12092279D01*
X30649316Y12094718D01*
X30652008Y12097613D01*
X30654091Y12101017D01*
X30655564Y12104878D01*
X30656377Y12109196D01*
X30646979Y12109958D01*
X30646319Y12106757D01*
X30645353Y12103963D01*
X30644033Y12101677D01*
X30642458Y12099798D01*
X30640426Y12098375D01*
X30638242Y12097308D01*
X30635854Y12096699D01*
X30633263Y12096496D01*
X30630266Y12096800D01*
X30627472Y12097613D01*
X30624932Y12099086D01*
X30622595Y12101068D01*
X30620715Y12103658D01*
X30619395Y12106656D01*
X30618582Y12110008D01*
X30618277Y12113768D01*
X30618531Y12117374D01*
X30619293Y12120575D01*
X30620563Y12123318D01*
X30622341Y12125706D01*
X30624678Y12127585D01*
X30627320Y12128957D01*
X30630266Y12129770D01*
X30633568Y12130024D01*
X30635549Y12129922D01*
X30639359Y12129008D01*
X30641188Y12128246D01*
X30644134Y12125960D01*
X30646522Y12123166D01*
X30654904Y12124182D01*
X30647741Y12161012D01*
G37*
G36*
X30667706Y11363198D02*
G01*
X30663896Y11363045D01*
X30660289Y11362588D01*
X30656885Y11361775D01*
X30653736Y11360658D01*
X30650738Y11359235D01*
X30648097Y11357610D01*
X30645760Y11355679D01*
X30643830Y11353546D01*
X30642153Y11351107D01*
X30640731Y11348364D01*
X30639512Y11345265D01*
X30638496Y11341862D01*
X30646877Y11339576D01*
X30648808Y11344402D01*
X30650942Y11348212D01*
X30652212Y11349634D01*
X30653786Y11350955D01*
X30657800Y11353038D01*
X30660035Y11353952D01*
X30665013Y11354968D01*
X30670804Y11354968D01*
X30676392Y11353952D01*
X30678882Y11353038D01*
X30683200Y11350701D01*
X30684977Y11349278D01*
X30687822Y11346129D01*
X30690108Y11342725D01*
X30691074Y11340846D01*
X30692293Y11337391D01*
X30693156Y11333784D01*
X30693715Y11330127D01*
X30693868Y11326368D01*
X30693664Y11321745D01*
X30693055Y11317528D01*
X30691988Y11313769D01*
X30690565Y11310366D01*
X30688737Y11307267D01*
X30686502Y11304676D01*
X30683911Y11302441D01*
X30680914Y11300714D01*
X30677713Y11299393D01*
X30674360Y11298428D01*
X30670957Y11297869D01*
X30667452Y11297666D01*
X30664403Y11297818D01*
X30661406Y11298224D01*
X30658460Y11298936D01*
X30652770Y11301120D01*
X30648300Y11303660D01*
X30646624Y11305032D01*
X30646624Y11318494D01*
X30667706Y11318494D01*
X30667706Y11326876D01*
X30637226Y11326876D01*
X30637226Y11300206D01*
X30640782Y11297564D01*
X30644388Y11295329D01*
X30648046Y11293398D01*
X30651703Y11291824D01*
X30655412Y11290604D01*
X30659222Y11289741D01*
X30663032Y11289182D01*
X30666944Y11289030D01*
X30672176Y11289334D01*
X30677103Y11290147D01*
X30681828Y11291620D01*
X30686248Y11293602D01*
X30690210Y11296142D01*
X30693664Y11299139D01*
X30696662Y11302593D01*
X30699202Y11306556D01*
X30701081Y11311026D01*
X30702453Y11315700D01*
X30703265Y11320678D01*
X30703520Y11325860D01*
X30703265Y11330990D01*
X30702453Y11335918D01*
X30701081Y11340642D01*
X30699202Y11345164D01*
X30696814Y11349431D01*
X30693868Y11353088D01*
X30690464Y11356187D01*
X30686502Y11358626D01*
X30682285Y11360607D01*
X30677764Y11362029D01*
X30672887Y11362893D01*
G37*
G36*
X30567122Y11361928D02*
G01*
X30567122Y11290300D01*
X30576774Y11290300D01*
X30614365Y11346434D01*
X30614365Y11290300D01*
X30623510Y11290300D01*
X30623510Y11361928D01*
X30613858Y11361928D01*
X30576265Y11305794D01*
X30576265Y11361928D01*
G37*
G36*
X30526482Y11361928D02*
G01*
X30519115Y11361674D01*
X30513782Y11360912D01*
X30510835Y11359997D01*
X30508092Y11358880D01*
X30505501Y11357508D01*
X30503114Y11355832D01*
X30500472Y11353241D01*
X30498237Y11350294D01*
X30496306Y11347043D01*
X30494732Y11343386D01*
X30493512Y11339576D01*
X30492649Y11335461D01*
X30492090Y11331041D01*
X30491946Y11326622D01*
X30501844Y11326622D01*
X30502047Y11331905D01*
X30502758Y11336528D01*
X30503825Y11340541D01*
X30505400Y11343894D01*
X30507381Y11346688D01*
X30509514Y11348974D01*
X30511851Y11350752D01*
X30514289Y11352022D01*
X30516474Y11352682D01*
X30522722Y11353444D01*
X30541722Y11353546D01*
X30541722Y11298682D01*
X30523129Y11298783D01*
X30517541Y11299393D01*
X30515306Y11299952D01*
X30511699Y11301679D01*
X30508956Y11303762D01*
X30507279Y11305590D01*
X30505857Y11307673D01*
X30504638Y11310162D01*
X30503622Y11312906D01*
X30502860Y11315852D01*
X30501945Y11322710D01*
X30501844Y11326622D01*
X30491946Y11326622D01*
X30492446Y11318748D01*
X30493106Y11315293D01*
X30494935Y11309096D01*
X30496052Y11306352D01*
X30498796Y11301730D01*
X30501894Y11297920D01*
X30505146Y11295126D01*
X30509108Y11293094D01*
X30513782Y11291570D01*
X30519166Y11290604D01*
X30525212Y11290300D01*
X30551120Y11290300D01*
X30551120Y11361928D01*
G37*
G36*
X30641696Y11109198D02*
G01*
X30636819Y11108893D01*
X30632196Y11107978D01*
X30627827Y11106505D01*
X30623662Y11104372D01*
X30619953Y11101832D01*
X30616702Y11098784D01*
X30613959Y11095228D01*
X30611724Y11091164D01*
X30609794Y11086846D01*
X30608473Y11082223D01*
X30607660Y11077295D01*
X30607406Y11072114D01*
X30617312Y11072114D01*
X30617464Y11076330D01*
X30617972Y11080242D01*
X30618887Y11083950D01*
X30620106Y11087354D01*
X30621782Y11090351D01*
X30623764Y11093094D01*
X30626100Y11095431D01*
X30628742Y11097514D01*
X30631688Y11099088D01*
X30634838Y11100206D01*
X30638038Y11100866D01*
X30641442Y11101070D01*
X30646319Y11100663D01*
X30650891Y11099342D01*
X30655107Y11097209D01*
X30658968Y11094212D01*
X30664302Y11084864D01*
X30666080Y11071098D01*
X30665623Y11064951D01*
X30664353Y11059464D01*
X30662219Y11054689D01*
X30659222Y11050524D01*
X30655463Y11047323D01*
X30651246Y11044986D01*
X30646674Y11043615D01*
X30641696Y11043158D01*
X30636565Y11043615D01*
X30631942Y11045037D01*
X30627827Y11047425D01*
X30624170Y11050778D01*
X30621173Y11054892D01*
X30618988Y11059820D01*
X30617718Y11065560D01*
X30617312Y11072114D01*
X30607406Y11072114D01*
X30607660Y11066780D01*
X30608473Y11061750D01*
X30609794Y11057026D01*
X30611724Y11052556D01*
X30614213Y11048492D01*
X30617109Y11044986D01*
X30620411Y11042040D01*
X30624170Y11039602D01*
X30628285Y11037620D01*
X30632603Y11036147D01*
X30637073Y11035334D01*
X30641696Y11035030D01*
X30646624Y11035334D01*
X30651246Y11036249D01*
X30655615Y11037722D01*
X30659730Y11039856D01*
X30663388Y11042599D01*
X30666639Y11045748D01*
X30669382Y11049355D01*
X30671668Y11053318D01*
X30673548Y11057585D01*
X30674868Y11061954D01*
X30675681Y11066475D01*
X30675986Y11071098D01*
X30673548Y11086947D01*
X30666334Y11099038D01*
X30655310Y11106658D01*
G37*
G36*
X30574894Y11108182D02*
G01*
X30570068Y11107826D01*
X30565750Y11106708D01*
X30561940Y11104880D01*
X30558638Y11102340D01*
X30556047Y11099393D01*
X30554218Y11096040D01*
X30553152Y11092383D01*
X30552796Y11088370D01*
X30552847Y11086185D01*
X30553609Y11081918D01*
X30554320Y11079734D01*
X30555336Y11077651D01*
X30558232Y11073333D01*
X30562600Y11068608D01*
X30569458Y11062258D01*
X30582514Y11050930D01*
X30585105Y11048339D01*
X30587594Y11044682D01*
X30552542Y11044682D01*
X30552542Y11036300D01*
X30599786Y11036300D01*
X30599634Y11039348D01*
X30598770Y11042396D01*
X30596484Y11047222D01*
X30593182Y11052048D01*
X30588203Y11057026D01*
X30576113Y11067288D01*
X30571694Y11071352D01*
X30568239Y11074908D01*
X30565750Y11077956D01*
X30563972Y11080699D01*
X30562702Y11083442D01*
X30561940Y11086033D01*
X30561686Y11088624D01*
X30561889Y11091062D01*
X30562600Y11093297D01*
X30563820Y11095380D01*
X30565496Y11097260D01*
X30567528Y11098834D01*
X30569814Y11099952D01*
X30572354Y11100612D01*
X30575148Y11100816D01*
X30578145Y11100562D01*
X30580838Y11099850D01*
X30583225Y11098682D01*
X30585308Y11097006D01*
X30586934Y11094923D01*
X30588153Y11092484D01*
X30588864Y11089741D01*
X30589118Y11086592D01*
X30598262Y11087354D01*
X30597398Y11092129D01*
X30595976Y11096294D01*
X30593842Y11099901D01*
X30591150Y11102848D01*
X30587899Y11105184D01*
X30584139Y11106861D01*
X30579771Y11107826D01*
G37*
G36*
X30517998Y11108182D02*
G01*
X30513883Y11107877D01*
X30510175Y11106962D01*
X30506873Y11105489D01*
X30504028Y11103356D01*
X30501589Y11100816D01*
X30499761Y11097818D01*
X30498440Y11094364D01*
X30497678Y11090402D01*
X30506314Y11089640D01*
X30507736Y11094110D01*
X30509616Y11097260D01*
X30511496Y11098936D01*
X30513578Y11100104D01*
X30515915Y11100816D01*
X30518506Y11101070D01*
X30520487Y11100917D01*
X30522367Y11100460D01*
X30524145Y11099647D01*
X30525872Y11098530D01*
X30527752Y11096853D01*
X30529479Y11094770D01*
X30530952Y11092383D01*
X30532222Y11089640D01*
X30533289Y11086490D01*
X30534102Y11082731D01*
X30534559Y11078260D01*
X30534762Y11073130D01*
X30533136Y11075416D01*
X30531308Y11077397D01*
X30529326Y11079073D01*
X30527142Y11080496D01*
X30524805Y11081512D01*
X30522418Y11082223D01*
X30519979Y11082629D01*
X30517490Y11082782D01*
X30513223Y11082375D01*
X30509260Y11081105D01*
X30505704Y11079073D01*
X30502504Y11076178D01*
X30499812Y11072774D01*
X30497932Y11068862D01*
X30496764Y11064494D01*
X30496443Y11058906D01*
X30505298Y11058906D01*
X30505501Y11062512D01*
X30506212Y11065662D01*
X30507432Y11068354D01*
X30509108Y11070590D01*
X30511242Y11072469D01*
X30513680Y11073841D01*
X30516322Y11074654D01*
X30519268Y11074908D01*
X30522062Y11074654D01*
X30524653Y11073841D01*
X30526989Y11072469D01*
X30529174Y11070590D01*
X30531053Y11068354D01*
X30532374Y11065764D01*
X30533187Y11062766D01*
X30533492Y11059414D01*
X30532984Y11054943D01*
X30531460Y11050778D01*
X30530444Y11048847D01*
X30529225Y11047171D01*
X30526126Y11044428D01*
X30524297Y11043513D01*
X30520639Y11042497D01*
X30518760Y11042396D01*
X30516068Y11042650D01*
X30513578Y11043462D01*
X30511343Y11044834D01*
X30509362Y11046714D01*
X30507584Y11049203D01*
X30506314Y11052048D01*
X30505552Y11055299D01*
X30505298Y11058906D01*
X30496443Y11058906D01*
X30496560Y11056315D01*
X30497068Y11053064D01*
X30497983Y11049965D01*
X30499202Y11046968D01*
X30500726Y11044224D01*
X30502555Y11041837D01*
X30504638Y11039754D01*
X30507076Y11038078D01*
X30509667Y11036757D01*
X30512512Y11035792D01*
X30515509Y11035233D01*
X30518760Y11035030D01*
X30523942Y11035538D01*
X30528666Y11037062D01*
X30532832Y11039602D01*
X30536540Y11043158D01*
X30541874Y11053876D01*
X30543652Y11069828D01*
X30541671Y11087811D01*
X30535778Y11100054D01*
X30532171Y11103610D01*
X30528006Y11106150D01*
X30523281Y11107674D01*
G37*
G36*
X30689702Y11107928D02*
G01*
X30689702Y11036300D01*
X30699100Y11036300D01*
X30699100Y11107928D01*
G37*
G36*
X30539029Y10866628D02*
G01*
X30567020Y10795000D01*
X30576672Y10795000D01*
X30604358Y10866628D01*
X30594198Y10866628D01*
X30574538Y10811459D01*
X30571795Y10802874D01*
X30568036Y10814558D01*
X30548732Y10866628D01*
G37*
G36*
X30612232Y10865612D02*
G01*
X30612232Y10857230D01*
X30640934Y10857230D01*
X30644693Y10837926D01*
X30641391Y10839907D01*
X30637988Y10841329D01*
X30634533Y10842193D01*
X30630977Y10842498D01*
X30626608Y10842091D01*
X30622494Y10840872D01*
X30618734Y10838789D01*
X30615229Y10835894D01*
X30612486Y10832490D01*
X30610505Y10828578D01*
X30609286Y10824210D01*
X30608879Y10819384D01*
X30609235Y10814608D01*
X30610302Y10810189D01*
X30612029Y10806074D01*
X30614518Y10802366D01*
X30618226Y10798606D01*
X30622595Y10795863D01*
X30627624Y10794288D01*
X30633263Y10793730D01*
X30637988Y10794085D01*
X30642255Y10795101D01*
X30646014Y10796879D01*
X30649316Y10799318D01*
X30652008Y10802213D01*
X30654091Y10805617D01*
X30655564Y10809478D01*
X30656377Y10813796D01*
X30646979Y10814558D01*
X30646319Y10811357D01*
X30645353Y10808563D01*
X30644033Y10806277D01*
X30642458Y10804398D01*
X30640426Y10802975D01*
X30638242Y10801908D01*
X30635854Y10801299D01*
X30633263Y10801096D01*
X30630266Y10801400D01*
X30627472Y10802213D01*
X30624932Y10803686D01*
X30622595Y10805668D01*
X30620715Y10808258D01*
X30619395Y10811256D01*
X30618582Y10814608D01*
X30618277Y10818368D01*
X30618531Y10821974D01*
X30619293Y10825175D01*
X30620563Y10827918D01*
X30622341Y10830306D01*
X30624678Y10832185D01*
X30627320Y10833557D01*
X30630266Y10834370D01*
X30633568Y10834624D01*
X30635549Y10834522D01*
X30639359Y10833608D01*
X30641188Y10832846D01*
X30644134Y10830560D01*
X30646522Y10827766D01*
X30654904Y10828782D01*
X30647741Y10865612D01*
G37*
G36*
X30667706Y9902698D02*
G01*
X30663896Y9902545D01*
X30660289Y9902088D01*
X30656885Y9901275D01*
X30653736Y9900158D01*
X30650738Y9898735D01*
X30648097Y9897110D01*
X30645760Y9895179D01*
X30643830Y9893046D01*
X30642153Y9890607D01*
X30640731Y9887864D01*
X30639512Y9884765D01*
X30638496Y9881362D01*
X30646877Y9879076D01*
X30648808Y9883902D01*
X30650942Y9887712D01*
X30652212Y9889134D01*
X30653786Y9890455D01*
X30657800Y9892538D01*
X30660035Y9893452D01*
X30665013Y9894468D01*
X30670804Y9894468D01*
X30676392Y9893452D01*
X30678882Y9892538D01*
X30683200Y9890201D01*
X30684977Y9888778D01*
X30687822Y9885629D01*
X30690108Y9882225D01*
X30691074Y9880346D01*
X30692293Y9876891D01*
X30693156Y9873284D01*
X30693715Y9869627D01*
X30693868Y9865868D01*
X30693664Y9861245D01*
X30693055Y9857028D01*
X30691988Y9853269D01*
X30690565Y9849866D01*
X30688737Y9846767D01*
X30686502Y9844176D01*
X30683911Y9841941D01*
X30680914Y9840214D01*
X30677713Y9838893D01*
X30674360Y9837928D01*
X30670957Y9837369D01*
X30667452Y9837166D01*
X30664403Y9837318D01*
X30661406Y9837724D01*
X30658460Y9838436D01*
X30652770Y9840620D01*
X30648300Y9843160D01*
X30646624Y9844532D01*
X30646624Y9857994D01*
X30667706Y9857994D01*
X30667706Y9866376D01*
X30637226Y9866376D01*
X30637226Y9839706D01*
X30640782Y9837064D01*
X30644388Y9834829D01*
X30648046Y9832898D01*
X30651703Y9831324D01*
X30655412Y9830104D01*
X30659222Y9829241D01*
X30663032Y9828682D01*
X30666944Y9828530D01*
X30672176Y9828834D01*
X30677103Y9829647D01*
X30681828Y9831120D01*
X30686248Y9833102D01*
X30690210Y9835642D01*
X30693664Y9838639D01*
X30696662Y9842093D01*
X30699202Y9846056D01*
X30701081Y9850526D01*
X30702453Y9855200D01*
X30703265Y9860178D01*
X30703520Y9865360D01*
X30703265Y9870490D01*
X30702453Y9875418D01*
X30701081Y9880142D01*
X30699202Y9884664D01*
X30696814Y9888931D01*
X30693868Y9892588D01*
X30690464Y9895687D01*
X30686502Y9898126D01*
X30682285Y9900107D01*
X30677764Y9901529D01*
X30672887Y9902393D01*
G37*
G36*
X30567122Y9901428D02*
G01*
X30567122Y9829800D01*
X30576774Y9829800D01*
X30614365Y9885934D01*
X30614365Y9829800D01*
X30623510Y9829800D01*
X30623510Y9901428D01*
X30613858Y9901428D01*
X30576265Y9845294D01*
X30576265Y9901428D01*
G37*
G36*
X30526482Y9901428D02*
G01*
X30519115Y9901174D01*
X30513782Y9900412D01*
X30510835Y9899497D01*
X30508092Y9898380D01*
X30505501Y9897008D01*
X30503114Y9895332D01*
X30500472Y9892741D01*
X30498237Y9889794D01*
X30496306Y9886543D01*
X30494732Y9882886D01*
X30493512Y9879076D01*
X30492649Y9874961D01*
X30492090Y9870541D01*
X30491946Y9866122D01*
X30501844Y9866122D01*
X30502047Y9871405D01*
X30502758Y9876028D01*
X30503825Y9880041D01*
X30505400Y9883394D01*
X30507381Y9886188D01*
X30509514Y9888474D01*
X30511851Y9890252D01*
X30514289Y9891522D01*
X30516474Y9892182D01*
X30522722Y9892944D01*
X30541722Y9893046D01*
X30541722Y9838182D01*
X30523129Y9838283D01*
X30517541Y9838893D01*
X30515306Y9839452D01*
X30511699Y9841179D01*
X30508956Y9843262D01*
X30507279Y9845090D01*
X30505857Y9847173D01*
X30504638Y9849662D01*
X30503622Y9852406D01*
X30502860Y9855352D01*
X30501945Y9862210D01*
X30501844Y9866122D01*
X30491946Y9866122D01*
X30492446Y9858248D01*
X30493106Y9854793D01*
X30494935Y9848596D01*
X30496052Y9845852D01*
X30498796Y9841230D01*
X30501894Y9837420D01*
X30505146Y9834626D01*
X30509108Y9832594D01*
X30513782Y9831070D01*
X30519166Y9830104D01*
X30525212Y9829800D01*
X30551120Y9829800D01*
X30551120Y9901428D01*
G37*
G36*
X30641798Y9648698D02*
G01*
X30636972Y9648393D01*
X30632349Y9647478D01*
X30627929Y9646005D01*
X30623764Y9643872D01*
X30620055Y9641332D01*
X30616855Y9638284D01*
X30614112Y9634728D01*
X30611826Y9630664D01*
X30609946Y9626346D01*
X30608574Y9621723D01*
X30607762Y9616795D01*
X30607508Y9611614D01*
X30617414Y9611614D01*
X30617566Y9615830D01*
X30618125Y9619742D01*
X30618988Y9623450D01*
X30620208Y9626854D01*
X30621884Y9629851D01*
X30623916Y9632594D01*
X30626202Y9634931D01*
X30628844Y9637014D01*
X30631841Y9638588D01*
X30634939Y9639706D01*
X30638191Y9640366D01*
X30641544Y9640570D01*
X30646471Y9640163D01*
X30650992Y9638842D01*
X30655209Y9636709D01*
X30659070Y9633712D01*
X30664403Y9624364D01*
X30666182Y9610598D01*
X30665775Y9604451D01*
X30664454Y9598964D01*
X30662321Y9594189D01*
X30659324Y9590024D01*
X30655564Y9586823D01*
X30651399Y9584486D01*
X30646776Y9583115D01*
X30641798Y9582658D01*
X30636718Y9583115D01*
X30632095Y9584537D01*
X30627929Y9586925D01*
X30624272Y9590278D01*
X30621274Y9594392D01*
X30619141Y9599320D01*
X30617820Y9605060D01*
X30617414Y9611614D01*
X30607508Y9611614D01*
X30607762Y9606280D01*
X30608574Y9601250D01*
X30609946Y9596526D01*
X30611826Y9592056D01*
X30614315Y9587992D01*
X30617210Y9584486D01*
X30620563Y9581540D01*
X30624272Y9579102D01*
X30628437Y9577120D01*
X30632704Y9575647D01*
X30637175Y9574834D01*
X30641798Y9574530D01*
X30646725Y9574834D01*
X30651399Y9575749D01*
X30655768Y9577222D01*
X30659832Y9579356D01*
X30663540Y9582099D01*
X30666740Y9585248D01*
X30669484Y9588855D01*
X30671770Y9592818D01*
X30673649Y9597085D01*
X30675021Y9601454D01*
X30675834Y9605975D01*
X30676088Y9610598D01*
X30673700Y9626447D01*
X30666436Y9638538D01*
X30655463Y9646158D01*
G37*
G36*
X30565852Y9647682D02*
G01*
X30565852Y9575800D01*
X30574488Y9575800D01*
X30574488Y9631680D01*
X30578247Y9628835D01*
X30582870Y9625838D01*
X30587746Y9623145D01*
X30592268Y9621266D01*
X30592268Y9629648D01*
X30585206Y9633508D01*
X30582108Y9635693D01*
X30576723Y9640519D01*
X30574538Y9643008D01*
X30572811Y9645345D01*
X30571439Y9647682D01*
G37*
G36*
X30520894Y9647682D02*
G01*
X30517998Y9647529D01*
X30515255Y9647021D01*
X30512562Y9646259D01*
X30509972Y9645142D01*
X30507686Y9643770D01*
X30505653Y9642144D01*
X30503876Y9640316D01*
X30502352Y9638284D01*
X30501234Y9636099D01*
X30500421Y9633864D01*
X30499964Y9631527D01*
X30499812Y9629140D01*
X30499964Y9626803D01*
X30500472Y9624568D01*
X30501234Y9622485D01*
X30502352Y9620504D01*
X30503774Y9618726D01*
X30505450Y9617151D01*
X30507432Y9615779D01*
X30509718Y9614662D01*
X30506720Y9613696D01*
X30504079Y9612376D01*
X30501742Y9610648D01*
X30499812Y9608566D01*
X30498237Y9606127D01*
X30497170Y9603384D01*
X30496459Y9600285D01*
X30496256Y9596882D01*
X30496662Y9592360D01*
X30497983Y9588246D01*
X30500116Y9584486D01*
X30503114Y9581134D01*
X30506771Y9578238D01*
X30510886Y9576206D01*
X30515407Y9574936D01*
X30520386Y9574530D01*
X30524907Y9574885D01*
X30529022Y9575901D01*
X30532781Y9577679D01*
X30536134Y9580118D01*
X30538877Y9583115D01*
X30540960Y9586518D01*
X30542433Y9590379D01*
X30543246Y9594596D01*
X30534356Y9595866D01*
X30533492Y9592462D01*
X30532324Y9589516D01*
X30530952Y9587077D01*
X30529276Y9585198D01*
X30527396Y9583775D01*
X30525262Y9582708D01*
X30522926Y9582099D01*
X30520386Y9581896D01*
X30517439Y9582150D01*
X30514747Y9582962D01*
X30512258Y9584334D01*
X30509972Y9586214D01*
X30508092Y9588398D01*
X30506720Y9590836D01*
X30505908Y9593580D01*
X30505653Y9596628D01*
X30505908Y9599574D01*
X30506670Y9602216D01*
X30507939Y9604654D01*
X30509718Y9606788D01*
X30511750Y9608464D01*
X30514086Y9609632D01*
X30516728Y9610344D01*
X30520995Y9610547D01*
X30525974Y9609582D01*
X30524958Y9617456D01*
X30523738Y9617202D01*
X30520690Y9617405D01*
X30518100Y9617964D01*
X30515610Y9618929D01*
X30513274Y9620250D01*
X30511394Y9621875D01*
X30510022Y9623856D01*
X30509210Y9626295D01*
X30508956Y9629140D01*
X30509159Y9631527D01*
X30509768Y9633712D01*
X30510835Y9635642D01*
X30512258Y9637268D01*
X30514036Y9638690D01*
X30516017Y9639757D01*
X30518201Y9640366D01*
X30520639Y9640570D01*
X30523078Y9640366D01*
X30525313Y9639757D01*
X30527396Y9638690D01*
X30529276Y9637268D01*
X30530800Y9635439D01*
X30532019Y9633204D01*
X30532933Y9630613D01*
X30533594Y9627616D01*
X30542230Y9629140D01*
X30541214Y9633305D01*
X30539689Y9637014D01*
X30537658Y9640163D01*
X30535118Y9642856D01*
X30532019Y9644989D01*
X30528666Y9646462D01*
X30524907Y9647377D01*
G37*
G36*
X30689803Y9647428D02*
G01*
X30689803Y9575800D01*
X30699202Y9575800D01*
X30699202Y9647428D01*
G37*
G36*
X30634838Y9407398D02*
G01*
X30629961Y9407093D01*
X30625338Y9406178D01*
X30620970Y9404705D01*
X30616804Y9402572D01*
X30613096Y9400032D01*
X30609844Y9396984D01*
X30607101Y9393428D01*
X30604866Y9389364D01*
X30602936Y9385046D01*
X30601615Y9380423D01*
X30600802Y9375495D01*
X30600548Y9370314D01*
X30610454Y9370314D01*
X30610606Y9374530D01*
X30611114Y9378442D01*
X30611978Y9382150D01*
X30613248Y9385554D01*
X30614924Y9388551D01*
X30616906Y9391294D01*
X30619242Y9393631D01*
X30621884Y9395714D01*
X30624830Y9397288D01*
X30627929Y9398406D01*
X30631180Y9399066D01*
X30634584Y9399270D01*
X30639461Y9398863D01*
X30644033Y9397542D01*
X30648249Y9395409D01*
X30652059Y9392412D01*
X30657444Y9383064D01*
X30659222Y9369298D01*
X30658765Y9363151D01*
X30657495Y9357664D01*
X30655361Y9352889D01*
X30652313Y9348724D01*
X30648554Y9345523D01*
X30644388Y9343186D01*
X30639816Y9341815D01*
X30634838Y9341358D01*
X30629707Y9341815D01*
X30625084Y9343237D01*
X30620970Y9345625D01*
X30617261Y9348978D01*
X30614264Y9353092D01*
X30612130Y9358020D01*
X30610860Y9363760D01*
X30610454Y9370314D01*
X30600548Y9370314D01*
X30600802Y9364980D01*
X30601615Y9359950D01*
X30602936Y9355226D01*
X30604866Y9350756D01*
X30607355Y9346692D01*
X30610251Y9343186D01*
X30613553Y9340240D01*
X30617261Y9337802D01*
X30621427Y9335820D01*
X30625745Y9334347D01*
X30630215Y9333534D01*
X30634838Y9333230D01*
X30639765Y9333534D01*
X30644388Y9334449D01*
X30648757Y9335922D01*
X30652872Y9338056D01*
X30656530Y9340799D01*
X30659781Y9343948D01*
X30662524Y9347555D01*
X30664759Y9351518D01*
X30666689Y9355785D01*
X30668010Y9360154D01*
X30668823Y9364675D01*
X30669077Y9369298D01*
X30666689Y9385147D01*
X30659425Y9397238D01*
X30648452Y9404858D01*
G37*
G36*
X30558841Y9406382D02*
G01*
X30558841Y9334500D01*
X30567477Y9334500D01*
X30567477Y9390380D01*
X30571236Y9387535D01*
X30575859Y9384538D01*
X30580787Y9381845D01*
X30585308Y9379966D01*
X30585308Y9388348D01*
X30581600Y9390227D01*
X30578247Y9392208D01*
X30575148Y9394393D01*
X30569763Y9399219D01*
X30565801Y9404045D01*
X30564429Y9406382D01*
G37*
G36*
X30503266Y9406382D02*
G01*
X30503266Y9334500D01*
X30511902Y9334500D01*
X30511902Y9390380D01*
X30515610Y9387535D01*
X30520284Y9384538D01*
X30525161Y9381845D01*
X30529682Y9379966D01*
X30529682Y9388348D01*
X30522722Y9392208D01*
X30516677Y9396730D01*
X30514137Y9399219D01*
X30510175Y9404045D01*
X30508854Y9406382D01*
G37*
G36*
X30682793Y9406128D02*
G01*
X30682793Y9334500D01*
X30692191Y9334500D01*
X30692191Y9406128D01*
G37*
G36*
X30539080Y9152128D02*
G01*
X30567020Y9080500D01*
X30576672Y9080500D01*
X30604358Y9152128D01*
X30594198Y9152128D01*
X30574538Y9096959D01*
X30571846Y9088374D01*
X30568036Y9100058D01*
X30548732Y9152128D01*
G37*
G36*
X30612232Y9151112D02*
G01*
X30612232Y9142730D01*
X30640934Y9142730D01*
X30644744Y9123426D01*
X30641391Y9125407D01*
X30637988Y9126829D01*
X30634533Y9127693D01*
X30631028Y9127998D01*
X30626608Y9127591D01*
X30622494Y9126372D01*
X30618734Y9124289D01*
X30615280Y9121394D01*
X30612486Y9117990D01*
X30610505Y9114078D01*
X30609286Y9109710D01*
X30608930Y9104884D01*
X30609235Y9100108D01*
X30610302Y9095689D01*
X30612029Y9091574D01*
X30614518Y9087866D01*
X30618226Y9084106D01*
X30622646Y9081363D01*
X30627624Y9079788D01*
X30633314Y9079230D01*
X30637988Y9079585D01*
X30642255Y9080601D01*
X30646014Y9082379D01*
X30649316Y9084818D01*
X30652008Y9087713D01*
X30654142Y9091117D01*
X30655564Y9094978D01*
X30656428Y9099296D01*
X30647030Y9100058D01*
X30646319Y9096857D01*
X30645353Y9094063D01*
X30644033Y9091777D01*
X30642458Y9089898D01*
X30640426Y9088475D01*
X30638242Y9087408D01*
X30635854Y9086799D01*
X30633314Y9086596D01*
X30630266Y9086900D01*
X30627472Y9087713D01*
X30624932Y9089186D01*
X30622646Y9091168D01*
X30620715Y9093758D01*
X30619395Y9096756D01*
X30618582Y9100108D01*
X30618328Y9103868D01*
X30618582Y9107474D01*
X30619344Y9110675D01*
X30620614Y9113418D01*
X30622392Y9115806D01*
X30624678Y9117685D01*
X30627320Y9119057D01*
X30630266Y9119870D01*
X30633568Y9120124D01*
X30635549Y9120022D01*
X30639359Y9119108D01*
X30641188Y9118346D01*
X30644134Y9116060D01*
X30646522Y9113266D01*
X30654904Y9114282D01*
X30647792Y9151112D01*
G37*
G36*
X22801326Y9063482D02*
G01*
X22801326Y8991600D01*
X22810216Y8991600D01*
X22810216Y9047480D01*
X22813822Y9044635D01*
X22818598Y9041638D01*
X22823424Y9038945D01*
X22827742Y9037066D01*
X22827742Y9045448D01*
X22820833Y9049308D01*
X22817683Y9051493D01*
X22814788Y9053830D01*
X22812197Y9056319D01*
X22810012Y9058808D01*
X22808285Y9061145D01*
X22806914Y9063482D01*
G37*
G36*
X22745446Y9063228D02*
G01*
X22728251Y9021064D01*
X22738334Y9021064D01*
X22747274Y9045143D01*
X22750780Y9055608D01*
X22752354Y9048750D01*
X22754590Y9041892D01*
X22762464Y9021064D01*
X22728251Y9021064D01*
X22716236Y8991600D01*
X22726904Y8991600D01*
X22735286Y9013190D01*
X22765258Y9013190D01*
X22773132Y8991600D01*
X22783038Y8991600D01*
X22755606Y9063228D01*
G37*
G36*
X22686010Y9021826D02*
G01*
X22686010Y9013190D01*
X22713188Y9013190D01*
X22713188Y9021826D01*
G37*
G36*
X22812654Y9571482D02*
G01*
X22812654Y9499600D01*
X22821544Y9499600D01*
X22821544Y9555480D01*
X22825151Y9552635D01*
X22829926Y9549638D01*
X22834752Y9546945D01*
X22839070Y9545066D01*
X22839070Y9553448D01*
X22832110Y9557308D01*
X22826116Y9561830D01*
X22823525Y9564319D01*
X22819563Y9569145D01*
X22818242Y9571482D01*
G37*
G36*
X22756774Y9571228D02*
G01*
X22739579Y9529064D01*
X22749662Y9529064D01*
X22758552Y9553143D01*
X22762108Y9563608D01*
X22763683Y9556750D01*
X22765918Y9549892D01*
X22773792Y9529064D01*
X22739579Y9529064D01*
X22727564Y9499600D01*
X22738232Y9499600D01*
X22746614Y9521190D01*
X22776586Y9521190D01*
X22784460Y9499600D01*
X22794366Y9499600D01*
X22766934Y9571228D01*
G37*
G36*
X22694290Y9558528D02*
G01*
X22694290Y9538970D01*
X22674732Y9538970D01*
X22674732Y9530842D01*
X22694290Y9530842D01*
X22694290Y9511284D01*
X22702672Y9511284D01*
X22702672Y9530842D01*
X22721976Y9530842D01*
X22721976Y9538970D01*
X22702672Y9538970D01*
X22702672Y9558528D01*
G37*
G36*
X22812654Y10079482D02*
G01*
X22812654Y10007600D01*
X22821544Y10007600D01*
X22821544Y10063480D01*
X22825151Y10060635D01*
X22829926Y10057638D01*
X22834752Y10054945D01*
X22839070Y10053066D01*
X22839070Y10061448D01*
X22832110Y10065308D01*
X22826116Y10069830D01*
X22823525Y10072319D01*
X22819563Y10077145D01*
X22818242Y10079482D01*
G37*
G36*
X22760076Y10079228D02*
G01*
X22756164Y10079075D01*
X22752710Y10078669D01*
X22749560Y10077958D01*
X22746868Y10076942D01*
X22744582Y10075773D01*
X22742550Y10074300D01*
X22740772Y10072471D01*
X22739248Y10070338D01*
X22737978Y10068052D01*
X22737114Y10065715D01*
X22736606Y10063327D01*
X22736540Y10059670D01*
X22745852Y10059670D01*
X22745903Y10061397D01*
X22746665Y10064597D01*
X22747376Y10066020D01*
X22748341Y10067290D01*
X22749510Y10068356D01*
X22750881Y10069220D01*
X22754234Y10070287D01*
X22759568Y10070795D01*
X22777602Y10070846D01*
X22777602Y10049002D01*
X22759111Y10049052D01*
X22754539Y10049560D01*
X22751288Y10050627D01*
X22749814Y10051389D01*
X22748595Y10052405D01*
X22746817Y10054793D01*
X22746258Y10056215D01*
X22745852Y10059670D01*
X22736540Y10059670D01*
X22737064Y10056520D01*
X22737876Y10054386D01*
X22740264Y10050373D01*
X22741940Y10048595D01*
X22743972Y10047071D01*
X22746360Y10045700D01*
X22743312Y10044531D01*
X22740670Y10043058D01*
X22738384Y10041229D01*
X22736454Y10039096D01*
X22734879Y10036708D01*
X22733762Y10034168D01*
X22733101Y10031374D01*
X22732898Y10028428D01*
X22742804Y10028428D01*
X22742906Y10030307D01*
X22743922Y10033711D01*
X22745903Y10036708D01*
X22748697Y10038740D01*
X22752507Y10039908D01*
X22757841Y10040518D01*
X22777602Y10040620D01*
X22777602Y10015982D01*
X22757587Y10016032D01*
X22754285Y10016286D01*
X22751643Y10016794D01*
X22748951Y10017658D01*
X22746766Y10019080D01*
X22744836Y10021112D01*
X22743515Y10023652D01*
X22742855Y10026700D01*
X22742804Y10028428D01*
X22732898Y10028428D01*
X22733000Y10025938D01*
X22733457Y10023551D01*
X22734168Y10021214D01*
X22736251Y10016998D01*
X22738791Y10013696D01*
X22741991Y10011257D01*
X22745903Y10009479D01*
X22750678Y10008311D01*
X22756520Y10007701D01*
X22787000Y10007600D01*
X22787000Y10079228D01*
G37*
G36*
X22694290Y10066528D02*
G01*
X22694290Y10046970D01*
X22674732Y10046970D01*
X22674732Y10038842D01*
X22694290Y10038842D01*
X22694290Y10019284D01*
X22702672Y10019284D01*
X22702672Y10038842D01*
X22721976Y10038842D01*
X22721976Y10046970D01*
X22702672Y10046970D01*
X22702672Y10066528D01*
G37*
G36*
X22801326Y10587482D02*
G01*
X22801326Y10515600D01*
X22810216Y10515600D01*
X22810216Y10571480D01*
X22813822Y10568635D01*
X22818598Y10565638D01*
X22823424Y10562945D01*
X22827742Y10561066D01*
X22827742Y10569448D01*
X22820833Y10573308D01*
X22817683Y10575493D01*
X22814788Y10577830D01*
X22812197Y10580319D01*
X22810012Y10582808D01*
X22808285Y10585145D01*
X22806914Y10587482D01*
G37*
G36*
X22748748Y10587228D02*
G01*
X22744887Y10587075D01*
X22741382Y10586669D01*
X22738283Y10585958D01*
X22735540Y10584942D01*
X22733254Y10583773D01*
X22731222Y10582300D01*
X22729444Y10580471D01*
X22727920Y10578338D01*
X22726700Y10576052D01*
X22725837Y10573715D01*
X22725278Y10571327D01*
X22725212Y10567670D01*
X22734524Y10567670D01*
X22734879Y10571022D01*
X22736048Y10574020D01*
X22737013Y10575290D01*
X22738181Y10576356D01*
X22739553Y10577220D01*
X22742956Y10578287D01*
X22748290Y10578795D01*
X22766274Y10578846D01*
X22766274Y10557002D01*
X22747833Y10557052D01*
X22743261Y10557560D01*
X22739959Y10558627D01*
X22738537Y10559389D01*
X22736302Y10561574D01*
X22735540Y10562793D01*
X22734625Y10565841D01*
X22734524Y10567670D01*
X22725212Y10567670D01*
X22725786Y10564520D01*
X22726548Y10562386D01*
X22728986Y10558373D01*
X22730663Y10556595D01*
X22732644Y10555071D01*
X22735032Y10553700D01*
X22732034Y10552531D01*
X22729393Y10551058D01*
X22727056Y10549229D01*
X22725126Y10547096D01*
X22723551Y10544708D01*
X22722484Y10542168D01*
X22721773Y10539374D01*
X22721570Y10536428D01*
X22731476Y10536428D01*
X22731984Y10540034D01*
X22733508Y10543286D01*
X22734625Y10544708D01*
X22735895Y10545826D01*
X22737419Y10546740D01*
X22741178Y10547908D01*
X22746512Y10548518D01*
X22766274Y10548620D01*
X22766274Y10523982D01*
X22746258Y10524032D01*
X22742956Y10524286D01*
X22740315Y10524794D01*
X22737673Y10525658D01*
X22735438Y10527080D01*
X22733558Y10529112D01*
X22732746Y10530332D01*
X22731780Y10533126D01*
X22731476Y10536428D01*
X22721570Y10536428D01*
X22721722Y10533938D01*
X22722128Y10531551D01*
X22722840Y10529214D01*
X22724922Y10524998D01*
X22727462Y10521696D01*
X22730663Y10519257D01*
X22734625Y10517479D01*
X22739350Y10516311D01*
X22745192Y10515701D01*
X22775672Y10515600D01*
X22775672Y10587228D01*
G37*
G36*
X22686010Y10545826D02*
G01*
X22686010Y10537190D01*
X22713188Y10537190D01*
X22713188Y10545826D01*
G37*
G36*
X22806660Y11260582D02*
G01*
X22801732Y11260226D01*
X22797363Y11259108D01*
X22793604Y11257280D01*
X22790404Y11254740D01*
X22787762Y11251793D01*
X22785832Y11248440D01*
X22784714Y11244783D01*
X22784308Y11240770D01*
X22784409Y11238585D01*
X22785324Y11234318D01*
X22786086Y11232134D01*
X22787102Y11230051D01*
X22790048Y11225733D01*
X22794315Y11221008D01*
X22801021Y11214658D01*
X22814127Y11203330D01*
X22816667Y11200739D01*
X22819360Y11197082D01*
X22784308Y11197082D01*
X22784308Y11188700D01*
X22831552Y11188700D01*
X22831298Y11191748D01*
X22830536Y11194796D01*
X22828199Y11199622D01*
X22824694Y11204448D01*
X22819918Y11209426D01*
X22807879Y11219688D01*
X22803459Y11223752D01*
X22800005Y11227308D01*
X22797516Y11230356D01*
X22795738Y11233099D01*
X22794468Y11235842D01*
X22793706Y11238433D01*
X22793452Y11241024D01*
X22793655Y11243462D01*
X22794366Y11245697D01*
X22795433Y11247780D01*
X22797008Y11249660D01*
X22799040Y11251234D01*
X22801376Y11252352D01*
X22804018Y11253012D01*
X22806914Y11253216D01*
X22809911Y11252962D01*
X22812654Y11252250D01*
X22814991Y11251082D01*
X22817074Y11249406D01*
X22818750Y11247323D01*
X22819918Y11244884D01*
X22820630Y11242141D01*
X22820884Y11238992D01*
X22830028Y11239754D01*
X22829215Y11244529D01*
X22827742Y11248694D01*
X22825659Y11252301D01*
X22822916Y11255248D01*
X22819614Y11257584D01*
X22815804Y11259261D01*
X22811486Y11260226D01*
G37*
G36*
X22741382Y11260328D02*
G01*
X22724187Y11218164D01*
X22734270Y11218164D01*
X22745852Y11249609D01*
X22746716Y11252708D01*
X22748443Y11245850D01*
X22750526Y11238992D01*
X22758400Y11218164D01*
X22724187Y11218164D01*
X22712172Y11188700D01*
X22722840Y11188700D01*
X22731222Y11210290D01*
X22761194Y11210290D01*
X22769068Y11188700D01*
X22779228Y11188700D01*
X22751542Y11260328D01*
G37*
G36*
X22682200Y11218926D02*
G01*
X22682200Y11210290D01*
X22709124Y11210290D01*
X22709124Y11218926D01*
G37*
G36*
X22818090Y11768582D02*
G01*
X22813162Y11768226D01*
X22808793Y11767108D01*
X22805034Y11765280D01*
X22801834Y11762740D01*
X22799141Y11759793D01*
X22797262Y11756440D01*
X22796144Y11752783D01*
X22795738Y11748770D01*
X22795839Y11746585D01*
X22796754Y11742318D01*
X22797516Y11740134D01*
X22798532Y11738051D01*
X22801478Y11733733D01*
X22805745Y11729008D01*
X22812451Y11722658D01*
X22825608Y11711330D01*
X22828097Y11708739D01*
X22830790Y11705082D01*
X22795738Y11705082D01*
X22795738Y11696700D01*
X22842982Y11696700D01*
X22842728Y11699748D01*
X22841966Y11702796D01*
X22839629Y11707622D01*
X22836124Y11712448D01*
X22831348Y11717426D01*
X22819309Y11727688D01*
X22811435Y11735308D01*
X22808946Y11738356D01*
X22807168Y11741099D01*
X22805898Y11743842D01*
X22805136Y11746433D01*
X22804882Y11749024D01*
X22805085Y11751462D01*
X22805745Y11753697D01*
X22806863Y11755780D01*
X22808438Y11757660D01*
X22810470Y11759234D01*
X22812806Y11760352D01*
X22815448Y11761012D01*
X22818344Y11761216D01*
X22821341Y11760962D01*
X22824033Y11760250D01*
X22826421Y11759082D01*
X22828504Y11757406D01*
X22830180Y11755323D01*
X22831348Y11752884D01*
X22832060Y11750141D01*
X22832314Y11746992D01*
X22841458Y11747754D01*
X22840645Y11752529D01*
X22839172Y11756694D01*
X22837089Y11760301D01*
X22834346Y11763248D01*
X22831044Y11765584D01*
X22827234Y11767261D01*
X22822916Y11768226D01*
G37*
G36*
X22752812Y11768328D02*
G01*
X22735617Y11726164D01*
X22745700Y11726164D01*
X22754742Y11750243D01*
X22758146Y11760708D01*
X22759873Y11753850D01*
X22761956Y11746992D01*
X22769830Y11726164D01*
X22735617Y11726164D01*
X22723602Y11696700D01*
X22734270Y11696700D01*
X22742652Y11718290D01*
X22772624Y11718290D01*
X22780498Y11696700D01*
X22790658Y11696700D01*
X22762972Y11768328D01*
G37*
G36*
X22690328Y11755628D02*
G01*
X22690328Y11736070D01*
X22670770Y11736070D01*
X22670770Y11727942D01*
X22690328Y11727942D01*
X22690328Y11708384D01*
X22698710Y11708384D01*
X22698710Y11727942D01*
X22718268Y11727942D01*
X22718268Y11736070D01*
X22698710Y11736070D01*
X22698710Y11755628D01*
G37*
G36*
X22818090Y12276582D02*
G01*
X22813162Y12276226D01*
X22808793Y12275108D01*
X22805034Y12273280D01*
X22801834Y12270740D01*
X22799141Y12267793D01*
X22797262Y12264440D01*
X22796144Y12260783D01*
X22795738Y12256770D01*
X22795839Y12254585D01*
X22796754Y12250318D01*
X22797516Y12248134D01*
X22798532Y12246051D01*
X22801478Y12241733D01*
X22805745Y12237008D01*
X22812451Y12230658D01*
X22825608Y12219330D01*
X22828097Y12216739D01*
X22830790Y12213082D01*
X22795738Y12213082D01*
X22795738Y12204700D01*
X22842982Y12204700D01*
X22842728Y12207748D01*
X22841966Y12210796D01*
X22839629Y12215622D01*
X22836124Y12220448D01*
X22831348Y12225426D01*
X22819309Y12235688D01*
X22811435Y12243308D01*
X22808946Y12246356D01*
X22807168Y12249099D01*
X22805898Y12251842D01*
X22805136Y12254433D01*
X22804882Y12257024D01*
X22805085Y12259462D01*
X22805745Y12261697D01*
X22806863Y12263780D01*
X22808438Y12265660D01*
X22810470Y12267234D01*
X22812806Y12268352D01*
X22815448Y12269012D01*
X22818344Y12269216D01*
X22821341Y12268962D01*
X22824033Y12268250D01*
X22826421Y12267082D01*
X22828504Y12265406D01*
X22830180Y12263323D01*
X22831348Y12260884D01*
X22832060Y12258141D01*
X22832314Y12254992D01*
X22841458Y12255754D01*
X22840645Y12260529D01*
X22839172Y12264694D01*
X22837089Y12268301D01*
X22834346Y12271248D01*
X22831044Y12273584D01*
X22827234Y12275261D01*
X22822916Y12276226D01*
G37*
G36*
X22756114Y12276328D02*
G01*
X22752253Y12276175D01*
X22748798Y12275769D01*
X22745801Y12275058D01*
X22740772Y12272873D01*
X22738638Y12271400D01*
X22736810Y12269571D01*
X22735286Y12267438D01*
X22734066Y12265152D01*
X22733203Y12262815D01*
X22732644Y12260427D01*
X22732578Y12256770D01*
X22741890Y12256770D01*
X22742245Y12260122D01*
X22743414Y12263120D01*
X22744379Y12264390D01*
X22745547Y12265456D01*
X22746919Y12266320D01*
X22750322Y12267387D01*
X22755758Y12267895D01*
X22773640Y12267946D01*
X22773640Y12246102D01*
X22755199Y12246152D01*
X22750627Y12246660D01*
X22747325Y12247727D01*
X22745903Y12248489D01*
X22743668Y12250674D01*
X22742347Y12253468D01*
X22741991Y12255042D01*
X22741890Y12256770D01*
X22732578Y12256770D01*
X22733101Y12253620D01*
X22733914Y12251486D01*
X22735032Y12249404D01*
X22736454Y12247473D01*
X22738130Y12245695D01*
X22740112Y12244171D01*
X22742398Y12242800D01*
X22739400Y12241631D01*
X22736759Y12240158D01*
X22734422Y12238329D01*
X22732492Y12236196D01*
X22730917Y12233808D01*
X22729850Y12231268D01*
X22729139Y12228474D01*
X22728936Y12225528D01*
X22738842Y12225528D01*
X22738943Y12227407D01*
X22739959Y12230811D01*
X22741991Y12233808D01*
X22743363Y12234926D01*
X22744938Y12235840D01*
X22748697Y12237008D01*
X22751084Y12237415D01*
X22757130Y12237720D01*
X22773640Y12237720D01*
X22773640Y12213082D01*
X22753726Y12213132D01*
X22750424Y12213386D01*
X22747681Y12213894D01*
X22745039Y12214758D01*
X22742855Y12216180D01*
X22741077Y12218212D01*
X22739705Y12220752D01*
X22739197Y12222226D01*
X22738842Y12225528D01*
X22728936Y12225528D01*
X22729088Y12223038D01*
X22729494Y12220651D01*
X22730206Y12218314D01*
X22732288Y12214098D01*
X22734828Y12210796D01*
X22738029Y12208357D01*
X22741991Y12206579D01*
X22746716Y12205411D01*
X22752558Y12204801D01*
X22783038Y12204700D01*
X22783038Y12276328D01*
G37*
G36*
X22690328Y12263628D02*
G01*
X22690328Y12244070D01*
X22670770Y12244070D01*
X22670770Y12235942D01*
X22690328Y12235942D01*
X22690328Y12216384D01*
X22698710Y12216384D01*
X22698710Y12235942D01*
X22718268Y12235942D01*
X22718268Y12244070D01*
X22698710Y12244070D01*
X22698710Y12263628D01*
G37*
G36*
X22806660Y12784582D02*
G01*
X22801732Y12784226D01*
X22797363Y12783108D01*
X22793604Y12781280D01*
X22790404Y12778740D01*
X22787762Y12775793D01*
X22785832Y12772440D01*
X22784714Y12768783D01*
X22784308Y12764770D01*
X22784409Y12762585D01*
X22785324Y12758318D01*
X22786086Y12756134D01*
X22787102Y12754051D01*
X22790048Y12749733D01*
X22794315Y12745008D01*
X22801021Y12738658D01*
X22814127Y12727330D01*
X22816667Y12724739D01*
X22819360Y12721082D01*
X22784308Y12721082D01*
X22784308Y12712700D01*
X22831552Y12712700D01*
X22831298Y12715748D01*
X22830536Y12718796D01*
X22828199Y12723622D01*
X22824694Y12728448D01*
X22819918Y12733426D01*
X22807879Y12743688D01*
X22803459Y12747752D01*
X22800005Y12751308D01*
X22797516Y12754356D01*
X22795738Y12757099D01*
X22794468Y12759842D01*
X22793706Y12762433D01*
X22793452Y12765024D01*
X22793655Y12767462D01*
X22794366Y12769697D01*
X22795433Y12771780D01*
X22797008Y12773660D01*
X22799040Y12775234D01*
X22801376Y12776352D01*
X22804018Y12777012D01*
X22806914Y12777216D01*
X22809911Y12776962D01*
X22812654Y12776250D01*
X22814991Y12775082D01*
X22817074Y12773406D01*
X22818750Y12771323D01*
X22819918Y12768884D01*
X22820630Y12766141D01*
X22820884Y12762992D01*
X22830028Y12763754D01*
X22829215Y12768529D01*
X22827742Y12772694D01*
X22825659Y12776301D01*
X22822916Y12779248D01*
X22819614Y12781584D01*
X22815804Y12783261D01*
X22811486Y12784226D01*
G37*
G36*
X22744684Y12784328D02*
G01*
X22740823Y12784175D01*
X22737368Y12783769D01*
X22734371Y12783058D01*
X22729342Y12780873D01*
X22727208Y12779400D01*
X22725380Y12777571D01*
X22723856Y12775438D01*
X22722636Y12773152D01*
X22721773Y12770815D01*
X22721214Y12768427D01*
X22721148Y12764770D01*
X22730460Y12764770D01*
X22730866Y12768122D01*
X22731984Y12771120D01*
X22732949Y12772390D01*
X22735489Y12774320D01*
X22738892Y12775387D01*
X22744328Y12775895D01*
X22762210Y12775946D01*
X22762210Y12754102D01*
X22743769Y12754152D01*
X22739197Y12754660D01*
X22735895Y12755727D01*
X22734473Y12756489D01*
X22732238Y12758674D01*
X22730917Y12761468D01*
X22730561Y12763042D01*
X22730460Y12764770D01*
X22721148Y12764770D01*
X22721722Y12761620D01*
X22722484Y12759486D01*
X22723602Y12757404D01*
X22725024Y12755473D01*
X22726700Y12753695D01*
X22728682Y12752171D01*
X22730968Y12750800D01*
X22727970Y12749631D01*
X22725329Y12748158D01*
X22722992Y12746329D01*
X22721062Y12744196D01*
X22719487Y12741808D01*
X22718420Y12739268D01*
X22717709Y12736474D01*
X22717506Y12733528D01*
X22727412Y12733528D01*
X22727513Y12735407D01*
X22728529Y12738811D01*
X22730561Y12741808D01*
X22731933Y12742926D01*
X22733508Y12743840D01*
X22737267Y12745008D01*
X22739654Y12745415D01*
X22745700Y12745720D01*
X22762210Y12745720D01*
X22762210Y12721082D01*
X22742296Y12721132D01*
X22738994Y12721386D01*
X22736251Y12721894D01*
X22733609Y12722758D01*
X22731425Y12724180D01*
X22729647Y12726212D01*
X22728275Y12728752D01*
X22727513Y12731800D01*
X22727412Y12733528D01*
X22717506Y12733528D01*
X22717658Y12731038D01*
X22718064Y12728651D01*
X22718776Y12726314D01*
X22720858Y12722098D01*
X22723398Y12718796D01*
X22726599Y12716357D01*
X22730561Y12714579D01*
X22735286Y12713411D01*
X22741128Y12712801D01*
X22771608Y12712700D01*
X22771608Y12784328D01*
G37*
G36*
X22682200Y12742926D02*
G01*
X22682200Y12734290D01*
X22709124Y12734290D01*
X22709124Y12742926D01*
G37*
G36*
X23425404Y8635492D02*
G01*
X23424134Y8626856D01*
X23427588Y8625992D01*
X23430484Y8624824D01*
X23432922Y8623452D01*
X23434802Y8621776D01*
X23436224Y8619794D01*
X23437291Y8617661D01*
X23437900Y8615324D01*
X23438104Y8612886D01*
X23437850Y8609838D01*
X23437037Y8607044D01*
X23435665Y8604504D01*
X23433786Y8602218D01*
X23431601Y8600440D01*
X23429163Y8599170D01*
X23426420Y8598408D01*
X23423372Y8598154D01*
X23420476Y8598408D01*
X23417784Y8599119D01*
X23415345Y8600287D01*
X23413212Y8601964D01*
X23411535Y8604148D01*
X23410367Y8606536D01*
X23409656Y8609228D01*
X23409452Y8613444D01*
X23410418Y8618220D01*
X23402544Y8617204D01*
X23402798Y8616188D01*
X23402594Y8613190D01*
X23402036Y8610600D01*
X23401070Y8608110D01*
X23399750Y8605774D01*
X23398124Y8603792D01*
X23396143Y8602370D01*
X23393704Y8601506D01*
X23390860Y8601202D01*
X23388421Y8601405D01*
X23386288Y8602014D01*
X23384408Y8603081D01*
X23382732Y8604504D01*
X23381309Y8606282D01*
X23380242Y8608263D01*
X23379633Y8610447D01*
X23379430Y8612886D01*
X23379633Y8615426D01*
X23380242Y8617712D01*
X23381309Y8619744D01*
X23382732Y8621522D01*
X23384560Y8623147D01*
X23386796Y8624366D01*
X23389386Y8625281D01*
X23392384Y8625840D01*
X23390860Y8634730D01*
X23386643Y8633714D01*
X23382986Y8632139D01*
X23379836Y8630005D01*
X23377144Y8627364D01*
X23375010Y8624366D01*
X23373537Y8621014D01*
X23372622Y8617254D01*
X23372318Y8613140D01*
X23372470Y8610295D01*
X23372927Y8607552D01*
X23373740Y8604961D01*
X23374858Y8602472D01*
X23376229Y8600084D01*
X23377855Y8598052D01*
X23379684Y8596274D01*
X23381716Y8594852D01*
X23383900Y8593734D01*
X23388472Y8592464D01*
X23390860Y8592312D01*
X23393196Y8592464D01*
X23395432Y8592972D01*
X23397514Y8593734D01*
X23399496Y8594852D01*
X23401274Y8596172D01*
X23402848Y8597849D01*
X23404220Y8599830D01*
X23405338Y8602218D01*
X23406303Y8599220D01*
X23407624Y8596579D01*
X23409351Y8594242D01*
X23411434Y8592312D01*
X23413872Y8590737D01*
X23416666Y8589670D01*
X23419714Y8588959D01*
X23423118Y8588756D01*
X23427639Y8589162D01*
X23431754Y8590483D01*
X23435513Y8592616D01*
X23438866Y8595614D01*
X23441761Y8599271D01*
X23443793Y8603386D01*
X23445063Y8607907D01*
X23445470Y8612886D01*
X23445114Y8617356D01*
X23444098Y8621471D01*
X23442320Y8625128D01*
X23439882Y8628380D01*
X23436884Y8631224D01*
X23433481Y8633358D01*
X23429620Y8634780D01*
G37*
G36*
X23408894Y8580120D02*
G01*
X23402848Y8579967D01*
X23397464Y8579408D01*
X23392688Y8578545D01*
X23388574Y8577326D01*
X23384865Y8575903D01*
X23381665Y8574176D01*
X23378922Y8572093D01*
X23376636Y8569706D01*
X23374756Y8567013D01*
X23373384Y8563914D01*
X23372572Y8560511D01*
X23372318Y8556752D01*
X23379684Y8556752D01*
X23379988Y8559647D01*
X23380954Y8562238D01*
X23382528Y8564473D01*
X23384764Y8566404D01*
X23394111Y8569858D01*
X23408894Y8570976D01*
X23416920Y8570722D01*
X23423473Y8569960D01*
X23428604Y8568690D01*
X23432262Y8566912D01*
X23434802Y8564778D01*
X23436630Y8562340D01*
X23437748Y8559698D01*
X23438104Y8556752D01*
X23437748Y8553856D01*
X23436630Y8551164D01*
X23434802Y8548776D01*
X23432262Y8546592D01*
X23428604Y8544712D01*
X23423524Y8543340D01*
X23416920Y8542528D01*
X23408894Y8542274D01*
X23400766Y8542528D01*
X23394162Y8543340D01*
X23389082Y8544712D01*
X23385526Y8546592D01*
X23382986Y8548776D01*
X23381157Y8551164D01*
X23380039Y8553856D01*
X23379684Y8556752D01*
X23372318Y8556752D01*
X23372470Y8553907D01*
X23372876Y8551316D01*
X23373588Y8548827D01*
X23374604Y8546592D01*
X23375874Y8544509D01*
X23377398Y8542680D01*
X23379176Y8540953D01*
X23381208Y8539480D01*
X23386186Y8536940D01*
X23391876Y8534908D01*
X23395330Y8534247D01*
X23403814Y8533485D01*
X23414939Y8533536D01*
X23420324Y8534044D01*
X23425099Y8534806D01*
X23429214Y8535924D01*
X23432922Y8537346D01*
X23436122Y8539175D01*
X23438866Y8541308D01*
X23441152Y8543798D01*
X23443031Y8546490D01*
X23444403Y8549589D01*
X23445216Y8552992D01*
X23445470Y8556752D01*
X23445012Y8561679D01*
X23443641Y8566048D01*
X23441304Y8569807D01*
X23438104Y8573008D01*
X23426216Y8578342D01*
G37*
G36*
X23698200Y8636355D02*
G01*
X23695152Y8636152D01*
X23692104Y8635339D01*
X23687278Y8633002D01*
X23684890Y8631428D01*
X23680064Y8627364D01*
X23674730Y8621674D01*
X23667212Y8612733D01*
X23663148Y8608314D01*
X23659592Y8604859D01*
X23656544Y8602370D01*
X23653800Y8600592D01*
X23651057Y8599271D01*
X23648466Y8598509D01*
X23645876Y8598255D01*
X23643437Y8598509D01*
X23641151Y8599170D01*
X23639119Y8600287D01*
X23637240Y8601862D01*
X23635665Y8603894D01*
X23634547Y8606231D01*
X23633887Y8608822D01*
X23633684Y8611768D01*
X23633938Y8614765D01*
X23634649Y8617458D01*
X23635817Y8619845D01*
X23637494Y8621928D01*
X23639576Y8623554D01*
X23642015Y8624773D01*
X23644758Y8625484D01*
X23647908Y8625687D01*
X23647146Y8634831D01*
X23642370Y8634018D01*
X23638205Y8632545D01*
X23634598Y8630462D01*
X23631652Y8627770D01*
X23629315Y8624468D01*
X23627638Y8620658D01*
X23626673Y8616289D01*
X23626318Y8611463D01*
X23626673Y8606586D01*
X23627791Y8602218D01*
X23629620Y8598458D01*
X23632160Y8595258D01*
X23635106Y8592566D01*
X23638459Y8590686D01*
X23642116Y8589518D01*
X23646130Y8589162D01*
X23650448Y8589568D01*
X23654766Y8590889D01*
X23658931Y8593277D01*
X23663402Y8596731D01*
X23668888Y8602167D01*
X23676102Y8610244D01*
X23681639Y8616797D01*
X23684992Y8620404D01*
X23687328Y8622487D01*
X23689818Y8624163D01*
X23689818Y8589162D01*
X23698200Y8589162D01*
G37*
G36*
X23677372Y8579713D02*
G01*
X23674070Y8579510D01*
X23671022Y8578850D01*
X23668228Y8577732D01*
X23665688Y8576208D01*
X23663554Y8574227D01*
X23661827Y8571890D01*
X23660404Y8569147D01*
X23659338Y8565997D01*
X23658220Y8568639D01*
X23656950Y8570823D01*
X23655426Y8572703D01*
X23653750Y8574176D01*
X23651768Y8575395D01*
X23649635Y8576259D01*
X23647298Y8576767D01*
X23644860Y8576970D01*
X23641100Y8576614D01*
X23637595Y8575548D01*
X23634496Y8573820D01*
X23631652Y8571331D01*
X23629315Y8568334D01*
X23627638Y8564829D01*
X23626673Y8560816D01*
X23626334Y8556142D01*
X23633430Y8556142D01*
X23633633Y8558530D01*
X23634242Y8560765D01*
X23635309Y8562746D01*
X23636732Y8564473D01*
X23638459Y8565946D01*
X23640338Y8566962D01*
X23642421Y8567572D01*
X23644606Y8567826D01*
X23647044Y8567572D01*
X23649178Y8566962D01*
X23651108Y8565946D01*
X23654156Y8562848D01*
X23655223Y8560866D01*
X23655832Y8558631D01*
X23656019Y8556345D01*
X23663148Y8556345D01*
X23663402Y8559292D01*
X23664164Y8561984D01*
X23665434Y8564372D01*
X23667212Y8566505D01*
X23669396Y8568436D01*
X23671834Y8569756D01*
X23674578Y8570569D01*
X23677626Y8570823D01*
X23681182Y8570417D01*
X23684738Y8569045D01*
X23686414Y8567978D01*
X23689208Y8565286D01*
X23690326Y8563762D01*
X23691646Y8560054D01*
X23692002Y8558123D01*
X23692104Y8556142D01*
X23691850Y8553094D01*
X23691088Y8550351D01*
X23689818Y8547862D01*
X23688040Y8545728D01*
X23685906Y8543950D01*
X23683468Y8542629D01*
X23680775Y8541918D01*
X23677880Y8541613D01*
X23674832Y8541867D01*
X23672088Y8542629D01*
X23669650Y8543950D01*
X23667466Y8545728D01*
X23665586Y8547963D01*
X23664214Y8550503D01*
X23663402Y8553297D01*
X23663148Y8556345D01*
X23656019Y8556345D01*
X23655832Y8553704D01*
X23655223Y8551468D01*
X23654156Y8549487D01*
X23652734Y8547760D01*
X23651108Y8546287D01*
X23649228Y8545271D01*
X23647146Y8544661D01*
X23644860Y8544458D01*
X23642523Y8544661D01*
X23640440Y8545322D01*
X23638459Y8546439D01*
X23636732Y8547963D01*
X23635309Y8549741D01*
X23634242Y8551672D01*
X23633633Y8553805D01*
X23633430Y8556142D01*
X23626334Y8556142D01*
X23626673Y8551875D01*
X23627638Y8547862D01*
X23629315Y8544255D01*
X23631652Y8541105D01*
X23634598Y8538667D01*
X23637798Y8536940D01*
X23641304Y8535873D01*
X23645114Y8535568D01*
X23647450Y8535720D01*
X23649686Y8536178D01*
X23651768Y8536990D01*
X23653750Y8538108D01*
X23655426Y8539530D01*
X23656950Y8541308D01*
X23658220Y8543442D01*
X23659338Y8545931D01*
X23660608Y8542883D01*
X23662182Y8540191D01*
X23664062Y8537905D01*
X23666196Y8536076D01*
X23668736Y8534501D01*
X23671479Y8533384D01*
X23674425Y8532723D01*
X23677626Y8532520D01*
X23682096Y8532926D01*
X23686211Y8534146D01*
X23689868Y8536228D01*
X23693120Y8539073D01*
X23695914Y8542629D01*
X23697895Y8546642D01*
X23699063Y8551164D01*
X23699470Y8556142D01*
X23699063Y8561222D01*
X23697895Y8565794D01*
X23695914Y8569858D01*
X23693120Y8573363D01*
X23689767Y8576157D01*
X23686008Y8578138D01*
X23681893Y8579358D01*
G37*
G36*
X23933404Y8628735D02*
G01*
X23932134Y8620099D01*
X23935588Y8619236D01*
X23938484Y8618067D01*
X23940922Y8616696D01*
X23942802Y8615019D01*
X23944224Y8613038D01*
X23945291Y8610904D01*
X23945900Y8608618D01*
X23946104Y8606129D01*
X23945850Y8603081D01*
X23945037Y8600287D01*
X23943665Y8597747D01*
X23941786Y8595461D01*
X23939601Y8593683D01*
X23937163Y8592413D01*
X23934420Y8591651D01*
X23931372Y8591397D01*
X23928476Y8591651D01*
X23925784Y8592362D01*
X23923345Y8593582D01*
X23921212Y8595207D01*
X23919535Y8597392D01*
X23918367Y8599779D01*
X23917656Y8602472D01*
X23917452Y8606739D01*
X23918418Y8611463D01*
X23910544Y8610447D01*
X23910798Y8609177D01*
X23910594Y8606485D01*
X23910036Y8603843D01*
X23909070Y8601405D01*
X23907750Y8599017D01*
X23906124Y8597036D01*
X23904143Y8595614D01*
X23901704Y8594750D01*
X23898860Y8594445D01*
X23896421Y8594699D01*
X23894288Y8595309D01*
X23892408Y8596325D01*
X23890732Y8597747D01*
X23889309Y8599525D01*
X23888242Y8601506D01*
X23887633Y8603742D01*
X23887430Y8606129D01*
X23887633Y8608669D01*
X23888242Y8610955D01*
X23889309Y8612987D01*
X23890732Y8614765D01*
X23892560Y8616391D01*
X23894796Y8617661D01*
X23897386Y8618575D01*
X23900384Y8619083D01*
X23898860Y8627973D01*
X23894643Y8626957D01*
X23890986Y8625382D01*
X23887836Y8623300D01*
X23885144Y8620607D01*
X23883010Y8617661D01*
X23881537Y8614257D01*
X23880622Y8610549D01*
X23880318Y8606383D01*
X23880470Y8603538D01*
X23880927Y8600795D01*
X23881740Y8598204D01*
X23882858Y8595715D01*
X23884229Y8593378D01*
X23885855Y8591296D01*
X23887684Y8589568D01*
X23889716Y8588095D01*
X23891900Y8587028D01*
X23894186Y8586216D01*
X23896472Y8585758D01*
X23898860Y8585555D01*
X23901196Y8585758D01*
X23903432Y8586216D01*
X23905514Y8587028D01*
X23907496Y8588095D01*
X23909274Y8589416D01*
X23910848Y8591092D01*
X23912220Y8593124D01*
X23913338Y8595461D01*
X23914303Y8592464D01*
X23915624Y8589822D01*
X23917351Y8587536D01*
X23919434Y8585555D01*
X23921872Y8584031D01*
X23924666Y8582914D01*
X23927714Y8582253D01*
X23931118Y8581999D01*
X23935639Y8582456D01*
X23939754Y8583726D01*
X23943513Y8585860D01*
X23946866Y8588857D01*
X23949761Y8592515D01*
X23951793Y8596630D01*
X23953063Y8601151D01*
X23953470Y8606129D01*
X23953114Y8610650D01*
X23952098Y8614714D01*
X23950320Y8618372D01*
X23947882Y8621623D01*
X23944884Y8624468D01*
X23941481Y8626602D01*
X23937620Y8628024D01*
G37*
G36*
X23898352Y8566505D02*
G01*
X23894491Y8559596D01*
X23889970Y8553551D01*
X23884991Y8548979D01*
X23882654Y8547303D01*
X23880318Y8545931D01*
X23880318Y8540089D01*
X23952200Y8540089D01*
X23952200Y8548979D01*
X23896320Y8548979D01*
X23899164Y8552637D01*
X23902162Y8557361D01*
X23904803Y8562187D01*
X23906734Y8566505D01*
G37*
G36*
X24152352Y8632342D02*
G01*
X24148491Y8625382D01*
X24143970Y8619337D01*
X24138991Y8614765D01*
X24136654Y8613089D01*
X24134318Y8611768D01*
X24134318Y8605926D01*
X24206200Y8605926D01*
X24206200Y8614765D01*
X24150320Y8614765D01*
X24153164Y8618423D01*
X24156162Y8623147D01*
X24158803Y8627973D01*
X24160734Y8632342D01*
G37*
G36*
X24172672Y8583828D02*
G01*
X24154688Y8581898D01*
X24142446Y8576208D01*
X24138890Y8572601D01*
X24136350Y8568385D01*
X24134826Y8563559D01*
X24134318Y8558123D01*
X24134622Y8554161D01*
X24135537Y8550554D01*
X24137010Y8547303D01*
X24139144Y8544458D01*
X24141684Y8541918D01*
X24144681Y8539988D01*
X24148135Y8538616D01*
X24152098Y8537854D01*
X24152860Y8546744D01*
X24150472Y8547303D01*
X24146662Y8548979D01*
X24145240Y8549995D01*
X24143563Y8551875D01*
X24142395Y8553958D01*
X24141684Y8556193D01*
X24141430Y8558631D01*
X24141582Y8560714D01*
X24142039Y8562644D01*
X24142852Y8564422D01*
X24145646Y8568029D01*
X24147729Y8569858D01*
X24150116Y8571331D01*
X24152860Y8572652D01*
X24156009Y8573668D01*
X24159768Y8574379D01*
X24164239Y8574938D01*
X24169370Y8575192D01*
X24167084Y8573414D01*
X24165102Y8571534D01*
X24163426Y8569502D01*
X24162004Y8567318D01*
X24160988Y8564981D01*
X24160276Y8562594D01*
X24159827Y8559444D01*
X24167592Y8559444D01*
X24167846Y8562340D01*
X24168658Y8564981D01*
X24170030Y8567420D01*
X24171910Y8569604D01*
X24174145Y8571331D01*
X24176736Y8572652D01*
X24179733Y8573363D01*
X24183086Y8573668D01*
X24187556Y8573211D01*
X24191722Y8571839D01*
X24193652Y8570772D01*
X24196802Y8568080D01*
X24198072Y8566505D01*
X24198986Y8564727D01*
X24200002Y8561070D01*
X24200104Y8559139D01*
X24199850Y8556447D01*
X24199037Y8553958D01*
X24197665Y8551621D01*
X24195786Y8549487D01*
X24193296Y8547862D01*
X24190452Y8546642D01*
X24187200Y8545931D01*
X24183594Y8545728D01*
X24179987Y8545931D01*
X24176837Y8546642D01*
X24174145Y8547862D01*
X24171910Y8549487D01*
X24170030Y8551672D01*
X24168658Y8554008D01*
X24167846Y8556599D01*
X24167592Y8559444D01*
X24159827Y8559444D01*
X24159718Y8557615D01*
X24160124Y8553450D01*
X24161394Y8549589D01*
X24163426Y8545982D01*
X24166322Y8542629D01*
X24169725Y8539988D01*
X24173637Y8538057D01*
X24178006Y8536940D01*
X24182832Y8536584D01*
X24186184Y8536736D01*
X24189436Y8537346D01*
X24192534Y8538260D01*
X24195532Y8539581D01*
X24198275Y8541156D01*
X24200662Y8542985D01*
X24202745Y8545068D01*
X24204422Y8547455D01*
X24205742Y8550097D01*
X24206708Y8552891D01*
X24207266Y8555837D01*
X24207470Y8558936D01*
X24206962Y8564219D01*
X24205438Y8568994D01*
X24202898Y8573262D01*
X24199342Y8576970D01*
X24188623Y8582101D01*
G37*
G36*
X24406352Y8632545D02*
G01*
X24402491Y8625636D01*
X24397970Y8619591D01*
X24392991Y8615019D01*
X24390654Y8613343D01*
X24388318Y8611971D01*
X24388318Y8606129D01*
X24460200Y8606129D01*
X24460200Y8615019D01*
X24404320Y8615019D01*
X24407164Y8618677D01*
X24410162Y8623401D01*
X24412803Y8628227D01*
X24414734Y8632545D01*
G37*
G36*
X24441404Y8583777D02*
G01*
X24440642Y8574379D01*
X24443842Y8573719D01*
X24446636Y8572754D01*
X24448922Y8571433D01*
X24450802Y8569807D01*
X24452224Y8567826D01*
X24453291Y8565642D01*
X24453900Y8563254D01*
X24454104Y8560663D01*
X24453799Y8557615D01*
X24452986Y8554821D01*
X24451513Y8552281D01*
X24449532Y8549995D01*
X24446941Y8548116D01*
X24443944Y8546795D01*
X24440591Y8545982D01*
X24436832Y8545677D01*
X24433225Y8545931D01*
X24430024Y8546693D01*
X24427281Y8547963D01*
X24424894Y8549741D01*
X24423014Y8552078D01*
X24421642Y8554720D01*
X24420830Y8557666D01*
X24420576Y8560917D01*
X24420677Y8562949D01*
X24421592Y8566759D01*
X24422354Y8568537D01*
X24424640Y8571534D01*
X24427434Y8573871D01*
X24426418Y8582253D01*
X24389588Y8575141D01*
X24389588Y8539581D01*
X24397970Y8539581D01*
X24397970Y8568283D01*
X24417274Y8572093D01*
X24415292Y8568791D01*
X24413870Y8565438D01*
X24413006Y8562086D01*
X24412702Y8558631D01*
X24413108Y8554110D01*
X24414327Y8549944D01*
X24416410Y8546134D01*
X24419306Y8542629D01*
X24422709Y8539886D01*
X24426621Y8537905D01*
X24430990Y8536686D01*
X24435816Y8536279D01*
X24440591Y8536635D01*
X24445010Y8537702D01*
X24449125Y8539429D01*
X24452834Y8541867D01*
X24456593Y8545626D01*
X24459336Y8549995D01*
X24460911Y8555024D01*
X24461470Y8560663D01*
X24461114Y8565388D01*
X24460098Y8569655D01*
X24458320Y8573414D01*
X24455882Y8576665D01*
X24452986Y8579408D01*
X24449582Y8581491D01*
X24445722Y8582964D01*
G37*
G36*
X23171404Y8669020D02*
G01*
X23170134Y8660384D01*
X23173588Y8659469D01*
X23176484Y8658352D01*
X23178922Y8656929D01*
X23180802Y8655304D01*
X23182224Y8653322D01*
X23183291Y8651189D01*
X23183900Y8648852D01*
X23184104Y8646414D01*
X23183850Y8643366D01*
X23183037Y8640572D01*
X23181665Y8638032D01*
X23179786Y8635746D01*
X23177601Y8633968D01*
X23175163Y8632698D01*
X23172420Y8631936D01*
X23169372Y8631682D01*
X23166476Y8631936D01*
X23163784Y8632647D01*
X23161345Y8633815D01*
X23159212Y8635492D01*
X23157535Y8637625D01*
X23156367Y8640064D01*
X23155656Y8642705D01*
X23155452Y8646972D01*
X23156418Y8651748D01*
X23148544Y8650732D01*
X23148798Y8649716D01*
X23148594Y8646718D01*
X23148036Y8644128D01*
X23147070Y8641638D01*
X23145750Y8639302D01*
X23144124Y8637320D01*
X23142143Y8635847D01*
X23139704Y8635034D01*
X23136860Y8634730D01*
X23134421Y8634933D01*
X23132288Y8635542D01*
X23130408Y8636609D01*
X23128732Y8638032D01*
X23127309Y8639810D01*
X23126242Y8641791D01*
X23125633Y8643975D01*
X23125430Y8646414D01*
X23125633Y8648954D01*
X23126242Y8651240D01*
X23127309Y8653272D01*
X23128732Y8655050D01*
X23130560Y8656675D01*
X23132796Y8657894D01*
X23135386Y8658809D01*
X23138384Y8659368D01*
X23136860Y8668258D01*
X23132643Y8667242D01*
X23128986Y8665667D01*
X23125836Y8663533D01*
X23123144Y8660892D01*
X23121010Y8657894D01*
X23119537Y8654542D01*
X23118622Y8650782D01*
X23118318Y8646668D01*
X23118470Y8643823D01*
X23118927Y8641080D01*
X23119740Y8638489D01*
X23120858Y8636000D01*
X23122229Y8633612D01*
X23123855Y8631529D01*
X23125684Y8629802D01*
X23127716Y8628380D01*
X23129900Y8627262D01*
X23132186Y8626449D01*
X23134472Y8625992D01*
X23136860Y8625840D01*
X23139196Y8625992D01*
X23141432Y8626449D01*
X23143514Y8627262D01*
X23145496Y8628380D01*
X23147274Y8629700D01*
X23148848Y8631377D01*
X23150220Y8633358D01*
X23151338Y8635746D01*
X23152303Y8632748D01*
X23153624Y8630107D01*
X23155351Y8627770D01*
X23157434Y8625840D01*
X23159872Y8624265D01*
X23162666Y8623147D01*
X23165714Y8622487D01*
X23169118Y8622284D01*
X23173639Y8622690D01*
X23177754Y8624011D01*
X23181513Y8626144D01*
X23184866Y8629142D01*
X23187761Y8632799D01*
X23189793Y8636863D01*
X23191063Y8641435D01*
X23191470Y8646414D01*
X23191114Y8650884D01*
X23190098Y8654999D01*
X23188320Y8658656D01*
X23185882Y8661908D01*
X23182884Y8664752D01*
X23179481Y8666835D01*
X23175620Y8668308D01*
G37*
G36*
X23118572Y8617204D02*
G01*
X23118572Y8607044D01*
X23173740Y8587384D01*
X23182326Y8584692D01*
X23170642Y8580882D01*
X23118572Y8561578D01*
X23118572Y8551926D01*
X23190200Y8579866D01*
X23190200Y8589518D01*
G37*
G36*
X23171404Y8546846D02*
G01*
X23170134Y8537956D01*
X23173588Y8537041D01*
X23176484Y8535924D01*
X23178922Y8534501D01*
X23180802Y8532876D01*
X23182224Y8530996D01*
X23183291Y8528862D01*
X23183900Y8526526D01*
X23184104Y8523986D01*
X23183850Y8521039D01*
X23183037Y8518347D01*
X23181665Y8515858D01*
X23179786Y8513572D01*
X23177601Y8511692D01*
X23175163Y8510320D01*
X23172420Y8509508D01*
X23169372Y8509254D01*
X23166476Y8509508D01*
X23163784Y8510270D01*
X23161345Y8511540D01*
X23159212Y8513318D01*
X23157535Y8515350D01*
X23156367Y8517686D01*
X23155656Y8520328D01*
X23155452Y8524595D01*
X23156418Y8529574D01*
X23148544Y8528558D01*
X23148798Y8527338D01*
X23148594Y8524290D01*
X23148036Y8521700D01*
X23147070Y8519210D01*
X23145750Y8516874D01*
X23144124Y8514994D01*
X23142143Y8513622D01*
X23139704Y8512810D01*
X23136860Y8512556D01*
X23134421Y8512759D01*
X23132288Y8513368D01*
X23130408Y8514435D01*
X23128732Y8515858D01*
X23127309Y8517636D01*
X23126242Y8519617D01*
X23125633Y8521801D01*
X23125430Y8524240D01*
X23125633Y8526678D01*
X23126242Y8528913D01*
X23127309Y8530996D01*
X23128732Y8532876D01*
X23130560Y8534400D01*
X23132796Y8535619D01*
X23135386Y8536533D01*
X23138384Y8537194D01*
X23136860Y8545830D01*
X23132643Y8544814D01*
X23128986Y8543290D01*
X23125836Y8541258D01*
X23123144Y8538718D01*
X23121010Y8535619D01*
X23119537Y8532215D01*
X23118622Y8528507D01*
X23118318Y8524494D01*
X23118470Y8521598D01*
X23118927Y8518855D01*
X23119740Y8516162D01*
X23120858Y8513572D01*
X23122229Y8511286D01*
X23123855Y8509254D01*
X23125684Y8507476D01*
X23127716Y8505952D01*
X23129900Y8504834D01*
X23132186Y8504021D01*
X23134472Y8503564D01*
X23136860Y8503412D01*
X23139196Y8503564D01*
X23141432Y8504021D01*
X23143514Y8504834D01*
X23145496Y8505952D01*
X23147274Y8507374D01*
X23148848Y8509050D01*
X23150220Y8511032D01*
X23151338Y8513318D01*
X23152303Y8510320D01*
X23153624Y8507679D01*
X23155351Y8505342D01*
X23157434Y8503412D01*
X23159872Y8501837D01*
X23162666Y8500719D01*
X23165714Y8500059D01*
X23169118Y8499856D01*
X23173639Y8500262D01*
X23177754Y8501583D01*
X23181513Y8503716D01*
X23184866Y8506714D01*
X23187761Y8510371D01*
X23189793Y8514435D01*
X23191063Y8519007D01*
X23191470Y8523986D01*
X23191114Y8528507D01*
X23190098Y8532622D01*
X23188320Y8536381D01*
X23185882Y8539734D01*
X23182884Y8542477D01*
X23179481Y8544560D01*
X23175620Y8546033D01*
G37*
G36*
X22917404Y8669020D02*
G01*
X22916134Y8660384D01*
X22919588Y8659469D01*
X22922484Y8658352D01*
X22924922Y8656929D01*
X22926802Y8655304D01*
X22928224Y8653322D01*
X22929291Y8651189D01*
X22929900Y8648852D01*
X22930104Y8646414D01*
X22929850Y8643366D01*
X22929037Y8640572D01*
X22927665Y8638032D01*
X22925786Y8635746D01*
X22923601Y8633968D01*
X22921163Y8632698D01*
X22918420Y8631936D01*
X22915372Y8631682D01*
X22912476Y8631936D01*
X22909784Y8632647D01*
X22907345Y8633815D01*
X22905212Y8635492D01*
X22903535Y8637625D01*
X22902367Y8640064D01*
X22901656Y8642705D01*
X22901452Y8646972D01*
X22902418Y8651748D01*
X22894544Y8650732D01*
X22894798Y8649716D01*
X22894594Y8646718D01*
X22894036Y8644128D01*
X22893070Y8641638D01*
X22891750Y8639302D01*
X22890124Y8637320D01*
X22888143Y8635847D01*
X22885704Y8635034D01*
X22882860Y8634730D01*
X22880421Y8634933D01*
X22878288Y8635542D01*
X22876408Y8636609D01*
X22874732Y8638032D01*
X22873309Y8639810D01*
X22872242Y8641791D01*
X22871633Y8643975D01*
X22871430Y8646414D01*
X22871633Y8648954D01*
X22872242Y8651240D01*
X22873309Y8653272D01*
X22874732Y8655050D01*
X22876560Y8656675D01*
X22878796Y8657894D01*
X22881386Y8658809D01*
X22884384Y8659368D01*
X22882860Y8668258D01*
X22878643Y8667242D01*
X22874986Y8665667D01*
X22871836Y8663533D01*
X22869144Y8660892D01*
X22867010Y8657894D01*
X22865537Y8654542D01*
X22864622Y8650782D01*
X22864318Y8646668D01*
X22864470Y8643823D01*
X22864927Y8641080D01*
X22865740Y8638489D01*
X22866858Y8636000D01*
X22868229Y8633612D01*
X22869855Y8631529D01*
X22871684Y8629802D01*
X22873716Y8628380D01*
X22875900Y8627262D01*
X22878186Y8626449D01*
X22880472Y8625992D01*
X22882860Y8625840D01*
X22885196Y8625992D01*
X22887432Y8626449D01*
X22889514Y8627262D01*
X22891496Y8628380D01*
X22893274Y8629700D01*
X22894848Y8631377D01*
X22896220Y8633358D01*
X22897338Y8635746D01*
X22898303Y8632748D01*
X22899624Y8630107D01*
X22901351Y8627770D01*
X22903434Y8625840D01*
X22905872Y8624265D01*
X22908666Y8623147D01*
X22911714Y8622487D01*
X22915118Y8622284D01*
X22919639Y8622690D01*
X22923754Y8624011D01*
X22927513Y8626144D01*
X22930866Y8629142D01*
X22933761Y8632799D01*
X22935793Y8636863D01*
X22937063Y8641435D01*
X22937470Y8646414D01*
X22937114Y8650884D01*
X22936098Y8654999D01*
X22934320Y8658656D01*
X22931882Y8661908D01*
X22928884Y8664752D01*
X22925481Y8666835D01*
X22921620Y8668308D01*
G37*
G36*
X22864572Y8617204D02*
G01*
X22864572Y8607044D01*
X22919740Y8587384D01*
X22928326Y8584692D01*
X22916642Y8580882D01*
X22864572Y8561578D01*
X22864572Y8551926D01*
X22936200Y8579866D01*
X22936200Y8589518D01*
G37*
G36*
X22917404Y8546846D02*
G01*
X22916134Y8537956D01*
X22919588Y8537041D01*
X22922484Y8535924D01*
X22924922Y8534501D01*
X22926802Y8532876D01*
X22928224Y8530996D01*
X22929291Y8528862D01*
X22929900Y8526526D01*
X22930104Y8523986D01*
X22929850Y8521039D01*
X22929037Y8518347D01*
X22927665Y8515858D01*
X22925786Y8513572D01*
X22923601Y8511692D01*
X22921163Y8510320D01*
X22918420Y8509508D01*
X22915372Y8509254D01*
X22912476Y8509508D01*
X22909784Y8510270D01*
X22907345Y8511540D01*
X22905212Y8513318D01*
X22903535Y8515350D01*
X22902367Y8517686D01*
X22901656Y8520328D01*
X22901452Y8524595D01*
X22902418Y8529574D01*
X22894544Y8528558D01*
X22894798Y8527338D01*
X22894594Y8524290D01*
X22894036Y8521700D01*
X22893070Y8519210D01*
X22891750Y8516874D01*
X22890124Y8514994D01*
X22888143Y8513622D01*
X22885704Y8512810D01*
X22882860Y8512556D01*
X22880421Y8512759D01*
X22878288Y8513368D01*
X22876408Y8514435D01*
X22874732Y8515858D01*
X22873309Y8517636D01*
X22872242Y8519617D01*
X22871633Y8521801D01*
X22871430Y8524240D01*
X22871633Y8526678D01*
X22872242Y8528913D01*
X22873309Y8530996D01*
X22874732Y8532876D01*
X22876560Y8534400D01*
X22878796Y8535619D01*
X22881386Y8536533D01*
X22884384Y8537194D01*
X22882860Y8545830D01*
X22878643Y8544814D01*
X22874986Y8543290D01*
X22871836Y8541258D01*
X22869144Y8538718D01*
X22867010Y8535619D01*
X22865537Y8532215D01*
X22864622Y8528507D01*
X22864318Y8524494D01*
X22864470Y8521598D01*
X22864927Y8518855D01*
X22865740Y8516162D01*
X22866858Y8513572D01*
X22868229Y8511286D01*
X22869855Y8509254D01*
X22871684Y8507476D01*
X22873716Y8505952D01*
X22875900Y8504834D01*
X22878186Y8504021D01*
X22880472Y8503564D01*
X22882860Y8503412D01*
X22885196Y8503564D01*
X22887432Y8504021D01*
X22889514Y8504834D01*
X22891496Y8505952D01*
X22893274Y8507374D01*
X22894848Y8509050D01*
X22896220Y8511032D01*
X22897338Y8513318D01*
X22898303Y8510320D01*
X22899624Y8507679D01*
X22901351Y8505342D01*
X22903434Y8503412D01*
X22905872Y8501837D01*
X22908666Y8500719D01*
X22911714Y8500059D01*
X22915118Y8499856D01*
X22919639Y8500262D01*
X22923754Y8501583D01*
X22927513Y8503716D01*
X22930866Y8506714D01*
X22933761Y8510371D01*
X22935793Y8514435D01*
X22937063Y8519007D01*
X22937470Y8523986D01*
X22937114Y8528507D01*
X22936098Y8532622D01*
X22934320Y8536381D01*
X22931882Y8539734D01*
X22928884Y8542477D01*
X22925481Y8544560D01*
X22921620Y8546033D01*
G37*
G36*
X22663404Y8669020D02*
G01*
X22662134Y8660384D01*
X22665588Y8659469D01*
X22668484Y8658352D01*
X22670922Y8656929D01*
X22672802Y8655304D01*
X22674224Y8653322D01*
X22675291Y8651189D01*
X22675900Y8648852D01*
X22676104Y8646414D01*
X22675850Y8643366D01*
X22675037Y8640572D01*
X22673665Y8638032D01*
X22671786Y8635746D01*
X22669601Y8633968D01*
X22667163Y8632698D01*
X22664420Y8631936D01*
X22661372Y8631682D01*
X22658476Y8631936D01*
X22655784Y8632647D01*
X22653345Y8633815D01*
X22651212Y8635492D01*
X22649535Y8637625D01*
X22648367Y8640064D01*
X22647656Y8642705D01*
X22647452Y8646972D01*
X22648418Y8651748D01*
X22640544Y8650732D01*
X22640798Y8649716D01*
X22640594Y8646718D01*
X22640036Y8644128D01*
X22639070Y8641638D01*
X22637750Y8639302D01*
X22636124Y8637320D01*
X22634143Y8635847D01*
X22631704Y8635034D01*
X22628860Y8634730D01*
X22626421Y8634933D01*
X22624288Y8635542D01*
X22622408Y8636609D01*
X22620732Y8638032D01*
X22619309Y8639810D01*
X22618242Y8641791D01*
X22617633Y8643975D01*
X22617430Y8646414D01*
X22617633Y8648954D01*
X22618242Y8651240D01*
X22619309Y8653272D01*
X22620732Y8655050D01*
X22622560Y8656675D01*
X22624796Y8657894D01*
X22627386Y8658809D01*
X22630384Y8659368D01*
X22628860Y8668258D01*
X22624643Y8667242D01*
X22620986Y8665667D01*
X22617836Y8663533D01*
X22615144Y8660892D01*
X22613010Y8657894D01*
X22611537Y8654542D01*
X22610622Y8650782D01*
X22610318Y8646668D01*
X22610470Y8643823D01*
X22610927Y8641080D01*
X22611740Y8638489D01*
X22612858Y8636000D01*
X22614229Y8633612D01*
X22615855Y8631529D01*
X22617684Y8629802D01*
X22619716Y8628380D01*
X22621900Y8627262D01*
X22624186Y8626449D01*
X22626472Y8625992D01*
X22628860Y8625840D01*
X22631196Y8625992D01*
X22633432Y8626449D01*
X22635514Y8627262D01*
X22637496Y8628380D01*
X22639274Y8629700D01*
X22640848Y8631377D01*
X22642220Y8633358D01*
X22643338Y8635746D01*
X22644303Y8632748D01*
X22645624Y8630107D01*
X22647351Y8627770D01*
X22649434Y8625840D01*
X22651872Y8624265D01*
X22654666Y8623147D01*
X22657714Y8622487D01*
X22661118Y8622284D01*
X22665639Y8622690D01*
X22669754Y8624011D01*
X22673513Y8626144D01*
X22676866Y8629142D01*
X22679761Y8632799D01*
X22681793Y8636863D01*
X22683063Y8641435D01*
X22683470Y8646414D01*
X22683114Y8650884D01*
X22682098Y8654999D01*
X22680320Y8658656D01*
X22677882Y8661908D01*
X22674884Y8664752D01*
X22671481Y8666835D01*
X22667620Y8668308D01*
G37*
G36*
X22610572Y8617204D02*
G01*
X22610572Y8607044D01*
X22665740Y8587384D01*
X22674326Y8584692D01*
X22662642Y8580882D01*
X22610572Y8561578D01*
X22610572Y8551926D01*
X22682200Y8579866D01*
X22682200Y8589518D01*
G37*
G36*
X22663404Y8546846D02*
G01*
X22662134Y8537956D01*
X22665588Y8537041D01*
X22668484Y8535924D01*
X22670922Y8534501D01*
X22672802Y8532876D01*
X22674224Y8530996D01*
X22675291Y8528862D01*
X22675900Y8526526D01*
X22676104Y8523986D01*
X22675850Y8521039D01*
X22675037Y8518347D01*
X22673665Y8515858D01*
X22671786Y8513572D01*
X22669601Y8511692D01*
X22667163Y8510320D01*
X22664420Y8509508D01*
X22661372Y8509254D01*
X22658476Y8509508D01*
X22655784Y8510270D01*
X22653345Y8511540D01*
X22651212Y8513318D01*
X22649535Y8515350D01*
X22648367Y8517686D01*
X22647656Y8520328D01*
X22647452Y8524595D01*
X22648418Y8529574D01*
X22640544Y8528558D01*
X22640798Y8527338D01*
X22640594Y8524290D01*
X22640036Y8521700D01*
X22639070Y8519210D01*
X22637750Y8516874D01*
X22636124Y8514994D01*
X22634143Y8513622D01*
X22631704Y8512810D01*
X22628860Y8512556D01*
X22626421Y8512759D01*
X22624288Y8513368D01*
X22622408Y8514435D01*
X22620732Y8515858D01*
X22619309Y8517636D01*
X22618242Y8519617D01*
X22617633Y8521801D01*
X22617430Y8524240D01*
X22617633Y8526678D01*
X22618242Y8528913D01*
X22619309Y8530996D01*
X22620732Y8532876D01*
X22622560Y8534400D01*
X22624796Y8535619D01*
X22627386Y8536533D01*
X22630384Y8537194D01*
X22628860Y8545830D01*
X22624643Y8544814D01*
X22620986Y8543290D01*
X22617836Y8541258D01*
X22615144Y8538718D01*
X22613010Y8535619D01*
X22611537Y8532215D01*
X22610622Y8528507D01*
X22610318Y8524494D01*
X22610470Y8521598D01*
X22610927Y8518855D01*
X22611740Y8516162D01*
X22612858Y8513572D01*
X22614229Y8511286D01*
X22615855Y8509254D01*
X22617684Y8507476D01*
X22619716Y8505952D01*
X22621900Y8504834D01*
X22624186Y8504021D01*
X22626472Y8503564D01*
X22628860Y8503412D01*
X22631196Y8503564D01*
X22633432Y8504021D01*
X22635514Y8504834D01*
X22637496Y8505952D01*
X22639274Y8507374D01*
X22640848Y8509050D01*
X22642220Y8511032D01*
X22643338Y8513318D01*
X22644303Y8510320D01*
X22645624Y8507679D01*
X22647351Y8505342D01*
X22649434Y8503412D01*
X22651872Y8501837D01*
X22654666Y8500719D01*
X22657714Y8500059D01*
X22661118Y8499856D01*
X22665639Y8500262D01*
X22669754Y8501583D01*
X22673513Y8503716D01*
X22676866Y8506714D01*
X22679761Y8510371D01*
X22681793Y8514435D01*
X22683063Y8519007D01*
X22683470Y8523986D01*
X22683114Y8528507D01*
X22682098Y8532622D01*
X22680320Y8536381D01*
X22677882Y8539734D01*
X22674884Y8542477D01*
X22671481Y8544560D01*
X22667620Y8546033D01*
G37*
G36*
X22646640Y7919466D02*
G01*
X22641509Y7919212D01*
X22636581Y7918399D01*
X22631857Y7917027D01*
X22627336Y7915148D01*
X22623068Y7912760D01*
X22619411Y7909814D01*
X22616312Y7906359D01*
X22613874Y7902448D01*
X22611892Y7898231D01*
X22610470Y7893710D01*
X22609606Y7888833D01*
X22609302Y7883652D01*
X22609454Y7879842D01*
X22609911Y7876235D01*
X22610724Y7872831D01*
X22611842Y7869681D01*
X22613213Y7866684D01*
X22614890Y7864043D01*
X22616820Y7861706D01*
X22618954Y7859775D01*
X22621392Y7858099D01*
X22624186Y7856677D01*
X22627234Y7855458D01*
X22630638Y7854442D01*
X22632924Y7862824D01*
X22628098Y7864703D01*
X22624288Y7866888D01*
X22622865Y7868158D01*
X22621544Y7869732D01*
X22619462Y7873746D01*
X22618547Y7875981D01*
X22617531Y7880959D01*
X22617531Y7886750D01*
X22618547Y7892338D01*
X22619462Y7894828D01*
X22621798Y7899146D01*
X22623221Y7900924D01*
X22626370Y7903768D01*
X22629774Y7906054D01*
X22631654Y7907020D01*
X22635108Y7908239D01*
X22638715Y7909102D01*
X22642372Y7909661D01*
X22646132Y7909814D01*
X22650754Y7909610D01*
X22654971Y7909001D01*
X22658730Y7907934D01*
X22662134Y7906512D01*
X22665232Y7904683D01*
X22667874Y7902448D01*
X22670058Y7899857D01*
X22671786Y7896859D01*
X22673106Y7893659D01*
X22674072Y7890306D01*
X22674630Y7886903D01*
X22674834Y7883398D01*
X22674681Y7880350D01*
X22674275Y7877352D01*
X22673564Y7874406D01*
X22671379Y7868716D01*
X22668839Y7864246D01*
X22667468Y7862570D01*
X22654006Y7862570D01*
X22654006Y7883652D01*
X22645624Y7883652D01*
X22645624Y7853172D01*
X22672294Y7853172D01*
X22674935Y7856728D01*
X22677170Y7860334D01*
X22679101Y7863992D01*
X22680676Y7867650D01*
X22681895Y7871358D01*
X22682758Y7875168D01*
X22683317Y7878978D01*
X22683470Y7882890D01*
X22683165Y7888071D01*
X22682352Y7893050D01*
X22680879Y7897723D01*
X22678898Y7902194D01*
X22676358Y7906156D01*
X22673360Y7909610D01*
X22669906Y7912608D01*
X22665944Y7915148D01*
X22661524Y7917027D01*
X22656800Y7918399D01*
X22651872Y7919212D01*
G37*
G36*
X22900640Y7919466D02*
G01*
X22895509Y7919212D01*
X22890581Y7918399D01*
X22885857Y7917027D01*
X22881336Y7915148D01*
X22877068Y7912760D01*
X22873411Y7909814D01*
X22870312Y7906359D01*
X22867874Y7902448D01*
X22865892Y7898231D01*
X22864470Y7893710D01*
X22863606Y7888833D01*
X22863302Y7883652D01*
X22863454Y7879842D01*
X22863911Y7876235D01*
X22864724Y7872831D01*
X22865842Y7869681D01*
X22867213Y7866684D01*
X22868890Y7864043D01*
X22870820Y7861706D01*
X22872954Y7859775D01*
X22875392Y7858099D01*
X22878186Y7856677D01*
X22881234Y7855458D01*
X22884638Y7854442D01*
X22886924Y7862824D01*
X22882098Y7864703D01*
X22878288Y7866888D01*
X22876865Y7868158D01*
X22875544Y7869732D01*
X22873462Y7873746D01*
X22872547Y7875981D01*
X22871531Y7880959D01*
X22871531Y7886750D01*
X22872547Y7892338D01*
X22873462Y7894828D01*
X22875798Y7899146D01*
X22877221Y7900924D01*
X22880370Y7903768D01*
X22883774Y7906054D01*
X22885654Y7907020D01*
X22889108Y7908239D01*
X22892715Y7909102D01*
X22896372Y7909661D01*
X22900132Y7909814D01*
X22904754Y7909610D01*
X22908971Y7909001D01*
X22912730Y7907934D01*
X22916134Y7906512D01*
X22919232Y7904683D01*
X22921874Y7902448D01*
X22924058Y7899857D01*
X22925786Y7896859D01*
X22927106Y7893659D01*
X22928072Y7890306D01*
X22928630Y7886903D01*
X22928834Y7883398D01*
X22928681Y7880350D01*
X22928275Y7877352D01*
X22927564Y7874406D01*
X22925379Y7868716D01*
X22922839Y7864246D01*
X22921468Y7862570D01*
X22908006Y7862570D01*
X22908006Y7883652D01*
X22899624Y7883652D01*
X22899624Y7853172D01*
X22926294Y7853172D01*
X22928935Y7856728D01*
X22931170Y7860334D01*
X22933101Y7863992D01*
X22934676Y7867650D01*
X22935895Y7871358D01*
X22936758Y7875168D01*
X22937317Y7878978D01*
X22937470Y7882890D01*
X22937165Y7888071D01*
X22936352Y7893050D01*
X22934879Y7897723D01*
X22932898Y7902194D01*
X22930358Y7906156D01*
X22927360Y7909610D01*
X22923906Y7912608D01*
X22919944Y7915148D01*
X22915524Y7917027D01*
X22910800Y7918399D01*
X22905872Y7919212D01*
G37*
G36*
X23190200Y7938008D02*
G01*
X23187152Y7937753D01*
X23184104Y7936992D01*
X23179278Y7934655D01*
X23174452Y7931150D01*
X23169473Y7926374D01*
X23159212Y7914335D01*
X23155148Y7909915D01*
X23151592Y7906461D01*
X23148544Y7903972D01*
X23145800Y7902194D01*
X23143057Y7900924D01*
X23140466Y7900162D01*
X23137876Y7899908D01*
X23135437Y7900111D01*
X23133151Y7900771D01*
X23131119Y7901889D01*
X23129240Y7903464D01*
X23127665Y7905496D01*
X23126547Y7907832D01*
X23125887Y7910474D01*
X23125684Y7913370D01*
X23125938Y7916367D01*
X23126649Y7919110D01*
X23127817Y7921447D01*
X23129494Y7923530D01*
X23131576Y7925206D01*
X23134015Y7926374D01*
X23136758Y7927086D01*
X23139908Y7927340D01*
X23139146Y7936484D01*
X23134370Y7935671D01*
X23130205Y7934198D01*
X23126598Y7932115D01*
X23123652Y7929372D01*
X23121315Y7926070D01*
X23119638Y7922259D01*
X23118673Y7917942D01*
X23118318Y7913116D01*
X23118673Y7908188D01*
X23119791Y7903819D01*
X23121620Y7900060D01*
X23124160Y7896859D01*
X23127106Y7894218D01*
X23130459Y7892288D01*
X23134116Y7891170D01*
X23138130Y7890764D01*
X23142448Y7891221D01*
X23146766Y7892542D01*
X23148848Y7893558D01*
X23153166Y7896504D01*
X23157891Y7900771D01*
X23164241Y7907477D01*
X23175569Y7920634D01*
X23178160Y7923123D01*
X23181818Y7925816D01*
X23181818Y7890764D01*
X23190200Y7890764D01*
G37*
G36*
X23165054Y7884159D02*
G01*
X23121094Y7853172D01*
X23132796Y7853172D01*
X23165054Y7875524D01*
X23165054Y7853172D01*
X23121094Y7853172D01*
X23118572Y7851394D01*
X23118572Y7844281D01*
X23165054Y7844281D01*
X23165054Y7834630D01*
X23173182Y7834630D01*
X23173182Y7844281D01*
X23190200Y7844281D01*
X23190200Y7853172D01*
X23173182Y7853172D01*
X23173182Y7884159D01*
G37*
G36*
X23444200Y7931302D02*
G01*
X23441152Y7930997D01*
X23438104Y7930286D01*
X23433278Y7927898D01*
X23428452Y7924444D01*
X23423473Y7919669D01*
X23409148Y7903209D01*
X23405592Y7899755D01*
X23402544Y7897215D01*
X23399800Y7895437D01*
X23397057Y7894218D01*
X23394466Y7893456D01*
X23391876Y7893202D01*
X23389437Y7893405D01*
X23387151Y7894066D01*
X23385119Y7895183D01*
X23383240Y7896758D01*
X23381665Y7898790D01*
X23380547Y7901127D01*
X23379887Y7903718D01*
X23379684Y7906613D01*
X23379938Y7909661D01*
X23380649Y7912353D01*
X23381817Y7914741D01*
X23383494Y7916773D01*
X23385576Y7918450D01*
X23388015Y7919669D01*
X23390758Y7920380D01*
X23393908Y7920634D01*
X23393146Y7929778D01*
X23388370Y7928914D01*
X23384205Y7927492D01*
X23380598Y7925358D01*
X23377652Y7922615D01*
X23375315Y7919364D01*
X23373638Y7915503D01*
X23372673Y7911236D01*
X23372318Y7906410D01*
X23372673Y7901482D01*
X23373791Y7897114D01*
X23375620Y7893354D01*
X23378160Y7890154D01*
X23381106Y7887462D01*
X23384459Y7885531D01*
X23388116Y7884414D01*
X23392130Y7884058D01*
X23396448Y7884464D01*
X23400766Y7885836D01*
X23402848Y7886852D01*
X23407166Y7889748D01*
X23411891Y7894015D01*
X23418241Y7900771D01*
X23429569Y7913878D01*
X23432160Y7916367D01*
X23435818Y7919110D01*
X23435818Y7884058D01*
X23444200Y7884058D01*
G37*
G36*
X23390352Y7867802D02*
G01*
X23386491Y7860842D01*
X23381970Y7854797D01*
X23376991Y7850225D01*
X23374654Y7848549D01*
X23372318Y7847228D01*
X23372318Y7841386D01*
X23444200Y7841386D01*
X23444200Y7850276D01*
X23388320Y7850276D01*
X23391164Y7853883D01*
X23394162Y7858658D01*
X23396803Y7863484D01*
X23398734Y7867802D01*
G37*
G36*
X23644352Y7934045D02*
G01*
X23640491Y7927136D01*
X23635970Y7921091D01*
X23630991Y7916519D01*
X23628654Y7914843D01*
X23626318Y7913471D01*
X23626318Y7907629D01*
X23698200Y7907629D01*
X23698200Y7916519D01*
X23642320Y7916519D01*
X23645164Y7920177D01*
X23648162Y7924901D01*
X23650803Y7929727D01*
X23652734Y7934045D01*
G37*
G36*
X23673054Y7888071D02*
G01*
X23629094Y7857083D01*
X23640796Y7857083D01*
X23673054Y7879435D01*
X23673054Y7857083D01*
X23629094Y7857083D01*
X23626572Y7855305D01*
X23626572Y7848193D01*
X23673054Y7848193D01*
X23673054Y7838541D01*
X23681182Y7838541D01*
X23681182Y7848193D01*
X23698200Y7848193D01*
X23698200Y7857083D01*
X23681182Y7857083D01*
X23681182Y7888071D01*
G37*
G36*
X23898352Y7933791D02*
G01*
X23894491Y7926882D01*
X23889970Y7920837D01*
X23884991Y7916265D01*
X23882654Y7914589D01*
X23880318Y7913217D01*
X23880318Y7907375D01*
X23952200Y7907375D01*
X23952200Y7916265D01*
X23896320Y7916265D01*
X23899164Y7919923D01*
X23902162Y7924647D01*
X23904803Y7929473D01*
X23906734Y7933791D01*
G37*
G36*
X23950676Y7886090D02*
G01*
X23947628Y7885582D01*
X23943716Y7884007D01*
X23938890Y7881112D01*
X23934064Y7877048D01*
X23928730Y7871358D01*
X23921212Y7862417D01*
X23917148Y7857998D01*
X23913592Y7854543D01*
X23910544Y7852003D01*
X23907800Y7850225D01*
X23905057Y7848955D01*
X23902466Y7848193D01*
X23899876Y7847939D01*
X23897437Y7848193D01*
X23895151Y7848904D01*
X23893119Y7850124D01*
X23891240Y7851749D01*
X23889665Y7853730D01*
X23888547Y7855966D01*
X23887887Y7858556D01*
X23887684Y7861401D01*
X23887938Y7864449D01*
X23888649Y7867142D01*
X23889817Y7869529D01*
X23891494Y7871561D01*
X23893576Y7873238D01*
X23896015Y7874457D01*
X23898758Y7875168D01*
X23901908Y7875371D01*
X23901146Y7884515D01*
X23896370Y7883702D01*
X23892205Y7882229D01*
X23888598Y7880146D01*
X23885652Y7877403D01*
X23883315Y7874101D01*
X23881638Y7870291D01*
X23880673Y7865973D01*
X23880318Y7861147D01*
X23880673Y7856321D01*
X23881791Y7852003D01*
X23883620Y7848193D01*
X23886160Y7844891D01*
X23889106Y7842250D01*
X23892459Y7840319D01*
X23896116Y7839202D01*
X23900130Y7838795D01*
X23904448Y7839252D01*
X23908766Y7840573D01*
X23912931Y7842961D01*
X23917402Y7846415D01*
X23922888Y7851851D01*
X23930102Y7859877D01*
X23935639Y7866481D01*
X23938992Y7870037D01*
X23941328Y7872171D01*
X23943818Y7873847D01*
X23943818Y7838795D01*
X23952200Y7838795D01*
X23952200Y7886039D01*
G37*
G36*
X24158448Y7909915D02*
G01*
X24153266Y7909509D01*
X24148592Y7908290D01*
X24144478Y7906207D01*
X24140922Y7903362D01*
X24138026Y7899958D01*
X24135994Y7896148D01*
X24134724Y7891932D01*
X24134318Y7887360D01*
X24134393Y7886344D01*
X24141684Y7886344D01*
X24141988Y7889138D01*
X24142903Y7891780D01*
X24144376Y7894218D01*
X24146510Y7896504D01*
X24148999Y7898384D01*
X24151844Y7899704D01*
X24155095Y7900517D01*
X24158702Y7900771D01*
X24161953Y7900517D01*
X24164950Y7899755D01*
X24167541Y7898536D01*
X24169878Y7896758D01*
X24171757Y7894574D01*
X24173129Y7892186D01*
X24173942Y7889494D01*
X24174196Y7886547D01*
X24173942Y7883652D01*
X24173129Y7881010D01*
X24171757Y7878572D01*
X24169878Y7876387D01*
X24167490Y7874762D01*
X24164747Y7873542D01*
X24161546Y7872831D01*
X24157940Y7872628D01*
X24154434Y7872882D01*
X24151285Y7873644D01*
X24148440Y7874863D01*
X24146002Y7876692D01*
X24144122Y7878775D01*
X24142750Y7881112D01*
X24141938Y7883601D01*
X24141684Y7886344D01*
X24134393Y7886344D01*
X24134572Y7883956D01*
X24135283Y7880705D01*
X24136451Y7877606D01*
X24138128Y7874660D01*
X24140210Y7871866D01*
X24142700Y7869478D01*
X24145544Y7867446D01*
X24148796Y7865770D01*
X24152606Y7864398D01*
X24157228Y7863484D01*
X24162664Y7862874D01*
X24168862Y7862671D01*
X24175364Y7862874D01*
X24181155Y7863484D01*
X24186286Y7864398D01*
X24190706Y7865770D01*
X24194516Y7867446D01*
X24197868Y7869478D01*
X24200764Y7871866D01*
X24203152Y7874660D01*
X24205031Y7877708D01*
X24206403Y7881010D01*
X24207216Y7884515D01*
X24207470Y7888376D01*
X24207165Y7892338D01*
X24206250Y7895945D01*
X24204777Y7899196D01*
X24202644Y7902092D01*
X24200104Y7904480D01*
X24197106Y7906308D01*
X24193652Y7907629D01*
X24189690Y7908442D01*
X24188928Y7900060D01*
X24191671Y7899400D01*
X24194008Y7898536D01*
X24195989Y7897368D01*
X24197564Y7895945D01*
X24198681Y7894320D01*
X24199494Y7892491D01*
X24199951Y7890408D01*
X24200002Y7886242D01*
X24199088Y7882788D01*
X24197360Y7879791D01*
X24194922Y7877251D01*
X24191722Y7875168D01*
X24187556Y7873542D01*
X24185118Y7872831D01*
X24179733Y7871917D01*
X24172418Y7871612D01*
X24174450Y7872984D01*
X24176278Y7874660D01*
X24177904Y7876540D01*
X24179276Y7878673D01*
X24180393Y7881010D01*
X24181206Y7883448D01*
X24181663Y7885988D01*
X24181816Y7888579D01*
X24181409Y7892897D01*
X24180241Y7896809D01*
X24178260Y7900365D01*
X24175466Y7903565D01*
X24172011Y7906359D01*
X24168049Y7908340D01*
X24163528Y7909559D01*
G37*
G36*
X24439372Y7909915D02*
G01*
X24436070Y7909712D01*
X24433022Y7909052D01*
X24430228Y7907934D01*
X24427688Y7906410D01*
X24425554Y7904429D01*
X24423827Y7902092D01*
X24422404Y7899349D01*
X24421338Y7896250D01*
X24420220Y7898841D01*
X24418950Y7901025D01*
X24417426Y7902905D01*
X24415750Y7904378D01*
X24413768Y7905597D01*
X24411635Y7906461D01*
X24409298Y7906969D01*
X24406860Y7907121D01*
X24403100Y7906816D01*
X24399595Y7905750D01*
X24396496Y7904022D01*
X24393652Y7901584D01*
X24391315Y7898434D01*
X24389638Y7894878D01*
X24388673Y7890916D01*
X24388334Y7886344D01*
X24395430Y7886344D01*
X24395633Y7888731D01*
X24396242Y7890967D01*
X24397309Y7892948D01*
X24398732Y7894726D01*
X24400459Y7896148D01*
X24402338Y7897164D01*
X24404421Y7897774D01*
X24406606Y7898028D01*
X24409044Y7897774D01*
X24411178Y7897164D01*
X24413108Y7896148D01*
X24414734Y7894726D01*
X24416156Y7893050D01*
X24417223Y7891068D01*
X24417832Y7888833D01*
X24418019Y7886547D01*
X24425148Y7886547D01*
X24425402Y7889494D01*
X24426164Y7892186D01*
X24427434Y7894574D01*
X24429212Y7896758D01*
X24431396Y7898485D01*
X24433834Y7899755D01*
X24436578Y7900568D01*
X24439626Y7900771D01*
X24443182Y7900365D01*
X24446738Y7899044D01*
X24449887Y7896859D01*
X24451208Y7895488D01*
X24452326Y7893913D01*
X24453646Y7890256D01*
X24454002Y7888325D01*
X24454104Y7886344D01*
X24453850Y7883296D01*
X24453088Y7880553D01*
X24451818Y7878064D01*
X24450040Y7875879D01*
X24447906Y7874101D01*
X24445468Y7872831D01*
X24442775Y7872120D01*
X24439880Y7871815D01*
X24436832Y7872069D01*
X24434088Y7872831D01*
X24431650Y7874152D01*
X24429466Y7875879D01*
X24427586Y7878216D01*
X24426214Y7880705D01*
X24425402Y7883550D01*
X24425148Y7886547D01*
X24418019Y7886547D01*
X24417832Y7883906D01*
X24417223Y7881670D01*
X24416156Y7879689D01*
X24414734Y7877962D01*
X24413108Y7876489D01*
X24411228Y7875473D01*
X24409146Y7874863D01*
X24406860Y7874660D01*
X24404523Y7874863D01*
X24402440Y7875524D01*
X24400459Y7876641D01*
X24398732Y7878165D01*
X24397309Y7879943D01*
X24396242Y7881874D01*
X24395633Y7884007D01*
X24395430Y7886344D01*
X24388334Y7886344D01*
X24388673Y7882077D01*
X24389638Y7878064D01*
X24391315Y7874457D01*
X24393652Y7871358D01*
X24396598Y7868869D01*
X24399798Y7867142D01*
X24403304Y7866075D01*
X24407114Y7865770D01*
X24409450Y7865922D01*
X24411686Y7866380D01*
X24413768Y7867192D01*
X24415750Y7868310D01*
X24417426Y7869732D01*
X24418950Y7871510D01*
X24420220Y7873644D01*
X24421338Y7876184D01*
X24422608Y7873085D01*
X24424182Y7870393D01*
X24426062Y7868107D01*
X24428196Y7866278D01*
X24430736Y7864703D01*
X24433479Y7863586D01*
X24436425Y7862925D01*
X24439626Y7862671D01*
X24444096Y7863128D01*
X24448211Y7864348D01*
X24451868Y7866430D01*
X24455120Y7869326D01*
X24457914Y7872730D01*
X24459895Y7876743D01*
X24461063Y7881264D01*
X24461470Y7886344D01*
X24461063Y7891373D01*
X24459895Y7895894D01*
X24457914Y7899908D01*
X24455120Y7903362D01*
X24451767Y7906207D01*
X24448008Y7908290D01*
X24443893Y7909509D01*
G37*
M02*
